<?xml version="1.0" encoding="UTF-8"?> <svg xmlns="http://www.w3.org/2000/svg" xmlns:xlink="http://www.w3.org/1999/xlink" version="1.1" id="Layer_1" x="0px" y="0px" viewBox="0 0 1000 1000" style="enable-background:new 0 0 1000 1000;" xml:space="preserve"> <path id="Shape_00000040541709403781856770000002505458042668340373_" style="fill:#EA3358;" d="M385.2,783.4 c2.4-3.3,3.6-7.3,3.6-11.4c0-5.8-2-10.8-6.1-14.8c-4.1-4.1-9-6.1-14.8-6.1h-26v65.1h10.7v-23.7h12.6l13.8,23.7h11.7l-14.8-25.3 C379.6,789.4,382.9,786.8,385.2,783.4L385.2,783.4L385.2,783.4z M367.8,782.9h-15.3v-21.8h15.3c2.8,0,5.4,1.1,7.3,3.2 c4,4.4,4,11.1,0,15.4C373.2,781.8,370.6,782.9,367.8,782.9L367.8,782.9z M443.6,788.1c-1.1-1.2-2.2-2.2-3.4-3.3 c-1.1-0.9-2.6-1.7-4.7-2.6c-2.1-0.9-3.7-1.5-4.8-1.9c-1.1-0.4-3-1-5.4-1.8c-5-1.5-8.4-3-10.3-4.4c-1.8-1.3-2.9-3.5-2.8-5.7 c0-2.5,0.9-4.4,2.8-5.9s4.3-2.2,7.4-2.2c6.4,0,10.9,3,13.7,9.1l9-5.2c-2-4.3-5.1-7.9-9-10.5c-3.9-2.5-8.5-3.8-13.7-3.8 c-5.8,0-10.7,1.7-14.8,5.1c-4.1,3.4-6.1,7.9-6.1,13.7c0,2.9,0.5,5.5,1.6,7.6c1.1,2.2,2.7,4.1,4.8,5.4c1.9,1.3,4,2.5,6.1,3.4 c2.5,1,5,1.9,7.5,2.6c5.5,1.7,9.4,3.2,11.5,4.6c2.2,1.4,3.3,3.4,3.3,6.1c0.1,2.4-1.1,4.7-3,6.2c-2,1.6-5,2.4-9.1,2.4 c-8.2,0-13.6-3.7-16.2-11l-9.2,5.4c1.6,4.8,4.9,9,9.2,11.7c4.4,2.9,9.7,4.3,15.9,4.3c6.9,0,12.4-1.7,16.7-5.2 c4.2-3.4,6.4-8.1,6.4-14c0-1.9-0.2-3.8-0.7-5.7C445.6,790.9,444.8,789.4,443.6,788.1L443.6,788.1z M454.8,761.3h18.4v54.8h10.7 v-54.8h18.3v-10.2h-47.4V761.3L454.8,761.3z M253.6,816.2h13.2v-32.6h32.7V771h-32.7v-22.5h33.8v-12.6h-47V816.2L253.6,816.2z M313.7,816.2h10.7v-65.1h-10.7V816.2z M613.7,788.4h26v-10.1h-26v-16.9H642v-10.2h-39v65.1h39.5v-10.2h-28.8V788.4L613.7,788.4z M805,749.9c-9.4,0-17.4,3.3-23.9,9.8s-9.8,14.5-9.8,23.9s3.3,17.4,9.8,23.9s14.5,9.8,23.9,9.8s17.4-3.3,23.9-9.8s9.8-14.5,9.8-23.9 s-3.3-17.4-9.8-23.9S814.5,749.9,805,749.9L805,749.9L805,749.9z M821.4,800.3c-4.4,4.4-9.9,6.6-16.4,6.6s-12-2.2-16.4-6.6 c-4.4-4.4-6.6-10-6.6-16.7s2.2-12.3,6.6-16.7c4.4-4.4,9.9-6.6,16.4-6.6s12,2.2,16.4,6.6c4.4,4.4,6.6,10,6.6,16.7 C828.1,790.3,825.9,795.9,821.4,800.3L821.4,800.3z M700.2,783.4c2.4-3.3,3.6-7.3,3.6-11.4c0-5.8-2-10.8-6.1-14.8 c-4.1-4.1-9-6.1-14.8-6.1h-26v65.1h10.7v-23.7h12.6l13.8,23.7h11.7l-14.8-25.3C694.6,789.4,697.9,786.8,700.2,783.4L700.2,783.4z M682.9,782.9h-15.3v-21.8h15.3c2.8,0,5.4,1.1,7.3,3.2c4,4.4,4,11.1,0,15.4C688.3,781.8,685.6,782.9,682.9,782.9L682.9,782.9 L682.9,782.9z M758.6,788.1c-1.1-1.2-2.2-2.2-3.4-3.3c-1.1-0.9-2.6-1.7-4.7-2.6c-2.1-0.9-3.7-1.5-4.8-1.9s-3-1-5.4-1.8 c-5-1.5-8.4-3-10.3-4.4c-1.8-1.3-2.9-3.5-2.8-5.7c0-2.5,0.9-4.4,2.8-5.9c1.9-1.5,4.3-2.2,7.4-2.2c6.4,0,10.9,3,13.7,9.1l9-5.2 c-2-4.3-5.1-7.9-9-10.5c-3.9-2.5-8.5-3.8-13.7-3.8c-5.8,0-10.7,1.7-14.8,5.1c-4.1,3.4-6.1,7.9-6.1,13.7c0,2.9,0.5,5.5,1.6,7.6 c1.1,2.2,2.7,4.1,4.8,5.4c1.9,1.3,4,2.5,6.1,3.4c2.5,1,5,1.9,7.5,2.6c5.5,1.7,9.4,3.2,11.5,4.6c2.2,1.4,3.3,3.4,3.3,6.1 c0.1,2.4-1.1,4.7-3,6.2c-2,1.6-5,2.4-9.1,2.4c-8.2,0-13.6-3.7-16.2-11l-9.2,5.4c1.6,4.8,4.9,9,9.2,11.7c4.4,2.9,9.7,4.3,15.9,4.3 c6.9,0,12.4-1.7,16.7-5.2c4.2-3.4,6.4-8.1,6.4-14c0-1.9-0.2-3.8-0.7-5.7C760.7,790.9,759.8,789.4,758.6,788.1L758.6,788.1 L758.6,788.1z M565.3,735.9h-29.6v80.3h13.2v-27.5h16.4c7.6,0,13.9-2.5,19-7.6s7.6-11.3,7.6-18.7c0-7.5-2.5-13.8-7.6-18.8 C579.2,738.4,572.9,735.9,565.3,735.9L565.3,735.9z M574.9,772.3c-2.5,2.6-5.7,4-9.6,4h-16.4v-28h16.4c3.9,0,7.1,1.3,9.6,4 c2.5,2.6,3.8,6,3.8,10S577.5,769.7,574.9,772.3L574.9,772.3L574.9,772.3z M891.6,751.1v44.2l-30.7-44.2h-8.4v65.1h10.7V772 l30.7,44.2h8.4v-65.1L891.6,751.1L891.6,751.1z"></path> <path id="Path-5_00000070797526694466132510000000040002632244785069_" style="fill-rule:evenodd;clip-rule:evenodd;fill:#EA3358;" d=" M143.8,718.8c31.9-17.1,73.2,0.9,76.3,44.4C160.9,767.8,153.8,741.1,143.8,718.8z"></path> <path id="Path-7_00000149367024305364704460000002479639474513150353_" style="fill-rule:evenodd;clip-rule:evenodd;fill:#EA3358;" d=" M147.3,826.6c31.9,17.1,73.2-0.9,76.3-44.4C164.3,777.6,157.2,804.3,147.3,826.6z"></path> <g> <path style="fill:#EA3358;" d="M176.9,422.7c16.1-15.4,31.4-31.7,45.8-48.6c5.6,0.9,10.9,1.7,15.8,2.4c5.3,0.7,10.6,1.1,15.9,1.2 c-2,10.5-2.5,21.1-1.5,31.7c1.1,9,4,16.2,8.6,21.3c4.5,5,11,7.9,17.7,7.9h1.4c7.3-0.5,12.8-2.8,16.2-7.1c3.2-4.1,4.5-9.4,3.6-14.5 v-1.6l-1.3-1.4c-0.8-0.8-2-1.3-3.2-1.3c-1.1,0-2.2,0.4-3.2,1c-1.3,0.8-2.7,1.3-4.1,1.5c-4.5,0-6.8-6.7-7.1-9.2 c-0.4-4.5-0.3-9,0.3-13.4c0.6-4.4,1.3-9.2,2.2-14.2c1.7-0.1,3.5-0.2,5.3-0.3c2.9-0.1,5.5-0.3,7.7-0.5c1.2-0.1,2.4-0.3,3.5-0.6 c2.2-0.4,4.3-1,6.3-1.8c2.5-1,4.7-2.5,6.5-4.5c2.3-2.6,3.4-6,3-9.5c-0.5-6.3-6.1-12.4-10.1-12.4h-0.4c-2.1,0.2-3.8,1.9-4,3.9 c-0.6,3.3-5.4,6.2-13.3,7.7l-0.6,0.1c2.5-9.9,5.6-20.2,9.1-30.9c4.1-12.3,8.1-24.3,12.2-35.5L320,264c2-5.7,3.4-10.5,4.5-14.3 c0.6-2.1,1.2-4,1.6-5.4c2.5-7.4,2.4-13.7-0.3-18.8c-2.1-3.9-5.7-6.8-10-7.9c-3.9-1.1-7.9-1.6-11.9-1.7l0.1,0.1c-1,0-2,0-3,0.1 c-2.5,0.2-6.8,2.9-6.6,7.4c0.1,1.3,0.5,2.6,1.3,3.7c-3,4.3-7.2,10.2-12.5,17.8c-6.5,9.3-14.4,20.2-23.6,32.5 c-9.2,12.3-19.3,25.7-30.2,39.8c-10.5,13.7-21.3,27.4-32.1,40.8H196c-4.6,0-9.1,0-13.5,0.1c-5.6,0.1-11.4,0.4-17.2,1 c-14.3,1.5-28.3,4.5-42,9c-14.4,4.5-28.3,10.8-41.2,18.7c-11.7,7.2-22.1,16.4-30.6,27.2c-8.3,10.4-17.1,26.1-11.4,42.1 c4.7,13.3,17.9,21.5,28.8,23.8c3.4,0.7,6.9,1.1,10.3,1.1c11.5,0,21-4.1,27.3-6.8c11.1-5.1,21.5-11.3,31.2-18.6 C151.7,445.4,164.7,434.4,176.9,422.7z M234.2,360.3c7.2-8.5,14.7-17.6,22.4-27.2c4.3-5.3,8.7-11,13.2-16.8 c-1.5,4.5-2.8,9-4.2,13.4c-3.4,11.4-6.2,22.3-8.4,32.5l-14.9-1.1C239.4,360.9,236.7,360.6,234.2,360.3L234.2,360.3z M99.4,456.4 c-4.3,2.4-14,6.5-22.8,6.5l0,0c-3.5,0.2-7.1-0.8-10-2.8c-2.2-2.1-3.5-5-3.7-8c-0.4-5.1,1.4-13.8,12.4-25.6 c6.4-7.3,13.6-13.8,21.4-19.6c7.6-5.4,15.7-10,24.1-13.9c6.4-3,13-5.6,19.7-7.9c7.9-2.4,15.7-4.6,23.4-6.6 c6.6-1.8,13.3-3.1,20.1-3.8c-23.1,27.8-43.6,49.5-60.8,64.6C116,445.8,108,451.6,99.4,456.4z"></path> <path style="fill:#EA3358;" d="M796.8,564.9c1.1-4.1,1.7-6.9,2-8.6c4.3-15.3,9.5-31.9,15.2-49.3c4.7-14.5,12-37,14.3-44.4 c15.4-3,26.7-7.3,35.4-13.6c4.3-3.1,7-6.6,8.5-10.1c13.4-5.1,24.9-10.9,34.3-17.3c13-8.8,29-23.7,31.7-44.4 c1.3-10.1-0.7-20.4-5.8-29.3c-4.4-7.9-10.7-14.1-17.4-17.2c-6.7-3.2-14-4.9-21.4-4.9c-10.4,0.1-20.5,3.6-28.7,10 c-4.2,2.9-8.9,7.5-14.7,14.6c-6.5,7.9-10.2,11.7-14.7,12.3c-0.3,0-0.5,0-0.7-0.1c-0.2-0.5-0.3-2,1.1-6.3l0.1-0.3 c1-3,2.1-5.9,3.3-8.8l4.1-9.3l1.2-2.6c2.5-5.3,5-10.9,7.5-16.6c2.5-5.1,4-10.6,4.3-16.2c0.1-4.8-1.1-8.6-3.6-11.3 c-2.4-2.5-5.7-4.1-9.2-4.4c-0.7-0.1-1.5-0.1-2.2-0.1c-2.8,0-5.5,0.5-8.1,1.5c-3.2,1.1-6.2,2.7-8.8,4.8l-0.1,0.1l-0.1,0.1 c-2.2,2-6.7,6.3-13.4,12.6c-1.4,1.3-2.7,2.7-4.1,4.2c0.4-2.2,0.6-4.4,0.6-6.7c0.1-6.6-2.9-9.5-5.5-10.7c-2.2-1-4.6-1.6-7.1-1.6 h-1.5c-3.4,0.4-6.6,1.3-9.7,2.8c-3.6,1.7-6.9,3.5-6.9,6.9c0.2,2.2,1.3,4.2,3.1,5.5c0.3,0.5,0.3,1,0.3,1.6c-0.1,1.8-0.5,3.6-1,5.4 c-0.8,3-1.6,5.9-2.4,8.7c-0.9,2.9-1.8,6.1-2.9,9.5c-1.1,3.3-2.1,6.1-3.1,8.5l-4.7,12.4c-0.9,2.4-1.7,4.9-2.3,7.4 c-0.3,1.3-0.5,2.6-0.7,3.9c-1.7,2.5-3.7,4.8-5.8,6.9c-1.3,1.4-3.1,2.4-4.9,2.7c-0.3-1.5-0.3-3,0-4.5c0.3-2.1,0.7-4.2,1.5-6.2 c1.1-2.9,2.3-6,3.8-9.3c1.4-3.3,2.9-6.6,4.2-9.6c1.5-3.3,2.5-5.7,3.2-7.4c2.2-6,3.2-10.1,3.3-13c0-1.4-0.1-2.8-0.3-4.2 c1.1-0.7,2-1.7,2.4-2.9c2.3-7.2-0.7-15-7.3-18.7c-4.7-2.5-9.9-3.8-15.2-3.7c-2,0-4.1,0.2-6.1,0.5c-6.1,0.8-21.8,4.3-36.7,20 c-17.4,18.3-23.1,34.8-24.6,40.3l-0.1,0.1c-3,3.4-6.3,6.9-9.9,10.4c-3.5,3.4-7.2,6.6-11.1,9.5c-3.5,2.6-7.3,4.9-11.3,6.8 c-3.2,1.6-6.6,2.6-10.1,3h-0.2l-2.3,0.2h-0.6c-1.3,0-2.5-0.3-3.7-0.8c-1.5-0.7-2.8-1.8-3.6-3.3c-0.4-0.7-1.3-3-0.2-8.8 c0.5-1.8,1.2-4.1,2.1-6.9c0.9-2.7,2.1-5.7,3.4-8.7c1.3-3,2.8-6,4.5-8.8c1.6-2.8,3.4-5.5,5.3-8V339c2.8-4.5,6.2-8.6,10-12.3 c2.3-2.2,4.9-4.2,7.7-5.9c1.7-1.1,3.6-1.8,5.6-1.9h0.5c0.5,0,1,0.1,1.4,0.3c0,0.1,0,0.2,0,0.4v0.2c-0.3,1.5-0.9,2.9-1.7,4.2 c-1.1,1.8-2.3,3.5-3.6,5.1c-1.6,1.8-3,3.5-4.2,5.1c-1.3,1.5-2.3,3.2-2.9,5.1L655,341l0.8,1.6c1.6,2.4,4.4,3.8,7.2,3.6h0.6 c4.1-0.1,8.1-1.4,11.6-3.5c2.6-1.6,4.9-3.8,6.6-6.3c1.7-2.4,3-5.1,3.8-7.9V328c1.5-5.9,0.5-12.1-2.6-17.3c-3-4.6-8.7-7-16.9-7 c-1.2,0-2.4,0-3.6,0.1h-0.1c-7.8,0.8-15.2,3.6-21.7,8.1c-6.8,4.6-12.8,10.1-18,16.4c-5.1,6.2-9.5,12.9-13.1,20.1 c-3.3,6.1-5.4,12.8-6.4,19.7c-0.5,2.9-0.6,5.8-0.5,8.8c-1.8,2.6-3.7,5-5.8,7.3c-3.2,3.6-5.4,4.5-6.7,4.6h-1.4c0-0.8,0-1.5,0.2-2.3 c4.4-11.6,8.1-21.1,10.9-28.6c2.8-7.3,5-13.3,6.7-17.8c1.6-4.5,2.7-7.5,3.4-9.3l0.2-0.6c0.8-2.2,1.3-4.4,1.6-6.8 c0.6-5.1-1.6-9.8-5.4-11.8c-2.2-1.1-4.7-1.7-7.2-1.7c-0.6,0-1.1,0-1.7,0.1c-1.5,0.2-3,0.4-4.5,0.8c-1.8,0.4-3.6,0.9-5.3,1.6 c-1.6,0.6-3.1,1.3-4.6,2.2c-1.6,0.8-2.8,2.2-3.5,3.8c-0.3-1.8-1.2-3.5-2.4-4.8c-1.7-1.7-3.9-2.6-6.3-2.6c-2.9,0.1-5.7,1.1-8,2.9 l-0.2,0.2c-2.4,1.8-4.9,3.3-7.6,4.5c-1.8,0.8-3.7,1.5-5.7,2c-1.1,0.2-2.2,0.4-3.3,0.4c-0.7,0-1.5-0.1-2.2-0.3 c2.9-5.1,5.4-10.4,7.5-15.9c2.8-7.9,3.3-13.4,1.7-17.5c-1.7-4-5.7-6.6-10-6.5l-0.3,0.1h-0.3c-8.1,0.2-15.1,4.4-20,12.3 c-4,6-6.2,13-6.5,20.2c-0.1,3.9,0.6,7.9,2,11.5c0.7,1.9,1.6,3.8,2.7,5.5l-2.9,6.1l-6.6,13.9l-1.9,3.9l-0.6,1.3 c-4.3,9.3-9.6,18.2-15.6,26.5c-0.1,0.2-13.5,17.7-30.4,19.1c-0.5,0-1.9,0.2-3.6,0.2c-2.6,0.1-5.2-0.3-7.6-1.2c-2.2-0.9-3.3-3.4-3-7 c0.4-3.4,1.1-6.8,2.1-10.1c6.3-0.7,12.6-1.9,18.8-3.6c6.5-1.8,12.7-4.5,18.5-7.9c5.6-3.3,10.5-7.7,14.4-12.9 c1.9-2.6,6.5-9.5,7.2-17.4c0.6-5.3-1-10.6-4.5-14.6c-3.6-3.9-8.9-5.9-15.8-5.9c-1.2,0-2.4,0-3.6,0.2c-8.6,0.9-16.9,4.1-23.8,9.3 c-7.1,5.3-13.4,11.5-18.7,18.6c-5.2,6.9-9.6,14.3-13.1,22.1c-3,6.2-4.9,12.9-5.8,19.7c-0.9,1.4-1.7,2.6-2.6,3.8 c-2.1,3.1-4.5,5.9-7.2,8.5c-1.6,1.5-3.6,2.6-5.8,3c-1-2.1,0.3-5.5,1.2-8l0.4-1.2c1-2.8,13-31,16.1-38c2.3-5,3.8-10.3,4.3-15.8 c0.6-6.5-3.1-12.7-9.1-15.3c-2.1-0.9-4.4-1.4-6.8-1.3c-3.8,0-7.4,1.1-10.7,3c-2.8,1.7-5.5,3.8-7.9,6.1c-1.8,1.6-3.5,3.4-5.2,5.2 c-2.1-6.5-8.2-10.9-15-10.7c-4.7,0.1-9.2,1.6-13,4.2c-3.5,2.4-6.6,5.4-9.1,8.8c-0.2-3.1-1.9-5.9-4.5-7.6c-2-1.1-4.3-1.7-6.6-1.7 c-0.6,0-1.2,0-1.9,0.1c-3.1,0.4-6,1.2-8.8,2.5c-2.3,1-7,3-7.1,7.1c0.1,2.3,1.3,4.4,3.2,5.7c0.2,0.7,0.3,1.3,0.2,2 c-0.2,1.7-0.5,3.4-1,5c-0.8,2.7-1.6,5.7-2.6,8.8c-1.1,3.1-2.1,6.5-3.2,9.5s-2.1,5.8-3.1,7.9v0.1c-0.3,0.7-6.4,16.2-7.6,19.7 l-0.2,0.6c-1.4,4-5.2,14.7,1.1,22.5c3,3.8,7.7,6,12.5,5.9c0.7,0,1.4,0,2-0.1c1.9-0.2,3.7-0.8,5.2-1.8c3-1.9,3.4-5.8,3.5-9 c0.1-7.7,1.5-15.2,4.2-22.4c2.6-7.2,5.8-14.2,9.5-21c3-5.5,6.3-10.8,10-15.8c1.4-1.8,2.5-3.2,3.3-4.2c-1.7,4.4-3.5,9.5-5.4,15.4 c-2,6.2-3.9,12.9-5.7,19.8c-1.7,6.4-2.7,12.9-3,19.5c0,1.6,0.1,3.2,0.3,4.8c0.3,2.2,1.1,4.3,2.4,6.1c1.6,2.1,3.9,3.6,6.5,4.3 c1.9,0.5,3.8,0.8,5.8,0.7c1.2,0,2.4,0,3.5-0.2c1.2-0.1,2.4-0.6,3.4-1.2c2.1-1.2,3.4-3.5,3.3-5.9c0-1.2,0-2.5-0.1-4.1 c-0.1-1.5-0.1-3.1,0-4.6c0.2-5.6,0.8-11.3,1.8-16.8c1.7-8,4.6-15.6,8.6-22.8c3-4.4,6.3-8.6,9.9-12.6c2.4-2.6,4.9-5,7.6-7.3l0.9-0.7 l-0.1,0.3c-0.6,1.5-1.5,3.4-2.6,5.7c-5.1,10.8-9.3,22-12.5,33.5c-1.8,6.1-2.5,12.6-1.8,18.9c1.3,8.9,8.2,14.2,18.3,14.2 c0.9,0,1.8,0,2.7-0.1c5.1-0.8,9.9-2.9,14-6.2c3-2.4,5.9-5,8.5-7.9c4.5,6,12.7,9.5,23.7,9.7h0.3c5.2-0.1,10.4-1,15.3-2.5 c6.2-1.9,12.2-4.6,17.7-8c16.4-10.3,27.3-29,31.2-36.5c2.5-4.8,5.4-10.4,8.7-17c2.7-5.4,5.8-11.1,9.1-16.8c1.3,0.4,2.7,0.7,4.1,0.9 c-0.8,1.3-1.6,2.6-2.4,4.1c-2.4,4.4-4.6,8.9-6.4,13.5c-2.1,5.2-3.8,10.5-5.2,15.9c-1.4,5.6-2.3,11.4-2.7,17.1v0.3 c-0.1,18.7,14.5,20.4,18.9,20.4h0.4c8.9,0,16.8-3.8,23.6-11.3l0.3-0.4l0.3-0.3c0.6,1.2,1.3,2.3,2.2,3.3c3.4,4,8.6,4.4,12.2,4.4h2.1 c4.4-0.2,12.8-2.2,17.4-5.5c3.4-2.3,6.4-5.1,9.1-8.2c0.5,0.6,1,1.2,1.6,1.7c2.8,3,6.4,5.1,10.3,6.3c2.8,0.9,5.8,1.3,8.7,1.3 c1,0,2,0,3-0.1c12-1,23.4-5.5,33-12.9c4.7-3.6,9.1-7.5,13.3-11.7c0.9,10.1,9.3,17.8,19.4,17.9h1.3c6.1-0.6,11.9-2.8,16.9-6.4 c4.4-3.1,8.3-6.8,11.7-10.9c0.4,3.4,1.9,6.5,4.3,9c3,2.9,7.1,4.5,11.3,4.3c0.8,0,1.6,0,2.4-0.1c5.1-0.5,10.1-2.2,14.3-5.1 c2-1.4,4-2.9,5.8-4.5c1.6,2.9,4.9,6.4,12,6.4c0.8,0,1.6,0,2.4-0.1c1.4-0.2,2.8-0.6,4.1-1.2c4-1.7,4.6-5.9,4.9-8.4 c0-0.5,0.1-1.1,0.2-1.6c0.8-3.4,1.7-6.8,2.9-10.1c1.5-4.4,3.4-9.3,5.6-14.8c2.3-5.7,5-11.2,8.2-16.4c3.4-5.6,7.4-10.8,12-15.5 c3.2-3.2,6.6-6.2,10.1-8.9c-0.7,1.6-1.4,3-1.8,3.8c-0.4,0.8-0.8,1.7-1,2.2c-5.3,10.7-9.6,21.9-12.8,33.4c-4,15.5-3.4,23.6,2.3,28.9 c2.7,2.5,6.9,3.9,12.3,3.9c1.8,0,3.6-0.1,5.3-0.4c7.4-1.1,13.6-4.1,20.1-9.9c3.6-3.4,7-7.1,10.1-11.1c1.8-2.2,3.7-4.5,5.6-6.6 c4.5-4.3,10.5-6.7,16.7-6.7h0.5c10.2,0.2,17.2,6.1,18.2,15.4c2,17.9-17.6,42.5-64.8,57.3c1.1-5.5,2-10.2,2.1-12.2 c0.4-4.1-0.9-8.1-3.6-11.1c-2.7-2.9-6.8-4.4-12.1-4.4c-2.4,0-4.9,0.3-7.3,0.7h-0.4c-9.5,1.6-15.4,4.7-17.2,6.4 c-1.6,1.3-2.2,3.5-1.6,5.5c0.6,1.8,2.2,3.1,4.1,3.4c1.4,0.4,2.6,0.8,3.7,1c0.1,0.7,0.2,1.3,0.2,2c0,4.2-0.6,8.4-1.6,12.4 c-0.3,1.6-0.7,3.3-1.1,5.1c-6.7,1.5-13.3,2.8-19.8,4c2.2-8.3,3.9-15.5,4.1-19.5c0.5-4.1-0.8-8.2-3.5-11.3c-2.7-2.9-6.7-4.3-12-4.3 c-2.7,0-5.3,0.3-8,0.9c-5.8,1.1-15,4.4-17.1,6.3c-1.6,1.3-2.2,3.5-1.6,5.5c0.6,1.8,2.2,3.1,4.1,3.4c1.4,0.4,2.6,0.8,3.7,1 c0.1,0.7,0.2,1.3,0.2,2c0,4.2-0.6,8.4-1.6,12.4c-0.6,2.7-1.3,5.6-2,8.7c-17.9,2.1-36,3.2-55.6,3.6c0.3-2.1,0.5-4.3,0.5-6.5 c0-7.5-2-13.3-6-17.4s-9.5-6-16.5-6c-1.7,0-3.3,0.1-5,0.3h-0.1c-7.8,1.1-15.2,3.9-21.6,8.4c-6.4,4.4-12.2,9.6-17.2,15.6 c-1.2,1.4-2.3,2.7-3.4,4.2c-22.2-1-46.6-2.4-73.9-4l-26.4-1.6l-2.1-0.1c-30-1.7-64-3.7-100.1-3.7c-54.4,0-100.4,4.6-140.7,14 c-51.2,12-93.8,32.4-126.7,60.7c-20.8,18.1-45.2,44.8-43.5,69.6c0.3,15,12.7,27,27.7,26.7c6.7-0.1,13.2-2,18.9-5.3l8.1-5l-9.1-2.9 c0,0-6.5-2.2-8.9-7.9c-1.8-4.2-1-9.5,2.1-15.9c11.4-22.8,29.8-43.5,56.2-63.4c22.3-16.8,49.1-28.4,81.8-35.8 c3.3-0.7,6.7-1.4,10.1-2.1l10.9,5.2l0.9,0.4c8.5,4,34.4,16.1,34.3,41.2c0.2,8.1-1.2,16.1-4.2,23.7c-3.3,8.1-8.1,15.5-14.1,21.9 c-6.5,6.9-14.1,12.8-22.5,17.2c-9,4.8-18.8,7.7-29,8.7c-3,0.3-6.1,0.5-9.2,0.5h-0.2c-1.2,0-2.5-0.1-3.7-0.3 c7-27.1,22.1-94.8,24.6-107.9c0.3-1.4-0.1-2.8-1-3.9c-1-1.1-2.4-1.8-3.9-1.7c-4.3,0-19.5,7.1-28.5,11.4c-2.4,0.9-3,3.6-3.3,4.9 c-0.3,1.2-0.5,2.7-0.9,4.7c-0.6,3.8-1.3,9-2,14.5c-1.1,8.5-2.4,18.1-3.5,24.3c-2.3,12-5,25.3-8.3,39.3c-3.4-3.9-5-8.9-4.4-14 l0.5-5.3l-5.3,0.6c-3.6,0.4-6.8,3.5-7.9,4.7c-5.9,6.6-7.2,20.2,0.7,31.7c2.8,3.7,6.1,6.9,9.9,9.6c-1.9,7.3-3.5,13.4-5,18.7 c-1.8,6.5-3.3,12.2-4.6,17.4s-2.4,10.4-3.2,15.6c-1,5.3-1.2,10.8-0.7,16.2c3.2,22.9,14.5,27.6,15.8,28c2.1,0.8,4.4,1.3,6.7,1.3 c0.4,0,0.8,0,1.3,0c2.7-0.1,4.9-2.3,4.8-5.1v-0.1c-0.1-2.9-0.6-5.7-1.7-8.3c-0.3-0.7-0.6-1.4-0.8-2.1c-0.2-5,0.7-13.1,2.9-23.8 c2.2-11.1,6-26.4,11.3-45.8c1.2,0.1,2.5,0.2,3.7,0.2c34.7,47.5,76.8,81.8,125.1,101.9c33.4,13.7,69.2,20.9,105.3,21h3.3 c32.6,0,65.4-4.9,92.5-13.9c12.1-4,40.6-14.9,43-28.9c1-4.8-0.3-9.8-3.4-13.5c-4.2-5-11.7-7.9-20.3-7.9c-6.1,0-11.5,1.6-14.7,4.4 l-4.5,3.9l5.1,3.2c4.3,2.7,3.8,4.4,3.6,5c-1.2,4.3-11.2,11.3-30.7,17.4c-21.4,6.3-43.7,9.5-66,9.5c-7.7,0-15.5-0.4-23.1-1.3 c-20.7-2.4-48.4-7.2-80.1-23.2c-32.7-16.6-64.7-42.4-97.5-78.7c8.8-2.2,17.4-5.4,25.6-9.5c10.9-5.5,20.6-13.2,30.7-24.3 c6.8-7.6,12.5-16.1,17-25.3c6.9-14.2,9.5-28.1,7.7-41.3c-4.3-32.5-23.4-40.7-37.4-44.1c-5.4-1.3-11-1.9-16.6-2 c19-2.2,39.9-3.3,63.1-3.3c35.1,0,71.1,2.4,107.8,5.1c45.2,3.3,81.7,5.4,112.6,6.5c-1.3,2.4-2.5,4.8-3.7,7.1 c-9.9-1-19.7-2.6-29.4-4.6c-7.3-1.8-14.7-2.7-22.2-2.9c-7.3-0.2-14.6,1.4-21.2,4.7c-8,4.1-12.9,9.5-14.6,15.9 c-1.3,5.3-0.5,11,2.3,15.7l5,7.8l2.7-8.3c0.4-0.5,2.5-3.3,9.1-6.1c5.9-2.4,14.4-3.7,24.8-3.7c5.1,0,10.2,0.3,15.3,0.8 c6.3,0.7,12.6,1.3,18.8,1.8c-2.8,8.1-10.5,33.4-11.9,39c-1.6,6-3.2,12.6-4.5,19.5s-2.6,14.2-3.5,21.4c-0.5,3.8-0.8,7.8-1,11.6 c-1.2,2.6-2.4,5.1-3.7,7.5c-2.2,4.2-4.9,8.1-8,11.7c-1.7,2.3-4.2,3.8-7.1,4.4h-0.7c-1.3,0-1.7-0.4-2-0.9c-0.8-1.6-1-3.4-0.5-5.1 V606c0.9-4.5,2.2-10,4-16.3s3.7-13,5.8-20.7c2.2-7.8,4.3-15.6,6.3-23.4c2.2-8.1,4.1-16.3,5.7-24.3c2-8.4-3.2-11.6-5.5-12.6 c-2.8-1.2-5.8-1.9-8.8-1.9c-0.7,0-1.4,0-2.1,0.1c-1.7,0.2-3.4,0.6-5.1,1c-2,0.5-3.9,1.1-5.7,1.8c-1.9,0.7-3.7,1.6-5.4,2.7 c-1,0.7-3.9,2.7-3.7,6c0.2,2.6,1.6,5,3.6,6.6c0.5,0.9,0.8,1.9,0.7,2.9c-0.2,1.8-0.6,3.5-1.1,5.2c-0.8,3.4-1.8,7.3-3,11.7 c-1.2,4.3-2.6,9.2-3.9,14c-1.6,5.1-2.7,9.3-3.7,12.7l-4.2,13.6c-6.4,9.5-11.9,17.6-16.5,24.1c-3.8,5.4-7.8,8.4-11.9,8.8 c-0.3,0-0.6,0-1,0c-1.4,0-2.8-0.3-4-1c-1.1-0.6-1.4-2.8-1.5-4.1c-0.1-1.9,0.2-5.7,2.1-13.4c1.6-6.5,3.5-13.3,5.6-20.3 c2.1-6.9,4-13.2,5.9-19.1c2-6.1,3-9.5,3.5-10.9c1.5-4.6,2.8-9.2,3.8-13.9c0.4-2.3,0.6-4.7,0.6-7.1c-0.3-5.7-2.2-9.8-5.6-12.1 c-2.6-1.7-5.7-2.6-8.8-2.6c-0.7,0-1.4,0-2.1,0.1c-3.9,0.5-7.7,1.6-11.3,3c-2.8,1.1-9.3,3.5-9.1,8.9c0.2,3.3,3.2,5.5,4,6.3 c0.2,0.2,0.7,1,0.7,2.7c0.1,5.2-0.7,10.4-2.4,15.4l-0.3,1c-2.1,2.5-4.5,4.6-7.2,6.3l-0.6,0.4c0.2-2.8,0.3-5.9,0.3-9.1 c0-5.6-0.8-11.3-2.4-16.7c-1.4-5.2-4.6-9.7-8.9-12.9c-3.5-2.3-7.7-3.5-11.9-3.3c-5.2,0-13.3,1.6-23.2,8.7c-2.4,0.8-4.6,1.7-6.8,2.9 c-3.9,2.2-7.5,4.8-10.7,7.9c-4.7,4.5-8.9,9.5-12.4,14.9c-5,7.5-9.3,15.5-12.8,23.8c-5.3,12.1-8.5,23-9.5,32.3 c-1.1,8.1-0.7,16.3,1.3,24.2c2.1,7.2,5.8,12.5,11.1,15.8c4.3,2.7,9.2,4.1,14.2,4c1.1,0,2.1-0.1,3.2-0.2c7.3-0.6,14.3-3,20.5-6.9 c7.1-4.7,13.5-10.4,18.9-17c6.7-7.6,13.1-18.9,19.1-33.7c1.2-2.6,2.3-5.4,3.2-8.1l1.6-4.9l3.8-1.3c-1.4,4.3-2.7,8.5-3.9,12.7 c-2,6.6-2.9,13.4-2.6,20.3c0.4,7,2.8,13.7,6.9,19.3c4.1,5.9,10.2,8.8,18.3,8.8c1.3,0,2.5-0.1,3.8-0.2c5.9-0.6,11.6-2.5,16.5-5.7 c4.6-2.9,8.8-6.5,12.3-10.7c1.4-1.6,2.7-3.2,3.9-4.9c0.7,3.5,2.4,6.7,4.7,9.3c2.9,3.2,8.2,6.9,17.6,6.9h1.2 c10.8-0.3,16.5-5.5,20.7-9.3l0.5-0.4c3.6-3.3,6.9-6.9,9.9-10.8c0.5,1.1,1.1,2.1,1.8,3.1c1.8,2.8,4.1,5.3,6.7,7.4 c2.9,2.4,6.6,3.6,10.3,3.6h0.4c6-0.1,11.8-2,16.6-5.5c5.4-3.7,10.1-8.3,14-13.6l0.1-0.1c1.5,2.4,3.5,4.5,5.9,6.1 c7.3,4.9,15.8,7.5,24.5,7.5h0.3c6.4-0.1,12.7-1.3,18.7-3.3c7.2-2.4,14.1-5.9,20.3-10.4c5.6-4,10.7-8.5,15.4-13.5 c0.3,1,0.6,1.9,0.9,2.8c3.3,9.5,12.5,15.7,22.6,15.2c1.5,0,2.9-0.1,4.4-0.2c5.7-0.7,11-3,15.4-6.7c4.2-3.4,7.9-7.2,11.1-11.5 c3.9,8.3,12.5,13.4,21.6,13c1.5,0,2.9-0.1,4.4-0.2c5.7-0.7,11-3,15.4-6.7c4-3.2,7.5-7,10.6-11.1c1.4,2,3.2,3.8,5.2,5.2 c7.3,4.9,15.8,7.5,24.5,7.5h0.3c6.4-0.1,12.7-1.3,18.7-3.3c7.2-2.4,14.1-5.9,20.3-10.4c6.8-4.8,12.9-10.5,18.3-16.8 c5.8-6.9,10.3-14.8,13.1-23.4c1.3-3.7,1.6-6.3,1-8.4c-0.7-2.7-3.1-4.6-6-4.6h-0.7c-4.3,0.7-7.8,3.9-8.9,8.1 c-1.5,4.5-3.7,8.8-6.4,12.8c-3,4.3-6.6,8.2-10.6,11.5c-4.1,3.4-8.6,6.3-13.4,8.7c-4.2,2.2-8.7,3.6-13.4,4.1 c-1.8,0.2-3.5,0.3-5.3,0.3h-2.5c-2.2,0-4.3-0.5-6.3-1.5c-1.7-0.9-3.2-2.2-4.2-3.8c-1.2-2.3-1.7-4.8-1.5-7.4V564 c0-1.9,0.2-3.9,0.5-5.8c0.2-1.6,0.6-3.1,1.3-4.6l0.1-0.3c7.9-0.9,15.6-2.5,23.2-4.9c7.8-2.4,15.2-5.9,22-10.5 c6.6-4.4,12.2-10.2,16.4-16.9c4.4-7.2,6.7-15.6,6.7-24v-0.3c-0.1-1.9-0.4-3.8-0.8-5.7c-0.6-3.2-2-6.1-4-8.7c-2.4-3.1-5.5-5.5-9.1-7 c-3.4-1.5-7.1-2.2-10.8-2.1c-1.7,0-3.3,0.1-5,0.3c-10.5,1.2-20.4,5.5-28.3,12.4c-8.3,7-15.5,15.3-21.3,24.5 c-5.8,9.1-10.5,18.9-14.1,29.1c-3.2,8.6-5,17.7-5.2,26.8v2.6c-0.4,0.8-0.9,1.6-1.3,2.3c-2.3,4.1-5,7.9-8.1,11.4 c-1.7,2.3-4.2,3.8-7.1,4.4c-0.3,0-0.6,0-0.9,0c-1.6,0-1.6-0.3-1.8-0.9c-0.8-3-0.9-6.2-0.4-9.3C795,572.8,795.8,568.8,796.8,564.9z M459.2,365.7c0.7-1.2,1.6-2.8,2.8-4.7v-0.1c2-2.9,4-5.9,6.1-8.9c2-3,4.2-5.7,6.7-8.3c2.3-2.4,4.8-4.5,7.5-6.3 c2.1-1.5,4.5-2.3,7.1-2.4h0.2c0.4,0,0.7,0.2,0.8,0.6c0.6,1.3,0.5,5-3.9,11.1l-1.1,1.6c-2.2,3.3-4.7,6.3-7.6,9 c-3.4,3-7.1,5.4-11.2,7.2c-2.6,1.2-5.4,2.1-8.2,2.7L459.2,365.7z M536.5,314.8L536.5,314.8L536.5,314.8L536.5,314.8z M579.8,341.8 c-1.9,5.2-4.1,10.4-6.3,15.6c-1.6,3.6-3.2,7.6-5,12.1l-0.1,0.2l-0.5,0.9c-1.9,3.6-4,7.1-6.3,10.5c-2.1,3.1-4.4,6-7.1,8.6 c-1.5,1.4-3.4,2.3-5.4,2.4h-0.3c-1.2-2.6-0.4-13.1,3.2-23.6c2-5.3,4.5-10.5,7.5-15.3c4-6.7,8.5-13.2,13.4-19.2h0.1l0.2-0.2 c1.5-1.7,2.9-3.4,4.1-5.3c1.3-2,2.1-4.2,2.4-6.6c0.5,1.7,1.5,3.3,2.8,4.5c0.1,0.1,0.3,0.3,0.3,0.9 C582.5,332.3,581.5,337.2,579.8,341.8z M735.9,339.9c-3.3,6.1-7.1,12-11.3,17.5c-3.8,5.1-8.2,9.8-12.9,14c-5.1,4.4-7.9,5.3-9,5.4 h-1v0.1c-0.8,0.4-1.7,0-2.1-0.8c-0.2-0.4-0.2-0.9,0-1.3c0.4-5.3,1.7-10.6,4-15.4c3-7,9.3-20.1,17.5-29.3 c4.6-5.5,10.5-9.7,17.2-12.3c-0.2,0.6-0.3,1.2-0.3,1.8c-0.1,1.5,0.2,3,0.8,4.4c0.5,0.8,1.1,1.6,1.8,2.2 C740,331,738.4,335.7,735.9,339.9z M436.3,606.5c-3.7,5.9-8.3,11.3-13.6,15.9c-3.2,2.8-6.9,5-10.9,6.3c-0.9,0.2-1.9,0.3-2.9,0.3 c-3.4,0-5.6-1.2-6.5-3.6c-2.9-7.1,0.4-23.6,9.7-49.1c0.4-1.1,0.9-2.3,1.4-3.4c1.6,1.9,3.6,3.4,5.8,4.6c3.6,1.9,7.5,3.3,11.5,3.9 c3.9,0.7,7.8,1,11.8,1.1h4.7C444.6,591,441,599.1,436.3,606.5z M452.2,557.9c-0.3,2-0.6,3.6-0.8,5c-4.7,0.1-9.3-1.1-13.3-3.5 c-2.4-1.5-4.8-4.1-3-11.5c0.6-2.3,1.5-4.5,2.6-6.6c1.1-1.7,2.4-3.3,3.9-4.6c1.4-1.1,3-1.7,4.7-1.9c1.9,0.1,3.5,1.2,4.3,2.8 c1.3,2.9,2,6,2.1,9.1C453,550.6,452.8,554.2,452.2,557.9z M852.6,531.2l0.3-0.5c0.8-1.6,1.8-3.8,3-6.4c2.2-3.9,4.5-7.9,6.7-11.9 s4.7-7.7,7.6-11.2c2.6-3.2,5.6-6,8.9-8.5c2.8-2,6-3.3,9.5-3.6h0.3c0.4,0,0.9,0.1,1.3,0.3c0.3,1,0.5,1.9,0.5,2.9 c-0.3,5.4-1.6,10.7-4,15.6c-2.5,5.1-5.7,9.7-9.7,13.8c-3.9,4-8.4,7.3-13.4,9.7c-4.1,2.1-8.4,3.5-13,4.3L852.6,531.2z M660.7,438.3 c2.3-2.9,5-5.5,8.1-7.6c1.4-0.9,2.9-1.5,4.5-1.6c1.1-0.1,2.1,0.4,2.7,1.3c1.5,1.9,2.2,6.5,0.8,12.4c-6.3,0-12.7-0.2-19.4-0.3 C658.5,441.1,659.6,439.7,660.7,438.3z M652.1,470.1c-4.2,2.1-8.6,3.8-13.2,4.8c0.8-1.7,1.7-3.4,2.5-5 C645.1,470.1,648.6,470.1,652.1,470.1z M714.1,565.6v0.3c0,0.3-0.1,0.5-0.2,0.8c-1.4,3.2-3.1,6.3-5.1,9.1c-3,4.3-6.6,8.2-10.6,11.5 c-4.1,3.4-8.6,6.3-13.4,8.7c-4.2,2.2-8.7,3.6-13.4,4.1c-1.8,0.2-3.5,0.3-5.3,0.3h-2.5c-2.2,0-4.3-0.5-6.3-1.5 c-1.7-0.9-3.2-2.2-4.2-3.8c-1.2-2.3-1.7-4.8-1.5-7.4v-3.9c0-1.9,0.2-3.9,0.5-5.8c0.2-1.6,0.6-3.1,1.3-4.6l0.1-0.3 c7.9-0.9,15.6-2.5,23.2-4.9c7.8-2.4,15.2-5.8,21.9-10.4c6.6-4.4,12.2-10.2,16.4-16.9c4.4-7.2,6.7-15.6,6.7-24v-0.3 c-0.1-1.9-0.4-3.8-0.8-5.7c-0.6-3.2-2-6.1-4-8.7c-2.4-3.1-5.5-5.5-9.1-7c-3.4-1.5-7.1-2.2-10.8-2.1c-1.7,0-3.3,0.1-5,0.3 c-10.5,1.2-20.4,5.5-28.3,12.4c-8.3,7-15.5,15.3-21.3,24.5c-5.8,9.1-10.5,18.9-14.1,29.1c-3.1,8.4-4.9,17.2-5.2,26.2 c-1.2,2.2-2.4,4.3-3.7,6.3c-2.5,4.1-5.5,8-8.9,11.4c-1.6,1.6-4,3.5-6.2,3.5c-0.4-0.3-0.7-0.8-0.9-1.2c-0.4-0.7-1.4-2.8-2.1-8.7 c0.2-8.4,1.4-16.7,3.5-24.8c2.5-10.4,5.2-20.5,8.3-30.2c3-9.6,5.9-18.3,8.5-25.8s4.2-11.7,4.6-12.8c0.8-1.9,1.6-3.8,2.2-5.7 c0.3-0.8,0.6-1.7,0.9-2.5c7.3-1.2,14.4-3.2,21.4-5.7c8-2.9,15.5-7,22.2-12.1c3-2.3,5.7-4.9,8.3-7.6c11.6-0.3,22.4-0.8,32.8-1.5 c0.5,0.4,1,0.8,1.6,1.1c4.9,3,12.6,4.5,23.7,4.5h2C737.5,487.5,714.4,564.7,714.1,565.6z M659.7,555.7l2.2-4.6l0.2-0.4 c0.8-1.6,1.8-3.8,3-6.4c2.2-3.9,4.5-7.9,6.7-11.9s4.7-7.7,7.6-11.2c2.6-3.2,5.6-6,8.9-8.5c2.8-2,6-3.3,9.5-3.6h0.3 c0.4,0,0.9,0.1,1.3,0.3c0.3,1,0.5,1.9,0.5,2.9c-0.3,5.4-1.6,10.7-4,15.6c-2.5,5.1-5.7,9.7-9.7,13.8c-3.9,4-8.4,7.3-13.4,9.7 C668.6,553.5,664.2,554.9,659.7,555.7z M766.5,560.2L766.5,560.2v0.3c-0.6,2.4-1,4.9-1.3,7.4c-1.5,3.2-3,6.1-4.6,9 c-2.3,4.1-5,7.9-8.1,11.4c-1.7,2.3-4.2,3.8-7.1,4.4c-0.3,0-0.6,0-0.9,0c-1.6,0-1.6-0.3-1.8-0.9c-0.8-3-0.9-6.2-0.4-9.3 c0.5-4.1,1.2-8.1,2.3-12c1.1-4.1,1.7-6.9,2-8.6c4.3-15.3,9.5-31.9,15.2-49.3c5.6-17,10.4-31.8,14.7-45l0.8-0.1 c4.8,0.9,9.6,1.3,14.5,1.2h2.3C789.9,482.1,766.7,559.4,766.5,560.2z"></path> <polygon style="fill:#EA3358;" points="574.8,268.3 612.6,250.7 641,281.2 636,239.8 673.8,222.2 632.8,214.2 627.8,172.9 607.5,209.3 566.6,201.4 595.1,231.9 "></polygon> <polygon style="fill:#EA3358;" points="493.8,207.2 517.9,194.5 537.4,213.5 532.8,186.6 556.9,173.9 529.9,170 525.3,143.2 513.2,167.6 486.3,163.8 505.8,182.8 "></polygon> <polygon style="fill:#EA3358;" points="412.2,201.8 430.2,189 448,202.3 441.4,181.1 430.4,177.4 431.9,177.9 441.4,181.1 459.5,168.3 437.3,168 430.7,146.9 423.6,167.9 401.5,167.6 419.2,180.9 "></polygon> <polygon style="fill:#EA3358;" points="350.9,211.1 353.9,227.1 360.9,212.4 377,214.5 365.2,203.3 372.3,188.6 357.9,196.4 346.1,185.1 349.1,201.2 334.7,209 "></polygon> </g> </svg> 