<?xml version="1.0" encoding="UTF-8"?> <svg xmlns="http://www.w3.org/2000/svg" xmlns:xlink="http://www.w3.org/1999/xlink" version="1.1" id="Layer_1" x="0px" y="0px" viewBox="0 0 1000 1000" style="enable-background:new 0 0 1000 1000;" xml:space="preserve"> <path style="fill-rule:evenodd;clip-rule:evenodd;fill:#EA3358;" d="M698.4,723c-0.9-1-1.9-1.9-3-2.8c-0.9-0.8-2.3-1.5-4.1-2.2 c-1.8-0.8-3.2-1.3-4.1-1.6c-1-0.3-2.5-0.8-4.7-1.5c-4.2-1.4-7.2-2.6-8.8-3.8c-1.6-1.1-2.5-3-2.5-4.9c0-2.1,0.8-3.8,2.4-5.1 c1.6-1.3,3.7-1.9,6.4-1.9c5.5,0,9.4,2.6,11.8,7.9l7.8-4.5c-1.7-3.7-4.4-6.9-7.8-9.1s-7.3-3.3-11.8-3.3c-5,0-9.2,1.4-12.7,4.4 c-3.6,2.9-5.2,6.9-5.2,11.8c0,2.5,0.4,4.7,1.4,6.6c0.9,1.9,2.4,3.6,4.1,4.7c1.6,1.2,3.4,2.1,5.2,3c2.1,0.8,4.3,1.6,6.5,2.2 c4.7,1.4,8,2.8,9.9,4s2.8,3,2.8,5.2c0.1,2.1-0.9,4.1-2.6,5.3c-1.7,1.4-4.3,2-7.8,2c-7,0-11.7-3.1-14-9.5l-8,4.7 c1.4,4.1,4.1,7.7,7.9,10.1c3.7,2.5,8.4,3.6,13.7,3.6c5.9,0,10.7-1.4,14.4-4.4c3.6-3,5.5-6.9,5.5-12c0-1.6-0.2-3.3-0.7-4.9 C700.1,725.4,699.4,724.1,698.4,723z"></path> <path style="fill-rule:evenodd;clip-rule:evenodd;fill:#EA3358;" d="M376.9,718.9c2-2.9,3.1-6.3,3-9.8c0-5-1.8-9.3-5.2-12.8 c-3.5-3.5-7.8-5.2-12.8-5.2h-22.4v56h9.2v-20.4h10.9l11.8,20.4h10.1l-12.7-21.7C372.2,724.1,375,721.8,376.9,718.9z M362,718.5 h-13.2v-18.7H362c2.4,0,4.7,0.9,6.3,2.7c3.4,3.8,3.4,9.5,0,13.3C366.7,717.5,364.4,718.5,362,718.5z"></path> <polygon style="fill-rule:evenodd;clip-rule:evenodd;fill:#EA3358;" points="812.8,729.1 786.4,691.1 779.3,691.1 779.3,747.1 788.5,747.1 788.5,709.1 814.9,747.1 822.1,747.1 822.1,691.1 812.8,691.1 "></polygon> <polygon style="fill-rule:evenodd;clip-rule:evenodd;fill:#EA3358;" points="263.7,747.1 275,747.1 275,719.1 303.1,719.1 303.1,708.3 275,708.3 275,688.9 304.2,688.9 304.2,678.1 263.7,678.1 "></polygon> <polygon style="fill-rule:evenodd;clip-rule:evenodd;fill:#EA3358;" points="573.6,723.2 596.1,723.2 596.1,714.4 573.6,714.4 573.6,699.9 598,699.9 598,691.1 564.4,691.1 564.4,747.1 598.4,747.1 598.4,738.3 573.6,738.3 "></polygon> <rect x="315.4" y="691.1" style="fill-rule:evenodd;clip-rule:evenodd;fill:#EA3358;" width="9.2" height="56"></rect> <path style="fill-rule:evenodd;clip-rule:evenodd;fill:#EA3358;" d="M738.4,690.1c-8.1,0-15,2.8-20.6,8.5 c-5.7,5.7-8.5,12.5-8.5,20.6s2.8,15,8.5,20.6s12.5,8.5,20.6,8.5s15-2.8,20.6-8.5c5.7-5.7,8.5-12.5,8.5-20.6s-2.8-15-8.5-20.6 S746.4,690.1,738.4,690.1z M752.4,733.5c-3.8,3.8-8.5,5.8-14.1,5.8s-10.3-1.9-14.1-5.8c-3.8-3.8-5.8-8.6-5.8-14.4s1.9-10.6,5.8-14.4 c3.8-3.8,8.5-5.8,14.1-5.8s10.3,1.9,14.1,5.8c3.8,3.8,5.8,8.6,5.8,14.4C758.2,724.9,756.3,729.7,752.4,733.5z"></path> <path style="fill-rule:evenodd;clip-rule:evenodd;fill:#EA3358;" d="M648.1,718.9c2-2.9,3.1-6.3,3-9.8c0-5-1.8-9.3-5.2-12.8 c-3.5-3.5-7.8-5.2-12.8-5.2h-22.4v56h9.3v-20.4h10.9l11.8,20.4h10.1l-12.7-21.7C643.4,724.1,646.2,721.8,648.1,718.9z M633.2,718.5 H620v-18.7h13.2c2.4,0,4.7,0.9,6.3,2.7c3.4,3.8,3.4,9.5,0,13.3C637.9,717.5,635.6,718.5,633.2,718.5z"></path> <path style="fill-rule:evenodd;clip-rule:evenodd;fill:#EA3358;" d="M532,678.1h-25.5v69.1h11.3v-23.7h14.1c6.5,0,11.9-2.2,16.3-6.6 c4.4-4.4,6.6-9.7,6.6-16.2c0-6.4-2.2-11.8-6.6-16.2C543.9,680.2,538.5,678.1,532,678.1z M540.3,709.4c-2.2,2.3-4.9,3.4-8.3,3.4 h-14.1v-24.1H532c3.4,0,6.1,1.1,8.3,3.4c2.2,2.3,3.2,5.2,3.2,8.6C543.5,704.2,542.4,707.1,540.3,709.4z"></path> <path style="fill-rule:evenodd;clip-rule:evenodd;fill:#EA3358;" d="M427.3,723c-0.9-1-1.9-1.9-3-2.8c-0.9-0.8-2.3-1.5-4.1-2.2 c-1.8-0.8-3.2-1.3-4.1-1.6c-1-0.3-2.5-0.8-4.7-1.5c-4.2-1.4-7.2-2.6-8.8-3.8c-1.6-1.1-2.5-3-2.5-4.9c0-2.1,0.8-3.8,2.4-5.1 s3.7-1.9,6.4-1.9c5.5,0,9.4,2.6,11.8,7.9l7.8-4.5c-1.7-3.7-4.4-6.9-7.8-9.1s-7.3-3.3-11.8-3.3c-5,0-9.2,1.4-12.7,4.4 c-3.6,2.9-5.2,6.9-5.2,11.8c0,2.5,0.4,4.7,1.4,6.6c0.9,1.9,2.4,3.6,4.1,4.7c1.6,1.2,3.4,2.1,5.2,3c2.1,0.8,4.3,1.6,6.5,2.2 c4.7,1.4,8,2.8,9.9,4s2.8,3,2.8,5.2c0.1,2.1-0.9,4.1-2.6,5.3c-1.7,1.4-4.3,2-7.8,2c-7,0-11.7-3.1-14-9.5l-8,4.7 c1.4,4.1,4.1,7.7,7.9,10.1c3.7,2.5,8.4,3.6,13.7,3.6c5.9,0,10.7-1.4,14.4-4.4c3.6-3,5.5-6.9,5.5-12c0-1.6-0.2-3.3-0.7-4.9 C429,725.4,428.3,724.1,427.3,723z"></path> <polygon style="fill-rule:evenodd;clip-rule:evenodd;fill:#EA3358;" points="436.8,699.9 452.7,699.9 452.7,747.1 461.9,747.1 461.9,699.9 477.6,699.9 477.6,691.1 436.8,691.1 "></polygon> <path style="fill-rule:evenodd;clip-rule:evenodd;fill:#EA3358;" d="M172.2,673.2c8.5,19.2,14.7,42.1,65.7,38.2 C235.2,673.9,199.7,658.4,172.2,673.2z"></path> <path style="fill-rule:evenodd;clip-rule:evenodd;fill:#EA3358;" d="M172.2,756.2c27.5,14.7,63-0.8,65.7-38.2 C186.9,713.9,180.7,736.9,172.2,756.2z"></path> <path style="fill:#EA3358;" d="M563.3,285.5c-4.2,2.5-9.1,5-13.3,7.5c0-1.7-0.8-4.2-0.8-5.8c-0.8-5.8-3.3-10-9.1-10.8 c-5.8-1.7-10.8,0.8-15,5c-4.2,5-5,11.6-3.3,17.5c0.8,2.5,0.8,4.2,1.7,6.7c-12.5,0-24.9,0-37.4,0c0.8-1.7,0.8-2.5,1.7-4.2 c3.3-7.5,7.5-15,10.8-23.3c0.8-2.5,1.7-5,2.5-6.7c1.7-3.3,3.3-5.8,5-9.1c0-0.8,0.8-1.7,0.8-1.7c-5-1.7-10.8-3.3-14.1-8.3 c6.7-3.3,12.5-4.2,18.3,0c7.5-16.6,15-32.4,22.5-48.2l-0.8-0.8c-0.8,0.8-1.7,1.7-2.5,2.5c-2.5,5-5,5-10,2.5 c-3.3-0.8-7.5-1.7-10.8-1.7c-3.3,0-5,0-6.7-2.5c-4.2,1.7-5,3.3-3.3,6.7c1.7,4.2,3.3,7.5,4.2,11.6c0,1.7-1.7,4.2-2.5,5.8 c-0.8,0.8-2.5,2.5-1.7,3.3c2.5,5-3.3,6.7-3.3,10l-1.7,0.8c-1.7,0.8-2.5,2.5-3.3,4.2c-0.8,0.8,0,1.7-0.8,1.7c-4.2,2.5-1.7,4.2,0,6.7 c2.5,3.3,5.8,6.7,8.3,10.8c0.8,0.8,0.8,3.3,0,4.2c-2.5,5-5.8,10-10.8,12.5c-0.8-1.7-1.7-3.3-2.5-5c-3.3-5.8-7.5-8.3-13.3-8.3 c-5.8,0.8-10.8,5-12.5,10.8c-1.7,5.8,0,11.6,2.5,16.6c1.7,2.5,2.5,4.2,4.2,6.7c-12.5,0-24.1,0-35.8,0c0.8-5,1.7-10,2.5-15 c0-2.5,0-5,0.8-7.5c4.2-20,7.5-40.7,11.6-60.7c0.8-4.2,0.8-7.5,0.8-12.5c-4.2,2.5-2.5,6.7-5,10c-9.1,0.8-19.1,0.8-29.9,1.7 c8.3,9.1,5.8,19.1,3.3,29.1c6.7,1.7,3.3,7.5,5,10.8c2.5,0,5,0,8.3,0c1.7,5,0.8,5.8-3.3,9.1c-1.7,0.8-3.3,1.7-5,3.3 c-0.8,0.8-1.7,2.5-3.3,4.2c1.7,1.7,3.3,2.5,5,3.3c0.8,0.8,2.5,0,4.2,0c1.7,0,3.3,0,5,0c0.8,3.3,0.8,5-2.5,7.5 c-3.3,2.5-5.8,5.8-9.1,9.1c-4.2-5.8-8.3-11.6-17.5-9.1c-7.5,2.5-10.8,9.1-10,16.6c-8.3,0-16.6,0-24.1,0c0-3.3-0.8-6.7-0.8-9.1 c0-9.1,0-18.3-0.8-27.4c-0.8-10.8-0.8-21.6-1.7-32.4c0,0-0.8,0-0.8-0.8c-0.8,0.8-1.7,2.5-1.7,3.3c0,7.5,0.8,15,1.7,22.5 c0.8,13.3,0.8,26.6,1.7,39.9c0,0.8,0,1.7,0,3.3c-9.1,0-17.5,0-25.8,0c-0.8-4.2-1.7-9.1-7.5-9.1c-5-0.8-6.7,4.2-8.3,7.5 c-0.8-0.8-1.7-0.8-2.5-1.7c-4.2-2.5-6.7-1.7-10,1.7c-3.3,4.2-6.7,1.7-10.8,1.7c-0.8,0-1.7-2.5-2.5-4.2c-3.3-10.8-7.5-21.6-10.8-31.6 c-2.5-7.5,0-12.5,7.5-15c22.5-7.5,44.1-15,66.5-21.6c2.5-0.8,4.2-1.7,3.3-5c-0.8-2.5,0-5,0-7.5c0-5.8,4.2-10,10-10.8 c23.3-0.8,45.7-1.7,69-3.3c6.7,0,6.7,0,7.5-6.7c0.8-5,2.5-10,7.5-12.5c2.5,0,4.2,0,6.7,0c6.7,1.7,13.3,2.5,20,4.2 c17.5,3.3,34.1,5.8,50.7,9.1l0.8-0.8c3.3-7.5,9.1-10.8,18.3-5.8c19.1,9.1,38.2,18.3,56.5,27.4c3.3,1.7,5,1.7,7.5-1.7 c1.7-1.7,3.3-4.2,5-5c4.2-2.5,8.3-0.8,11.6,2.5c20,16.6,39.9,33.3,60.7,49.9c0.8,0.8,2.5,1.7,3.3,3.3c4.2,4.2,5,9.1,1.7,14.1 c-5,6.7-10.8,13.3-15.8,19.1c-0.8,0.8-1.7,1.7-2.5,1.7c-3.3,0-7.5,0-11.6,0c2.5-5,6.7-8.3,11.6-9.1c-4.2-7.5,5-9.1,5-15 c-6.7-3.3-13.3-6.7-10.8-17.5c-10,4.2-14.1-3.3-20-8.3c-1.7,1.7-3.3,4.2-5,5.8c-1.7,1.7-3.3,4.2-6.7,4.2c-0.8,0-1.7,2.5-2.5,4.2 c-0.8,1.7-1.7,3.3-2.5,5.8c-0.8,1.7-2.5,3.3-0.8,5.8c0.8,0.8,0,1.7,0,2.5c-0.8,6.7-1.7,14.1-2.5,21.6c-8.3,0-17.5,0-27.4,0 c0-6.7-4.2-10.8-10-12.5c-6.7-1.7-14.1,1.7-17.5,9.1c-0.8,2.5-2.5,3.3-5,3.3c-8.3,0-16.6,0-25.8,0c-0.8,0-2.5,0-4.2,0 c4.2-5,8.3-10,11.6-14.1C561.7,289.7,562.5,287.2,563.3,285.5c1.7-1.7,3.3-2.5,4.2-4.2c6.7-8.3,13.3-16.6,20-24.9 c8.3-10,15.8-19.1,24.1-29.1l-0.8-0.8c-0.8,1.7-2.5,2.5-3.3,4.2c-0.8,0.8-2.5,2.5-3.3,2.5s-1.7-2.5-2.5-3.3 c-0.8-0.8-0.8-1.7-0.8-2.5c-1.7,0-2.5,0.8-3.3,0.8c-2.5-0.8-5.8-0.8-5.8-2.5c-0.8-4.2-3.3-5-6.7-3.3c-0.8-1.7-1.7-3.3-1.7-4.2 c-3.3,0.8-6.7,0.8-5,5.8c0,0.8,0,0.8,0,1.7c0,1.7,0,4.2,0.8,5.8c3.3,3.3,1.7,6.7-0.8,9.1c-0.8,1.7-2.5,3.3-2.5,5 c-1.7,5.8-5.8,9.1-11.6,10c-1.7,0-3.3,0-5.8,0c0.8,2.5,1.7,4.2,1.7,6.7c1.7,5,3.3,10.8,0,15.8c0,0.8,0.8,2.5,1.7,2.5 C563.3,281.3,564.2,283,563.3,285.5z M477.7,225.6c1.7,0,3.3,0,5-0.8c0.8-5.8,1.7-11.6,3.3-16.6c0.8-4.2-2.5-8.3-5.8-9.1 c-3.3-0.8-6.7-1.7-10-1.7c-4.2-0.8-8.3,2.5-9.1,6.7c-0.8,6.7-2.5,13.3-3.3,20c0,0.8,0,2.5,0.8,3.3c2.5,5.8,7.5,5,12.5,5.8 c0-1.7,0.8-3.3,0.8-5c-1.7-0.8-3.3-0.8-5-0.8c-3.3-0.8-4.2-2.5-3.3-5c0.8-3.3,1.7-6.7,1.7-10c1.7-10,1.7-10,11.6-8.3 c3.3,0.8,5,1.7,4.2,5.8C479.3,214.8,478.5,220.6,477.7,225.6c-1.7-2.5-3.3-4.2-5-6.7l0.8-0.8c-1.7,0-3.3-0.8-5.8-0.8 c0.8,2.5,0.8,5,1.7,6.7c0.8,2.5,3.3,4.2,4.2,5.8c1.7,3.3,5,5.8,9.1,5c0-1.7,0.8-2.5,0.8-4.2C481,230.6,477.7,229.8,477.7,225.6z M609.9,268c0-1.7,0-1.7,0-2.5c0-3.3-0.8-5.8-4.2-7.5c-3.3-1.7-6.7-0.8-8.3,1.7c-1.7,2.5-2.5,5-3.3,8.3c-0.8,5.8,0,11.6,0,17.5 c6.7-0.8,12.5-1.7,18.3-3.3c2.5-0.8,5-2.5,7.5-4.2c2.5-2.5,2.5-5.8,0.8-8.3c-1.7-3.3-5-3.3-7.5-2.5C612.4,268,611.5,268,609.9,268z M529.2,269.7c5-2.5,10-4.2,15-6.7c2.5-1.7,5.8-4.2,7.5-6.7c1.7-2.5,0.8-5.8-1.7-8.3c-2.5-2.5-5-2.5-7.5-0.8 c-0.8,0.8-1.7,0.8-3.3,0.8c0-0.8-0.8-1.7-0.8-2.5c-0.8-3.3-2.5-5.8-5.8-5.8c-3.3-0.8-6.7,0.8-7.5,4.2c-0.8,2.5-0.8,5.8-0.8,9.1 C525.9,258.9,527.6,263.9,529.2,269.7z M462.7,267.2c5-3.3,10-7.5,14.1-11.6c1.7-0.8,2.5-3.3,3.3-5c1.7-3.3,0-7.5-2.5-9.1 c-3.3-1.7-5.8-1.7-9.1,1.7c-0.8,0.8-0.8,0.8-1.7,1.7c-0.8-1.7-0.8-2.5-1.7-3.3c-2.5-4.2-8.3-4.2-10.8-0.8c-2.5,3.3-2.5,7.5-0.8,10.8 C456.1,256.4,459.4,262.2,462.7,267.2z M390.4,287.2c3.3-4.2,7.5-9.1,10.8-13.3c2.5-2.5,3.3-5.8,2.5-9.1c-0.8-3.3-2.5-5-5.8-5.8 c-3.3-0.8-5,0.8-6.7,2.5c-0.8,0.8-1.7,1.7-1.7,2.5c-0.8-0.8-1.7-2.5-2.5-2.5c-1.7-1.7-4.2-3.3-6.7-1.7c-3.3,0.8-5,3.3-5,5.8 c-0.8,3.3,0.8,6.7,3.3,9.1C382.1,279.7,386.2,283.8,390.4,287.2z M333.8,282.2C333.8,282.2,333,282.2,333.8,282.2 c-0.8-1.7-1.7-2.5-1.7-2.5c-1.7-5.8-3.3-10.8-5.8-16.6c-1.7-5.8-5.8-8.3-11.6-5.8c-2.5,0.8-5,1.7-8.3,2.5c-3.3,0.8-5.8,5.8-5,9.1 c1.7,5.8,4.2,11.6,5.8,17.5c1.7,5.8,5.8,7.5,11.6,5.8c2.5-0.8,5.8-1.7,8.3-3.3C330.5,287.2,332.2,284.7,333.8,282.2z M627.3,267.2 c3.3-3.3,5.8-7.5,9.1-10c5.8-5.8,8.3-11.6,5.8-20c-0.8-1.7-0.8-3.3-2.5-4.2c-2.5-3.3-5.8-0.8-8.3-0.8c-2.5,0-5.8,0-7.5,1.7 c-5.8,5.8-10,11.6-15,18.3c1.7,0.8,2.5,1.7,4.2,3.3c2.5-2.5,4.2-5,6.7-7.5c4.2,3.3,7.5,6.7,11.6,9.1c-2.5,2.5-4.2,5-5.8,7.5 C624.9,264.7,626.5,265.5,627.3,267.2z M549.2,201.5c-5,10-10,20.8-15,30.8c1.7,0.8,3.3,1.7,4.2,2.5c2.5-4.2,4.2-8.3,6.7-12.5 c2.5,5.8,4.2,10.8,5.8,15.8c0.8,3.3,2.5,4.2,5.8,5c0.8-1.7,1.7-2.5,1.7-3.3c-5-5.8-5.8-12.5-8.3-19.1c6.7-1.7,13.3-4.2,19.1-5.8 c0.8,0,0.8,0,1.7-0.8c0-0.8,0.8-1.7,0.8-2.5c-9.1-4.2-15,4.2-23.3,3.3c1.7-4.2,3.3-8.3,5.8-11.6C551.7,203.2,550,202.3,549.2,201.5z M392,218.1c0,8.3,0.8,15.8,0.8,24.1c0,5-0.8,6.7-5.8,5.8c-1.7,0-3.3-2.5-5-5c0,0-1.7,0-3.3,0c-0.8,3.3,0.8,5,2.5,7.5 c3.3,3.3,6.7,1.7,10,1.7c4.2,0,7.5-4.2,7.5-8.3c0-1.7,0-3.3,0-5c0-7.5-0.8-14.1-0.8-21.6C395.4,218.1,393.7,218.1,392,218.1z M296.4,263.9c-3.3,3.3-3.3,6.7-1.7,10c2.5,6.7,4.2,13.3,6.7,19.1c1.7,4.2,1.7,4.2,5.8,1.7C303.9,285.5,300.6,274.7,296.4,263.9z"></path> <path style="fill:#EA3358;" d="M866,625.6c-9.1,0-17.5,0-25.8,0c0-3.3,0-6.7,0-10.8c0-10,0-20,0-29.9c0-1.7-0.8-3.3-1.7-5 c-2.5-3.3-5.8-7.5-9.1-10.8c-0.8-0.8-2.5-2.5-4.2-2.5c-14.1,0-27.4,0-41.6,0c-0.8,0-0.8,0-1.7,0c0,1.7,0,2.5,0,4.2 c0,16.6,0,33.3,0,49.9c0,2.5-0.8,3.3-3.3,3.3c-7.5,0-15,0-22.5,0c0-49.9,0-99.8,0-149.7c1.7,0,2.5,0,4.2,0c26.6,0,54,0,80.7,0 c1.7,0,4.2,0.8,5.8,2.5c5.8,5.8,11.6,12.5,17.5,18.3c0.8,0.8,1.7,3.3,1.7,4.2c0,13.3,0,26.6,0,39.9c0,1.7-0.8,3.3-1.7,5 c-4.2,4.2-7.5,8.3-11.6,13.3c4.2,5,8.3,10,13.3,15.8c0.8,0.8,1.7,1.7,1.7,3.3C866,594,866,609.8,866,625.6z M781.2,544.9 c0.8,0,1.7,0,1.7,0c15,0,30.8,0,45.7,0c3.3,0,10-6.7,10-10.8c0-8.3,0-16.6,0-24.9c0-5-6.7-10.8-10.8-10.8c-14.1,0-29.1,0-43.2,0 c-0.8,0-2.5,0-3.3,0C781.2,515,781.2,530,781.2,544.9z"></path> <path style="fill:#EA3358;" d="M393.7,551.6c0,15.8,0,31.6,0,46.6c0,1.7-0.8,4.2-1.7,5c-5.8,6.7-12.5,13.3-19.1,20 c-1.7,1.7-3.3,2.5-5,2.5c-22.5,0-44.1,0-66.5,0c-1.7,0-4.2-0.8-5-2.5c-6.7-6.7-13.3-13.3-20-20.8c-0.8-0.8-1.7-2.5-1.7-4.2 c0-32.4,0-64,0-96.5c0-1.7,0.8-3.3,1.7-4.2c6.7-6.7,13.3-14.1,20-20.8c0.8-0.8,3.3-1.7,4.2-1.7c22.5,0,44.9,0,67.4,0 c1.7,0,3.3,0.8,5,2.5c6.7,6.7,12.5,13.3,19.1,20c0.8,1.7,1.7,3.3,1.7,5C393.7,519.1,393.7,534.9,393.7,551.6L393.7,551.6z M367.9,546.6L367.9,546.6c0-10.8,0-21.6,0-32.4c0-2.5-9.1-13.3-11.6-14.1c-0.8,0-0.8,0-1.7,0c-13.3,0-26.6,0-39.9,0 c-1.7,0-3.3,0.8-4.2,1.7c-10,9.1-9.1,9.1-9.1,23.3c0,20.8,0,40.7,0,61.5c0,4.2,0.8,7.5,4.2,10c1.7,1.7,3.3,4.2,5,5 c1.7,0.8,3.3,1.7,5,1.7c10,0,20-0.8,29.9,0c9.1,0.8,15.8-1.7,21.6-9.1c1.7-1.7,2.5-3.3,2.5-6.7C367.9,574,367.9,559.9,367.9,546.6z"></path> <path style="fill:#EA3358;" d="M707.2,602.3c0,7.5,0,15,0,23.3c-33.3,0-67.4,0-101.4,0c0-49.9,0-99.8,0-149.7c34.1,0,67.4,0,101.4,0 c0,7.5,0,15,0,23.3c-24.9,0-49.9,0-74.8,0c0,13.3,0,26.6,0,39.9c23.3,0,45.7,0,69,0c0,8.3,0,15.8,0,23.3c-23.3,0-45.7,0-69.8,0 c0,4.2,0,8.3,0,12.5c0,7.5,0,15.8,0,23.3c0,3.3,0.8,4.2,4.2,4.2c22.5,0,44.1,0,66.5,0C703.8,602.3,705.5,602.3,707.2,602.3z"></path> <path style="fill:#EA3358;" d="M118.5,475.9c3.3,0,6.7,0,9.1,0c25.8,0,50.7,0,76.5,0c1.7,0,4.2,0.8,5.8,2.5 c5.8,5.8,11.6,12.5,17.5,18.3c0.8,0.8,1.7,3.3,1.7,4.2c0,15.8,0,31.6,0,47.4c0,1.7-0.8,3.3-1.7,4.2c-5.8,6.7-11.6,13.3-18.3,19.1 c-0.8,0.8-3.3,1.7-5,1.7c-18.3,0-36.6,0-54,0c-1.7,0-2.5,0-5,0c0,17.5,0,34.1,0,50.7c-9.1,0-17.5,0-26.6,0 C118.5,575.7,118.5,525.8,118.5,475.9z M145.1,550.7c0.8,0,0.8,0,0.8,0c15.8,0,30.8,0,46.6,0c3.3,0,9.1-6.7,9.1-10 c0-10.8,0-20.8,0-31.6c0-4.2-6.7-10-10.8-10c-9.1,0-19.1,0-28.3,0c-5.8,0-11.6,0-18.3,0C145.1,516.7,145.1,533.3,145.1,550.7z"></path> <path style="fill:#EA3358;" d="M556.7,475.9c-0.8,1.7-0.8,2.5-1.7,3.3c-12.5,22.5-24.9,44.9-37.4,67.4c-1.7,2.5-1.7,5,0,7.5 c13.3,22.5,27.4,45.7,40.7,68.2c0.8,0.8,0.8,1.7,1.7,2.5c-0.8,0-1.7,0-3.3,0c-7.5,0-15.8,0-23.3,0c-2.5,0-4.2-0.8-5-3.3 c-10.8-18.3-21.6-35.8-32.4-54c-2.5-4.2-5-6.7-10.8-5.8c-4.2,0.8-8.3,0-12.5,0c-3.3,0-4.2,0.8-4.2,4.2c0,3.3,0,7.5,0,10.8 c0,15,0,29.1,0,44.1c0,1.7,0,2.5,0,4.2c-9.1,0-17.5,0-25.8,0c0-49.9,0-99.8,0-149.7c8.3,0,17.5,0,25.8,0c0,20.8,0,41.6,0,63.2 c5,0,10-0.8,15,0c6.7,0.8,9.1-1.7,12.5-7.5c9.1-18.3,19.1-35.8,29.1-53.2c0.8-1.7,2.5-2.5,4.2-2.5 C538.4,475.9,547.5,475.9,556.7,475.9z"></path> <path style="fill:#EA3358;" d="M423.6,442.6c0-34.9,0-69,0-103.1c1.7,0,2.5,0,4.2,0c20,0,40.7,0,60.7,0c1.7,0,4.2,0.8,5.8,2.5 c5,4.2,9.1,8.3,13.3,12.5c0.8,0.8,1.7,3.3,2.5,5c0,20.8,0,42.4,0,63.2c0,1.7-0.8,4.2-2.5,5.8c-4.2,5-9.1,9.1-13.3,13.3 c-0.8,0.8-2.5,1.7-4.2,1.7c-21.6,0-43.2,0-64,0C425.3,442.6,425.3,442.6,423.6,442.6z M442.8,390.3L442.8,390.3 c0,10.8,0,21.6,0,33.3c0,3.3,0.8,4.2,4.2,4.2c10.8,0,21.6,0,32.4,0c5,0,11.6-6.7,11.6-11.6c0-15,0-30.8,0-45.7 c0-5.8-0.8-10-5.8-13.3c-1.7-0.8-3.3-2.5-5-2.5c-11.6,0-22.5,0-34.1,0c-2.5,0-3.3,0.8-3.3,3.3C442.8,367.8,442.8,379.5,442.8,390.3z "></path> <path style="fill:#EA3358;" d="M668.1,390.3c0-10.8,0-21.6,0-32.4c0-1.7,0.8-3.3,1.7-5c4.2-4.2,8.3-8.3,12.5-12.5 c0.8-0.8,3.3-1.7,4.2-1.7c16.6,0,33.3,0,50.7,0c1.7,0,3.3,0.8,4.2,1.7l0,0c5,5,11.6,9.1,14.1,15c2.5,5.8,0.8,13.3,0.8,20 c0,15.8,0,31.6,0,47.4c0,1.7-0.8,4.2-2.5,5c-4.2,4.2-7.5,8.3-12.5,11.6c-1.7,0.8-3.3,2.5-5,2.5c-16.6,0-32.4,0-49.1,0 c-1.7,0-4.2-0.8-5-1.7c-4.2-4.2-8.3-8.3-12.5-12.5c-0.8-0.8-1.7-3.3-1.7-5C668.1,412.7,668.1,401.1,668.1,390.3z M738.8,391.1 c0-7.5,0-14.1,0-21.6c0-5.8-1.7-9.1-5-12.5c-2.5-2.5-5-3.3-8.3-3.3c-9.1,0-17.5,0-26.6,0c-5.8,0-12.5,6.7-12.5,12.5 c0,15,0,29.9,0,44.9c0,5.8,0.8,10.8,5.8,14.1c1.7,1.7,3.3,2.5,5.8,2.5c8.3,0,17.5,0,25.8,0c4.2,0,6.7-0.8,10-4.2 c3.3-3.3,5-6.7,5-11.6C738.8,405.2,738.8,398.6,738.8,391.1z"></path> <path style="fill:#EA3358;" d="M628.2,338.7c0,5,0,9.1,0,15c-1.7,0-2.5,0-4.2,0c-16.6,0-32.4,0-49.1,0c-3.3,0-4.2,0.8-4.2,4.2 c0,7.5,0,14.1,0,21.6c0,3.3,0.8,4.2,4.2,4.2c15,0,29.9,0,44.9,0c1.7,0,2.5,0,4.2,0c0,5,0,10,0,15c-1.7,0-2.5,0-4.2,0 c-15,0-29.9,0-44.9,0c-3.3,0-4.2,0.8-4.2,4.2c0,7.5,0,15,0,22.5c0,3.3,0.8,4.2,4.2,4.2c16.6,0,32.4,0,49.1,0c1.7,0,2.5,0,4.2,0 c0,5,0,10,0,14.1c-24.9,0-49.9,0-75.7,0c0-34.1,0-69,0-103.9C577.5,338.7,602.4,338.7,628.2,338.7z"></path> <path style="fill:#EA3358;" d="M274.8,420.2c0.8-0.8,0.8-2.5,1.7-3.3c8.3-24.9,16.6-50.7,24.9-75.7c0.8-2.5,1.7-3.3,4.2-3.3 c5,0,10,0,16.6,0c-0.8,3.3-1.7,6.7-3.3,10c-10,28.3-20.8,56.5-30.8,84.8c-0.8,0.8-0.8,2.5-1.7,3.3c-2.5,6.7-2.5,6.7-9.1,6.7 c-2.5,0-5.8,0-8.3,0c-2.5,0-4.2-0.8-5-3.3c-11.6-33.3-23.3-65.7-34.9-98.9c0-0.8,0-0.8,0-2.5c5.8,0,11.6,0,17.5,0 c0.8,0,1.7,1.7,2.5,3.3c8.3,24.9,16.6,49.9,24.9,74c0.8,1.7,0.8,2.5,1.7,4.2C274,420.2,274.8,420.2,274.8,420.2z"></path> <path style="fill:#EA3358;" d="M379.6,442.6c-5.8,0-12.5,0-18.3,0c0-34.9,0-69,0-103.9c5.8,0,11.6,0,18.3,0 C379.6,373.6,379.6,407.7,379.6,442.6z"></path> <path style="fill:#EA3358;" d="M316.4,288c-0.8-0.8-2.5-1.7-2.5-3.3c-1.7-5-3.3-10.8-5-15.8c-0.8-2.5,0-4.2,2.5-5 c11.6-4.2,10-4.2,13.3,6.7c0.8,3.3,2.5,6.7,3.3,10c0,1.7,0,3.3-0.8,4.2C323,285.5,319.7,286.3,316.4,288z"></path> <path style="fill:#EA3358;" d="M622.4,243.1c2.5-7.5,8.3-6.7,14.1-6.7c2.5,7.5,1.7,10.8-3.3,15.8C629,248.9,625.7,246.4,622.4,243.1 z"></path> </svg> 