<?xml version="1.0" encoding="UTF-8"?> <svg xmlns="http://www.w3.org/2000/svg" xmlns:xlink="http://www.w3.org/1999/xlink" version="1.1" id="Layer_1" x="0px" y="0px" viewBox="0 0 1000 1000" style="enable-background:new 0 0 1000 1000;" xml:space="preserve"> <g> <path style="fill-rule:evenodd;clip-rule:evenodd;fill:#EA3358;" d="M933.5,460.4c-1.1-1.1-2.6-1.8-4.2-1.8c-1.5,0-3,0.6-4.1,1.7 l-56.4,54.2c-1.3,1.3-3.1,2-5,2s-3.6-0.7-5-2l-39.9-38.3c0.2-2.8,0.3-5.7,0.3-8.6c0-9.8-1.2-19.1-3.6-27.9l42.4,43.7 c1.5,1.6,3.6,2.4,5.8,2.4s4.2-0.9,5.8-2.4l84.6-86.1c3.1-3.1,3.1-8.2,0-11.3l-19.1-19.4c-1.5-1.6-3.6-2.4-5.8-2.4 c-2.1,0-4.1,0.8-5.6,2.3l-56.4,54.2c-0.9,0.9-2.2,1.4-3.5,1.4s-2.6-0.5-3.5-1.4l-56.5-54.2c-1.5-1.4-3.5-2.2-5.6-2.2 c-2.2,0-4.2,0.8-5.7,2.4l-17.7,17.7c-1.4-0.9-2.9-1.8-4.4-2.6c-15-8.4-31.7-12.7-49.6-12.7s-34.6,4.3-49.6,12.7 c-15,8.4-27.1,20.2-35.9,35.2c-8.8,14.9-13.2,32-13.2,50.9c0,18.8,4.4,35.9,13.2,50.9c8.8,14.9,20.8,26.7,35.9,35 c15,8.3,31.7,12.5,49.6,12.5c18.1,0,34.8-4.2,49.8-12.5c14.8-8.2,26.6-19.9,35.3-34.6l53.7,55.4c1.1,1.2,2.6,1.8,4.3,1.8 c1.6,0,3.1-0.6,4.2-1.8l84.6-86.1c2.3-2.3,2.3-6,0-8.3L933.5,460.4z M753.7,504.3c-8,9-19.1,13.5-33,13.5c-14,0-25.2-4.5-33.1-13.5 c-7.9-8.9-12-21.3-12-36.8c0-15.3,4-27.5,12-36.5c7.9-9,19.1-13.5,33.1-13.5c13.8,0,24.9,4.6,33,13.6c8,9,12.1,21.3,12.1,36.3 C765.8,483,761.7,495.4,753.7,504.3z"></path> <path style="fill-rule:evenodd;clip-rule:evenodd;fill:#EA3358;" d="M343.8,312.1h-44.7c-2.2,0-3.9,1.8-3.9,3.9v63.7 c0,2.8-2.3,5.1-5.1,5.1h-56.5c-2.8,0-5.1-2.3-5.1-5.1V316c0-2.2-1.8-3.9-3.9-3.9h-44.7c-2.2,0-3.9,1.8-3.9,3.9v28l-52.9-54.5 c-1.1-1.2-2.6-1.8-4.3-1.8c-1.6,0-3.1,0.6-4.2,1.8L30,375.6c-2.3,2.3-2.3,6,0,8.3l19.1,19.4c1.1,1.1,2.6,1.8,4.2,1.8 c1.5,0,3-0.6,4.1-1.7l56.4-54.2c1.3-1.3,3.1-2,5-2c1.9,0,3.6,0.7,5,2l52.2,50.1v34.1l-51.4-53c-1.5-1.6-3.6-2.4-5.8-2.4 c-2.2,0-4.2,0.9-5.8,2.4l-84.8,86c-3.1,3.1-3.1,8.2,0,11.3l19.1,19.4c1.5,1.6,3.6,2.4,5.8,2.4c2.1,0,4.1-0.8,5.6-2.3l56.4-54.2 c0.9-0.9,2.2-1.4,3.5-1.4s2.6,0.5,3.5,1.4l53.6,51.5v5.9c0,2.2,1.8,3.9,3.9,3.9h44.7c2.2,0,3.9-1.8,3.9-3.9v-68.6 c0-2.8,2.3-5.1,5.1-5.1h56.5c2.8,0,5.1,2.3,5.1,5.1v68.6c0,2.2,1.8,3.9,3.9,3.9h44.7c2.2,0,3.9-1.8,3.9-3.9V316 C347.7,313.9,345.9,312.1,343.8,312.1z"></path> <path style="fill-rule:evenodd;clip-rule:evenodd;fill:#EA3358;" d="M397.3,504.3H442c2.2,0,3.9-1.8,3.9-3.9V316 c0-2.1-1.7-3.9-3.9-3.9h-44.7c-2.2,0-3.9,1.8-3.9,3.9v184.4C393.4,502.6,395.2,504.3,397.3,504.3z"></path> <path style="fill-rule:evenodd;clip-rule:evenodd;fill:#EA3358;" d="M606.9,524.2h-51.1c-2.8,0-5.1-2.3-5.1-5.1V375.9 c0-2.2-1.8-3.9-3.9-3.9h-44.7c-2.2,0-3.9,1.8-3.9,3.9v184.4c0,2.2,1.8,3.9,3.9,3.9h104.8c2.2,0,3.9-1.8,3.9-3.9v-32.1 C610.8,526,609,524.2,606.9,524.2z"></path> <path style="fill-rule:evenodd;clip-rule:evenodd;fill:#EA3358;" d="M717.8,666.7c-1.1-1.2-2.2-2.3-3.5-3.3 c-1.1-0.9-2.7-1.8-4.8-2.6c-2.1-0.9-3.8-1.5-4.9-1.9c-1.2-0.4-3-1-5.5-1.8c-5-1.6-8.5-3.1-10.4-4.5c-1.9-1.3-3-3.5-2.9-5.8 c0-2.5,0.9-4.5,2.8-6c1.9-1.5,4.4-2.2,7.6-2.2c6.5,0,11.1,3.1,13.9,9.3l9.2-5.3c-2-4.4-5.2-8.1-9.2-10.7c-4-2.6-8.6-3.9-13.9-3.9 c-5.9,0-10.9,1.7-15,5.2c-4.2,3.4-6.2,8.1-6.2,13.9c0,3,0.5,5.5,1.6,7.8c1.1,2.2,2.8,4.2,4.9,5.5c1.9,1.4,4,2.5,6.2,3.5 c2.5,1,5.1,1.9,7.7,2.6c5.6,1.7,9.5,3.3,11.7,4.7s3.3,3.5,3.3,6.2c0.1,2.5-1.1,4.8-3.1,6.3c-2,1.6-5.1,2.4-9.2,2.4 c-8.3,0-13.8-3.7-16.5-11.2l-9.4,5.5c1.7,4.9,4.9,9.1,9.3,11.9c4.4,2.9,9.9,4.3,16.2,4.3c7,0,12.7-1.7,17-5.2s6.5-8.2,6.5-14.2 c0-1.9-0.2-3.9-0.8-5.8C719.9,669.5,719,668,717.8,666.7z"></path> <path style="fill-rule:evenodd;clip-rule:evenodd;fill:#EA3358;" d="M337.9,661.9c2.4-3.4,3.7-7.4,3.6-11.6c0-5.9-2.1-11-6.2-15.1 c-4.1-4.1-9.2-6.2-15.1-6.2h-26.5v66.2h10.9v-24.1h12.9l14,24.1h11.9l-15-25.7C332.3,668,335.6,665.3,337.9,661.9z M320.3,661.4 h-15.6v-22.1h15.6c2.8,0,5.5,1.1,7.4,3.2c4,4.5,4,11.2,0,15.7C325.8,660.2,323.1,661.4,320.3,661.4z"></path> <polygon style="fill-rule:evenodd;clip-rule:evenodd;fill:#EA3358;" points="853.1,673.9 821.9,629 813.4,629 813.4,695.2 824.3,695.2 824.3,650.3 855.5,695.2 864,695.2 864,629 853.1,629 "></polygon> <polygon style="fill-rule:evenodd;clip-rule:evenodd;fill:#EA3358;" points="204.1,695.2 217.5,695.2 217.5,662.1 250.7,662.1 250.7,649.3 217.5,649.3 217.5,626.4 251.9,626.4 251.9,613.6 204.1,613.6 "></polygon> <polygon style="fill-rule:evenodd;clip-rule:evenodd;fill:#EA3358;" points="570.4,666.9 596.9,666.9 596.9,656.6 570.4,656.6 570.4,639.4 599.2,639.4 599.2,629 559.5,629 559.5,695.2 599.7,695.2 599.7,684.8 570.4,684.8 "></polygon> <rect x="265.2" y="629" style="fill-rule:evenodd;clip-rule:evenodd;fill:#EA3358;" width="10.9" height="66.2"></rect> <path style="fill-rule:evenodd;clip-rule:evenodd;fill:#EA3358;" d="M765.1,627.8c-9.6,0-17.7,3.3-24.4,10s-10,14.8-10,24.4 c0,9.6,3.3,17.7,10,24.4c6.7,6.6,14.8,10,24.4,10c9.6,0,17.7-3.3,24.4-10s10-14.8,10-24.4c0-9.6-3.3-17.7-10-24.4 C782.8,631.1,774.6,627.8,765.1,627.8z M781.7,679.1c-4.5,4.5-10.1,6.8-16.7,6.8s-12.2-2.3-16.7-6.8s-6.8-10.2-6.8-17 s2.3-12.5,6.8-17s10.1-6.8,16.7-6.8s12.2,2.3,16.7,6.8s6.8,10.2,6.8,17C788.5,668.9,786.3,674.6,781.7,679.1z"></path> <path style="fill-rule:evenodd;clip-rule:evenodd;fill:#EA3358;" d="M658.4,661.9c2.4-3.4,3.7-7.4,3.6-11.6c0-5.9-2.1-11-6.2-15.1 c-4.1-4.1-9.2-6.2-15.1-6.2h-26.5v66.2h11v-24.1h12.9l14,24.1H664l-15-25.7C652.8,668,656.1,665.3,658.4,661.9z M640.8,661.4h-15.6 v-22.1h15.6c2.8,0,5.5,1.1,7.4,3.2c4,4.5,4,11.2,0,15.7C646.3,660.2,643.6,661.4,640.8,661.4z"></path> <path style="fill-rule:evenodd;clip-rule:evenodd;fill:#EA3358;" d="M521.2,613.6h-30.1v81.7h13.4v-28h16.7 c7.7,0,14.1-2.6,19.3-7.8s7.8-11.5,7.8-19.1s-2.6-14-7.8-19.1C535.3,616.1,528.9,613.6,521.2,613.6z M531,650.6 c-2.6,2.7-5.8,4-9.8,4h-16.7v-28.5h16.7c4,0,7.2,1.3,9.8,4s3.8,6.1,3.8,10.2C534.8,644.5,533.5,647.9,531,650.6z"></path> <path style="fill-rule:evenodd;clip-rule:evenodd;fill:#EA3358;" d="M397.4,666.7c-1.1-1.2-2.2-2.3-3.5-3.3 c-1.1-0.9-2.7-1.8-4.8-2.6c-2.1-0.9-3.8-1.5-4.9-1.9c-1.2-0.4-3-1-5.5-1.8c-5-1.6-8.5-3.1-10.4-4.5c-1.9-1.3-3-3.5-2.9-5.8 c0-2.5,0.9-4.5,2.8-6c1.9-1.5,4.4-2.2,7.6-2.2c6.5,0,11.1,3.1,13.9,9.3l9.2-5.3c-2-4.4-5.2-8.1-9.2-10.7c-4-2.6-8.6-3.9-13.9-3.9 c-5.9,0-10.9,1.7-15,5.2c-4.2,3.4-6.2,8.1-6.2,13.9c0,3,0.5,5.5,1.6,7.8c1.1,2.2,2.8,4.2,4.9,5.5c1.9,1.4,4,2.5,6.2,3.5 c2.5,1,5.1,1.9,7.7,2.6c5.6,1.7,9.5,3.3,11.7,4.7s3.3,3.5,3.3,6.2c0.1,2.5-1.1,4.8-3.1,6.3c-2,1.6-5.1,2.4-9.2,2.4 c-8.3,0-13.8-3.7-16.5-11.2l-9.4,5.5c1.7,4.9,4.9,9.1,9.3,11.9c4.4,2.9,9.9,4.3,16.2,4.3c7,0,12.7-1.7,17-5.2s6.5-8.2,6.5-14.2 c0-1.9-0.2-3.9-0.8-5.8C399.5,669.5,398.6,668,397.4,666.7z"></path> <polygon style="fill-rule:evenodd;clip-rule:evenodd;fill:#EA3358;" points="408.7,639.4 427.4,639.4 427.4,695.2 438.3,695.2 438.3,639.4 456.9,639.4 456.9,629 408.7,629 "></polygon> <path style="fill-rule:evenodd;clip-rule:evenodd;fill:#EA3358;" d="M95.9,607.8c10.1,22.7,17.4,49.8,77.6,45.1 C170.4,608.7,128.4,590.4,95.9,607.8z"></path> <path style="fill-rule:evenodd;clip-rule:evenodd;fill:#EA3358;" d="M95.9,705.9c32.5,17.4,74.5-1,77.6-45.1 C113.3,656,106,683.1,95.9,705.9z"></path> </g> </svg> 