<?xml version="1.0" encoding="UTF-8"?> <svg xmlns="http://www.w3.org/2000/svg" xmlns:xlink="http://www.w3.org/1999/xlink" version="1.1" id="Layer_1" x="0px" y="0px" viewBox="0 0 1000 1000" style="enable-background:new 0 0 1000 1000;" xml:space="preserve"> <path id="Shape_00000040541709403781856770000002505458042668340373_" style="fill:#EA3358;" d="M390.9,683.8 c1.9-2.6,2.9-5.8,2.8-9.1c0-4.6-1.6-8.6-4.8-11.8c-3.2-3.2-7.2-4.8-11.8-4.8h-20.7v51.7h8.5V691H375l10.9,18.8h9.3l-11.7-20.1 C386.5,688.5,389.1,686.4,390.9,683.8L390.9,683.8L390.9,683.8z M377.1,683.4h-12.2v-17.3h12.2c2.2,0,4.3,0.9,5.8,2.5 c3.2,3.5,3.2,8.8,0,12.3C381.4,682.5,379.3,683.4,377.1,683.4L377.1,683.4z M437.3,687.5c-0.8-0.9-1.7-1.8-2.7-2.6 c-0.8-0.7-2.1-1.4-3.7-2.1c-1.7-0.7-2.9-1.2-3.8-1.5s-2.4-0.8-4.3-1.4c-3.9-1.2-6.7-2.4-8.2-3.5c-1.5-1-2.3-2.7-2.3-4.5 c0-2,0.7-3.5,2.2-4.7s3.4-1.7,5.9-1.7c5.1,0,8.7,2.4,10.9,7.2l7.2-4.1c-1.6-3.4-4-6.3-7.2-8.4c-3.1-2-6.7-3-10.9-3 c-4.6,0-8.5,1.3-11.7,4c-3.3,2.7-4.9,6.3-4.9,10.9c0,2.3,0.4,4.3,1.3,6.1s2.2,3.2,3.8,4.3c1.5,1.1,3.1,2,4.8,2.7c2,0.8,4,1.5,6,2.1 c4.4,1.3,7.4,2.5,9.2,3.7c1.7,1.1,2.6,2.7,2.6,4.8c0,1.9-0.9,3.8-2.4,4.9c-1.6,1.3-4,1.9-7.2,1.9c-6.5,0-10.8-2.9-12.9-8.7l-7.3,4.3 c1.3,3.8,3.9,7.1,7.3,9.3c3.5,2.3,7.7,3.4,12.7,3.4c5.5,0,9.9-1.4,13.3-4.1c3.4-2.7,5.1-6.4,5.1-11.1c0-1.5-0.2-3-0.6-4.5 C439,689.7,438.3,688.5,437.3,687.5L437.3,687.5z M446.2,666.2h14.6v43.6h8.5v-43.6h14.6v-8.1h-37.7V666.2L446.2,666.2z M286.3,709.8h10.5v-25.9h26v-10h-26V656h26.9v-10h-37.4V709.8L286.3,709.8z M334.1,709.8h8.5v-51.7h-8.5V709.8z M572.5,687.7h20.7 v-8.1h-20.7v-13.5H595V658h-31v51.7h31.4v-8.1h-22.9V687.7L572.5,687.7z M724.7,657.1c-7.5,0-13.8,2.6-19,7.8s-7.8,11.5-7.8,19 s2.6,13.8,7.8,19s11.5,7.8,19,7.8s13.8-2.6,19-7.8s7.8-11.5,7.8-19s-2.6-13.8-7.8-19C738.5,659.7,732.2,657.1,724.7,657.1 L724.7,657.1L724.7,657.1z M737.7,697.2c-3.5,3.5-7.9,5.3-13,5.3s-9.5-1.8-13-5.3s-5.3-7.9-5.3-13.3c0-5.3,1.8-9.7,5.3-13.3 c3.5-3.5,7.9-5.3,13-5.3s9.5,1.8,13,5.3s5.3,7.9,5.3,13.3S741.2,693.7,737.7,697.2L737.7,697.2z M641.3,683.8 c1.9-2.6,2.9-5.8,2.8-9.1c0-4.6-1.6-8.6-4.8-11.8s-7.2-4.8-11.8-4.8h-20.7v51.7h8.5V691h10.1l10.9,18.8h9.3l-11.8-20.1 C636.9,688.5,639.5,686.4,641.3,683.8L641.3,683.8z M627.5,683.4h-12.2v-17.3h12.2c2.2,0,4.3,0.9,5.8,2.5c3.2,3.5,3.2,8.8,0,12.3 C631.8,682.5,629.7,683.4,627.5,683.4L627.5,683.4L627.5,683.4z M687.8,687.5c-0.8-0.9-1.7-1.8-2.7-2.6c-0.8-0.7-2.1-1.4-3.7-2.1 c-1.6-0.7-2.9-1.2-3.8-1.5c-0.9-0.3-2.4-0.8-4.3-1.4c-3.9-1.2-6.7-2.4-8.2-3.5c-1.5-1-2.3-2.7-2.3-4.5c0-2,0.7-3.5,2.2-4.7 s3.4-1.7,5.9-1.7c5.1,0,8.7,2.4,10.9,7.2l7.2-4.1c-1.6-3.4-4-6.3-7.2-8.4c-3.1-2-6.7-3-10.9-3c-4.6,0-8.5,1.3-11.7,4 c-3.3,2.7-4.9,6.3-4.9,10.9c0,2.3,0.4,4.3,1.3,6.1c0.9,1.8,2.2,3.2,3.8,4.3c1.5,1.1,3.1,2,4.8,2.7c2,0.8,4,1.5,6,2.1 c4.4,1.3,7.4,2.5,9.2,3.7c1.7,1.1,2.6,2.7,2.6,4.8c0,1.9-0.9,3.8-2.4,4.9c-1.6,1.3-4,1.9-7.2,1.9c-6.5,0-10.8-2.9-12.9-8.7l-7.3,4.3 c1.3,3.8,3.9,7.1,7.3,9.3c3.5,2.3,7.7,3.4,12.7,3.4c5.5,0,9.9-1.4,13.3-4.1c3.4-2.7,5.1-6.4,5.1-11.1c0-1.5-0.2-3-0.6-4.5 C689.4,689.7,688.7,688.5,687.8,687.5L687.8,687.5L687.8,687.5z M534.1,646h-23.5v63.8h10.5v-21.9h13c6,0,11-2,15.1-6.1 c4-4,6.1-9,6.1-14.9c0-6-2-10.9-6.1-14.9C545.1,648,540.1,646,534.1,646L534.1,646z M541.7,674.9c-2,2.1-4.6,3.1-7.7,3.1h-13v-22.2 h13c3.1,0,5.7,1,7.7,3.1s3,4.8,3,8C544.8,670.2,543.8,672.8,541.7,674.9L541.7,674.9L541.7,674.9z M793.5,658.1v35.1l-24.4-35.1 h-6.7v51.7h8.5v-35.1l24.4,35.1h6.7v-51.7H793.5L793.5,658.1z"></path> <path id="Path-5_00000070797526694466132510000000040002632244785069_" style="fill-rule:evenodd;clip-rule:evenodd;fill:#EA3358;" d=" M199.1,632.4c25.4-13.6,58.2,0.7,60.7,35.3C212.6,671.4,206.9,650.1,199.1,632.4z"></path> <path id="Path-7_00000149367024305364704460000002479639474513150353_" style="fill-rule:evenodd;clip-rule:evenodd;fill:#EA3358;" d=" M201.8,718.1c25.4,13.6,58.2-0.7,60.7-35.3C215.3,679.2,209.7,700.4,201.8,718.1z"></path> <path style="fill:#EA3358;" d="M385.1,233.6c1.5,0.2,2.9,0.5,4.4,0.6c6.2,0.7,12.2,2.5,18.3,4c18.4,4.7,36.7,9.5,55.1,14.2 c13,3.4,23.8,10.2,32.8,20.1c9.6,10.5,15.7,22.8,18.7,36.7c2,9.2,2.1,18.4,1,27.8c-0.7,6.4-1.9,12.7-4.1,18.7 c-8.5,22.4-23.5,37.9-47.3,43.9c-8.2,2.1-16.5,1.9-24.8,0.6c-12.6-2-25.3-3.9-37.9-5.8c-11.7-1.8-23.5-3.3-35.2-5.5 c-20.9-3.9-36.9-15.3-48.4-33.1c-5.4-8.4-8.8-17.6-10.6-27.4c-1.5-8.4-1.6-16.8-0.3-25.2c1.5-9.2,3.6-18.3,7.8-26.7 c10.7-21.8,27.9-35.6,51.6-41.1c3-0.7,6-0.9,9.1-1.4c0.5-0.1,1.1-0.3,1.6-0.4C379.7,233.6,382.4,233.6,385.1,233.6z M419.4,296.9 c-0.1,0.9-0.1,1.5-0.2,2.1c-0.7,3.5-1.5,6.9-2,10.5c-0.5,3.1-0.8,6.2-1.1,9.3c0,0.3,0.3,0.6,0.5,1c0.3-0.2,0.7-0.4,0.9-0.7 c0.4-0.8,0.7-1.6,0.9-2.4c1.6-5.7,3.3-11.5,4.9-17.2c0.1-0.4,0.2-0.8,0.5-1.6c0.7,1.1,1.2,1.9,1.7,2.6c2.4,3.6,4.7,7.3,7.1,10.9 c0.8,1.2,1.7,2,3.5,1.6c-0.3-0.8-0.4-1.5-0.8-2.1c-3.1-6.1-6.2-12.3-9.5-18.3c-0.7-1.4-0.8-2.6-0.2-4.1c5.6,1.1,11.2,2.3,16.9,2.4 c-0.1-1.4,0-1.4-1.1-1.8c-4.2-1.5-8.4-3-12.6-4.5c-0.8-0.3-1.6-0.5-2.6-0.7c0.2-1.4,0.4-2.6,0.6-3.9s0.4-2.7,0.4-4 c0-1.2,0.6-2.5-0.5-3.9c-1.9,3.5-2.6,7.3-3.9,10.9c-0.7-0.1-1.3-0.2-1.9-0.3c-2.2-0.4-4.5-0.9-6.7-1.3c-2.5-0.4-5.1-0.7-7.6-1 c-0.8-0.1-1.6-0.1-1.5,1.3c5.2,2.7,10.9,4,16.4,5.8c0.2,1.7-0.4,2.7-1.7,3.6c-3.2,2.2-6.4,4.5-9.5,6.9c-2.9,2.2-5.6,4.5-8.5,6.8 c1.4,1.3,2.7,1.2,4,0.3c3.9-2.4,7.7-4.8,11.6-7.2C417.9,297.7,418.5,297.4,419.4,296.9z M449.2,275.7c-0.7,3.4-1.3,6.8-1.9,10.1 c-1.4,7.2-2.8,14.5-4.2,21.7c-0.9,4.7-1.7,9.5-2.6,14.2c-0.7,3.4-1.5,3.9-4.9,3.3c-3.5-0.6-7-1.2-10.6-1.8c-0.2,0.9-0.4,1.7-0.7,2.6 c4.2,1.1,8.2,2.2,12.2,3.2c1.9,0.5,3.6-0.1,5.1-1.5c1.2-1.2,2-2.6,2.3-4.2c0.9-4.2,1.9-8.3,2.7-12.5c2.3-11.7,4.6-23.4,6.9-35.1 c0.2-1,0.3-2.1,0.4-3.2c-11-2.9-22-5.4-33.2-7.7c-0.1,0.9-0.2,1.6-0.3,2.4C430,270,439.4,272.8,449.2,275.7z M452.2,379.6 c0.9-4.4,1.6-8.4,2.4-12.5c2.3-0.1,3.7,0.8,4.3,2.8c0.2,0.6,0.4,1.2,0.6,1.8c0.7,2.6,1.3,5.2,2,7.8c0.2,0.8,0.2,1.8,1.3,2 c1.2,0.2,2.4,0.4,4,0.7c-1.3-5-1.7-10-4.5-14.3c0.4-0.1,0.7-0.3,1-0.3c2-0.4,3.3-1.5,4.3-3.2c1.2-2,1.6-4.2,1.5-6.6 c-0.2-3.3-1.7-5.6-4.9-6.5c-3.4-0.9-6.9-1.5-10.6-2.3c-1.9,10-3.7,19.7-5.5,29.7C449.5,379.1,450.8,379.3,452.2,379.6z M344.4,359.2 c1.7,0.3,3.1,0.6,4.8,0.9c1.1-4.1,2.1-7.9,3.2-11.9c0.9,0.2,1.6,0.3,2.3,0.5c1.5,0.2,3.1,0.5,4.6,0.6c3.4,0.3,5.7-1.4,7.3-4.2 c1.8-3.1,2.3-6.4,1.9-9.9c-0.3-2.3-1.5-4.1-3.8-4.7c-3.9-1-7.8-1.9-11.9-2.8C349.9,338.3,347.2,348.6,344.4,359.2z M400.6,338 c-5.3,9.6-10.5,19.2-15.8,28.9c1.8,0.3,3.3,0.6,4.7,0.8c1.2-2.3,2.4-4.5,3.6-6.7c3.1,0.6,6.1,1.2,9.2,1.8c0.2,2.6,0.3,4.9,0.5,7.5 c1.6,0.3,3.1,0.5,4.8,0.8c-0.8-10.9-1.5-21.5-2.3-32.1C403.6,338.7,402.2,338.4,400.6,338z M434,345.1c-0.7,3.6-1.4,6.9-2,10.3 c-0.6,3.3-1.3,6.5-2,9.8s-1.5,6.6-1.9,10c5.5,1.1,10.7,2.1,16.2,3.1c0.3-1.8,0.5-3.3,0.8-4.9c-4-1.1-8-1.4-12-2.6 c1-2.8,0.9-5.6,2-8.2c3.6,0.7,6.9,1.3,10.4,2c0.3-1.7,0.6-3.2,1-4.8c-3.7-0.8-7.1-1.5-10.7-2.3c0.5-2.3,0.9-4.5,1.3-6.7 c3.9,0.8,7.6,1.5,11.4,2.3c0.3-1.7,0.6-3.1,1-4.8C444.4,347.2,439.4,346.2,434,345.1z M426.7,343.6c-2.6,3.4-4.8,7.1-7.4,10.4 c-0.3-0.3-0.4-0.4-0.4-0.5c-0.6-2.7-1.1-5.4-1.7-8.1c-0.8-4.2-0.8-4.2-5.2-4.8c-0.1,0-0.2,0.1-0.5,0.2c0,0.4,0,0.8,0.1,1.2 c1.1,5,2.3,10,3.5,14.9c0.4,1.7,0.4,3.4,0.1,5c-0.5,2.2-1,4.4-1.5,6.7c-0.2,1.2-0.4,2.4-0.6,3.7c1.4,0.3,2.7,0.6,4.1,0.8 c0.2-0.9,0.5-1.5,0.6-2.2c0.6-2.8,1.2-5.6,1.7-8.3c0.3-1.4,0.7-2.7,1.6-3.9c3-3.9,5.8-7.9,8.7-11.9c0.5-0.7,0.9-1.3,1.5-2.2 C429.6,344.2,428.2,343.9,426.7,343.6z M373.1,359.2c2.1-8.6,4-16.9,6.1-25.5c-1.6-0.3-3-0.6-4.5-0.9c-2.5,10.3-5,20.4-7.5,30.7 c5.6,1.1,11,2.1,16.5,3.2c0.4-1.9,0.7-3.4,1.1-5.2C380.9,360.7,377.1,360,373.1,359.2z M389.2,318.7c1.1,0.5,1.6,0.1,1.8-0.6 c1-2.9,2-5.7,2.9-8.7c2.5-8.5,4.8-17.1,6.3-25.8c0.8-4.8,1.5-9.5,2.2-14.3c0.1-0.3,0.2-0.7,0.1-1.1s-0.4-0.7-0.6-1 c-0.4,0.3-0.7,0.5-1.1,0.8c-0.1,0.1-0.1,0.4-0.2,0.6c-1.9,6.2-4.1,12.4-5.6,18.7c-1.8,7.3-3.3,14.8-4.7,22.3 C389.8,312.6,389.6,315.6,389.2,318.7z M414.2,269.9c-0.2-1.4-0.3-2.4-0.6-3.5c-0.8-3.8-2.3-7.3-4.8-10.3c-0.4-0.5-0.8-1-1.6-0.7 c-0.8,0.3-0.8,1-0.7,1.6c0.4,1.9,0.6,3.9,1.2,5.8c0.9,2.8,2.2,5.4,4.2,7.5c0.3,0.3,0.9,0.6,1.3,0.4 C413.7,270.7,413.9,270.1,414.2,269.9z"></path> <path style="fill:#EA3358;" d="M451.2,591c-2.3-0.3-4.5-0.5-6.8-0.8c-18.1-2.2-32.6-10.7-43.8-24.9c-6.4-8.1-10.4-17.4-12.4-27.5 c-0.2-1.2-0.4-2.4-0.5-3.6c0-0.1-0.1-0.3,0-0.4c1-2.4,0.2-4.8,0.3-7.3c0.1-2.5,0-5,0.1-7.5c0.2-7.1,1.8-13.9,4.2-20.5 c0.3-0.8,0.9-1.5,0.4-2.6c-0.2-0.5,0.4-1.4,0.8-2.1c4.1-8.4,9.8-15.6,16.9-21.7c10.4-9,22.6-13.8,36.2-15.1c9.6-0.9,19-0.4,28.2,2.6 c14.9,4.8,26.7,13.7,35,27.1c0.3,0.5,0.6,1.1,1,1.8c-0.6,0.4-1.2,0.8-1.8,1.2c-3.4,2-6.8,3.9-10.2,5.9c-1,0.6-2.1,0.8-3.2,0.8 c-1,0-1.5-0.3-2-1.2c-1.8-3.2-4.2-6.1-6.9-8.6c-10-9.1-21.8-13-35.2-12.3c-7.5,0.4-14.6,2.1-21.3,5.6c-6.6,3.6-12,8.5-16.4,14.6 c-0.6,0.8-0.9,1.7-2.1,2c-0.3,0.1-0.6,0.6-0.8,0.9c-3.2,5.6-5.4,11.6-6.1,18c-0.3,2.8-0.6,5.6-0.7,8.5c-0.1,2.2,0.2,4.4,0.5,6.6 c0.1,1,0.1,2,1.1,2.8c0.7,0.6,0.6,2,0.8,3c4,17.7,18.7,33,38.5,36c9.9,1.5,19.6,1,28.8-3.1c8.8-3.9,15.9-9.8,20.6-18.3 c0.1-0.2,0.3-0.5,0.4-0.7c0-0.1,0.1-0.1,0.4-0.3c5.1,2.9,10.2,5.8,15.5,8.8c-1.8,3.9-4.2,7.2-6.8,10.2 c-11.7,13.1-26.2,20.3-43.7,21.8c-0.8,0.1-1.7,0.2-2.5,0.4C455.5,591,453.3,591,451.2,591z"></path> <path style="fill:#EA3358;" d="M974.2,476.3c-12.6,0-25.1,0-37.8,0c0,0.9-0.1,1.6-0.1,2.3c0,5,0,10.1,0,15.1c0,0.9,0.2,1.8-0.6,2.5 c-0.3,0.2-0.2,0.9-0.2,1.4c0,11.2,0,22.5,0,33.7c0,0.7-0.2,1.4,0.6,1.9c0.3,0.2,0.3,0.9,0.3,1.4c0,17.6,0,35.2,0,52.9 c0,0.2-0.1,0.4-0.1,0.9c-5.8,0.2-11.6,0.1-17.6,0c0-0.9-0.1-1.6-0.1-2.3c0-16.9,0-33.8,0-50.7c0-0.9-0.2-1.8,0.6-2.6 c0.3-0.2,0.2-0.9,0.2-1.4c0.1-4.2,0.2-8.4,0.2-12.6c0-7.1-0.1-14.2-0.2-21.3c0-0.6-0.4-1.1-0.5-1.7c-0.1-0.7-0.3-1.4-0.3-2.1 c0-5,0-9.9-0.1-14.9c0-0.8,0-1.5,0-2.5c-12.6,0-25,0-37.3,0c-0.6-1.7-0.7-13.6-0.3-17.1c0.6-0.1,1.2-0.2,1.8-0.2c30,0,60,0,90,0 c0.6,0,1.1,0.1,1.7,0.2C974.2,464.9,974.2,470.6,974.2,476.3z"></path> <path style="fill:#EA3358;" d="M487.5,392.3c3-2.7,5.9-5.1,8.5-7.7c8.7-8.6,14.7-18.9,18.3-30.6c3.9-12.7,4.9-25.7,3.4-38.8 c-1.2-10.7-4.6-20.9-10.2-30.2c-0.4-0.7-0.8-1.4-1.2-2c-0.1-0.1,0-0.3-0.1-0.6c0.6-0.2,1.2-0.5,1.9-0.7 c31.7-10.2,63.4-20.4,95.1-30.7c9.1-2.9,18.3-5.9,27.4-8.8c2.9-0.9,5.6-0.9,8.2,0.6c2.1,1.2,3.6,2.9,4.4,5.3 c3.6,11.7,7.2,23.3,10.8,35c3.1,10.1,6.3,20.2,9.5,30.3c4,13,8.1,26,12.1,39c1.4,4.4,2.6,8.9,4.1,13.2c1.6,4.6-0.7,11.2-7.1,13 c-19.2,5.3-38.3,10.7-57.4,16.1c-26.1,7.3-52.1,14.6-78.2,21.9c-10.3,2.9-20.5,5.8-30.8,8.6c-5.5,1.5-10.4-1.2-11.9-6.7 C492,409.8,489.8,401,487.5,392.3z M563.2,302.7c2.9,3.8,4.5,7.9,5.4,12.3c0.3,1.7,0.4,1.8-1.1,2.5c-2.6,1.2-5.3,2.4-8,3.6 c-0.5,0.2-1.1,0.6-1.9,1c4.5,1.3,8.1-1.2,12-1.9c1.3,4.8,2.9,9.5,3.7,14.6c-7.7,3-15.2,6.1-22.9,9.1c1.1,1.4,2.7,1.9,4.3,1.6 c1.7-0.3,3.5-0.7,5.1-1.3c5.5-2,10.9-4.1,16.3-6.2c7.9-3,15.9-5.7,24.3-7.1c0.4-0.1,0.9-0.2,1.4-0.3c-1.5-1.9-2.7-2.7-4.9-2.9 c-1.7-0.1-3.5-0.2-5.1,0.3c-4.4,1.2-8.6,2.8-13,4.2c-0.8,0.3-1.6,0.5-2.6,0.9c-1.2-5-2.4-9.8-3.6-14.8c1.6-0.6,3.1-1.2,4.5-1.8 c1.8-0.7,3.6-1.4,5.3-2.3c1.1-0.5,1.9-1.3,2.2-2.6c-1.3-0.7-2.6-0.7-3.9-0.3c-2.3,0.7-4.5,1.6-6.8,2.5c-0.7,0.3-1.4,0.5-2.3,0.9 c-0.4-3.4-0.9-6.5-1.2-9.6c-0.3-2.6-0.8-3.2-3.4-3.6C565.9,301.4,564.6,301.7,563.2,302.7z M530,384.7c2-3.3,1.8-6.4-0.3-9.5 c-1.2-1.7-2.8-2.6-4.9-2.3c-1.1,0.1-2.1,0.3-3.1,0.6c-2.8,0.8-5.5,1.7-8.5,2.5c2.4,9.1,4.7,18,7.3,27.1c4-1.3,7.7-2.4,11.4-3.6 c2.1-0.7,3.2-2.3,3.7-4.3C536.7,390.7,534.5,386.6,530,384.7z M618.1,345.4c2.7,9.2,5.3,18.2,8,27.3c1.4-0.4,2.6-0.8,4-1.2 c-1.1-3.9-2.2-7.7-3.3-11.5c2.4-1.1,4.4-1,6.2,0.9c0.7,0.8,1.5,1.5,2.3,2.3c1.8,1.8,3.6,3.6,5.5,5.4c1.4-0.4,2.8-0.8,4.6-1.3 c-3.4-3.8-6.3-7.8-10.9-10.1c0.5-0.4,0.9-0.6,1.2-0.9c2.5-1.9,3.2-4.5,2.5-7.4c-1.5-5.6-4.6-8.3-10.7-6.3c-2.4,0.8-4.9,1.5-7.3,2.2 C619.4,344.9,618.8,345.2,618.1,345.4z M542.5,301.4c0.3,0.7,0.5,1.2,0.6,1.6c0.8,2.6,1.8,5.1,2.3,7.7c1.2,5.6,1.6,11.4,1,17.1 c-0.4,4.1-0.9,8.2-1.8,12.2c-0.9,4-2.4,7.9-3.6,11.8c-0.5,1.6-1.1,3.2-1.7,5.1c0.6-0.3,0.8-0.4,0.9-0.6c0.7-0.9,1.4-1.8,2-2.7 c5.3-7.9,7.5-16.8,7.9-26.1c0.3-7.2-0.3-14.3-1.6-21.4c-0.1-0.6-0.1-1.2-0.1-1.8c5.7-2.1,11.2-4,16.7-6.2c5.4-2.2,10.8-4.6,16.2-6.9 c-0.2-0.3-0.3-0.5-0.4-0.7c-1.7-1.6-3.7-1.6-5.6-0.8c-3.2,1.2-6.3,2.7-9.3,4.1c-4.5,2.1-8.9,4.4-13.5,6.4c-2.5,1.1-5.3,1.7-8.1,1.1 C543.9,301.1,543.3,301.3,542.5,301.4z M561.4,372.3c0.1-0.1,0.2-0.1,0.3-0.2c0.4,0.4,0.8,0.7,1.1,1.1c3.4,3.9,6.7,7.7,10.1,11.6 c2.6,3,1.5,2.8,5.7,1.5c0.1,0,0.2-0.2,0.5-0.4c-2.5-8.9-5-17.9-7.5-26.9c-1.3,0.4-2.4,0.7-3.6,1.1c1.7,6.1,3.3,12,4.9,17.8 c-0.1,0.1-0.3,0.1-0.4,0.2c-0.4-0.5-0.9-0.9-1.3-1.4c-3.4-3.9-6.7-7.7-10-11.6c-2.3-2.6-2.3-2.6-5.5-1.4c-0.1,0-0.2,0.2-0.4,0.4 c2.4,8.8,4.9,17.8,7.4,26.8c1.3-0.4,2.4-0.7,3.6-1.1C564.6,383.9,563,378.1,561.4,372.3z M606.3,365.2c3.8-1.1,7.2-2.1,10.8-3.2 c-0.5-1.6-0.9-2.9-1.3-4.3c-3.7,1.1-7.2,2-10.8,3.1c-0.7-2.3-1.2-4.3-1.9-6.4c4-1.2,7.7-2.3,11.6-3.5c-0.4-1.5-0.8-2.8-1.2-4.2 c-5.3,1.5-10.4,2.9-15.6,4.6c2.7,9.2,5.2,18.2,7.8,27.3c5.5-1.6,10.7-3.1,16.1-4.7c-0.5-1.6-0.9-2.9-1.3-4.3c-4.1,1.2-8,2.3-12,3.4 C607.8,370.4,607.1,367.9,606.3,365.2z M594.6,352.3c-1.5,0.4-2.6,0.8-3.7,1c-1.2,0.2-1.9,0.9-2.2,2c-0.4,1.4-0.9,2.7-1.4,4 c-1.1,3-2.1,5.9-3.2,8.9c-0.1,0-0.3,0-0.4,0c-1.1-3.9-2.3-7.8-3.4-11.8c-1.3,0.4-2.5,0.8-3.9,1.2c2.6,9.2,5.1,18.1,7.7,27.2 c1.4-0.4,2.6-0.7,3.9-1.1c-0.7-2.4-1.3-4.7-1.9-6.9c-0.1-0.5-0.4-1.2-0.2-1.6c0.6-1.8,1.3-3.5,2.1-5.6c3.4,3.9,6.5,7.6,9.8,11.4 c1.4-0.4,2.7-0.7,4-1.1c0.3-0.1,0.6-0.3,1.1-0.5c-4.4-4.8-8.7-9.5-13-14.2C591.4,360.9,592.9,356.8,594.6,352.3z M543.5,396.4 c0-2.3,0-4.4,0-6.7c3-0.9,5.8-1.6,8.6-2.4c1.3,2,2.4,3.7,3.6,5.5c0.6-0.1,1.1-0.2,1.5-0.3c0.8-0.2,1.6-0.5,2.6-0.8 c-5.3-8.3-10.5-16.5-15.7-24.7c-1.5,0.5-2.8,0.9-4.3,1.3c-0.2,9.8-0.4,19.4-0.5,29.3C540.9,397.1,542.1,396.8,543.5,396.4z M554.2,283.3c0.8,1.6,2.1,2.6,3.5,3.4c1.8,1.1,3.7,2,5.7,2.8c1.3,0.5,1.8,0,2.1-1.3c0.6-2.2-0.1-3.7-2.1-4.8 c-2.6-1.3-5.3-1.6-8.1-0.8C555,282.8,554.7,283,554.2,283.3z"></path> <path style="fill:#EA3358;" d="M19,459c0.9,0,1.6,0,2.3,0c16.6,0,33.1,0,49.7,0c13.2,0,23.5,5.7,30.9,16.6c3.8,5.7,5.2,12,5.4,18.8 c0,0.8,0.2,1.6-0.7,2c-0.2,0.1-0.3,0.7-0.3,1.1c-0.7,9.6-5.2,17.1-12.8,22.8c-0.3,0.2-0.6,0.4-0.8,0.7c-0.1,0-0.1,0.1-0.3,0.3 c0.5,0.3,1,0.6,1.5,0.9c4.4,2.4,8.3,5.4,11.4,9.4c0.3,0.3,0.5,0.8,0.9,0.9c1.6,0.3,2,1.7,2.6,2.9c4,7.4,4.7,15.2,3.3,23.4 c-2.5,14.6-15.3,26.6-29.7,28.9c-2.6,0.4-5.2,0.6-7.8,0.6c-17.7,0-35.4,0-53.1,0c-0.7,0-1.4,0-2.3,0c-0.1-0.8-0.2-1.5-0.2-2.1 c0-17.1,0-34.2,0-51.4c0-0.8-0.1-1.7,0.7-2.3c0.3-0.2,0.3-0.9,0.3-1.4c0-11.1,0-22.2,0-33.3c0-0.6-0.4-1.1-0.5-1.7 c-0.1-0.5-0.4-0.9-0.4-1.4c0-11.5,0-23,0-34.5C18.8,460,18.9,459.6,19,459z M37,571.3c0.7,0.1,1.1,0.1,1.5,0.1 c12.4,0,24.9,0.1,37.3,0c4.6,0,8.6-1.8,12-4.8c9.4-8.3,9.5-24.4-2.1-32.4c-0.4-0.3-1.2-0.5-1.2-0.8c-0.1-1.8-1.7-1.8-2.7-2.1 c-2.2-0.6-4.4-1.2-6.7-1.2c-12.4-0.1-24.9-0.1-37.3,0c-0.5,0-1.1,0.1-1.8,0.1c0.1,0.9-0.2,1.9,0.2,2.3c0.9,0.9,0.7,1.9,0.7,2.9 c0,11.1,0,22.2,0,33.3C37,569.5,37,570.2,37,571.3z M36.1,515c0.5,0.1,0.8,0.1,1.1,0.1c11.6,0,23.2,0.2,34.7,0 c9.5-0.2,16.8-7.9,18.1-16.6c0.1-0.6,0.3-1.3,0-1.7c-1-1.2-0.6-2.6-0.8-3.8c-0.1-0.9-0.2-1.8-0.5-2.7c-2.4-8.7-9.5-14.2-18.5-14.2 c-10.5-0.1-21,0-31.5,0c-0.5,0-1.1,0.1-1.6,0.2c0,0.7-0.1,1.2-0.1,1.7c0,3.3,0.1,6.7,0,10c-0.1,3.2,0.4,6.5-0.8,9.7 c-0.7,1.8-0.1,4.1-0.1,6.1C36.1,507.4,36.1,511.1,36.1,515z"></path> <path style="fill:#EA3358;" d="M676.4,588.3c-6.2,0-12.1,0-18.1,0c-0.1-0.7-0.1-1.2-0.1-1.8c0-17.3,0-34.5,0-51.8 c0-0.8-0.2-1.7,0.7-2.3c0.3-0.2,0.2-0.9,0.2-1.4c0-10.9,0-21.7,0-32.6c0-0.6-0.4-1.3-0.5-1.9c-0.1-0.5-0.3-0.9-0.3-1.4 c0-11.7,0-23.3,0-35c0-0.2,0.1-0.4,0.1-0.8c0.6-0.1,1.2-0.2,1.8-0.2c17,0,34-0.2,51,0c15.5,0.2,26.7,7.9,34.6,20.9 c2.8,4.7,4.1,9.8,4.7,15.1c0,0.3,0.2,0.7,0.1,0.8c-1.6,1.8-0.7,4-0.9,6c-0.6,8.9-4.2,16.6-10,23.2c-2.1,2.4-4.5,4.5-7.1,6.4 c-0.4,0.3-1.1,0.4-0.9,1.2c0.1,0.2-0.7,0.8-1.2,1c-1.9,1-3.9,2-6.1,3.1c10,17,20.1,34,30.3,51.4c-6.9,0.2-13.5,0-20.1,0.1 c-9.6-16.4-19.2-32.7-28.8-49c-9.8,0-19.4,0-29.4,0c0,8.2,0,16.3,0,24.5S676.4,580.1,676.4,588.3z M675.3,523.6 c0.9,0,1.6,0.1,2.2,0.1c10.5,0,21,0,31.6,0c1.6,0,3.1-0.1,4.7-0.3c11-1.6,20.5-12.7,19.5-25.5c0-0.4,0-0.9-0.1-1 c-1.1-0.8-0.9-2-1.2-3c-0.4-1.4-0.8-2.9-1.4-4.2c-4.4-8.8-11.3-13.7-21.3-13.7c-10.2,0-20.3,0-30.5,0c-0.7,0-1.4,0-2.3,0 c0,1,0,1.8,0,2.6c0,5.3,0,10.7,0,16c0,0.6,0,1.5-0.3,1.8c-0.9,0.7-0.7,1.5-0.7,2.3c0,7.5,0,15.1,0,22.6 C675.3,522,675.3,522.7,675.3,523.6z"></path> <path style="fill:#EA3358;" d="M570,459.1c6.7,0,13.3,0,20,0c1.7,4.5,3.4,8.9,5,13.4c2.8,7.5,5.6,15,8.4,22.6c0.3,0.9,1,1.8,0.3,3 c-0.2,0.4,0.3,1.2,0.5,1.8c3.9,10.3,7.7,20.6,11.6,30.9c0.2,0.7,0.4,1.3,1.2,1.6c0.4,0.1,0.6,0.7,0.7,1.2c2.6,6.8,5.1,13.5,7.6,20.3 c3.5,9.3,6.9,18.6,10.4,27.9c0.8,2.1,1.6,4.2,2.3,6.4c-1.7,0.5-16.5,0.6-19.2,0.2c-3.4-9.4-6.9-18.9-10.4-28.4c-19,0-38,0-57.1,0 c-3.5,9.5-6.9,19-10.4,28.6c-6.4,0-12.6,0-19.1,0c0.1-0.6,0.2-1.2,0.3-1.7c5.3-14.3,10.7-28.6,16-42.9c1.1-3.1,2.2-6.1,3.4-9.2 c0.4-1,0.4-2.2,1.7-2.8c0.4-0.2,0.6-0.9,0.8-1.5c3.9-10.4,7.7-20.7,11.6-31.1c0.1-0.3,0.3-0.6,0.3-0.8c-0.6-3.1,1.2-5.5,2.2-8.2 c3.6-9.9,7.3-19.7,11-29.5C569.5,460.3,569.7,459.8,570,459.1z M602.2,542.5c-0.6-1.6-1.1-2.9-1.5-4.2c-0.6-1.7-1.6-3.3-1.7-5 c-0.1-1.5-0.3-2.9-0.8-4.3c-3.7-10-7.3-20-10.9-30c-0.1-0.4-0.3-1-0.6-1.1c-1.1-0.3-1.2-1.3-1.5-2.1c-1.2-3.3-2.4-6.5-3.6-9.8 c-0.5-1.3-1-2.6-1.7-4.2c-1.8,5-3.5,9.5-5.1,14c-0.2,0.5-0.3,1.3-0.7,1.5c-1.6,0.7-1.7,2.4-2.1,3.7c-3.6,9.6-7.1,19.3-10.6,29 c-0.2,0.6-0.7,1.4-0.4,1.8c0.7,1.2-0.1,2.2-0.4,3.2c-0.4,1.2-0.9,2.4-1.3,3.6c-0.4,1.2-0.8,2.5-1.3,3.9 C572.8,542.5,587.3,542.5,602.2,542.5z"></path> <path style="fill:#EA3358;" d="M240.5,588.4c-6.5,0-12.8,0-19.2,0c-0.6-1.6-1.3-3.2-1.9-4.9c-2.7-7.3-5.3-14.7-8-22 c-0.7-1.9-0.7-1.9-2.5-1.9c-17.8,0-35.7,0-53.5,0c-0.5,0-1,0.1-1.7,0.1c-3.5,9.5-6.9,19-10.4,28.6c-6.4,0-12.7,0-19.2,0 c0.5-1.5,0.9-2.8,1.4-4.1c5.2-14,10.4-27.9,15.6-41.9c0.7-1.9,1.4-3.9,2.2-5.8c0.4-0.9,0.5-2.1,1.7-2.6c0.3-0.1,0.5-0.8,0.7-1.3 c4.6-12.2,9.1-24.3,13.6-36.5c0.3-0.9,1.2-1.8,0.3-3c-0.2-0.2,0.1-0.8,0.3-1.2c3.8-10.3,7.7-20.6,11.5-30.9c0.3-0.7,0.6-1.4,0.9-2.1 c6.7,0,13.3,0,20,0c1.7,4.4,3.4,8.8,5,13.2c2.4,6.3,4.7,12.6,7,19c0.3,0.9,0.7,1.8,0.4,2.9c-0.3,1,0.6,2.3,1,3.4 c2.8,7.7,5.7,15.4,8.5,23.2c1.6,4.2,3.2,8.3,4.8,12.5c0.1,0.2,0.1,0.5,0.2,0.6c2.6,1.7,2.6,4.7,3.6,7.2c4.6,12,9,24,13.5,36.1 C237.7,580.8,239,584.5,240.5,588.4z M160.1,542.3c0.6,0.1,1,0.2,1.4,0.2c13.8,0,27.6,0.1,41.4,0.1c0.4,0,0.9-0.2,1.4-0.3 c-0.8-2.2-1.5-4.3-2.3-6.4c-0.2-0.6-0.7-1.1-0.1-1.7c0.2-0.2,0-0.8-0.1-1.2c-1.3-3.7-2.6-7.4-3.9-11c-2.8-7.6-5.5-15.2-8.4-22.8 c-0.8-2.2-1-4.7-3.2-6.2c-0.2-0.1-0.2-0.5-0.3-0.8c-0.4-1.1-0.7-2.1-1.1-3.2c-0.9-2.3-1.7-4.6-2.7-7.3c-0.4,1.1-0.8,1.8-1,2.5 c-1,2.7-2,5.5-3,8.2c-0.2,0.4-0.4,1.1-0.7,1.2c-1,0.3-1,1.1-1.3,1.8c-0.4,1.1-0.8,2.3-1.2,3.4c-4.1,11.3-8.2,22.5-12.3,33.8 c-0.1,0.4-0.4,0.9-0.3,1.2c0.7,1.3-0.1,2.3-0.4,3.4C161.4,538.9,160.7,540.5,160.1,542.3z"></path> <path style="fill:#EA3358;" d="M885.8,588.5c-6.2,0-12.1,0-18,0c-1.1,0-1.5-0.6-1.8-1.5c-2.6-7.2-5.2-14.4-7.8-21.6 c-0.7-1.9-1.4-3.7-2.2-5.7c-0.8,0-1.5,0-2.1,0c-17.5,0-35,0-52.5,0c-2.6,0-2.3,0-3.1,2.2c-2.9,8.1-5.8,16.1-8.8,24.2 c-0.3,0.8-0.7,1.6-1,2.3c-6.4,0-12.6,0-19.1,0c0.6-1.8,1.2-3.6,1.8-5.3c5.4-14.5,10.8-29,16.3-43.4c0.4-1.1,0.8-2.1,1.2-3.2 c0.3-0.8,0.4-1.6,1.4-2c0.3-0.1,0.5-0.8,0.7-1.2c4.2-11.2,8.4-22.3,12.5-33.5c0.5-1.3,1-2.7,1.5-4c0.3-1,1-1.9,0.4-3 c-0.2-0.3,0.2-1,0.3-1.4c3.3-9,6.7-17.9,10.1-26.9c0.6-1.7,1.3-3.4,2-5.3c6.6,0,13.2,0,20,0c0.3,0.5,0.6,1.1,0.9,1.8 c3.8,10.2,7.6,20.3,11.4,30.5c0.2,0.5,0.5,1.1,0.3,1.4c-0.6,0.8-0.1,1.5,0.1,2.2c2.5,6.8,5,13.6,7.5,20.4c2.1,5.6,4.3,11.3,6.4,16.9 c0.4,1,0.5,2,1.6,2.6c0.6,0.3,0.8,1.3,1,2c5.3,14.3,10.6,28.6,15.9,42.9c0.8,2.1,1.6,4.2,2.4,6.4 C885.3,586.8,885.5,587.5,885.8,588.5z M827.6,481.9c-0.3,0.5-0.5,0.7-0.6,0.9c-1,2.9-2,5.7-3.1,8.6c-0.2,0.5-0.3,1.4-0.7,1.5 c-1.3,0.5-1.4,1.7-1.8,2.7c-1,2.5-1.9,5-2.8,7.6c-3.6,10.1-7.3,20.1-10.9,30.2c-0.1,0.4-0.3,1-0.1,1.1c0.8,0.5,0.2,1,0.1,1.5 c-0.7,2.1-1.5,4.1-2.2,6.2c2.4,0.6,42.4,0.5,44.1,0c-0.6-1.8-1.3-3.6-1.9-5.4c-0.2-0.7-0.6-1.5-0.4-2c0.4-0.9,0.1-1.5-0.2-2.2 c-4.6-12.5-9.1-25-13.7-37.5c-0.2-0.5-0.3-1.3-0.7-1.5c-1.3-0.7-1.4-2-1.9-3.2C829.8,487.6,828.7,484.9,827.6,481.9z"></path> <path style="fill:#EA3358;" d="M356.5,551.1c4.8,2.7,9.4,5.3,14.2,8.1c-1.3,2-2.4,3.8-3.6,5.5c-10.3,13.7-24.1,21.8-41,24.5 c-7.2,0-14.5,0-21.7,0c-23.4-3.5-39.7-16.6-49.7-37.7c-3.2-6.7-4.6-14-5.3-21.4c-0.6-6.9-0.1-13.7,1-20.6c0.3-1.7,0.8-3.3,1.2-5 c0.3-1.5,1.1-2.8,0.7-4.5c-0.2-1.1,0.7-2.4,1.2-3.6c7.7-16.9,19.8-29.3,37.4-35.6c17.8-6.3,35.6-6.1,52.9,1.9 c11.5,5.2,20.6,13.3,27.2,24.1c0.3,0.5,0.6,1,1,1.7c-5.2,3-10.4,6-15.7,9.1c-0.6-1.1-1.1-2-1.7-2.9c-5.6-9-13.6-15.1-23.6-18.2 c-14-4.3-27.7-3.1-40.7,3.9c-8,4.3-13.8,10.8-18.3,18.6c-0.3,0.6-0.9,1-1.4,1.5c-0.3,0.4-0.6,0.7-0.8,1.1c-2,4.3-3.3,8.9-4,13.6 c-1.2,8.6-0.9,17.1,2,25.4c4.2,12.2,12,21.3,23.3,27.4c8.2,4.4,17.1,5.9,26.4,5.7c11.6-0.3,21.8-4.3,30.5-12 C351.3,558.9,354.1,555.3,356.5,551.1z"></path> <path style="fill:#EA3358;" d="M455.4,362.4c0.5-2.8,1-5.2,1.5-7.8c2.1,0.5,4.1,0.8,6,1.4c1.7,0.5,2.4,2.2,2.1,4.4 c-0.3,2-1.4,3-3.3,2.9C459.7,363.1,457.7,362.7,455.4,362.4z"></path> <path style="fill:#EA3358;" d="M353.6,343c0.8-3.1,1.5-5.9,2.3-8.9c2.2,0.1,4.2,0.5,6.1,1.4c0.5,0.2,0.9,0.7,1.2,1.2 c1.6,2.5-0.6,7.6-4.3,7.2C357.2,343.7,355.5,343.4,353.6,343z"></path> <path style="fill:#EA3358;" d="M401.9,357.4c-2.3-0.5-4.2-0.9-6.4-1.3c1.9-3.6,3.6-6.9,5.3-10.2c0.2,0,0.3,0.1,0.5,0.1 C401.5,349.8,401.7,353.4,401.9,357.4z"></path> <path style="fill:#EA3358;" d="M521.2,390c2.1-0.6,3.9-1.1,5.8-1.5c1.4-0.3,2.7-0.1,3.5,1.3s1.3,2.9,0.5,4.4 c-0.3,0.6-1.1,1.2-1.7,1.4c-1.9,0.7-3.9,1.2-6.1,1.9C522.5,395,521.9,392.6,521.2,390z"></path> <path style="fill:#EA3358;" d="M520.1,385.7c-0.6-2.3-1.1-4.3-1.7-6.5c2-0.5,3.9-1.1,5.8-1.5c1.8-0.3,2.7,0.4,3.2,2.3 c0.5,1.7,0,3.3-1.5,3.9C524,384.6,522.2,385.1,520.1,385.7z"></path> <path style="fill:#EA3358;" d="M625.6,355.8c-0.8-2.5-1.4-4.8-2.2-7.3c2.3-0.6,4.3-1.2,6.4-1.7c1.8-0.4,3.1,0.5,3.7,2.4 c0.7,2.3,0.3,3.8-1.5,4.5C629.9,354.5,627.8,355,625.6,355.8z"></path> <path style="fill:#EA3358;" d="M543.8,384.9c0-3.6,0-7,0-10.4c0.1,0,0.2-0.1,0.3-0.1c1.7,2.9,3.5,5.7,5.4,8.8 C547.5,383.8,545.7,384.3,543.8,384.9z"></path> </svg> 