<?xml version="1.0" encoding="UTF-8"?> <svg xmlns="http://www.w3.org/2000/svg" xmlns:xlink="http://www.w3.org/1999/xlink" version="1.1" id="Layer_1" x="0px" y="0px" viewBox="0 0 1000 1000" style="enable-background:new 0 0 1000 1000;" xml:space="preserve"> <path style="fill:#FFFFFF;" d="M201.2,970.3c-1.6,0-3.2,0-4.8,0c-0.3-0.1-0.6-0.3-0.9-0.3c-11.9-1.7-20.7-10.1-23-21.9 c-0.1-0.7-0.5-1.3-0.7-2c0-132.9,0-265.8,0-398.8c0.6,0,1.2,0,1.8-0.1c6.6-1.2,13.2-2.4,19.9-3.7c13.2-2.5,26.5-4.9,39.7-7.4 c3.2-0.6,6.3-1.2,9.7-1.8c-0.4-0.7-0.7-1.3-1-1.9c-3-5.1-6-10.1-8.8-15.3c-14.7-27.1-25.1-55.8-31.1-86c-1.7-8.7-3-17.4-4-26.3 c-1-8.9-1.7-17.8-1.8-26.7c-0.1-7.6,0.1-15.2,0.3-22.8c0.1-3.1,0.2-6.2,0.5-9.3c0.8-7.5,1.6-15,2.7-22.4 c2.3-15.8,6.1-31.3,10.9-46.5c5.1-15.8,11.5-31,19.2-45.6c4.8-9.1,9.8-18,15.5-26.6c11-16.7,23.4-32.3,37.4-46.7 c5.5-5.7,11.4-11.1,17.3-16.4c10.7-9.6,22.1-18.4,34.1-26.3c7.7-5.1,15.7-9.9,23.7-14.4c6.7-3.7,13.6-7.1,20.6-10.3 c8.6-4,17.4-7.4,26.4-10.4c1.1-0.3,1.8-0.3,2.7,0.5c6.2,6,12.5,12,18.8,18c1.1,1.1,1.5,2.2,1.3,3.7c-0.5,0.2-0.9,0.3-1.4,0.4 c-22.9,6.5-44.7,15.8-65.3,27.9c-26.1,15.4-49.1,34.6-68.9,57.4c-16.6,19.1-30.5,40.1-41.3,63c-16,33.9-24.8,69.7-26.5,107.1 c-0.5,11.6-0.3,23.2,0.8,34.7c0.7,8,1.8,15.9,3,23.8c2.2,13.7,5.6,27.2,9.8,40.4c5.9,18.2,13.7,35.7,23.3,52.2 c3.4,5.9,7.1,11.6,10.7,17.4c0.5,0.9,1.3,1.7,1.8,2.4c2.4-0.5,4.6-0.9,6.8-1.3c15.2-2.9,30.4-5.7,45.6-8.6c10.7-2,21.4-4,32.1-6 c1.3-0.2,2.3-0.7,3.2-1.7c7.3-7.4,14.6-14.8,21.9-22.2c14.8-14.9,29.6-29.8,44.4-44.6c8.2-8.3,16.4-16.5,24.7-24.8 c0.6-0.6,1.3-1.3,2-2c10.9,10.5,23.7,16.7,38.5,18.9c-1.4,8.9-2.7,17.6-4.1,26.3c-1.3,8.7-2.8,17.4-4,26.3c24.2-4.4,48-8.7,72-13 c-8.1-15.8-16-31.3-24-46.9c13-7,22.5-17.1,28.9-30.2c0.6,0.3,1.2,0.5,1.7,0.8c3,1.5,6,3,9,4.6c32.7,16.6,65.5,33.1,98.2,49.8 c1.5,0.8,2.9,1.2,4.5,0.7c1.3-0.4,2.6-0.4,3.9-0.7c10.5-1.9,21.1-3.8,31.6-5.7c19.2-3.5,38.3-6.9,57.5-10.4 c10.2-1.8,20.4-3.7,30.6-5.5c2.2-0.4,4.3-1.2,6.5-1.6c5.5-1.1,11-2,16.6-3c2.9-0.5,5.7-0.9,8.6-1.4c0,135.6,0,271.1,0,406.7 c-0.2,1.2-0.3,2.3-0.6,3.5c-2.9,11-9.9,17.9-21,20.4c-5.2,1.2-10.4,1.9-15.6,2.9c-16.8,3.1-33.6,6.2-50.5,9.4 c-16.1,3-32.2,5.9-48.3,8.9c-16.1,3-32.2,6-48.3,9c-15.4,2.8-30.8,5.7-46.2,8.5c-15.4,2.8-30.8,5.7-46.2,8.6 c-13.4,2.5-26.8,5-40.1,7.4c-15.3,2.8-30.7,5.7-46,8.5c-13.9,2.6-27.8,5.1-41.7,7.7c-13.4,2.5-26.8,5-40.1,7.4 c-13.1,2.4-26.3,4.8-39.4,7.3c-16.2,3-32.4,6-48.5,9c-13.9,2.6-27.8,5.1-41.7,7.7c-15.5,2.9-30.9,5.7-46.4,8.6 C206.7,969.2,203.9,969.8,201.2,970.3z M690.2,654.3c13.7-2.4,27.2-4.7,40.7-7c0-51.9,0-103.5,0-155.3c-12.7,2.2-25.3,4.4-38.1,6.6 c0,23.4,0,46.5,0,69.7c-1.6,0.4-3.1,0.8-4.6,1.3c-9.5-21.9-18.8-43.5-28.2-65.2c-13,2.3-25.8,4.6-38.6,6.8c0,51.7,0,103.3,0,155 c12.8-2.2,25.4-4.4,38.1-6.6c0-23.6,0-46.9,0-70.3c1.6-0.4,3-0.8,4.5-1.2C672.7,610.3,681.4,632.2,690.2,654.3z M299.9,848.9 c0,0.6,0.1,0.9,0.1,1.3c0,7.7,0,15.5,0,23.2c0,1.8-0.2,3.6-0.4,5.3c-0.3,2.6-0.9,5.2-2.2,7.6c-1.2,2.2-3,3.9-5.3,4.8 c-2.2,0.8-4.4,1.3-6.8,1.3c-3.8,0-6.1-1.5-6.9-5.2c-0.6-2.8-1.1-5.7-1.1-8.6c-0.1-27.3-0.1-54.7-0.1-82c0-3.4,0.3-6.9,0.7-10.3 c0.6-4.2,3-7.1,7.2-8.3c1.4-0.4,2.8-0.8,4.3-0.9c4.9-0.3,7.9,1.5,8.3,6.3c0.3,3.2,0.6,6.5,0.7,9.7c0.1,5,0.1,10.1,0.1,15.1 c0,0.6,0.1,1.2,0.1,1.9c15.5-2.7,30.8-5.3,46.3-7.9c0-0.8,0-1.5,0-2.1c-0.1-3.6-0.2-7.3-0.3-10.9c-0.1-4.4-0.8-8.7-1.7-13 c-1.6-8.1-6-14-13.4-17.6c-6.8-3.3-14-5.1-21.6-5.5c-6.3-0.3-12.6,0.2-18.8,1.1c-8.5,1.2-16.9,3.3-24.8,6.7 c-9.7,4.2-18.1,10.1-25,18.2c-3.3,3.9-5.5,8.3-6.5,13.4c-1.6,7.7-2.1,15.5-2.2,23.3c-0.1,19.7-0.1,39.3,0,59c0,4.9,0.4,9.8,0.8,14.6 c0.3,3.4,1,6.7,2.4,9.8c3.3,7.5,9.1,12.4,16.7,15.2c10.8,4,21.7,4.2,32.7,1.3c7.7-2.1,14.7-5.6,20.2-11.6c2.4-2.5,4.3-5.3,6.1-8.3 c0.3-0.6,0.6-1.3,1.4-1.6c1.9,4.3,3.9,8.5,5.8,12.7c9.5-1.6,18.8-3.2,28-4.8c0-27.1,0-54,0-81c-18.4,3.2-36.7,6.3-54.9,9.5 c0,6.8,0,13.4,0,20.1C293.2,850,296.4,849.5,299.9,848.9z M715.8,785.8c-14.5,2.5-28.6,4.9-42.7,7.2c-0.1,0.4-0.2,0.5-0.2,0.7 c0,6.5-0.3,13.1,0.5,19.6c0.5,4.1,1.3,8.1,2.7,12c1.6,4.3,4.3,7.6,8.2,9.9c1.8,1.1,3.7,2,5.7,2.8c6,2.4,12.2,3.3,18.6,3.5 c5.7,0.2,11.4-0.3,17-1.1c9-1.2,17.8-3.3,26.2-6.8c7.2-3,14.1-6.7,20.2-11.7c5.2-4.2,8.4-9.6,9.9-16.1c1.6-6.8,1.8-13.6,1.7-20.5 c-0.1-5.6-0.7-11.1-2.1-16.5c-1.9-7.3-5.9-12.9-12.6-16.5c-2.9-1.6-5.8-3.1-8.8-4.5c-8.9-4-18.2-7-27.6-9.9c-4-1.2-7.9-2.6-11.5-4.8 c-2.6-1.6-4.4-3.7-5.2-6.7c-1.3-4.7-1.5-9.5-0.5-14.3c1.6-7.7,8.3-11.1,14.8-10.6c3.3,0.3,5.1,1.9,5.8,5.2c0.3,1.5,0.6,3.1,0.6,4.7 c0.1,3.6,0.1,7.3,0.1,10.9c0,0.6,0,1.3,0,2c14.5-2.5,28.6-5,42.9-7.4c0-0.8,0-1.3,0-1.8c-0.1-4.3-0.1-8.6-0.5-12.9 c-0.3-3.1-0.9-6.3-1.5-9.4c-1.2-5.7-4.7-9.5-9.9-11.8c-4.1-1.8-8.5-2.9-13-3.5c-6.8-0.9-13.7-0.8-20.6-0.1c-9.6,1-18.9,2.9-28,6.1 c-7.5,2.6-14.6,6.1-20.9,11.2c-5.4,4.4-9.5,9.7-11.4,16.6c-2.8,10.1-3.1,20.4-1.3,30.7c1,5.5,3.4,10.4,7.3,14.5 c2.8,3,6.3,5.1,10.1,6.6c8.5,3.3,17,6.5,25.5,9.9c5.5,2.2,11,4.6,16.4,6.9c3.9,1.7,6,4.9,6.9,8.9c1.2,5.3,1.5,10.6,0.8,16 c-1.3,9.3-8.8,13.4-16.7,12.6c-3.4-0.3-5.3-2-6-5.4c-0.5-2.2-0.7-4.6-0.7-6.9c-0.1-5.6,0-11.1,0-16.7 C715.8,787.7,715.8,786.9,715.8,785.8z M384.2,597.1c0-0.8,0-1.5,0-2.1c-0.1-3.8-0.1-7.7-0.4-11.5c-0.3-4.2-0.9-8.3-2.3-12.2 c-1.2-3.4-3.2-6.1-6.2-8c-1.6-1-3.2-1.8-4.9-2.5c-4.8-1.9-9.8-2.8-14.9-3.1c-6.2-0.4-12.4-0.1-18.6,0.6c-7.9,0.9-15.7,2.4-23.2,4.9 c-8.4,2.7-16.3,6.3-23.2,11.8c-7,5.4-11.5,12.3-13,21.1c-0.9,4.9-1.2,9.8-1.3,14.8c0,3.9,0.2,7.8,1,11.6c2,9.2,7.1,16.1,15.9,20 c1.3,0.6,2.6,1.2,4,1.7c8.1,3,16.3,6,24.3,9.1c5,1.9,9.9,4.1,14.8,6.2c4.1,1.8,6.3,5.1,7.3,9.3c1,4.7,1.4,9.5,0.9,14.4 c-0.7,7.6-6,14.2-16.3,13.8c-4-0.2-6.1-1.8-6.8-5.8c-0.4-2.4-0.7-4.9-0.7-7.3c-0.1-5.4,0-10.7,0-16.1c0-0.7-0.1-1.4-0.1-2.2 c-14.4,2.6-28.6,5-42.9,7.6c0.2,6.2,0.3,12.2,0.7,18.1c0.3,3.7,1.1,7.5,2,11.1c1.7,7,6.1,11.7,12.7,14.5c5.6,2.4,11.5,3.6,17.5,4 c6.4,0.5,12.8,0,19.2-0.8c9.2-1.2,18.1-3.3,26.6-6.8c7.3-3,14.3-6.7,20.4-11.7c5.4-4.5,8.9-10,10.4-16.9c1.1-4.9,1.5-9.9,1.6-15 c0.1-7-0.3-13.9-2.1-20.7c-2-7.4-5.9-13.3-12.9-16.8c-4.4-2.2-8.8-4.4-13.3-6.3c-7.9-3.3-16.2-5.8-24.4-8.4c-3.5-1.1-7-2.5-10.2-4.3 c-2.7-1.6-4.5-3.9-5.3-6.9c-1.1-4.2-1.4-8.5-0.7-12.8c1.2-7.2,7.4-12.2,14.7-11.8c3.7,0.2,5.6,1.8,6.4,5.4c0.2,0.8,0.4,1.7,0.4,2.5 c0.1,4.2,0.2,8.3,0.3,12.5c0,0.7,0,1.4,0,2.4C355.7,602.1,369.8,599.6,384.2,597.1z M460.7,630.4c3.3-0.6,6.4-1.1,9.4-1.7 c6.8-1.2,13.7-2.3,20.3-4.3c6.4-2,12.6-4.4,18.1-8.4c5.3-3.8,8.6-8.9,9.9-15.2c1-4.9,1.4-9.8,1.4-14.8c0-7.5-0.1-15.1-0.3-22.6 c-0.1-4.6-0.5-9.1-2-13.5c-1.9-5.8-5.7-9.8-11.5-11.8c-4-1.4-8.1-1.9-12.3-2c-8.8-0.3-17.6,0.8-26.2,2.2 c-15.8,2.7-31.5,5.5-47.2,8.3c-2.1,0.4-4.2,0.8-6.3,1.2c0,51.5,0,102.9,0,154.4c15.5-2.7,30.9-5.4,46.5-8.1 C460.7,672.9,460.7,651.8,460.7,630.4z M533.4,715.2c-27.5,4.8-54.7,9.5-81.9,14.2c-0.4,4.1-0.3,153,0.2,154.5 c15.3-2.6,30.7-5.2,46.1-7.9c0-22.2,0-44.3,0-66.6c10.6-1.8,21.1-3.6,31.5-5.4c0.4-4.8,0.2-24.7-0.2-26.3 c-10.4,1.7-20.7,3.7-31.1,5.3c0-11.4,0-22.6,0-33.8c11.9-2.1,23.6-4.1,35.4-6.1C533.4,733.7,533.4,724.6,533.4,715.2z M653.9,694.3 c-35.8,6.2-71.4,12.3-106.9,18.4c0,9.4,0,18.6,0,27.9c10.1-1.7,20-3.4,30.2-5.1c0,42.3,0,84.5,0,126.8c15.7-2.6,31.1-5.2,46.6-7.9 c0-42.5,0-84.7,0-127c10.1-1.8,20.1-3.5,30.2-5.3C653.9,713,653.9,703.8,653.9,694.3z M374.5,896.9c15.6-2.6,31.1-5.2,46.4-7.8 c0.4-5.1,0.2-152.8-0.2-154.4c-15.4,2.6-30.8,5.3-46.2,7.9C374.5,794.1,374.5,845.4,374.5,896.9z M590.7,671.6 c0.4-2.8,0.3-153.4-0.1-154.9c-15.3,2.7-30.7,5.4-46.1,8.1c0,51.6,0,103.1,0,154.8C559.9,676.9,575.2,674.3,590.7,671.6z M205.6,419.5c0,4,3.4,7.5,7.4,7.5c4.1,0,7.6-3.5,7.6-7.5c0-4-3.5-7.5-7.5-7.5C209,411.9,205.6,415.3,205.6,419.5z M376.5,111.3 c0.1-4-3.3-7.5-7.3-7.6c-4.1-0.1-7.5,3.3-7.6,7.3c-0.1,4.2,3.3,7.7,7.4,7.7C372.9,118.8,376.4,115.4,376.5,111.3z M242.5,228.2 c-4.1,0-7.4,3.4-7.4,7.5c0.1,4.1,3.5,7.5,7.5,7.4c4,0,7.5-3.6,7.4-7.6C250.1,231.4,246.7,228.2,242.5,228.2z"></path> <path style="fill:#FFFFFF;" d="M481.5,39.3c1.8,0.2,3.6,0.3,5.5,0.5c7.2,0.5,14.3,1.3,21.3,3.1c2.2,0.6,3.1,2.5,1.9,4.5 c-11.7,20.3-23.5,40.6-35.2,61c-3.6,6.2-7.2,12.5-10.8,18.8c-0.3,0.6-0.7,1.1-1.1,1.7c-23.5-22.3-47.1-44.4-70.4-67 c1.2-0.9,2.3-1.8,3.4-2.6c6.3-4.4,13.1-7.6,20.3-10.3c9.1-3.4,18.6-5.7,28.2-6.8c6.7-0.8,13.5-1.5,20.2-2.2c1.4-0.2,2.9-0.1,4.4-0.2 c0.6,0,1.3-0.2,1.9-0.3C474.7,39.3,478.1,39.3,481.5,39.3z"></path> <path style="fill:#FFFFFF;" d="M441.6,341.3c-2.7,5.6-4.7,11.2-5.8,17.1c-1.2,5.9-1.5,11.8-1.1,18c-64.7,10.8-129.3,21.5-193.8,32.2 c-2.1-4.6-3.8-40.8-2.6-53.2c1.6-17.7,4-35.2,8.7-52.4c4.7-17.2,10.9-33.8,19-49.9C324.5,282.6,382.9,311.9,441.6,341.3z"></path> <path style="fill:#FFFFFF;" d="M542.3,110.2c-10.1,65.2-20.2,130.1-30.3,195.1c-14.1-2.1-27.4-0.5-40.2,6.1 c-30-58.4-59.9-116.8-89.8-175.1c6.9-5.2,45.6-19.7,56.6-21.2c10,16.3,20,32.6,30.2,49.3c4.9-19.1,9.6-37.7,14.5-56.5 C502.9,106.5,522.5,107.4,542.3,110.2z"></path> <path style="fill:#FFFFFF;" d="M691,186.5c37.7,39.2,61.6,85,71.5,138.4c-65.4,10.4-130.7,20.8-196.2,31.2 c-2.7-10.9-7.6-20.5-14.9-28.9c0.5-0.5,0.8-1,1.2-1.4c9.9-9.9,19.8-19.9,29.7-29.8c12.5-12.5,24.9-25.1,37.3-37.6 c10.4-10.5,20.9-21,31.3-31.5c12.8-12.8,25.6-25.7,38.4-38.5C690,187.8,690.4,187.2,691,186.5z"></path> <path style="fill:#FFFFFF;" d="M803.9,422.3c-9.7,1.9-19.3,3.7-29,5.6c-0.4-1,0.2-1.9,0.3-2.8c0.2-1.7,0.4-3.4,0.6-5.1 c0.1-0.5,0.2-0.9,0.3-1.3c0.2-0.7,0.5-1.4,0.6-2.1c0.5-3.5,1-7,1.4-10.6c0.7-6,1.3-12,1.9-17.9c0.6-6.6,0.7-13.2,0.6-19.8 c-0.2-8.5-0.5-17-1.5-25.5c-0.6-4.9-1.3-9.8-1.9-14.7c-1.4-12-4.3-23.6-7.6-35.2c-11.3-38.9-30.3-73.6-56.9-104.2 c-4-4.6-8.2-9.1-12.6-13.5c-3.1-3.2-6.6-6.1-9.9-9.2c-9.9-9.4-20.7-17.7-32-25.4c-22.4-15.4-46.7-26.9-72.6-35.1 c-11.4-3.6-22.9-6.5-34.6-8.4c-7.5-1.2-15-2.2-22.6-3c-11.9-1.3-23.8-1.4-35.7-1.1c-0.9,0-1.7,0-2.6,0c-0.2,0-0.4-0.1-0.7-0.1 c0.2-0.4,0.3-0.9,0.5-1.2c4.9-8.5,9.8-16.9,14.7-25.5c0.6-1.1,1.3-1.5,2.5-1.4c4.1,0.3,8.3,0.4,12.4,0.7c2.9,0.2,5.8,0.2,8.7,0.5 c8.7,0.7,17.3,1.8,25.9,3.4c7.9,1.5,15.8,3.1,23.6,5c7,1.7,13.9,4,20.7,6.1c20.8,6.6,40.5,15.9,59.2,27.1 c16.6,10,32.2,21.3,46.6,34.3c6.1,5.5,12.1,11.1,17.8,17c14.2,14.7,26.8,30.6,37.9,47.8c5.8,9,11.2,18.1,15.9,27.7 c4.9,9.9,9.4,20,13.4,30.3c4.2,11.1,7.8,22.3,10.6,33.8c2.2,9.2,4.1,18.4,5.4,27.8c0.4,3.1,0.8,6.1,1.2,9.2c0.1,0.6-0.1,1.2,0.7,1.4 c0.2,0.1,0.4,0.8,0.4,1.2c0.3,4.5,0.7,9,0.9,13.5c0.2,6.4,0.3,12.8,0.2,19.2c-0.2,7.2-0.6,14.4-1.1,21.6c-0.7,9.6-1.7,19.1-3.3,28.6 C804.1,421.3,804,421.7,803.9,422.3z M783.3,323.8c-0.1,4.3,3,7.7,7.2,7.8c4.3,0.1,7.6-3.1,7.7-7.3c0.1-4.2-3.2-7.7-7.4-7.7 C786.8,316.5,783.4,319.8,783.3,323.8z M555.1,82.7c0-4.1-3.3-7.5-7.4-7.4c-4.1,0-7.6,3.5-7.5,7.6c0,4.1,3.5,7.4,7.7,7.4 C552,90.2,555.1,86.9,555.1,82.7z M708.3,156.5c-4.1,0-7.5,3.3-7.5,7.3c0,4,3.2,7.3,7.2,7.4c4.1,0.1,7.5-3.3,7.5-7.3 C715.5,159.9,712.3,156.6,708.3,156.5z"></path> <path style="fill:#FFFFFF;" d="M500.7,423.9c-24.8,0.1-47.4-17.7-52.1-43.5c-5.3-29.3,13.9-56.5,42.5-61.7c15-2.7,28.8,0.5,41.1,9.5 c12,8.6,19,20.4,21.4,34.9c1.2,7,0.4,14-1.5,20.8c-5.8,20.2-18.9,33.2-39.3,38.6c-1.7,0.4-3.4,0.7-5.1,0.9 C505.5,423.6,503.1,423.7,500.7,423.9z"></path> <path style="fill:#FFFFFF;" d="M460.9,562.8c4.3-0.9,8.6-1.5,12.9-1.2c4.2,0.3,6.4,2.2,7.4,6.3c0.4,1.7,0.7,3.4,0.7,5.1 c0,6.2-0.1,12.4-0.2,18.7c0,1-0.2,2.1-0.4,3.1c-0.8,4.1-3.1,7.1-6.9,8.9c-3.3,1.6-6.8,2.3-10.3,2.7c-1,0.1-1.9,0.3-2.9,0.4 C460.6,605.4,460.4,566.2,460.9,562.8z"></path> </svg> 