<?xml version="1.0" encoding="UTF-8"?> <svg xmlns="http://www.w3.org/2000/svg" xmlns:xlink="http://www.w3.org/1999/xlink" version="1.1" id="Layer_1" x="0px" y="0px" viewBox="0 0 1000 1000" style="enable-background:new 0 0 1000 1000;" xml:space="preserve"> <g> <path style="fill:#EA3358;" d="M887.4,403.3L887.4,403.3h-92l-18.9,32.9h91.3v128.2H775V404.6l-31.3,6.7v168.8 c2.1,11.8,8.6,17.1,20.9,17.1c0.6,0,1.2,0,1.9,0h0.1h111.3c8.1-0.3,19-1.9,21.6-12.2V449.3C899.9,422.7,895.7,406.4,887.4,403.3z"></path> <path style="fill:#EA3358;" d="M680.1,482.3L680.1,482.3c-0.9,0-1.8,0-2.7,0.1l-13.6,0.5l9.1-10.3c8.4-9.5,18.6-23.1,19.4-33.5 c0.7-8.7-0.8-16.5-4.5-24.1c-3.1-6.3-13.7-10.2-30.6-11.1h-85.7l-3.8,31.2h14.7v47.7l-14.9-0.3l-0.1,26.7H579V541 c1,11.8-0.6,20-5.1,24.9c-1.7,1.9-3.9,3.4-6.3,4.2V598c0.6,0,1.1,0,1.7,0c11.1,0,19.6-3.7,26.1-11.2c6.7-7.8,11.2-20,13.4-36.2V508 l66.5-0.4l0.2,5.7c1.4,44.2-3.4,53.7-8.8,57.3c-2.7,1.9-6.4,2.8-11.1,2.8c-6.6,0-15.5-1.7-27.3-5.3l-10.5,27.4 c12.4,4.7,24.7,7.1,36.5,7.1c7.1,0,14.2-0.9,21.2-2.6c8-2,14.9-5.8,20.5-11.5c5.3-5.4,8.5-13.4,9.5-23.6v-65.2 C704.3,492.1,700.2,482.3,680.1,482.3z M636.2,475.7L636.2,475.7l-0.7,0.4l-26.6,6V435h47.9l0.5,5.3 C658.2,450.6,655.4,465.1,636.2,475.7z"></path> <path style="fill:#EA3358;" d="M121.7,440.1L121.7,440.1l-23.3,19.1l79.8,80.9c4.9,4.6,10.2,10.8,8.5,17.4 c-0.6,2.2-2.5,6.2-8.8,7.7l-0.8,0.2l-39.5-0.2c-0.3,0-0.7,0-1,0c-5.1,0-14-1.9-17.8-14.4l-26.6,9.4c2.4,8.9,5.5,16.6,9.2,22.8 c3.9,6.6,9,11,15.6,13.5l72.2,0.1c16.9-1.6,27.1-7.6,31.2-18.4c4.3-18.7,3.9-31.9-1.3-39.2L121.7,440.1z"></path> <path style="fill:#EA3358;" d="M169,434.2L169,434.2c8.9,0,20.3,2,24.7,11.2l26-5.3c-0.6-5.9-2.1-12.6-4.5-20 c-2.6-8-8.2-13.1-17.2-15.7l-101.7,0.1l-5.6,30h71.8C164.8,434.3,167,434.2,169,434.2z"></path> <polygon style="fill:#EA3358;" points="269.4,596.4 299.6,596.4 299.7,404.9 269.2,409.7 "></polygon> <path style="fill:#EA3358;" d="M441,567.6L441,567.6c-3.4,0.4-6.8,0.5-9.9,0.5c-10.6,0-19.5-2.1-26.5-6.2 c-8.8-5.2-16.9-13.7-24.1-25.5c-7.4-12-10.8-25-10.2-38.7c0.5-10.8,4.3-25.1,11.7-43.4l2.8-6.5l-15.8,6.5l-17.6,8.2 c-1.9,3.7-5.1,13.4-6.4,38c-1.1,20.8,3.4,39.6,13.3,55.8c10,16.3,20.9,27.5,32.5,33.3c11.4,5.7,24.2,8.7,38,8.7c0.5,0,0.9,0,1.4,0 c14.3-0.2,25.9-2.6,34.3-7.1c7.9-4.3,18.3-12.7,30.9-25l-16.8-21.7C467.1,558.5,454.5,566.3,441,567.6z"></path> <path style="fill:#EA3358;" d="M462.2,405.3H357.7l-4.6,12.4l-3.2,13.1l-1,6h40.6h56.1c1.1-0.1,2.3-0.1,3.4-0.1 c11.7,0,19.5,5.1,22.3,14.5h25.5C494,425.6,482.6,410.6,462.2,405.3z"></path> <path style="fill:#EA3358;" d="M951.6,387.2l-11.9-2.6l-2.1-11.8c-2.2-12.1-13.2-20.8-26.2-20.8H726c1.5-9.8,3.3-20.9,4.7-29.9 c6.7,5.8,12.8,11.1,16.1,13.9c8.8,7.7,16.5,8.8,24.4,6.3c7.8-2.4,30.3-12,36-13.8c5.6-1.8,7.9-6.7,12-15.3 c4.1-8.6,19.8-38.8,24-48.8c4.2-10,2.3-13.4-5.1-18.8c-7.4-5.4-47.3-34.1-47.3-34.1l0,0c0,0-6.9-5-17.6-4.6 c-10.7,0.4-16.4,0.8-30.8,1.5c-14.4,0.6-20.5,6.5-22.7,14c-1.2,3.9-5.2,16.1-9.3,28.2c-8.5-14.8-18-18.1-27.2-16.4 c-9.2,1.7-57.2,8.6-68.8,10.3c6-11.1,4.5-18.9-0.2-24.7c-5.1-6.3-30.6-40.7-36.1-48.1s-10.3-10.3-18-8.8s-47.5,11.7-59.2,14.6 c-11.7,2.9-13.4,3.7-15.9,11.8s-10.9,36.6-12.7,42.4c-1.5,5,0.3,9.2,4,15.7H180.4l0,0c-20.1,0-36.4,16.3-36.4,36.4v35.5 c0,14.4,8.3,26.8,20.4,32.7H88.6c-13,0-24.1,8.7-26.2,20.8l-2.1,11.8l-11.9,2.6c-9.7,2.1-16.8,10.4-16.8,19.8v183.1 c0,9.4,7.1,17.7,16.8,19.8l11.9,2.6l2.1,11.8c2.2,12.1,13.2,20.8,26.2,20.8h822.7l0,0c13,0,24.1-8.7,26.2-20.8l2.1-11.8l11.9-2.6 c9.7-2.1,16.8-10.4,16.8-19.8V407C968.4,397.7,961.4,389.3,951.6,387.2z M796.6,218.1l42.3,31.1c1,0.7,1.7,1.6,2.3,2.6 c-0.9,0.8-2.7,1.4-5.7,1.7l-33.1,3.5c-3.4,0.4,29.7-3.9,29.7-3.9c2.9-0.3,4.8-0.9,5.7-1.7c-0.6-1-1.3-1.9-2.3-2.6l0,0 C835.5,248.9,794.8,216.8,796.6,218.1z M801.4,235.4c0-2.5,4.6-2.3,10.2,0.4c5.6,2.7,10.2,7,10.2,9.5l0,0c0,2.5-4.6,2.3-10.3-0.4 C805.9,242.1,801.4,237.9,801.4,235.4z M723.5,352.1h-1.4c2.3-11.4,4.9-24.5,6.4-31.8c0.1,0.1,0.1,0.1,0.2,0.2L723.5,352.1z M658.1,369.3c-0.6,2.9-7.3,3.9-14.9,2.3c-7.6-1.6-13.4-5.2-12.8-8c0.6-2.9,7.3-3.9,14.9-2.3C652.9,362.8,658.6,366.4,658.1,369.3z M711.5,372c1.9,3,3.6,4.7,4.9,5.2c0.7-1.1,1.3-2.4,1.5-3.8l0,0c0,0,1.5-7.6,3.5-17.3h1.5l-3.5,21.2c-0.2,1.4-0.8,2.7-1.5,3.8 c-1.4-0.5-3-2.2-4.9-5.2L700.1,356h0.5C705.9,363.9,711.5,372,711.5,372z M752,320.8c-5.3-0.1-10.5-5.7-11.6-12.4 c-1.1-6.6,2.2-11.9,7.4-11.8s10.4,5.6,11.6,12.2l0,0C760.6,315.6,757.3,321,752,320.8z M783,258.1c2.7,2.7,3.3,4.3,3.7,5.2l0,0 c1.8,4.3,0.2,9.1,0.2,9.1l-14,31.5l11.6-30.4c0,0,1.8-4,0-9c-1.2-3.5-2.6-5.4-3.4-6.3c-0.8-1-17.2-14.2-17.2-14.2 S780.4,255.4,783,258.1z M758.2,215.4c5.6,2.6,10.1,6.7,10.1,9.2c-0.1,2.5-4.7,2.5-10.3-0.1s-10.1-6.7-10-9.2 C748,212.8,752.6,212.9,758.2,215.4z M749.3,276L749.3,276c0.9,6-2.2,10.8-6.9,10.7c-4.7-0.1-9.1-5.1-10-11.1 c-0.8-6,2.2-10.7,6.9-10.6C743.9,265.1,748.4,270,749.3,276z M730.7,232.2c4.7,0.1,9,5,9.6,11l0,0c0.6,6.1-2.8,10.9-7.5,10.8 c-4.7-0.1-9-5.1-9.6-11.1C722.7,237,726,232.2,730.7,232.2z M707.6,302.1c2,1.8,4.5,3.9,7.2,6.3c0,0.5,0.1,0.9,0.1,1.4 c0.5,7-0.8,12.8-2.9,12.9c-2.1,0.1-4.2-5.4-4.7-12.4C707,307.2,707.2,304.3,707.6,302.1z M699.1,308.1c2.6-0.1,5,5.7,5.4,13.1 s-1.4,13.5-4,13.6s-5-5.7-5.4-13.1C694.7,314.3,696.5,308.2,699.1,308.1z M697.9,352.1h-0.4l-6.4-9.8 C690.2,340.8,693.6,345.8,697.9,352.1z M675.8,328.8c-3.7,4.3-9.7,5.2-9.7,5.2l-41.5,2.1l39-4.1c0,0,5.2-0.2,9.7-4.9 c3.1-3.3,4.4-5.7,5-7.1s5.9-26.2,5.9-26.2s-3.3,23.9-4.7,28.2C678,326.3,676.6,327.8,675.8,328.8L675.8,328.8z M668.9,266.9 c-6.3,3.6-13.6,2.7-16.2-2c-2.6-4.7,0.4-11.3,6.7-14.9c6.3-3.6,13.6-2.7,16.2,2C678.2,256.6,675.2,263.3,668.9,266.9z M668,300.4 c3.6,4.5,1.5,12.2-4.6,17s-14,5.1-17.6,0.5s-1.5-12.2,4.6-17S664.4,295.9,668,300.4z M640.1,294.5c-6,4.3-13.5,4.2-16.8-0.4 c-1.9-2.6-2-6-0.7-9.3c3.3,4.5,9.6,7.3,15,6.4c6-1.1,8.6-6.4,5.8-12c-0.8-1.5-1.9-2.9-3.3-4.1c2,0.5,3.6,1.6,4.8,3.2 C648.2,283,646.1,290.2,640.1,294.5z M612.5,247.4c0.2-0.2,0.3-0.5,0.4-0.7l71.6-8.5c2.3-0.2-69.5,10.5-69.5,10.5 c-1.2,0.1-2.5,0.3-3.7,0.6C611.7,248.7,612.1,248.1,612.5,247.4z M607.6,259.2c5.5-4.3,12.5-4.5,15.6-0.6c3.1,4,1,10.6-4.5,14.9 s-12.5,4.5-15.6,0.6S602.1,263.5,607.6,259.2z M596,307.2c5.5-5,13-5.8,16.8-1.6c3.7,4.1,2.3,11.5-3.2,16.5s-13,5.8-16.8,1.6 C589,319.7,590.5,312.3,596,307.2z M591.7,279.6c-5,18.1-12.3,43.8-12.8,43.8l10.2-41.3C589.9,281.4,590.8,280.5,591.7,279.6z M545.3,202.1c2.4-4.3,9.1-5.3,14.9-2c5.8,3.2,8.7,9.3,6.3,13.7c-2.4,4.3-9.1,5.3-14.9,2C545.7,212.5,542.9,206.4,545.3,202.1z M555.8,283.3c0-1-0.1-2-0.2-2.9c0.4,0.1,0.7,0.3,0.9,0.6C556.8,281.6,556.5,282.4,555.8,283.3z M494.6,194.6l34.3,52.7l0,0 c0.4,0.6,0.8,1.2,1.2,1.8c-1.1-0.3-2.3-0.6-3.5-0.9c-0.2-0.3-0.3-0.5-0.5-0.8C526,247.4,491.6,190.3,494.6,194.6z M491.3,208.3 c2.5-0.9,6.3,3.5,8.6,9.8c2.2,6.3,2,12.1-0.5,13s-6.3-3.5-8.6-9.8C488.5,215,488.8,209.2,491.3,208.3z M444.7,279.7 c8.8,0,15.6,2.1,20.3,6.3c3.8,3.4,6,8.1,6,13c0,4-1.5,8-4.3,11.2c-2.6,3-6.2,5.2-10.6,6.5l6.4,7.8c1.3,1.6,2.9,3.2,4.3,3.2 c0.3,0,0.7-0.1,1-0.3l0,0l4.4-2l-4.3,15.3l-1.5,0.2c-0.6,0.1-1.1,0.1-1.7,0.1c-4.9,0-9.2-2.7-14.4-9l-10.4-12.6v11.9 c0,4,0.8,4.9,2.2,5.2l5.2,0.9l-13.5,9.6l-1.2-0.7c-6.2-3.3-7-10.1-7-16.4v-43.3c0-0.6-0.8-1.7-2.9-2.9l-7.1-4.2h29.1V279.7z M363.4,283.9L363.4,283.9l-7.1-4.1h53.4v16.5l-4.1-6c-1.2-1.7-2.4-2.7-3.3-2.7h-21.7v19.2H396c0.5,0,1.5-0.6,2.6-2.2l4.1-6v23.7 l-4.1-6c-1.1-1.6-2.1-2.2-2.6-2.2h-15.4v19.2h21.7c0.9,0,2.2-1,3.3-2.7l4.1-6v16.5h-53.4l7.1-4.2c2.1-1.2,2.9-2.3,2.9-2.9v-47.1 C366.2,286.2,365.5,285.1,363.4,283.9z M329,279.7c8.8,0,15.6,2.1,20.3,6.3l0,0c3.8,3.4,6,8.1,6,13c0,9.6-8.2,19.3-26.4,19.3h-4.6 v13c0,4,0.8,4.9,2.2,5.2l5.2,0.9l-13.5,9.6l-1.2-0.7c-6.2-3.3-7-10.1-7-16.4v-43.3c0-0.6-0.8-1.7-2.9-2.9l-7.1-4.2h29V279.7z M250.4,279.3l1.2,0.6c4.8,2.5,7,7.3,7,14.9v23.5c0,10.4,8.2,11.2,10.7,11.2c6.6,0,10.7-4.7,10.7-12.2v-22.9 c-0.1-3.8-1-4.3-2.2-4.5l-5.2-0.9l13.4-9.6l1.2,0.6c4.8,2.5,7,7.3,7,14.9V332l0,0c0.1,3.8,1,4.3,2.2,4.5l5.2,0.9l-13.4,9.6 l-1.2-0.6c-3.8-2-6-5.4-6.7-10.5c-3.7,3.3-8.7,5-14.6,5c-13.1,0-21.5-8.8-21.5-22.5v-23.9c-0.1-3.8-1-4.3-2.2-4.5l-5.2-0.9 L250.4,279.3z M176.6,271.8c7.1-7.7,16.7-11.4,29.2-11.4c11.4,0,19.1,5.6,22.8,16.7l0.5,1.6l-17.5,12.6V287 c0-10.6-8-14.4-14.8-14.4c-4.9,0-9.4,1.8-11.5,4.7c-1.3,1.8-1.2,3-1,3.8c1.1,4.7,10.5,9.4,18,13.2c1.1,0.6,2.3,1.2,3.4,1.7l0,0 c13.7,7.1,34.5,17.9,26.4,36.1c-5.4,11.7-18.8,19.5-33.3,19.5c-14.1,0-25-7.4-28.5-19.4l-0.4-1.5l17.5-12.5v4.3 c0,6.8,5.2,16.9,19.4,16.9c4.6,0,8.6-1.5,10.6-3.9c1.5-1.7,1.9-4,1.4-6.7c-1.1-5.8-9.2-9.9-18.6-14.6c-0.9-0.4-1.7-0.9-2.6-1.3 l-0.1-0.1c-4.2-2.1-9-4.6-14-7.5c-5.5-3.3-12.4-8.8-13.5-16.5C169,283.2,171.3,277.5,176.6,271.8z M555.8,319.4v-23.6 c13.3-4.7,25.6-9.1,25.6-9.1l0,0c0,0,1.9-0.7,4.6-2.4c-3.9,15.6-8.3,33.6-10.3,41.4c-3,11.7-1.1,19.9,3.8,26.4h-44.1 C547.5,346.2,555.8,333.8,555.8,319.4z M964.5,590.1c0,7.5-5.7,14.2-13.7,15.9l-14.5,3.1l-2.6,14.4c-1.8,10.2-11.2,17.5-22.3,17.5 H88.6c-11.1,0-20.5-7.4-22.3-17.5l-2.6-14.4L49.2,606c-7.9-1.7-13.7-8.4-13.7-15.9V407c0-7.5,5.7-14.2,13.7-15.9l14.5-3.1l2.6-14.4 c1.8-10.2,11.2-17.5,22.3-17.5H583c7.7,7.6,28.9,25.5,33.7,30.3c5,5,11.6,4.8,23,4.5c11.5-0.3,52.5,0.1,65.5-0.8 s15.7-4.9,17.4-15.8c0.5-3.1,1.6-9.9,2.8-18.2h185.9c11.1,0,20.5,7.4,22.3,17.5l2.6,14.4l14.5,3.1c7.9,1.7,13.7,8.4,13.7,15.9 L964.5,590.1L964.5,590.1z"></path> <path style="fill:#EA3358;" d="M444.7,311c7.4,0,12-4.6,12-12c0-7.8-4.2-12-12-12h-4.6v24H444.7z"></path> <path style="fill:#EA3358;" d="M329,311c7.4,0,12-4.6,12-12c0-7.8-4.2-12-12-12h-4.6v24H329z"></path> </g> <path id="Shape_00000139261022771400314500000002035375583110119321_" style="fill:#EA3358;" d="M357.1,745 c2.4-3.4,3.6-7.4,3.6-11.5c0-5.9-2-10.9-6.1-14.9c-4.1-4.1-9.1-6.1-14.9-6.1h-26.2V778h10.8v-23.9H337l13.9,23.9h11.8l-14.9-25.5 C351.5,751,354.7,748.4,357.1,745L357.1,745L357.1,745z M339.6,744.5h-15.5v-21.9h15.5c2.8,0,5.4,1.1,7.3,3.2c4,4.4,4,11.1,0,15.6 C345,743.3,342.4,744.5,339.6,744.5L339.6,744.5z M415.9,749.7c-1.1-1.2-2.2-2.3-3.4-3.3c-1.1-0.9-2.6-1.7-4.7-2.6 c-2.1-0.9-3.7-1.5-4.9-1.9c-1.2-0.4-3-1-5.5-1.8c-5-1.6-8.4-3-10.4-4.5c-1.9-1.3-2.9-3.5-2.9-5.8c0-2.5,0.9-4.5,2.8-5.9 c1.9-1.5,4.4-2.2,7.5-2.2c6.4,0,11,3.1,13.8,9.2l9.1-5.2c-2-4.3-5.1-8-9.1-10.6c-3.9-2.6-8.5-3.8-13.8-3.8c-5.8,0-10.8,1.7-14.9,5.1 c-4.1,3.4-6.2,8-6.2,13.8c0,2.9,0.5,5.5,1.6,7.7s2.8,4.1,4.8,5.5c1.9,1.3,4,2.5,6.1,3.4c2.5,1,5,1.9,7.6,2.6 c5.6,1.7,9.4,3.2,11.6,4.6s3.3,3.5,3.3,6.1c0.1,2.4-1.1,4.8-3,6.2c-2,1.6-5.1,2.4-9.1,2.4c-8.2,0-13.7-3.7-16.3-11.1l-9.3,5.4 c1.6,4.9,4.9,9,9.2,11.8c4.4,2.9,9.8,4.3,16.1,4.3c6.9,0,12.5-1.7,16.8-5.2s6.4-8.2,6.4-14.1c0-1.9-0.2-3.9-0.7-5.7 C418,752.5,417.1,751,415.9,749.7L415.9,749.7z M427.2,722.7h18.6V778h10.8v-55.3H475v-10.3h-47.8V722.7L427.2,722.7z M224.5,778 h13.3v-32.8h32.9v-12.7h-32.9v-22.7h34.1v-12.7h-47.4L224.5,778L224.5,778z M285,778h10.8v-65.6H285V778z M587.4,750h26.2v-10.2 h-26.2v-17.1H616v-10.3h-39.4V778h39.8v-10.3h-29L587.4,750L587.4,750z M780.3,711.2c-9.5,0-17.5,3.3-24.1,9.9 c-6.6,6.6-9.9,14.6-9.9,24.1s3.3,17.5,9.9,24.1c6.6,6.6,14.6,9.9,24.1,9.9s17.5-3.3,24.1-9.9s9.9-14.6,9.9-24.1s-3.3-17.5-9.9-24.1 C797.8,714.5,789.8,711.2,780.3,711.2L780.3,711.2L780.3,711.2z M796.8,762c-4.5,4.5-10,6.7-16.5,6.7s-12.1-2.2-16.5-6.7 c-4.5-4.5-6.7-10.1-6.7-16.8s2.2-12.4,6.7-16.8c4.5-4.5,10-6.7,16.5-6.7c6.6,0,12.1,2.2,16.5,6.7c4.5,4.5,6.7,10.1,6.7,16.8 C803.5,752,801.3,757.6,796.8,762L796.8,762z M674.6,745c2.4-3.4,3.6-7.4,3.6-11.5c0-5.9-2-10.9-6.1-14.9c-4.1-4.1-9.1-6.1-14.9-6.1 H631V778h10.8v-23.9h12.7l13.9,23.9h11.8l-14.9-25.5C669,751,672.3,748.4,674.6,745L674.6,745z M657.1,744.5h-15.5v-21.9h15.5 c2.8,0,5.4,1.1,7.3,3.2c4,4.4,4,11.1,0,15.6C662.6,743.3,659.9,744.5,657.1,744.5L657.1,744.5L657.1,744.5z M733.5,749.7 c-1.1-1.2-2.2-2.3-3.4-3.3c-1.1-0.9-2.6-1.7-4.7-2.6c-2.1-0.9-3.7-1.5-4.9-1.9s-3-1-5.5-1.8c-5-1.6-8.5-3-10.4-4.5 c-1.9-1.3-2.9-3.5-2.9-5.8c0-2.5,0.9-4.5,2.8-5.9c1.9-1.5,4.4-2.2,7.5-2.2c6.4,0,11,3.1,13.8,9.2l9.1-5.2c-2-4.3-5.1-8-9.1-10.6 c-3.9-2.6-8.5-3.8-13.8-3.8c-5.8,0-10.8,1.7-14.9,5.1c-4.1,3.4-6.2,8-6.2,13.8c0,2.9,0.5,5.5,1.6,7.7s2.8,4.1,4.8,5.5 c1.9,1.3,4,2.5,6.1,3.4c2.5,1,5,1.9,7.6,2.6c5.6,1.7,9.4,3.2,11.6,4.6c2.2,1.4,3.3,3.5,3.3,6.1c0.1,2.4-1.1,4.8-3,6.2 c-2,1.6-5.1,2.4-9.1,2.4c-8.2,0-13.7-3.7-16.3-11.1l-9.3,5.4c1.6,4.9,4.9,9,9.2,11.8c4.4,2.9,9.8,4.3,16.1,4.3 c6.9,0,12.5-1.7,16.8-5.2s6.4-8.2,6.4-14.1c0-1.9-0.2-3.9-0.7-5.7C735.6,752.5,734.7,751,733.5,749.7L733.5,749.7L733.5,749.7z M538.6,697.1h-29.8V778h13.3v-27.7h16.5c7.6,0,14-2.6,19.1-7.7c5.1-5.1,7.7-11.4,7.7-18.9c0-7.6-2.6-13.9-7.7-19 C552.6,699.7,546.2,697.1,538.6,697.1L538.6,697.1z M548.3,733.8c-2.5,2.7-5.8,4-9.7,4h-16.5v-28.2h16.5c3.9,0,7.2,1.3,9.7,4 s3.8,6,3.8,10.1C552.1,727.8,550.9,731.1,548.3,733.8L548.3,733.8L548.3,733.8z M867.5,712.4v44.5l-30.9-44.5h-8.4V778H839v-44.5 l30.9,44.5h8.4v-65.6H867.5L867.5,712.4z"></path> <path id="Path-5_00000072992386577809943990000018401795925843521722_" style="fill-rule:evenodd;clip-rule:evenodd;fill:#EA3358;" d=" M117.3,691.4c32.2-17.2,73.8,0.9,76.9,44.7C134.5,740.8,127.3,713.9,117.3,691.4z"></path> <path id="Path-7_00000073722868165487125330000006960736108111220642_" style="fill-rule:evenodd;clip-rule:evenodd;fill:#EA3358;" d=" M117.3,788.6c32.2,17.2,73.8-0.9,76.9-44.7C134.5,739.1,127.3,766,117.3,788.6z"></path> </svg> 