<?xml version="1.0" encoding="UTF-8"?> <svg xmlns="http://www.w3.org/2000/svg" xmlns:xlink="http://www.w3.org/1999/xlink" version="1.1" id="Layer_1" x="0px" y="0px" viewBox="0 0 1000 1000" style="enable-background:new 0 0 1000 1000;" xml:space="preserve"> <path id="Shape_00000040541709403781856770000002505458042668340373_" style="fill:#EA3358;" d="M390.9,683.8 c1.9-2.6,2.9-5.8,2.8-9.1c0-4.6-1.6-8.6-4.8-11.8c-3.2-3.2-7.2-4.8-11.8-4.8h-20.7v51.7h8.5V691H375l10.9,18.8h9.3l-11.7-20.1 C386.5,688.5,389.1,686.4,390.9,683.8L390.9,683.8L390.9,683.8z M377.1,683.4h-12.2v-17.3h12.2c2.2,0,4.3,0.9,5.8,2.5 c3.2,3.5,3.2,8.8,0,12.3C381.4,682.5,379.3,683.4,377.1,683.4L377.1,683.4z M437.3,687.5c-0.8-0.9-1.7-1.8-2.7-2.6 c-0.8-0.7-2.1-1.4-3.7-2.1c-1.7-0.7-2.9-1.2-3.8-1.5s-2.4-0.8-4.3-1.4c-3.9-1.2-6.7-2.4-8.2-3.5c-1.5-1-2.3-2.7-2.3-4.5 c0-2,0.7-3.5,2.2-4.7s3.4-1.7,5.9-1.7c5.1,0,8.7,2.4,10.9,7.2l7.2-4.1c-1.6-3.4-4-6.3-7.2-8.4c-3.1-2-6.7-3-10.9-3 c-4.6,0-8.5,1.3-11.7,4c-3.3,2.7-4.9,6.3-4.9,10.9c0,2.3,0.4,4.3,1.3,6.1s2.2,3.2,3.8,4.3c1.5,1.1,3.1,2,4.8,2.7c2,0.8,4,1.5,6,2.1 c4.4,1.3,7.4,2.5,9.2,3.7c1.7,1.1,2.6,2.7,2.6,4.8c0,1.9-0.9,3.8-2.4,4.9c-1.6,1.3-4,1.9-7.2,1.9c-6.5,0-10.8-2.9-12.9-8.7l-7.3,4.3 c1.3,3.8,3.9,7.1,7.3,9.3c3.5,2.3,7.7,3.4,12.7,3.4c5.5,0,9.9-1.4,13.3-4.1c3.4-2.7,5.1-6.4,5.1-11.1c0-1.5-0.2-3-0.6-4.5 C439,689.7,438.3,688.5,437.3,687.5L437.3,687.5z M446.2,666.2h14.6v43.6h8.5v-43.6h14.6v-8.1h-37.7V666.2L446.2,666.2z M286.3,709.8h10.5v-25.9h26v-10h-26V656h26.9v-10h-37.4V709.8L286.3,709.8z M334.1,709.8h8.5v-51.7h-8.5V709.8z M572.5,687.7h20.7 v-8.1h-20.7v-13.5H595V658h-31v51.7h31.4v-8.1h-22.9V687.7L572.5,687.7z M724.7,657.1c-7.5,0-13.8,2.6-19,7.8s-7.8,11.5-7.8,19 s2.6,13.8,7.8,19s11.5,7.8,19,7.8s13.8-2.6,19-7.8s7.8-11.5,7.8-19s-2.6-13.8-7.8-19C738.5,659.7,732.2,657.1,724.7,657.1 L724.7,657.1L724.7,657.1z M737.7,697.2c-3.5,3.5-7.9,5.3-13,5.3s-9.5-1.8-13-5.3s-5.3-7.9-5.3-13.3c0-5.3,1.8-9.7,5.3-13.3 c3.5-3.5,7.9-5.3,13-5.3s9.5,1.8,13,5.3s5.3,7.9,5.3,13.3S741.2,693.7,737.7,697.2L737.7,697.2z M641.3,683.8 c1.9-2.6,2.9-5.8,2.8-9.1c0-4.6-1.6-8.6-4.8-11.8s-7.2-4.8-11.8-4.8h-20.7v51.7h8.5V691h10.1l10.9,18.8h9.3l-11.8-20.1 C636.9,688.5,639.5,686.4,641.3,683.8L641.3,683.8z M627.5,683.4h-12.2v-17.3h12.2c2.2,0,4.3,0.9,5.8,2.5c3.2,3.5,3.2,8.8,0,12.3 C631.8,682.5,629.7,683.4,627.5,683.4L627.5,683.4L627.5,683.4z M687.8,687.5c-0.8-0.9-1.7-1.8-2.7-2.6c-0.8-0.7-2.1-1.4-3.7-2.1 c-1.6-0.7-2.9-1.2-3.8-1.5c-0.9-0.3-2.4-0.8-4.3-1.4c-3.9-1.2-6.7-2.4-8.2-3.5c-1.5-1-2.3-2.7-2.3-4.5c0-2,0.7-3.5,2.2-4.7 s3.4-1.7,5.9-1.7c5.1,0,8.7,2.4,10.9,7.2l7.2-4.1c-1.6-3.4-4-6.3-7.2-8.4c-3.1-2-6.7-3-10.9-3c-4.6,0-8.5,1.3-11.7,4 c-3.3,2.7-4.9,6.3-4.9,10.9c0,2.3,0.4,4.3,1.3,6.1c0.9,1.8,2.2,3.2,3.8,4.3c1.5,1.1,3.1,2,4.8,2.7c2,0.8,4,1.5,6,2.1 c4.4,1.3,7.4,2.5,9.2,3.7c1.7,1.1,2.6,2.7,2.6,4.8c0,1.9-0.9,3.8-2.4,4.9c-1.6,1.3-4,1.9-7.2,1.9c-6.5,0-10.8-2.9-12.9-8.7l-7.3,4.3 c1.3,3.8,3.9,7.1,7.3,9.3c3.5,2.3,7.7,3.4,12.7,3.4c5.5,0,9.9-1.4,13.3-4.1c3.4-2.7,5.1-6.4,5.1-11.1c0-1.5-0.2-3-0.6-4.5 C689.4,689.7,688.7,688.5,687.8,687.5L687.8,687.5L687.8,687.5z M534.1,646h-23.5v63.8h10.5v-21.9h13c6,0,11-2,15.1-6.1 c4-4,6.1-9,6.1-14.9c0-6-2-10.9-6.1-14.9C545.1,648,540.1,646,534.1,646L534.1,646z M541.7,674.9c-2,2.1-4.6,3.1-7.7,3.1h-13v-22.2 h13c3.1,0,5.7,1,7.7,3.1s3,4.8,3,8C544.8,670.2,543.8,672.8,541.7,674.9L541.7,674.9L541.7,674.9z M793.5,658.1v35.1l-24.4-35.1 h-6.7v51.7h8.5v-35.1l24.4,35.1h6.7v-51.7H793.5L793.5,658.1z"></path> <path id="Path-5_00000070797526694466132510000000040002632244785069_" style="fill-rule:evenodd;clip-rule:evenodd;fill:#EA3358;" d=" M199.1,632.4c25.4-13.6,58.2,0.7,60.7,35.3C212.6,671.4,206.9,650.1,199.1,632.4z"></path> <path id="Path-7_00000149367024305364704460000002479639474513150353_" style="fill-rule:evenodd;clip-rule:evenodd;fill:#EA3358;" d=" M201.8,718.1c25.4,13.6,58.2-0.7,60.7-35.3C215.3,679.2,209.7,700.4,201.8,718.1z"></path> <path style="fill:#EA3358;" d="M101.4,600.8l-31.3-53.4H37.3v53.4H18.8V461.3h55.8c12,0,22.2,4.2,30.7,12.6s12.7,18.6,12.7,30.6 c0,9-2.7,17.3-8.1,24.7s-12.3,12.7-20.8,15.7l32.9,55.8L101.4,600.8L101.4,600.8z M37.3,478.7v52h37.3c6.9,0,12.8-2.6,17.6-7.7 c4.8-5.1,7.3-11.3,7.3-18.4s-2.4-13.3-7.3-18.3c-4.8-5-10.7-7.6-17.6-7.6H37.3z"></path> <path style="fill:#EA3358;" d="M261.9,582.2c-14,14.1-31.1,21.1-51.3,21.1s-37.3-7-51.2-21.1s-20.9-31.1-20.9-51.2 c0-20.2,7-37.3,20.9-51.3s31-21,51.2-21s37.3,7,51.3,21s21,31.1,21,51.3C282.9,551.1,275.9,568.2,261.9,582.2z M172.3,569.6 c10.3,10.4,23.1,15.6,38.3,15.6c15.3,0,28.1-5.2,38.3-15.6c10.3-10.4,15.4-23.3,15.4-38.5c0-15.4-5.1-28.3-15.4-38.7 c-10.3-10.4-23.1-15.6-38.3-15.6c-15.3,0-28.1,5.2-38.3,15.6c-10.3,10.4-15.4,23.3-15.4,38.7C156.8,546.3,162,559.2,172.3,569.6z"></path> <path style="fill:#EA3358;" d="M400.8,589.9c-9.7,9-22.2,13.4-37.6,13.4s-28-4.5-37.7-13.4c-9.8-9-14.6-20.9-14.6-36v-92.6h18.5 v91.8c0,9.8,2.9,17.6,8.8,23.4c5.8,5.8,14.2,8.7,25.1,8.7s19.3-2.9,25.1-8.7c5.8-5.8,8.8-13.6,8.8-23.4v-91.8h18.3V554 C415.3,569,410.5,580.9,400.8,589.9z"></path> <path style="fill:#EA3358;" d="M470.2,583.2h60.2v17.5h-78.7V461.3h18.5V583.2z"></path> <path style="fill:#EA3358;" d="M572.1,583.2h64.7v17.5h-83.3V461.3h82.3v17.5h-63.7v42.8h58.8V539h-58.8V583.2z"></path> <path style="fill:#EA3358;" d="M756.6,461.3v17.5h-41.2v121.9H697V478.9h-41v-17.5h100.6V461.3z"></path> <path style="fill:#EA3358;" d="M875,461.3v17.5h-41.2v121.9h-18.3V478.9h-41v-17.5H875V461.3z"></path> <path style="fill:#EA3358;" d="M916.5,583.2h64.7v17.5H898V461.3h82.3v17.5h-63.7v42.8h58.8V539h-58.8L916.5,583.2L916.5,583.2z"></path> <g> <polygon style="fill:#EA3358;" points="641.6,379 648,379.2 652.2,374.2 645.9,373.9 "></polygon> <polygon style="fill:#EA3358;" points="375.1,359.4 375.4,369.9 383.6,362.8 383.4,352.4 "></polygon> <polygon style="fill:#EA3358;" points="584.3,291.9 576.8,290.6 582.4,297.2 589.8,298.3 "></polygon> <polygon style="fill:#EA3358;" points="471.8,274.9 464.7,267.1 465.1,276.5 472.2,284.2 "></polygon> <path style="fill:#EA3358;" d="M641,408.4c-0.4-4.8-1.1-9.5-2-14.2v-0.1c0-0.1-0.1-0.1-0.1-0.2c-3.4-16.5-10-32.2-19.2-46.2 l22.6-17.2l-0.7-1.1L619,346.6c-19.1-28.3-48.9-49.4-84.2-55.4l-1.4-37.6l-1.4-0.3l1.4,37.6c-0.4-0.1-0.8-0.1-1.2-0.2 c-40.7-6-79.7,8.8-105.4,37.3L386,298.6l-1.1,1.2l40.8,29.4C408,349.3,396.9,376.1,396,407l-0.1,3.2H462l0.1-1.5 c0.7-8,2.7-15.4,5.7-22.2l45.6,19c-0.3,1.5-0.5,3.1-0.5,4.8h2l0,0h42.9l0,0h1.8c-0.1-1.3-0.3-2.6-0.7-3.9l35.8-15.8 c2.5,5.9,4.3,12.1,5.2,18.5l0.2,1.2h41.3L641,408.4L641,408.4z M535.9,387.5c-3-0.1-5.8,0.4-8.4,1.4l-17.4-40 c7.7-2.3,15.8-3.2,24.3-2.5c8.8,0.7,17,3.1,24.6,6.8l-13.4,36.9C542.6,388.4,539.3,387.6,535.9,387.5z M503.5,347.7l-23.1-50.6 c8.4-2.6,17.1-4.3,26-4.9l11.9,51.7C513.1,344.6,508.2,345.9,503.5,347.7z M549.1,346.2c-4.2-1.3-8.6-2.2-13-2.7l-1.1-50 c7.4,1.2,14.6,3.2,21.5,5.7L549.1,346.2z M580.9,311.6c6.7,4.4,13,9.4,18.7,14.9l-22.9,35.4c-3.6-3.2-7.5-6.1-11.6-8.5L580.9,311.6 z M616.5,346.2c4.3,6.2,8.1,12.7,11.3,19.6l-32.6,20.6c-2-4.2-4.4-8.2-7.1-11.9L616.5,346.2z M628.4,367.1c3,6.7,5.5,13.6,7.3,20.7 l-35.3,12.6c-1.2-4.4-2.7-8.6-4.6-12.7L628.4,367.1z M453.2,309.7l34.3,46.9c-4.2,3.1-8.1,6.7-11.5,10.7l-44.3-39.9 C438.1,320.6,445.3,314.6,453.2,309.7z M460.4,398.1L403,379.6c2.4-9.6,5.9-18.6,10.4-26.9l52.3,30.3 C463.4,387.7,461.6,392.7,460.4,398.1z M468.4,385.1c8-17.3,22.6-30.1,40.2-35.8l17.5,40.1c-6,2.7-10.5,8-12.4,14.6L468.4,385.1z M558.3,405c-1.9-6.1-6.1-11.3-11.4-14.4l13.4-37c14.9,7.6,26.8,20.4,33.7,35.7L558.3,405z"></path> <path style="fill:#EA3358;" d="M678.5,409.3L678.5,409.3C678.5,409.2,678.5,409.2,678.5,409.3l-0.1-1.1l0,0 c-4.1-80.3-63.8-157.3-148.5-175.8c-107-23.5-214.3,51.2-212,174.7v3.3h25.6l-0.1-3.2c-2.1-109.1,91.3-177.3,187-158.3 c77.4,15.4,132.8,85.3,136.6,159.3l0.1,2.2h11.2L678.5,409.3z"></path> <path style="fill:#EA3358;" d="M434.1,294.4c-0.2-6.9-6-12.4-12.9-12.3c-7,0-12.7,5.7-12.6,12.6c0.1,7,5.9,12.6,13,12.5 S434.3,301.3,434.1,294.4z"></path> </g> </svg> 