<?xml version="1.0" encoding="UTF-8"?> <svg xmlns="http://www.w3.org/2000/svg" xmlns:xlink="http://www.w3.org/1999/xlink" version="1.1" id="Layer_1" x="0px" y="0px" viewBox="0 0 1000 1000" style="enable-background:new 0 0 1000 1000;" xml:space="preserve"> <path id="Shape_00000040541709403781856770000002505458042668340373_" style="fill:#EA3358;" d="M379.1,791.5 c2.2-3.1,3.4-6.9,3.4-10.8c0-5.5-1.9-10.2-5.8-14c-3.8-3.8-8.5-5.8-14-5.8h-24.6v61.5h10.1V800h11.9l13,22.4h11.1l-14-23.9 C373.8,797.2,376.9,794.7,379.1,791.5L379.1,791.5L379.1,791.5z M362.7,791.1h-14.5v-20.5h14.5c2.6,0,5.1,1.1,6.8,3 c3.7,4.1,3.7,10.4,0,14.6C367.8,790,365.3,791.1,362.7,791.1L362.7,791.1z M434.3,796c-1-1.1-2.1-2.1-3.2-3.1 c-1-0.8-2.5-1.6-4.4-2.5c-2-0.8-3.5-1.4-4.6-1.8c-1.1-0.4-2.8-1-5.1-1.7c-4.7-1.5-7.9-2.9-9.7-4.2c-1.7-1.2-2.8-3.3-2.7-5.4 c0-2.3,0.9-4.2,2.6-5.6s4.1-2.1,7-2.1c6,0,10.3,2.9,12.9,8.6l8.5-4.9c-1.8-4-4.8-7.5-8.5-9.9s-8-3.6-12.9-3.6 c-5.4,0-10.1,1.6-14,4.8s-5.8,7.5-5.8,12.9c0,2.8,0.5,5.2,1.5,7.2c1,2.1,2.6,3.9,4.5,5.1c1.8,1.3,3.7,2.3,5.8,3.2 c2.3,0.9,4.7,1.8,7.1,2.5c5.2,1.6,8.8,3,10.9,4.3c2,1.3,3.1,3.2,3.1,5.8c0.1,2.3-1,4.5-2.9,5.8c-1.9,1.5-4.8,2.2-8.6,2.2 c-7.7,0-12.8-3.5-15.3-10.4l-8.7,5.1c1.5,4.6,4.6,8.5,8.6,11.1c4.1,2.7,9.1,4,15.1,4c6.5,0,11.7-1.6,15.8-4.9c4-3.2,6-7.7,6-13.2 c0-1.8-0.2-3.6-0.7-5.4C436.2,798.6,435.4,797.2,434.3,796L434.3,796z M444.8,770.7h17.4v51.8h10.1v-51.8h17.3V761h-44.8V770.7 L444.8,770.7z M254.9,822.5h12.5v-30.8h30.9v-11.9h-30.9v-21.2h31.9v-11.9h-44.4V822.5L254.9,822.5z M311.6,822.5h10.1V761h-10.1 V822.5z M594.9,796.2h24.6v-9.6h-24.6v-16h26.8V761h-36.9v61.5h37.3v-9.7h-27.2L594.9,796.2L594.9,796.2z M775.6,759.9 c-8.9,0-16.4,3.1-22.6,9.3c-6.2,6.2-9.3,13.7-9.3,22.6s3.1,16.4,9.3,22.6c6.2,6.2,13.7,9.3,22.6,9.3c8.9,0,16.4-3.1,22.6-9.3 s9.3-13.7,9.3-22.6c0-8.9-3.1-16.4-9.3-22.6C792,763,784.5,759.9,775.6,759.9L775.6,759.9L775.6,759.9z M791.1,807.5 c-4.2,4.2-9.4,6.3-15.5,6.3s-11.3-2.1-15.5-6.3s-6.3-9.4-6.3-15.8s2.1-11.6,6.3-15.8s9.3-6.3,15.5-6.3c6.1,0,11.3,2.1,15.5,6.3 s6.3,9.4,6.3,15.8C797.3,798.1,795.3,803.3,791.1,807.5L791.1,807.5z M676.6,791.5c2.2-3.1,3.4-6.9,3.4-10.8c0-5.5-1.9-10.2-5.8-14 s-8.5-5.8-14-5.8h-24.6v61.5h10.1V800h11.9l13,22.4h11.1l-14-23.9C671.3,797.2,674.4,794.7,676.6,791.5L676.6,791.5z M660.2,791.1 h-14.5v-20.5h14.5c2.6,0,5.1,1.1,6.8,3c3.7,4.1,3.7,10.4,0,14.6C665.3,790,662.8,791.1,660.2,791.1L660.2,791.1L660.2,791.1z M731.7,796c-1-1.1-2.1-2.1-3.2-3.1c-1-0.8-2.5-1.6-4.4-2.5c-2-0.8-3.5-1.4-4.6-1.8c-1.1-0.4-2.8-1-5.1-1.7 c-4.7-1.5-7.9-2.9-9.7-4.2c-1.7-1.2-2.8-3.3-2.7-5.4c0-2.3,0.9-4.2,2.6-5.6c1.8-1.4,4.1-2.1,7-2.1c6,0,10.3,2.9,12.9,8.6l8.5-4.9 c-1.8-4-4.8-7.5-8.5-9.9s-8-3.6-12.9-3.6c-5.4,0-10.1,1.6-14,4.8s-5.8,7.5-5.8,12.9c0,2.8,0.5,5.2,1.5,7.2c1,2.1,2.6,3.9,4.5,5.1 c1.8,1.3,3.7,2.3,5.8,3.2c2.3,0.9,4.7,1.8,7.1,2.5c5.2,1.6,8.8,3,10.9,4.3c2,1.3,3.1,3.2,3.1,5.8c0.1,2.3-1,4.5-2.9,5.8 c-1.9,1.5-4.8,2.2-8.6,2.2c-7.7,0-12.8-3.5-15.3-10.4l-8.7,5.1c1.5,4.6,4.6,8.5,8.6,11.1c4.1,2.7,9.1,4,15.1,4 c6.5,0,11.7-1.6,15.8-4.9c4-3.2,6-7.7,6-13.2c0-1.8-0.2-3.6-0.7-5.4C733.7,798.6,732.9,797.2,731.7,796L731.7,796L731.7,796z M549.2,746.7h-27.9v75.8h12.5v-26h15.5c7.1,0,13.1-2.4,17.9-7.2c4.8-4.8,7.2-10.7,7.2-17.7c0-7.1-2.4-13-7.2-17.8 C562.3,749.1,556.3,746.7,549.2,746.7L549.2,746.7z M558.3,781.1c-2.4,2.5-5.4,3.7-9.1,3.7h-15.5v-26.4h15.5c3.7,0,6.7,1.2,9.1,3.7 c2.4,2.5,3.6,5.6,3.6,9.5C561.9,775.4,560.7,778.6,558.3,781.1L558.3,781.1L558.3,781.1z M857.3,761v41.7l-29-41.7h-7.9v61.5h10.1 v-41.7l29,41.7h7.9V761H857.3L857.3,761z"></path> <path id="Path-5_00000070797526694466132510000000040002632244785069_" style="fill-rule:evenodd;clip-rule:evenodd;fill:#EA3358;" d=" M151.2,730.5c30.2-16.1,69.1,0.9,72.1,41.9C167.3,776.8,160.6,751.6,151.2,730.5z"></path> <path id="Path-7_00000149367024305364704460000002479639474513150353_" style="fill-rule:evenodd;clip-rule:evenodd;fill:#EA3358;" d=" M154.4,832.4c30.2,16.1,69.1-0.9,72.1-41.9C170.5,786.1,163.8,811.3,154.4,832.4z"></path> <path style="fill:#EA3358;" d="M747.4,430.8c0,0.6-0.1,1.3-0.1,1.9c0,22.2,0,44.4,0,66.6c0,2.4,0.4,4.9,1,7.2 c1.8,6.4,4.8,8.8,11.4,9.4c0,2.2,0,4.5,0,6.9c-13.9,0-27.7,0-41.6,0c0-2.3,0-4.5,0-6.8c0.4-0.1,0.7-0.2,1.1-0.2 c3.9,0,6.7-1.8,8.5-5.1c1.9-3.3,2.8-7,2.8-10.9c0-20.1,0.1-40.2,0-60.3c0-4.3-1.2-8.6-4-12.1c-2.1-2.6-5-3.5-8.4-3.2 c0-2.4,0-4.7,0-7.2c0.7,0,1.5,0,2.2,0c7.9,0,15.8,0.1,23.7,0c1.8,0,3,0.6,4.1,2.1c19,25.7,38,51.3,57,77c0.4,0.6,0.9,1.1,1.6,2 c0-1.1,0.1-1.7,0.1-2.3c0-18.3,0-36.6,0-55c0-4.2-0.7-8.2-3.1-11.8c-1.9-2.9-4.4-4.7-8-4.6c-1.2,0-1.6-0.5-1.6-1.6 c0.1-1.7-0.5-3.8,0.3-5c0.5-0.8,2.9-0.3,4.5-0.3c11.6,0,23.2,0,34.8,0c0.7,0,1.3,0,2.1,0c0,2.3,0,4.5,0,6.8 c-1.1,0.1-2.3,0.1-3.3,0.3c-3.5,0.7-5.8,3-6.9,6.2c-1.1,3.3-2.1,6.7-2.1,10.1c-0.2,19.9-0.1,39.8-0.1,59.7c0,3.9,1,7.7,3.2,11 c2.1,3.3,5.2,4.7,9.2,4.4c0,2.4,0,4.6,0,7.1c-0.7,0-1.3,0-2,0c-5.3,0-10.7,0-16,0c-1.2,0-2-0.3-2.8-1.4 c-18-24.4-36.1-48.8-54.2-73.1c-4.4-5.9-8.8-11.8-13.2-17.7C747.7,430.7,747.6,430.7,747.4,430.8z"></path> <path style="fill:#EA3358;" d="M630.7,498c0-12.8,0-25.1,0-37.3c0-7.2,0-14.5,0-21.7c0-3.7-1.1-7.1-3.1-10.2 c-1.8-2.8-4.3-4.6-7.8-4.5c-1.2,0-1.7-0.4-1.6-1.6c0.1-1.4-0.1-2.9,0.1-4.3c0-0.4,0.7-1.2,1.1-1.2c8,0,16.1,0.1,24.1,0.2 c5.5,0,11,0,16.7,0c0,2.3,0,4.5,0,6.7c-0.3,0.1-0.6,0.2-0.9,0.2c-4.7-0.2-7.9,2.2-9.5,6.3c-1.1,2.9-2,6.2-2.1,9.3 c-0.2,20.1-0.1,40.2-0.1,60.3c0,3.8,0.9,7.5,3,10.9c1.9,3.1,4.7,4.7,8.3,4.7c0.4,0,0.8,0.1,1.2,0.1c0,2.3,0,4.5,0,7 c-0.7,0-1.3,0-1.9,0c-5.3,0-10.7,0-16,0c-1.4,0-2.3-0.4-3.1-1.5c-21.9-29.6-43.9-59.2-65.9-88.8c-0.5-0.7-1.1-1.4-2-2.6 c0,1.2,0,1.8,0,2.5c0,22.3,0,44.6,0.1,66.8c0,2.6,0.5,5.3,1.2,7.7c1.8,6,4.9,8.4,11.2,8.9c0,2.2,0,4.5,0,6.9c-0.6,0-1.2,0.1-1.7,0.1 c-12.7,0-25.3,0-38,0c-1.6,0-2.3-0.4-2.1-2.1c0.1-1.6,0-3.3,0-4.5c2.4-0.8,4.7-1.1,6.5-2.2c3.5-2.1,4.7-5.7,5.5-9.4 c0.4-2.1,0.6-4.2,0.6-6.4c0-19,0-38,0.1-56.9c0-3.5-0.5-6.9-1.8-10.1c-1.7-4.3-4.5-7.2-9.5-7.2c-0.4,0-0.9-0.8-1.3-1.2 c0,0,0-0.1,0-0.2c-0.4-5.7-0.4-5.7,5.3-5.7c7,0,14,0.1,21,0c1.7,0,2.8,0.5,3.8,1.9c11,14.9,22.1,29.8,33.1,44.8 c8.3,11.2,16.6,22.3,24.8,33.5C630,497.2,630.2,497.4,630.7,498z"></path> <path style="fill:#EA3358;" d="M429.4,424c-7.8,0.9-11.4,4.6-12.1,13.5c-0.6,6.5-0.3,13.1-0.3,19.7c0,13.4,0,26.9,0,40.3 c0,2.5,0.2,5.1,0.7,7.6c1.5,7.2,4.4,9.8,11.7,10.9c0,2.2,0,4.4,0,6.8c-13.9,0-27.6,0-41.6,0c0-2.3,0-4.5,0-6.9 c4.3,0.3,7.6-1.5,9.6-5.3c1-1.8,1.7-3.9,2.1-5.9c1.5-6.4,0.5-13,0.7-19.4c0.1-4.5,0-9.1,0-13.7c-16.9,0-33.5,0-50.5,0 c0,0.7,0,1.4,0,2.1c0,8-0.1,16,0.1,23.9c0.1,3.2,0.5,6.4,1.4,9.4c1.7,5.8,4.5,7.9,11,8.6c0,2.2,0,4.5,0,6.9c-13.8,0-27.6,0-41.6,0 c0-2.3,0-4.6,0-6.8c7.8-1.2,11.2-4.8,12.1-13c0.2-2.1,0.3-4.2,0.4-6.3c0-18.7,0.2-37.3-0.1-56c-0.1-3.6-1.3-7.4-2.7-10.7 c-1.7-4-5.1-5.8-9.7-5.4c0-2.4,0-4.6,0-7c13.8,0,27.6,0,41.6,0c0,2.2,0,4.5,0,6.8c-1.2,0.1-2.4,0.1-3.6,0.4c-4.8,1.2-6.7,5-7.8,9.3 c-0.7,2.5-0.9,5.2-1,7.9c-0.1,6.7,0,13.4,0,20.2c0,0.7,0,1.3,0,2.1c16.9,0,33.6,0,50.5,0c0-3.4,0-6.8,0-10.2c0-4.6,0.3-9.2,0-13.8 c-0.2-4.1-1.1-8.2-3.6-11.7c-2.1-3-5.1-4.2-8.9-3.9c0-2.4,0-4.8,0-6.9c13.9,0,27.7,0,41.6,0C429.4,419.6,429.4,421.7,429.4,424z"></path> <path style="fill:#EA3358;" d="M930.4,412.7c0.1,0.8,0.1,1.4,0.1,1.9c0,7.1,0,14.2,0,21.4c0,1.7-0.6,2-2.2,2.1 c-2,0.1-3.4-0.5-4.9-1.9c-18.8-17.5-49.7-15.4-66,4.5c-0.6,0.8-1.1,2-1.1,3c-0.1,17.5-0.1,35.1,0,52.6c0,1.1,0.5,2.3,1.2,3.1 c16.5,19.3,45.3,21.7,64.6,5.5c0.6-0.5,1.2-1.6,1.2-2.4c0.1-4.5,0.2-9,0-13.4c-0.2-3.8-1-7.5-3.1-10.8c-1.8-2.9-4.3-4.6-7.8-4.5 c-0.5,0-1-0.1-1.6-0.2c0-2.3,0-4.5,0-6.8c10.7,0,21.4,0,32.1,0c0,2.4,0,4.6,0,6.8c-1.4,0.2-2.7,0.2-3.9,0.5 c-3.4,0.9-5.5,3.4-6.6,6.6c-1,3.1-1.7,6.4-1.9,9.7c-0.3,5.1,0,10.1-0.1,15.2c0,0.9-0.4,2-1.1,2.6c-8.3,8-18.1,12.9-29.6,14.3 c-16.6,2-31.2-2.4-43.4-13.8c-12-11.3-17.4-25.4-16.5-41.9c0.6-12.1,5-22.8,13.1-31.8c11.6-12.8,26.2-18.7,43.5-17.7 c5.4,0.3,10.7,1.5,15.7,3.6c7.2,2.9,9.8-0.7,11.1-6.4c0.3-1.3,0.6-1.7,1.8-1.6C926.9,412.7,928.6,412.7,930.4,412.7z"></path> <path style="fill:#EA3358;" d="M306.3,412.7c0,8.5,0,16.8,0,25.1c-2.7,0.3-4.9,0.2-7.2-1.9c-9.9-8.9-21.6-12.7-34.9-11.5 c-12.5,1.1-22.8,6.6-30.9,16.2c-0.6,0.7-1,1.9-1,2.8c-0.1,17.6-0.1,35.2,0,52.8c0,1,0.4,2.1,1,2.8c7.3,8.7,16.6,14.1,27.8,15.8 c13.8,2.1,26.1-1.3,36.9-10c0.6-0.5,1.2-1.5,1.2-2.2c0.2-4.9,0.7-9.8,0.1-14.6c-0.6-5.2-1.6-10.7-7-13.6c-1.3-0.7-2.9-0.9-4.3-1 c-1-0.1-1.4-0.5-1.3-1.5c0-1.4,0-2.9,0-4.3c0-1.2,0.4-1.7,1.7-1.2c0.6,0.2,1.3,0.2,1.9,0.2c8.8,0,17.5,0,26.3,0c0.7,0,1.4,0,2.5,0 c0,2,0.1,3.9-0.1,5.7c0,0.4-0.7,0.9-1.1,1c-7,1.5-10.4,4.9-11,12.4c-0.5,6.3-0.4,12.8-0.4,19.1c0,1.4-0.3,2.3-1.4,3.3 c-11,10.2-24,15-39,14.4c-22.1-0.8-41.8-16-48.2-37.6c-8.8-29.7,9-60,39.2-66.9c10.1-2.3,20.1-1.4,29.8,2.1c0.2,0.1,0.5,0.1,0.7,0.2 c7.8,3.6,10.6-1,11.7-6.6c0.1-0.4,0.6-1.1,1-1.1C302.3,412.7,304.2,412.7,306.3,412.7z"></path> <path style="fill:#EA3358;" d="M212.1,417.2c0,2.1,0.1,3.9-0.1,5.6c0,0.5-0.8,1.3-1.2,1.3c-5.4,0-8.2,3.2-9.6,7.8 c-0.9,3-1.5,6.3-1.5,9.4c-0.1,19.5-0.1,39,0,58.5c0,2.2,0.3,4.5,0.9,6.6c1.7,5.5,4.8,9.6,11.5,9.2c0,2.1,0.1,4.1-0.1,6.2 c0,0.4-1.2,1-1.8,1c-6.8,0.1-13.6,0-20.4,0c-5.9,0-11.9,0-17.8,0c-1.6,0-2.1-0.5-2-2c0.1-1.6,0-3.3,0-5.1c1.1-0.1,2.1-0.1,3-0.2 c3.7-0.6,6.3-2.9,7.5-6.3c1.1-3,2-6.2,2-9.3c0.2-19.9,0.1-39.8,0.1-59.7c0-4.3-0.9-8.5-3.5-12.1c-1.8-2.5-4.2-4-7.3-3.9 c-1.4,0-1.9-0.5-1.9-1.9c0.1-1.6-0.5-3.8,0.3-4.8c0.7-0.8,3-0.4,4.6-0.4c11.5,0,23.1,0,34.6,0C210.3,417.2,211.1,417.2,212.1,417.2z "></path> <path style="fill:#EA3358;" d="M709.9,515.9c0,2.4,0,4.6,0,6.9c-0.7,0-1.2,0.1-1.8,0.1c-12.7,0-25.3,0-38,0c-1.7,0-2.2-0.5-2.1-2.1 c0.1-1.6,0-3.1,0-4.9c1.1-0.1,2.2-0.1,3.2-0.3c5-1,7.2-4.7,8.4-9.2c0.7-2.6,1-5.4,1-8.1c0.1-19,0-38.1,0-57.1c0-3.6-0.5-7.2-2-10.5 c-1.8-3.9-4.5-6.6-9.2-6.5c-1,0-1.4-0.4-1.4-1.4c0-1.5-0.1-3,0.1-4.5c0-0.5,0.8-1.2,1.2-1.2c1.8-0.1,3.7,0.2,5.5,0.2c11,0,22,0,33,0 c0.6,0,1.3,0.1,2,0.1c0,2.3,0,4.4,0,6.7c-1.1,0.1-2.2,0.1-3.3,0.3c-3.6,0.8-6,3.2-7.1,6.5c-1.1,3.2-2,6.6-2,9.9 c-0.2,19.4-0.1,38.9,0,58.3c0,2.6,0.4,5.3,1.2,7.7C700.3,512.9,703.4,515.3,709.9,515.9z"></path> <path style="fill:#EA3358;" d="M503.4,514.7c0,1.5,0,2.8,0,4.3c-13.1,0-26.1,0-39.3,0c0-1.4,0-2.8,0-4.4c6.9-0.5,10.1-5,11.7-11.1 c0.5-1.9,0.8-4,0.8-6c0-25.3,0-50.6,0-75.9c0-0.3-0.1-0.5-0.1-1.1c-0.7,0-1.4,0-2.1,0c-5.3-0.1-10.6-0.4-15.8-0.1 c-4.7,0.3-9.3,1.3-13.2,4.4c-2.6,2.1-3.7,4.8-3.8,8.2c-1.6,0-3,0-4.6,0c0-5.7,0-11.3,0-17.2c0.7,0,1.4,0,2.1,0c29.7,0,59.5,0,89.2,0 c1.9,0,2.6,0.5,2.5,2.4c-0.1,4.9,0,9.8,0,15c-1.4,0-2.7,0.1-3.9-0.1c-0.4,0-1-0.7-1-1.1c-0.3-4.7-3.1-7.7-7.2-9.2 c-3.3-1.2-6.8-2.1-10.2-2.3c-5.8-0.4-11.6-0.1-17.6-0.1c0,0.8,0,1.5,0,2.2c0,25,0,50.1,0,75.1c0,4.1,1.1,8,3.3,11.6 c1.7,2.7,4.1,4.6,7.4,5C502,514.3,502.6,514.5,503.4,514.7z"></path> <path style="fill:#EA3358;" d="M85.5,420.2c0-1.5,0-2.9,0-4.5c0.7,0,1.4-0.1,2-0.1c11.1,0,22.1,0,33.2,0c1.2,0,2.5-0.2,2.3,1.7 c-0.1,1.4,0.7,3.2-2,3.3c-2.8,0.1-5,1.6-6.6,3.9c-3.1,4.4-4.1,9.5-4.1,14.8c0,18.6,0,37.2,0,55.7c0,6.4,0,12.8,0,19.4 c0.8,0,1.5,0,2.2,0c8,0,16,0.3,23.9-0.1c3.7-0.2,7.5-1.3,11-2.6c4.3-1.6,6.5-5.1,6.8-9.8c1.5,0,2.9,0,4.5,0c0,5.7,0,11.3,0,17 c-24.4,0-48.8,0-73.3,0c0-1.4,0-2.9,0-4.4c3.8-0.3,7.2-1.7,8.9-5.3c1.4-3,2.9-6.2,3.1-9.4c0.5-11.8,0.4-23.5,0.5-35.3 c0.1-8.6,0.2-17.3-0.1-25.9c-0.1-3.2-0.7-6.4-1.6-9.4C94.7,423.8,92,421.7,85.5,420.2z"></path> <path style="fill:#EA3358;" d="M297.1,591.6c-5.8,0-11.6,0.9-17.1,2.8c-1.3,0.4-2.6,0.9-3.9,1.5c-2.5,1-4.9,2.3-7.2,3.7 c-1.2,0.8-2.4,1.6-3.6,2.4c-1.5,1.1-3.1,2.3-4.5,3.6c-11.3,10.3-17.8,24.9-17.8,40.1c0,4.3,0.5,8.6,1.5,12.8c0.2,1,0.5,2,0.8,3.1 c3.3,10.8,10.2,20.6,19.3,27.4c9.4,7.1,20.7,10.8,32.5,10.8c24,0,45.4-16.1,52-39.2c0.3-1,0.5-2,0.8-3c0.9-3.9,1.3-7.9,1.3-11.9 C351.2,615.9,326.9,591.6,297.1,591.6L297.1,591.6z M332.5,649.3c-0.1,0.8-0.2,1.5-0.3,2.3c-0.1,0.5-0.2,1-0.3,1.5 c-0.1,0.3-0.1,0.6-0.2,0.9c-0.2,0.7-0.4,1.5-0.6,2.2c-0.2,0.5-0.3,1-0.5,1.4c-5.1,14.1-18.5,23.5-33.5,23.5 c-10.2,0-20.1-4.6-26.8-12.3v-46.6c2.6-3,5.8-5.6,9.3-7.6c0.7-0.4,1.4-0.8,2.1-1.1c0.4-0.2,0.7-0.4,1.1-0.5c0.7-0.3,1.4-0.6,2.1-0.8 c0.7-0.3,1.4-0.5,2.2-0.7c3.3-1,6.6-1.5,10-1.5s6.8,0.5,10,1.4c0.8,0.2,1.6,0.5,2.4,0.8c0.9,0.3,1.8,0.7,2.7,1.2 c12.4,5.9,20.4,18.5,20.4,32.2C332.7,646.9,332.6,648.1,332.5,649.3L332.5,649.3z"></path> <path style="fill:#EA3358;" d="M533.9,591.6h-6.5v18h7.3c0.1,0,0.2,0,0.2,0c0.1,0,0.2,0,0.3,0.1c0.1,0,0.1,0,0.2,0.1 c0.1,0,0.1,0.1,0.2,0.1c0.2,0.2,0.4,0.4,0.7,0.8c0.1,0.2,0.3,0.4,0.4,0.7c0.1,0.3,0.2,0.5,0.3,0.8c0.1,0.2,0.1,0.3,0.2,0.5 c0.2,0.5,0.3,1,0.4,1.6c0,0.1,0.1,0.3,0.1,0.4c0,0.2,0.1,0.5,0.1,0.7v0.2c0,0.5,0,2,0.1,3.2v53.9c0,1.2,0,2.7-0.1,3.2v0.2 c0,0.2-0.1,0.4-0.1,0.6c0,0.1,0,0.2-0.1,0.4c-0.1,0.6-0.2,1.1-0.4,1.6c0,0.1-0.1,0.3-0.2,0.5c-0.1,0.3-0.2,0.6-0.3,0.9 c-0.1,0.2-0.2,0.5-0.4,0.7c-0.2,0.4-0.5,0.6-0.7,0.8c-0.1,0-0.1,0.1-0.2,0.1c-0.1,0-0.1,0.1-0.2,0.1c-0.1,0-0.2,0-0.3,0 s-0.2,0-0.2,0h-7.3v18h6.5h60.4h6.5v-30h-6.5h-5.1h-6.5v7.4c0,0.4,0,0.7-0.1,0.9c-0.1,0.1-0.2,0.4-0.5,0.7c-0.4,0.3-1.1,0.9-2.5,1.4 c-2.5,0.9-5.2,1.1-5.6,1.1h-8.9v-25.4c2,0.6,3.9,1.6,3.9,3.2v7.4h6.5h5.1h6.5v-41.4h-6.5h-5.1H569v7.4c0,1.7-1.9,2.7-3.9,3.3v-25.6 h8.9c0.3,0,3,0.1,5.5,1.1c0.7,0.3,1.4,0.6,1.9,0.9c0.3,0.2,0.5,0.3,0.7,0.5c0.3,0.3,0.4,0.5,0.4,0.7c0.1,0.2,0.1,0.5,0.1,0.9v7.4 h6.5h5.1h6.5v-30h-6.5L533.9,591.6L533.9,591.6z"></path> <path style="fill:#EA3358;" d="M768.8,591.6h-67.7v30h18v-7.4c0-0.3,0-0.6,0.1-0.8c0-0.1,0.1-0.3,0.2-0.4c0.1-0.1,0.1-0.2,0.2-0.3 c0.1-0.1,0.2-0.2,0.3-0.3c0.1,0,0.1-0.1,0.2-0.1c0.5-0.4,1.2-0.7,2.1-1.1c2.5-0.9,5.2-1.1,5.6-1.1h8.9v63.4c0,0.9,0,1.9-0.1,2.3v0.3 c0,0.1-0.1,0.4-0.1,0.6c0,0.1,0,0.2-0.1,0.4c-0.1,0.6-0.2,1.1-0.4,1.6c0,0.1-0.1,0.3-0.2,0.5c-0.1,0.3-0.2,0.6-0.3,0.9 c-0.1,0.2-0.2,0.5-0.4,0.7c-0.2,0.4-0.5,0.6-0.7,0.8c-0.1,0-0.1,0.1-0.2,0.1c-0.1,0-0.1,0.1-0.2,0.1c-0.1,0-0.2,0-0.3,0 s-0.2,0-0.2,0h-7.3v18h48.2v-18h-7.3c-0.1,0-0.2,0-0.2,0c-0.1,0-0.2,0-0.3-0.1c-0.1,0-0.1,0-0.2-0.1c-0.1,0-0.1-0.1-0.2-0.1 c-0.2-0.2-0.4-0.5-0.7-0.8c-0.1-0.2-0.3-0.4-0.4-0.7c-0.1-0.3-0.2-0.5-0.3-0.8c-0.1-0.2-0.1-0.3-0.2-0.5c-0.2-0.5-0.3-1-0.4-1.6 c0-0.1-0.1-0.3-0.1-0.4c0-0.3-0.1-0.5-0.1-0.7v-0.2c0-0.4,0-1.4-0.1-2.3v-63.4h8.9c0.5,0,3.1,0.2,5.6,1.1c0.9,0.3,1.6,0.7,2.1,1.1 c0.1,0,0.1,0.1,0.2,0.1c0.1,0.1,0.2,0.2,0.3,0.3s0.2,0.2,0.2,0.3c0.1,0.1,0.1,0.3,0.2,0.4c0.1,0.2,0.1,0.5,0.1,0.8v7.4h18v-30H768.8 L768.8,591.6z"></path> <path style="fill:#EA3358;" d="M669.3,591.6h-67.7v30h18v-7.4c0-0.3,0-0.6,0.1-0.8c0-0.1,0.1-0.3,0.2-0.4c0.1-0.1,0.1-0.2,0.2-0.3 c0.1-0.1,0.2-0.2,0.3-0.3c0.1,0,0.1-0.1,0.2-0.1c0.5-0.4,1.2-0.7,2.1-1.1c2.5-0.9,5.2-1.1,5.6-1.1h8.9v63.4c0,0.9,0,1.9-0.1,2.3v0.2 c0,0.2-0.1,0.4-0.1,0.7c0,0.1,0,0.3-0.1,0.4c-0.1,0.6-0.2,1.1-0.4,1.6c0,0.1-0.1,0.3-0.1,0.4c-0.1,0.3-0.2,0.6-0.3,0.9 c-0.1,0.2-0.2,0.5-0.4,0.7c-0.2,0.4-0.5,0.6-0.7,0.8c-0.1,0-0.1,0.1-0.2,0.1c-0.1,0-0.2,0.1-0.2,0.1c-0.1,0-0.2,0-0.3,0 s-0.2,0-0.2,0h-7.3v18H675v-18h-7.3c-0.1,0-0.2,0-0.2,0c-0.1,0-0.2,0-0.3-0.1c-0.1,0-0.1,0-0.2-0.1c-0.1,0-0.1-0.1-0.2-0.1 c-0.2-0.2-0.4-0.5-0.7-0.8c-0.1-0.2-0.3-0.4-0.4-0.7c-0.1-0.3-0.2-0.5-0.3-0.8c-0.1-0.2-0.1-0.3-0.2-0.5c-0.1-0.5-0.3-1-0.4-1.6 c0-0.1,0-0.3-0.1-0.4c0-0.3-0.1-0.5-0.1-0.7v-0.2c0-0.4,0-1.4-0.1-2.3V610h8.9c0.5,0,3.1,0.2,5.6,1.1c0.9,0.3,1.6,0.7,2.1,1.1 c0.1,0,0.1,0.1,0.2,0.1c0.1,0.1,0.2,0.2,0.3,0.3s0.2,0.2,0.2,0.3c0.1,0.1,0.2,0.3,0.2,0.4c0.1,0.2,0.1,0.5,0.1,0.8v7.4h18v-30 L669.3,591.6L669.3,591.6z"></path> <path style="fill:#EA3358;" d="M807,591.6h-6.5v18h7.3c0.1,0,0.2,0,0.2,0c0.1,0,0.2,0,0.3,0.1c0.1,0,0.1,0,0.2,0.1 c0.1,0,0.1,0.1,0.2,0.1c0.2,0.2,0.4,0.4,0.7,0.8c0.1,0.2,0.3,0.4,0.4,0.7c0.1,0.3,0.2,0.5,0.3,0.8c0.1,0.2,0.1,0.3,0.2,0.5 c0.2,0.5,0.3,1,0.4,1.6c0,0.1,0.1,0.3,0.1,0.4c0,0.2,0.1,0.5,0.1,0.7v0.2c0,0.5,0,2,0.1,3.2v53.9c0,1.2,0,2.7-0.1,3.2v0.2 c0,0.1-0.1,0.4-0.1,0.6c0,0.1,0,0.2-0.1,0.4c-0.1,0.6-0.2,1.1-0.4,1.6c0,0.1-0.1,0.3-0.2,0.5c-0.1,0.3-0.2,0.6-0.3,0.9 c-0.1,0.2-0.2,0.5-0.4,0.7c-0.2,0.4-0.5,0.6-0.7,0.8c-0.1,0.1-0.1,0.1-0.2,0.1c-0.1,0-0.1,0.1-0.2,0.1c-0.1,0-0.2,0-0.3,0 s-0.2,0-0.2,0h-7.3v18h6.5h60.4h6.5v-30h-6.5h-5.1h-6.5v7.4c0,0.4,0,0.7-0.1,0.9c-0.1,0.1-0.2,0.4-0.5,0.7c-0.4,0.3-1.1,0.9-2.5,1.4 c-2.5,0.9-5.2,1.1-5.5,1.1h-8.9v-25.4c2,0.6,3.9,1.6,3.9,3.2v7.4h6.5h5.1h6.5v-41.4h-6.5h-5.1h-6.5v7.4c0,1.7-1.9,2.7-3.9,3.3v-25.6 h8.9c0.3,0,3,0.1,5.6,1.1c0.7,0.3,1.4,0.6,1.9,0.9c0.3,0.2,0.5,0.3,0.7,0.5c0.3,0.3,0.4,0.5,0.4,0.7c0.1,0.2,0.1,0.5,0.1,0.9v7.4 h6.5h5.1h6.5v-30h-6.5L807,591.6L807,591.6z"></path> <path style="fill:#EA3358;" d="M245.3,682.2c-1.8-1-3.6-1.3-4.9-1.5c-0.2,0-0.4-0.1-0.5-0.1c-2.8-1.5-6.2-5.1-11.2-11.9 c-1.4-1.8-2.8-3.9-4.5-6.3l0,0l0,0c-0.4-0.5-0.7-1-1.1-1.5c11.5-6.4,18.9-18.6,18.9-32.2c0-20.4-16.6-36.9-36.9-36.9H152v18h7.3 c0.1,0,0.2,0,0.2,0c0.1,0,0.2,0,0.3,0s0.1,0,0.2,0.1c0.1,0,0.1,0.1,0.2,0.1c0.2,0.2,0.4,0.5,0.7,0.8c0.1,0.2,0.3,0.4,0.4,0.7 c0.1,0.2,0.2,0.5,0.3,0.8c0.1,0.2,0.1,0.3,0.2,0.5c0.2,0.5,0.3,1,0.4,1.6c0,0.1,0.1,0.3,0.1,0.4c0,0.2,0.1,0.5,0.1,0.7v0.3 c0,0.1,0,0.3,0,0.4v8.2v48.3v0.1v0.1v0.1c0,1.1,0,2.4-0.1,2.9v0.2c0,0.1-0.1,0.4-0.1,0.6c0,0.1,0,0.3-0.1,0.4 c-0.1,0.6-0.2,1.1-0.4,1.6c0,0.2-0.1,0.3-0.2,0.5c-0.1,0.3-0.2,0.6-0.3,0.8s-0.2,0.5-0.4,0.7c-0.2,0.4-0.5,0.6-0.7,0.8 c-0.1,0-0.1,0.1-0.2,0.1c-0.1,0-0.1,0.1-0.2,0.1c-0.1,0-0.2,0-0.3,0s-0.2,0-0.2,0h-7.3v18h37.7v-34.6h0.3l1.1,0.2h0.2h0.1 c0.2,0.2,0.5,0.6,0.9,1.2l0.3,0.5c3.3,4.7,5.8,8.2,8,11.1c11.7,15.8,18.2,19.4,26.6,20.8c3.4,0.6,6.9,0.7,11.9,0.7h0.2 c5.9,0,10.2-3.5,10.7-8.7v-0.3v-0.3C250.1,686.9,248.4,683.9,245.3,682.2L245.3,682.2z M208.6,645.1c-1,0.2-2,0.3-3.1,0.4h-0.2 c-0.3,0-0.6,0-1,0l-13.4-0.1h-1.3v-33.9h15.8h0.1h0.1c0.3,0,0.7,0,1.1,0.1h0.2c8.6,0.9,15.2,8.2,15.2,16.9 C222,636.4,216.4,643.4,208.6,645.1L208.6,645.1z"></path> <path style="fill:#EA3358;" d="M520.1,669.8H515h-6.5v7.4c0,0.3,0,0.6-0.1,0.9c0,0.1-0.1,0.3-0.2,0.4c-0.1,0.1-0.2,0.3-0.4,0.4 c-0.4,0.3-1.1,0.8-2.4,1.3c-2.5,0.9-5.2,1.1-5.6,1.1h-16.9v-62.6c0-1.2,0-2.7,0.1-3.2v-0.2c0-0.1,0.1-0.4,0.1-0.6 c0-0.1,0-0.2,0.1-0.4c0.1-0.6,0.2-1.1,0.4-1.6c0-0.1,0.1-0.3,0.1-0.4c0.1-0.3,0.2-0.6,0.4-0.9c0.1-0.2,0.2-0.5,0.4-0.7 c0.2-0.4,0.5-0.6,0.7-0.8c0.1-0.1,0.1-0.1,0.2-0.1s0.1-0.1,0.2-0.1s0.2,0,0.3,0c0.1,0,0.2,0,0.2,0h7.3v-18H408v17.8h7.3 c0.1,0,0.2,0,0.2,0c0.1,0,0.2,0,0.3,0.1c0.1,0,0.1,0,0.2,0.1c0.1,0,0.1,0.1,0.2,0.1c0.2,0.2,0.5,0.4,0.7,0.8 c0.1,0.2,0.3,0.4,0.4,0.7s0.2,0.5,0.3,0.8c0.1,0.2,0.1,0.3,0.2,0.5c0.2,0.5,0.3,1,0.4,1.6c0,0.1,0,0.3,0.1,0.4 c0,0.2,0.1,0.4,0.1,0.7v0.2c0,0.4,0,1.4,0,1.6v0.5V657c0,5.3-1.9,10.7-5.4,15.2l-0.2,0.3c-0.2,0.3-0.4,0.5-0.6,0.8l0,0l0,0 c-4.4,5-10.3,8-16.1,8.2h-0.3c-0.1,0-0.2,0-0.3,0c-0.4,0-0.7,0-1.1,0c-4.1-0.2-8.1-1.8-11.7-4.5l-0.1-0.1l-0.2-0.2l-0.1-0.1 c-0.6-0.5-1.2-1-1.8-1.6v-30.4v-6.4l0,0v-22.3c0-0.2,0.1-0.6,0.1-0.8s0.1-0.4,0.1-0.6c0-0.1,0-0.2,0.1-0.4c0.1-0.6,0.2-1.1,0.4-1.6 c0-0.1,0.1-0.3,0.1-0.4c0.1-0.3,0.2-0.6,0.4-0.9c0.1-0.2,0.2-0.5,0.4-0.7c0.2-0.4,0.5-0.6,0.7-0.8c0.1-0.1,0.1-0.1,0.2-0.1 s0.1-0.1,0.2-0.1s0.2,0,0.3,0c0.1,0,0.2,0,0.2,0h7.3v-17.8h-48.3v17.8h7.3c0.1,0,0.2,0,0.2,0c0.1,0,0.2,0,0.3,0.1 c0.1,0,0.1,0,0.2,0.1c0.1,0,0.1,0.1,0.2,0.1c0.2,0.2,0.4,0.4,0.7,0.8c0.1,0.2,0.3,0.4,0.4,0.7c0.1,0.2,0.2,0.5,0.3,0.8 c0.1,0.2,0.1,0.3,0.2,0.5c0.2,0.5,0.3,1,0.4,1.5c0,0.2,0.1,0.3,0.1,0.4c0,0.2,0.1,0.5,0.1,0.7v0.2c0,0.3,0,1.1,0.1,1.8v39.5v0.1v0.1 c0,0.7,0,1.4,0.1,2.2v0.1v0.1v0.6c0,0.6,0.1,1.3,0.2,1.9l0.1,0.4c0.7,5.2,2.3,10.1,4.8,14.7c7.5,14.2,21.6,23,36.9,23 c15.8,0,30.1-9.2,37.4-24.1l0.1-0.3c0.4-0.7,0.7-1.5,1-2.1c0.4-1,0.7-1.8,1-2.5v-0.1c1-2.9,1.7-5.8,2.1-8.7v-0.3 c0.1-0.6,0.1-1.3,0.2-1.9v-0.6v-0.1v-0.1c0-0.7,0.1-1.5,0.1-2.2v-0.1v-0.1v-0.1v-39.2l0,0v-0.3c0-0.3,0-1.3,0.1-1.8v-0.2 c0-0.2,0.1-0.4,0.1-0.7c0-0.1,0-0.2,0.1-0.4c0.1-0.6,0.2-1.1,0.4-1.6c0-0.1,0.1-0.3,0.2-0.4c0.1-0.3,0.2-0.6,0.3-0.9 c0.1-0.2,0.2-0.5,0.4-0.7c0.2-0.4,0.5-0.6,0.7-0.8c0.1-0.1,0.1-0.1,0.2-0.1s0.1-0.1,0.2-0.1s0.2,0,0.3,0c0.1,0,0.2,0,0.2,0h0.9 l13.3,0.2c0.1,0,0.2,0,0.2,0c0.1,0,0.2,0,0.3,0.1c0.1,0,0.1,0,0.2,0.1c0.1,0,0.1,0.1,0.2,0.1c0.2,0.2,0.4,0.5,0.7,0.8 c0.1,0.2,0.3,0.4,0.4,0.7s0.2,0.5,0.3,0.8c0.1,0.2,0.1,0.3,0.2,0.5c0.2,0.5,0.3,1,0.4,1.6c0,0.1,0.1,0.3,0.1,0.4 c0,0.2,0.1,0.5,0.1,0.7v0.2c0,0.5,0,1.7,0.1,2.8v54.3c0,1.2,0,2.7-0.1,3.2v0.2c0,0.1-0.1,0.4-0.1,0.6c0,0.1,0,0.2-0.1,0.4 c-0.1,0.6-0.2,1.1-0.4,1.6c0,0.1-0.1,0.3-0.1,0.4c-0.1,0.3-0.2,0.6-0.3,0.9c-0.1,0.2-0.2,0.5-0.4,0.7c-0.2,0.4-0.5,0.6-0.7,0.8 c-0.1,0-0.1,0.1-0.2,0.1s-0.2,0.1-0.2,0.1c-0.1,0-0.2,0-0.3,0c-0.1,0-0.2,0-0.2,0h-7.3v18h6.5h66.6h6.5v-6.5v-23.5L520.1,669.8 L520.1,669.8z"></path> <path style="fill:#EA3358;" d="M261.3,314.6c-7.8-5.6-18.7-3.9-24.3,3.9c-0.1,0.1-0.2,0.2-0.3,0.4c-5.6,8-3.7,19,4.2,24.7 c0,0,0.1,0,0.1,0.1c7.8,5.6,18.8,3.8,24.4-4c0.1-0.1,0.1-0.2,0.2-0.3c5.6-7.9,3.8-18.9-4.2-24.6 C261.4,314.7,261.3,314.6,261.3,314.6L261.3,314.6z M261.8,336.7c-4.2,5.9-12.4,7.4-18.3,3.2c-2.8-2-4.8-5-5.4-8.5 c-1.2-7.2,3.6-14,10.7-15.4c3.4-0.6,7,0.2,9.8,2.2c5.9,4.1,7.4,12.3,3.3,18.3C261.9,336.6,261.9,336.6,261.8,336.7z"></path> <path style="fill:#EA3358;" d="M224.2,321.1c-7.8-5.6-18.7-3.9-24.3,3.9c-0.1,0.1-0.2,0.2-0.3,0.4c-5.6,8-3.7,19,4.2,24.7 c0,0,0.1,0,0.1,0.1c7.8,5.6,18.8,3.8,24.4-4c0.1-0.1,0.1-0.2,0.2-0.3c5.6-7.9,3.8-18.9-4.2-24.6 C224.4,321.1,224.3,321.1,224.2,321.1L224.2,321.1z M224.8,343.1c-4.2,5.9-12.4,7.4-18.3,3.2c-2.8-2-4.8-5-5.4-8.5 c-0.6-3.5,0.2-7,2.2-9.9c4.2-5.9,12.4-7.3,18.3-3.2C227.6,329,229,337.2,224.8,343.1z"></path> <polygon style="fill:#EA3358;" points="289.9,327.5 296.8,315 290.9,316.1 286.2,325.4 278.4,318.3 272.1,319.4 283.2,328.7 274.9,343 280.9,341.9 286.9,330.7 296.2,339.2 302.5,338.1 "></polygon> <path style="fill:#EA3358;" d="M186.7,334h0.3c0.6-1.3,0.8-2.8,0.5-4.2c-0.3-1.9-1.4-3.5-2.9-4.6s-3.4-1.6-5.3-1.3l-3.3,0.6l0.8,4.6 l3.3-0.6c0.7-0.1,1.3,0,1.9,0.4c1.1,0.9,1.4,2.5,0.6,3.6c-0.4,0.6-1,1-1.7,1.1l-0.6,0.1v0.1l0,0l0.8,4.7c0.1,0,0.3-0.1,0.4-0.1 c4.4-1,8.7,1.8,9.6,6.2c1,4.4-1.8,8.7-6.2,9.6c-0.2,0-0.4,0.1-0.7,0.1c-2.5,0.5-5.1-0.2-7.1-1.9L174,356c3,2.6,7.1,3.7,11,3 c7.1-1.2,11.9-7.8,10.7-14.9C195,339.2,191.5,335.3,186.7,334z"></path> <path style="fill:#EA3358;" d="M769.5,318.1c-7.1-10.1-21-12.6-31.2-5.5c-4.9,3.4-8.2,8.6-9.2,14.5c-1.1,5.9,0.3,12,3.8,16.8 c7,10.2,21,12.8,31.2,5.7c10.2-7,12.8-21,5.7-31.2C769.7,318.4,769.6,318.2,769.5,318.1L769.5,318.1z M767.7,333.9 c-0.7,4.4-3.2,8.3-6.9,10.8c-3.6,2.6-8.1,3.7-12.4,2.8c-9.2-1.5-15.4-10.1-13.9-19.3c1.5-9.2,10.1-15.4,19.3-13.9 c4.5,0.7,8.5,3.3,11.1,7C767.5,325,768.5,329.5,767.7,333.9L767.7,333.9z"></path> <path style="fill:#EA3358;" d="M708.2,300.4c-5.9-1.1-11.9,0.3-16.7,3.8c-10.2,7.2-12.6,21.3-5.4,31.5c3.4,4.8,8.5,8.1,14.3,9.2 c5.9,1.1,11.9-0.3,16.7-3.8c10.2-7.3,12.5-21.4,5.3-31.6C719.1,304.7,714,301.5,708.2,300.4L708.2,300.4z M720.7,325.5 c-0.7,4.4-3.2,8.3-6.9,10.8c-3.6,2.6-8.1,3.7-12.4,2.8c-9.2-1.5-15.4-10.1-13.9-19.3c1.5-9.2,10.1-15.4,19.3-13.9 c4.5,0.7,8.5,3.3,11.1,7C720.5,316.6,721.6,321.1,720.7,325.5L720.7,325.5z"></path> <polygon style="fill:#EA3358;" points="811.7,334.1 804.2,332.8 794.6,341.9 788.5,330 780.4,328.5 789.6,344.4 773.6,357.9 781.3,359.2 793.1,348.5 800.6,362.7 808.6,364.1 798.1,345.9 "></polygon> <path style="fill:#EA3358;" d="M668.3,306.6l3.3-7l10.5,1.9l1-5.7l-14.7-2.6L660,311c1.4-0.3,2.8-0.3,4.2-0.1 c2.8,0.5,5.3,2.1,6.8,4.4c1.7,2.3,2.3,5.2,1.8,8s-2.1,5.3-4.4,6.9c-2.3,1.7-5.1,2.3-7.9,1.8c-2.8-0.5-5.3-2.1-6.9-4.4 c-0.3-0.4-0.5-0.8-0.7-1.2l-2.6,5.6c5.3,6.3,14.5,7.4,21.2,2.6c7.3-5.2,8.9-15.3,3.7-22.5C673.4,309.6,671.1,307.8,668.3,306.6 L668.3,306.6z"></path> <path style="fill:#EA3358;" d="M1000.6,466.1c-9.2-32.5-18.4-65-27.5-97.5c-0.6-2-1.4-2.3-3.3-2.2c-8,0.5-15.9,1-23.9,1.4 c-12.7,0.7-25.4,1.3-38.1,2c-10.8,0.6-21.6,1.3-32.5,1.9c-8.7,0.5-17.5,1-26.2,1.5c-15.2-69.3-49.9-133.5-100.8-184.5 c-70.6-71-164.5-110.1-264.4-110.1s-193.8,39.1-264.4,110.1C169.4,238.9,135,301.9,119.4,370l2.5,0.1 c15.5-67.5,49.6-129.8,99.3-179.6C291.4,120,384.6,81.1,483.9,81.1S676.4,120,746.6,190.5c50.5,50.6,84.9,114.2,100.1,182.8 c-3,0.2-6.1,0.3-9.1,0.5c-14.9-66.5-48.4-128-97.3-177c-140.5-141.6-369.1-142.5-510.7-2c-0.7,0.7-1.3,1.3-2,2 C179.4,245,146.3,305.4,131,370.6l6.2,0.4c15.1-63.7,47.6-122.6,94.7-169.8C370,62,594.8,61.1,734,199.2c0.7,0.6,1.3,1.3,2,2 c47.8,47.9,80.6,108,95.4,173c-3.3,0.2-6.6,0.4-10,0.5c-11.7,0.7-23.4,1.3-35.1,2c-10.5,0.6-20.9,1.2-31.4,1.8 c-15.1,0.8-30.1,1.6-45.2,2.4c-10.9,0.6-21.8,1.3-32.7,1.9c-18.1,1-36.1,2-54.1,3c-18.9,1.1-37.7,2.1-56.6,3.2 c-5.6,0.3-11.1,0.6-16.6,0.9l69.7-213.3l0.6-1.7l-1.7-0.5c-0.5-0.2-35.4-10.8-79.2-17.2l3.2-24.4l0.2-1.6l-1.5-0.4 c-0.2-0.1-24.8-6-60.6-6s-60.4,6-60.6,6l-1.5,0.4l3.4,25.9c-43.8,6.4-78.7,17.1-79.2,17.2l-1.7,0.5l69,211.2 c-1.9-0.1-3.9-0.2-5.8-0.3c-8.3-0.4-16.6-0.9-24.9-1.4c-13.1-0.7-26.1-1.4-39.1-2.1c-10.6-0.6-21.2-1.2-31.8-1.8 c-13-0.7-25.9-1.4-38.9-2.1c-10.7-0.6-21.3-1.2-32-1.8c-12.8-0.7-25.7-1.4-38.5-2.1c-8.4-0.5-16.8-1-25.2-1.5 c-12.8-0.7-25.7-1.4-38.5-2.1c-10.8-0.6-21.5-1.3-32.2-1.9c-14-0.8-28-1.6-42-2.3c-2.5-0.1-5,0-7.6,0c0,0-0.1,0.3-0.2,0.5 c-8,27.9-15.9,55.9-23.8,83.8c-1.5,5.3-3,10.5-4.6,15.8c0,0.4,0,0.8,0.2,1.1c0.3,0.7,0.5,1.3,0.7,1.9c4.4,15.5,8.7,30.9,13.1,46.4 c4.8,16.9,9.5,33.8,14.3,50.7c0.3,1.1,0.5,1.9,2,1.8c8.8-0.6,17.7-1,26.6-1.5c13.5-0.7,27.1-1.4,40.6-2.2 c13.2-0.7,26.5-1.6,39.8-2.3c19.8-1.1,39.6-2.1,59.4-3.2c13.2-0.7,26.5-1.6,39.8-2.3c18.1-1,36.1-2,54.1-3 c13.4-0.7,26.9-1.4,40.4-2.2c13.3-0.7,26.7-1.5,40-2.3c18.1-1,36.1-2,54.1-3c15.7-0.9,31.6-1.4,47.3-2.7c14.2-1.1,28.3-0.1,42.4,0.7 c10.5,0.6,20.9,1.2,31.4,1.8c13.1,0.7,26.1,1.4,39.1,2.1c8.3,0.4,16.5,0.9,24.7,1.4c10.8,0.6,21.5,1.1,32.2,1.7 c8.3,0.4,16.5,0.9,24.7,1.4c12.9,0.7,25.8,1.4,38.7,2.1c10.7,0.5,21.3,1.2,32,1.8c12.8,0.8,25.5,1.4,38.3,2.1 c13.2,0.7,26.3,1.6,39.5,2.3c18.3,1,36.5,2,54.7,3c13.3,0.8,26.6,1.5,39.9,2.2c12.1,0.7,24.2,1.4,36.3,2.1c1.3,0.1,1.7-0.3,2-1.5 c1.4-5.2,2.9-10.5,4.4-15.7c7.7-27.4,15.5-54.8,23.2-82.3C1000.8,468.2,1000.9,467,1000.6,466.1z M480.3,389.2h-15.1 c-3.2-0.2-6.3-0.4-9.5-0.6l-30.2-228.5c17.5-2.4,36.3-4.1,54.8-4.1s37.3,1.7,54.8,4.1l-30.2,229.1H480.3z M615.5,177.2l-69.3,212.1 l-37.9-0.1l30.2-228.6C576.7,166.2,608,175,615.5,177.2z M422,133.9c38.5-7.4,78-7.4,116.5,0l-3,22.8c-17.6-2.4-36.6-4.1-55.2-4.1 s-37.6,1.7-55.2,4.1L422,133.9z M345.1,177.2c7.5-2.2,38.8-11,77-16.6l30.1,227.8c-3.1-0.2-6.2-0.4-9.4-0.5 c-9.8-0.5-19.6-1.1-29.4-1.6L345.1,177.2z M994.1,468.9c-8.7,31-17.4,61.9-26.2,92.9c0,0.1-0.1,0.2-0.3,0.6 c-3.9-0.2-7.9-0.5-11.9-0.7c-12.9-0.7-25.7-1.4-38.5-2.1c-8.1-0.5-16.2-0.9-24.3-1.4c-11.8-0.7-23.7-1.3-35.5-2 c-19.5-1.1-39.1-2.2-58.6-3.3c-16.4-1-32.9-1.9-49.3-2.8c-16.6-0.9-33.1-1.9-49.7-2.8c-18.2-1-36.3-2-54.5-3c-18.1-1-36.2-2-54.3-3 c-13.2-0.7-26.4-1.6-39.6-2.3c-12.4-0.7-24.9-1.7-37.3-1.9c-9.4-0.2-18.8,0.8-28.2,1.3c-12.9,0.7-25.8,1.4-38.7,2.1 c-8.3,0.4-16.5,0.9-24.7,1.4c-13.1,0.7-26.2,1.4-39.3,2.1c-8.2,0.4-16.3,0.9-24.5,1.4c-13.1,0.7-26.2,1.4-39.3,2.1 c-8.1,0.4-16.2,1-24.3,1.4c-13.2,0.7-26.3,1.4-39.5,2.1c-8.3,0.5-16.6,1-24.9,1.5c-12.9,0.7-25.8,1.4-38.7,2.1 c-10.7,0.6-21.3,1.2-32,1.8c-13,0.7-25.9,1.4-38.9,2.1c-10.7,0.6-21.3,1.2-32,1.8c-9.9,0.6-19.9,1.1-29.8,1.7c-0.4,0-0.8,0-1.3,0 c-4.7-16.6-9.3-32.9-14-49.4c-4.1-14.5-8.2-29.1-12.3-43.7c-0.3-0.9-0.3-2.1,0-3C39,440,46.3,414,53.6,388.1c1.4-5,2.8-10,4.3-15.2 c7.3,0.4,14.4,0.8,21.6,1.2c12.8,0.7,25.5,1.4,38.3,2.1c10.9,0.6,21.7,1.3,32.6,1.9c12.8,0.7,25.5,1.4,38.3,2.1 c8.5,0.5,17,1,25.5,1.5c12.8,0.7,25.5,1.4,38.3,2.1c10.9,0.6,21.7,1.3,32.6,1.9c12.8,0.7,25.5,1.4,38.3,2.1 c10.9,0.6,21.7,1.3,32.6,1.9c12.8,0.7,25.5,1.4,38.3,2.1c10.9,0.6,21.8,1.3,32.7,1.9c12.6,0.7,25.3,1.4,37.9,2.1 c10.9,0.6,21.7,1.3,32.6,1.9c8.8,0.5,17.6,0.9,26.4,0.2c12.8-0.9,25.5-1.4,38.3-2.1c10.6-0.6,21.2-1.2,31.8-1.8 c13.1-0.7,26.1-1.4,39.1-2.1c8.4-0.5,16.7-1,25.1-1.5c12.9-0.7,25.8-1.4,38.7-2.1c10.6-0.5,21.2-1.2,31.8-1.8 c13.1-0.7,26.1-1.4,39.1-2.1c10.6-0.6,21.2-1.2,31.8-1.8c13.1-0.7,26.1-1.4,39.1-2.1c10.6-0.6,21.1-1.2,31.6-1.8 c10.8-0.6,21.5-1.1,32.2-1.7c10.8-0.6,21.5-1.3,32.2-1.9c10.4-0.6,20.8-1.1,31.2-1.7c1.5-0.1,2.1,0.4,2.5,1.9 c7.5,26.8,15,53.6,22.6,80.3c1,3.7,2.1,7.5,3.1,11.2C994.2,467.5,994.3,468.3,994.1,468.9z"></path> </svg> 