<?xml version="1.0" encoding="UTF-8"?> <svg xmlns="http://www.w3.org/2000/svg" xmlns:xlink="http://www.w3.org/1999/xlink" version="1.1" id="Layer_1" x="0px" y="0px" viewBox="0 0 1000 1000" style="enable-background:new 0 0 1000 1000;" xml:space="preserve"> <path style="fill:#EA3358;" d="M11.9,428.1c1.6-5.3,3.1-10.5,4.6-15.8c7.9-27.9,15.8-55.9,23.8-83.8c0.1-0.2,0.2-0.5,0.2-0.5 c2.6,0,5.1-0.1,7.6,0c14,0.7,28,1.5,42,2.3c10.7,0.6,21.4,1.3,32.2,1.9c12.8,0.7,25.7,1.4,38.5,2.1c8.4,0.5,16.8,1,25.2,1.5 c12.8,0.7,25.7,1.4,38.5,2.1c10.7,0.6,21.3,1.2,32,1.8c13,0.7,25.9,1.4,38.9,2.1c10.6,0.6,21.2,1.2,31.8,1.8c13,0.7,26,1.4,39.1,2.1 c8.3,0.5,16.6,1,24.9,1.4c13,0.7,25.9,1.4,38.9,2.1c10.7,0.6,21.3,1.2,32,1.9c12.4,0.7,24.7,1.6,37.1,2c6.6,0.2,13.2-0.6,19.7-0.9 c11.6-0.6,23.1-1.3,34.7-1.9c18.9-1.1,37.7-2.1,56.6-3.2c18-1,36-2,54.1-3c10.9-0.6,21.8-1.3,32.7-1.9c15.1-0.8,30.1-1.6,45.2-2.4 c10.5-0.6,20.9-1.2,31.4-1.8c11.7-0.7,23.4-1.3,35.1-2c18-1,35.9-1.9,53.9-3c10.9-0.6,21.7-1.3,32.5-1.9c12.7-0.7,25.4-1.3,38.1-2 c8-0.4,15.9-0.9,23.9-1.4c1.9-0.1,2.7,0.2,3.3,2.2c9.1,32.5,18.3,65,27.5,97.5c0.3,0.9,0.2,2.1-0.1,3.1 c-7.7,27.5-15.5,54.9-23.2,82.3c-1.5,5.2-3,10.5-4.4,15.7c-0.3,1.2-0.7,1.6-2,1.5c-12.1-0.7-24.2-1.4-36.3-2.1 c-13.3-0.7-26.6-1.4-39.9-2.2c-18.2-1-36.4-2-54.7-3c-13.2-0.7-26.3-1.6-39.5-2.3c-12.8-0.7-25.5-1.3-38.3-2.1 c-10.7-0.6-21.3-1.3-32-1.8c-12.9-0.7-25.8-1.4-38.7-2.1c-8.2-0.5-16.4-1-24.7-1.4c-10.7-0.6-21.4-1.1-32.2-1.7 c-8.2-0.5-16.4-1-24.7-1.4c-13-0.7-26-1.4-39.1-2.1c-10.5-0.6-20.9-1.2-31.4-1.8c-14.1-0.8-28.2-1.8-42.4-0.7 c-15.7,1.3-31.6,1.8-47.3,2.7c-18,1-36,2-54.1,3c-13.3,0.8-26.7,1.6-40,2.3c-13.5,0.8-27,1.5-40.4,2.2c-18,1-36,2-54.1,3 c-13.3,0.7-26.6,1.6-39.8,2.3c-19.8,1.1-39.6,2.1-59.4,3.2c-13.3,0.7-26.6,1.6-39.8,2.3c-13.5,0.8-27.1,1.5-40.6,2.2 c-8.9,0.5-17.8,0.9-26.6,1.5c-1.5,0.1-1.7-0.7-2-1.8c-4.8-16.9-9.5-33.8-14.3-50.7c-4.4-15.5-8.7-30.9-13.1-46.4 c-0.2-0.6-0.4-1.2-0.7-1.9C11.9,428.9,11.9,428.5,11.9,428.1z M45.3,523.3c0.5,0,0.9,0,1.3,0c9.9-0.6,19.9-1.1,29.8-1.7 c10.7-0.6,21.3-1.2,32-1.8c13-0.7,25.9-1.4,38.9-2.1c10.7-0.6,21.3-1.2,32-1.8c12.9-0.7,25.8-1.4,38.7-2.1c8.3-0.5,16.6-1,24.9-1.5 c13.2-0.7,26.3-1.4,39.5-2.1c8.1-0.4,16.2-1,24.3-1.4c13.1-0.7,26.2-1.4,39.3-2.1c8.2-0.5,16.3-1,24.5-1.4 c13.1-0.7,26.2-1.4,39.3-2.1c8.2-0.5,16.4-1,24.7-1.4c12.9-0.7,25.8-1.4,38.7-2.1c9.4-0.5,18.8-1.5,28.2-1.3 c12.4,0.2,24.9,1.2,37.3,1.9c13.2,0.7,26.4,1.6,39.6,2.3c18.1,1,36.2,2,54.3,3c18.2,1,36.3,2,54.5,3c16.6,0.9,33.1,1.9,49.7,2.8 c16.4,0.9,32.9,1.8,49.3,2.8c19.5,1.1,39.1,2.2,58.6,3.3c11.8,0.7,23.7,1.3,35.5,2c8.1,0.5,16.2,0.9,24.3,1.4 c12.8,0.7,25.6,1.4,38.5,2.1c4,0.2,8,0.5,11.9,0.7c0.2-0.4,0.3-0.5,0.3-0.6c8.8-31,17.5-61.9,26.2-92.9c0.2-0.6,0.1-1.4,0-2.1 c-1-3.7-2.1-7.5-3.1-11.2c-7.6-26.7-15.1-53.5-22.6-80.3c-0.4-1.5-1-2-2.5-1.9c-10.4,0.6-20.8,1.1-31.2,1.7 c-10.7,0.6-21.4,1.3-32.2,1.9c-10.7,0.6-21.4,1.1-32.2,1.7c-10.5,0.6-21,1.2-31.6,1.8c-13,0.7-26,1.4-39.1,2.1 c-10.6,0.6-21.2,1.2-31.8,1.8c-13,0.7-26,1.4-39.1,2.1c-10.6,0.6-21.2,1.3-31.8,1.8c-12.9,0.7-25.8,1.4-38.7,2.1 c-8.4,0.5-16.7,1-25.1,1.5c-13,0.7-26,1.4-39.1,2.1c-10.6,0.6-21.2,1.2-31.8,1.8c-12.8,0.7-25.5,1.2-38.3,2.1 c-8.8,0.7-17.6,0.3-26.4-0.2c-10.9-0.6-21.7-1.3-32.6-1.9c-12.6-0.7-25.3-1.4-37.9-2.1c-10.9-0.6-21.8-1.3-32.7-1.9 c-12.8-0.7-25.5-1.4-38.3-2.1c-10.9-0.6-21.7-1.3-32.6-1.9c-12.8-0.7-25.5-1.4-38.3-2.1c-10.9-0.6-21.7-1.3-32.6-1.9 c-12.8-0.7-25.5-1.4-38.3-2.1c-8.5-0.5-17-1-25.5-1.5c-12.8-0.7-25.5-1.4-38.3-2.1c-10.9-0.6-21.7-1.3-32.6-1.9 c-12.8-0.7-25.5-1.4-38.3-2.1c-7.2-0.4-14.3-0.8-21.6-1.2c-1.5,5.2-2.9,10.2-4.3,15.2c-7.3,25.9-14.6,51.9-21.9,77.8 c-0.3,0.9-0.3,2.1,0,3c4.1,14.6,8.2,29.2,12.3,43.7C36,490.4,40.6,506.7,45.3,523.3z"></path> <path style="fill:#EA3358;" d="M570.2,231.1c2.9,0.5,5.9,0.8,8.7,1.5c10.4,2.6,13.8,10.3,8.9,19.9c-3.2,6.4-8.5,10.2-15.2,12.4 c-0.9,0.3-1.7,0.5-2.7,0.8c3.2,9.8,6.3,19.6,9.5,29.5c-9.7,0-19.1,0-28.7,0c-2.3-9-4.6-18-7-27.5c-0.7,1.7-1.3,2.9-1.8,4.1 c-3,7.2-5.9,14.5-8.9,21.7c-0.4,1-0.7,1.8-2.2,1.8c-8.2-0.1-16.4,0-24.5,0c-0.3,0-0.6-0.1-1.4-0.1c7.8-19.4,15.6-38.6,23.4-58 c-2.4-1.8-4.8-3.5-7.4-5.5c-1,2.3-2,4.3-2.8,6.4c-0.5,1.2-1.1,1.5-2.4,1.5c-5.3-0.1-10.6,0-15.8-0.1c-1.5,0-2.1,0.5-2.7,1.9 c-7,17.4-14.2,34.7-21.2,52.1c-0.6,1.5-1.3,1.9-2.9,1.9c-7.6-0.1-15.3,0-22.9,0c-0.6,0-1.3,0-2.4,0c7.6-18.7,15.1-37.1,22.6-55.8 c-5.7,0-11-0.1-16.3,0c-2.1,0-3.6-0.4-5-2c-1.4-1.7-3.1-3.1-4.6-4.7c-0.5-0.5-0.8-1.2-1.1-1.8C485.8,231.1,528,231.1,570.2,231.1z M546.4,260.4c8,1.1,12.8-0.2,16.7-8.3c1.3-2.7,1.8-5.9,2.1-8.9s-1.3-4.2-4.4-4.2c-1.3,0-2.6,0.1-3.9,0.1c-1.1-0.1-1.6,0.4-2,1.4 c-2.1,5-4.2,10-6.3,15C547.8,257.1,547.1,258.7,546.4,260.4z"></path> <path style="fill:#EA3358;" d="M766.8,231.1c-0.1,0.7-0.1,1.4-0.3,2.1c-8.3,20.2-16.6,40.4-24.9,60.5c-0.4,0.9-0.6,1.6-1.9,1.6 c-8.5-0.1-17,0-25.5,0c-0.2,0-0.5-0.1-1.1-0.2c5.4-13.3,10.7-26.5,16-39.7c-0.1-0.1-0.2-0.1-0.3-0.2c-3.1,3.7-6.1,7.5-9.2,11.2 c-7.6,9.2-15.1,18.5-22.7,27.6c-0.6,0.7-1.7,1.2-2.6,1.2c-5.3,0.1-10.7,0.1-16,0.1c0-13.5,0-26.8,0-40.4c-2.1,4.9-4,9.6-5.9,14.3 c-3.3,8.1-6.7,16.2-9.9,24.3c-0.5,1.3-1.2,1.9-2.7,1.8c-3-0.1-6.1,0-9.5,0c7.9-19.5,15.7-38.8,23.5-58.2c-2-1.5-4-2.9-5.9-4.4 c-0.5-0.4-0.8-1.1-1.1-1.6c13.6,0,27.2,0,40.8,0c0,0.7,0.1,1.4,0.1,2.2c-0.2,9.9-0.5,19.9-0.7,29.8c0,0.7,0,1.3,0,2.5 c9.5-11.8,18.7-23.1,27.9-34.4C745.5,231.1,756.2,231.1,766.8,231.1z"></path> <path style="fill:#EA3358;" d="M354.5,231.1c-0.3,0.6-0.5,1.2-1,1.6c-10.2,8.7-20.3,17.4-30.5,26c-1.1,0.9-1.3,1.7-0.8,3 c4,10.4,7.9,20.8,11.8,31.1c0.3,0.7,0.5,1.3,0.8,2.3c-0.8,0.1-1.4,0.1-2,0.1c-9.3,0-18.6,0-27.9,0c-1.3,0-2-0.3-2.4-1.6 c-1.9-5.2-3.9-10.3-5.9-15.5c-0.2-0.6-0.5-1.2-0.8-2c-4,3.6-7.9,7-11.8,10.5c-2.9,2.5-5.7,5.1-8.5,7.6c-0.4,0.4-1,0.9-1.5,0.9 c-5,0.1-10.1,0-15.3-0.4c2.6-2.2,5.1-4.4,7.7-6.6c8.1-7,16.2-13.9,24.3-20.8c1.1-0.9,1.2-1.6,0.7-2.8c-3.4-8.6-6.6-17.3-10-25.9 c-0.2-0.6-0.7-1.2-1.2-1.7c-1.7-1.5-3.5-2.8-5.2-4.3c-0.4-0.4-0.6-1-0.9-1.5c12.1,0,24.3,0,36.4,0c2.5,6.4,5,12.9,7.6,19.6 c7.3-6.7,14.3-13.2,21.3-19.6C344.5,231.1,349.5,231.1,354.5,231.1z"></path> <path style="fill:#EA3358;" d="M440.8,231.1c-0.4,0.6-0.7,1.3-1.2,1.7c-10.1,8.6-20.3,17.3-30.4,25.8c-1.1,0.9-1.4,1.7-0.8,3.2 c4.1,10.6,8.1,21.2,12.2,31.9c0.2,0.4,0.3,0.9,0.4,1.5c-0.7,0.1-1.2,0.1-1.8,0.1c-9.4,0-18.7,0-28.1,0c-1.4,0-2-0.4-2.4-1.7 c-2.1-5.7-4.4-11.4-6.6-17.4c-2.3,2-4.4,3.9-6.6,5.8c-4.6,4.1-9.2,8.2-13.9,12.3c-0.4,0.4-1,0.8-1.5,0.8c-5,0.1-10,0-15.4,0 c0.7-0.7,0.9-1.1,1.3-1.4c10.2-8.8,20.5-17.6,30.8-26.3c1-0.8,1.4-1.5,0.8-2.9c-3.3-8.4-6.5-16.9-9.8-25.4c-0.4-1-1.1-1.9-1.9-2.7 c-1.5-1.4-3.2-2.6-4.7-3.9c-0.5-0.4-0.7-1-1.1-1.5c12.1,0,24.3,0,36.4,0c1.3,3.3,2.7,6.5,4,9.8c1.3,3.2,2.4,6.4,3.7,9.8 c0.7-0.6,1.1-1,1.6-1.4c6.7-6.1,13.3-12.1,20-18.2C430.8,231.1,435.8,231.1,440.8,231.1z"></path> <path style="fill:#EA3358;" d="M268.7,231.1c-0.5,0.7-0.9,1.4-1.5,1.9c-10.1,8.6-20.2,17.2-30.3,25.7c-1.1,0.9-1.2,1.7-0.7,3 c4.1,10.6,8.1,21.3,12.1,31.9c0.2,0.4,0.3,0.9,0.5,1.5c-0.7,0.1-1.2,0.1-1.8,0.1c-9.4,0-18.7,0-28.1,0c-1.5,0-2-0.6-2.5-1.9 c-2.1-5.7-4.3-11.3-6.6-17.2c-2.1,1.8-4,3.5-5.9,5.2c-4.9,4.3-9.7,8.7-14.6,13c-0.4,0.4-1,0.8-1.5,0.8c-4.9,0.1-9.9,0-15.1,0 c0.5-0.6,0.6-1,0.9-1.3c10.2-8.8,20.5-17.6,30.8-26.3c1.3-1.1,1.5-1.9,0.9-3.4c-3.2-8.1-6.3-16.2-9.3-24.3c-0.9-2.5-2.8-3.7-4.5-5.3 c-1.2-1.1-2.4-2.4-3.5-3.5c12.1,0,24.3,0,36.4,0c0.7,1.6,1.4,3.1,2,4.7c1.9,4.9,3.7,9.9,5.7,15c2-1.8,3.9-3.5,5.7-5.2 c5.3-4.8,10.6-9.6,15.9-14.4C258.6,231.1,263.7,231.1,268.7,231.1z"></path> <path style="fill:#EA3358;" d="M834.9,231.1c-1,2.6-2,5.2-3.2,7.8c-0.2,0.4-1.2,0.6-1.9,0.6c-7.3,0.1-14.5,0.1-21.8,0.1 c-1.3,0-1.9,0.4-2.4,1.7c-2.2,5.5-4.4,10.9-6.8,16.7c7.2,0,14.2,0,21.7,0c-1.2,2.9-2.3,5.4-3.5,7.9c-0.2,0.4-1.2,0.4-1.8,0.5 c-6.6,0-13.2,0-19.8,0c-2.8,6.9-5.6,13.6-8.5,20.7c8.6,0,17,0,25.7,0c-1.2,2.8-2.3,5.3-3.4,7.7c-0.2,0.3-0.8,0.6-1.3,0.6 c-16.8,0-33.6,0-50.4,0c-0.1,0-0.2-0.1-0.6-0.3c1.2-3,2.4-6,3.7-9.1c6.3-15.7,12.6-31.3,19-47c0.5-1.3,0.5-2.1-0.8-2.9 c-1.6-1-3.1-2.2-4.6-3.4c-0.5-0.4-0.8-1-1.2-1.4C793.7,231.1,814.3,231.1,834.9,231.1z"></path> <path style="fill:#EA3358;" d="M663.6,231.1c-1,2.6-2,5.2-3.2,7.8c-0.2,0.4-1.2,0.6-1.9,0.6c-7.3,0.1-14.5,0.1-21.8,0.1 c-1.3,0-2,0.4-2.4,1.7c-2,5-4,10-6.1,15c-0.2,0.5-0.4,1.1-0.7,1.8c7.2,0,14.2,0,21.5,0c-1.2,2.7-2.2,5.2-3.4,7.6 c-0.2,0.4-1.2,0.6-1.9,0.6c-6.1,0.1-12.3,0.1-18.4,0.1c-0.9,0-1.5,0.1-1.9,1.2c-2.4,6-4.9,12.1-7.4,18.1c-0.1,0.4-0.2,0.7-0.4,1.3 c8.4,0,16.7,0,25.6,0c-1.3,2.9-2.4,5.5-3.6,8.1c-0.1,0.2-0.7,0.3-1.1,0.3c-16.7,0-33.5,0-50.2,0c-0.2,0-0.4-0.1-0.8-0.2 c1.2-3,2.4-6,3.6-9c6.4-15.7,12.7-31.4,19.1-47.1c0.5-1.3,0.5-2.1-0.8-2.9c-1.6-1-3.1-2.2-4.6-3.4c-0.5-0.4-0.8-1-1.2-1.4 C622.4,231.1,643,231.1,663.6,231.1z"></path> <path style="fill:#EA3358;" d="M734.7,392.1c0,0.6-0.1,1.3-0.1,1.9c0,22.2,0,44.4,0,66.6c0,2.4,0.4,4.9,1,7.2 c1.8,6.4,4.8,8.8,11.4,9.4c0,2.2,0,4.5,0,6.9c-13.9,0-27.7,0-41.6,0c0-2.3,0-4.5,0-6.8c0.4-0.1,0.7-0.2,1.1-0.2 c3.9,0,6.7-1.8,8.5-5.1c1.9-3.3,2.8-7,2.8-10.9c0-20.1,0.1-40.2,0-60.3c0-4.3-1.2-8.6-4-12.1c-2.1-2.6-5-3.5-8.4-3.2 c0-2.4,0-4.7,0-7.2c0.7,0,1.5,0,2.2,0c7.9,0,15.8,0.1,23.7,0c1.8,0,3,0.6,4.1,2.1c19,25.7,38,51.3,57,77c0.4,0.6,0.9,1.1,1.6,2 c0-1.1,0.1-1.7,0.1-2.3c0-18.3,0-36.6,0-55c0-4.2-0.7-8.2-3.1-11.8c-1.9-2.9-4.4-4.7-8-4.6c-1.2,0-1.6-0.5-1.6-1.6 c0.1-1.7-0.5-3.8,0.3-5c0.5-0.8,2.9-0.3,4.5-0.3c11.6,0,23.2,0,34.8,0c0.7,0,1.3,0,2.1,0c0,2.3,0,4.5,0,6.8 c-1.1,0.1-2.3,0.1-3.3,0.3c-3.5,0.7-5.8,3-6.9,6.2c-1.1,3.3-2.1,6.7-2.1,10.1c-0.2,19.9-0.1,39.8-0.1,59.7c0,3.9,1,7.7,3.2,11 c2.1,3.3,5.2,4.7,9.2,4.4c0,2.4,0,4.6,0,7.1c-0.7,0-1.3,0-2,0c-5.3,0-10.7,0-16,0c-1.2,0-2-0.3-2.8-1.4 c-18-24.4-36.1-48.8-54.2-73.1c-4.4-5.9-8.8-11.8-13.2-17.7C735,392,734.9,392,734.7,392.1z"></path> <path style="fill:#EA3358;" d="M618,459.3c0-12.8,0-25.1,0-37.3c0-7.2,0-14.5,0-21.7c0-3.7-1.1-7.1-3.1-10.2 c-1.8-2.8-4.3-4.6-7.8-4.5c-1.2,0-1.7-0.4-1.6-1.6c0.1-1.4-0.1-2.9,0.1-4.3c0-0.4,0.7-1.2,1.1-1.2c8,0,16.1,0.1,24.1,0.2 c5.5,0,11,0,16.7,0c0,2.3,0,4.5,0,6.7c-0.3,0.1-0.6,0.2-0.9,0.2c-4.7-0.2-7.9,2.2-9.5,6.3c-1.1,2.9-2,6.2-2.1,9.3 c-0.2,20.1-0.1,40.2-0.1,60.3c0,3.8,0.9,7.5,3,10.9c1.9,3.1,4.7,4.7,8.3,4.7c0.4,0,0.8,0.1,1.2,0.1c0,2.3,0,4.5,0,7 c-0.7,0-1.3,0-1.9,0c-5.3,0-10.7,0-16,0c-1.4,0-2.3-0.4-3.1-1.5c-21.9-29.6-43.9-59.2-65.9-88.8c-0.5-0.7-1.1-1.4-2-2.6 c0,1.2,0,1.8,0,2.5c0,22.3,0,44.6,0.1,66.8c0,2.6,0.5,5.3,1.2,7.7c1.8,6,4.9,8.4,11.2,8.9c0,2.2,0,4.5,0,6.9c-0.6,0-1.2,0.1-1.7,0.1 c-12.7,0-25.3,0-38,0c-1.6,0-2.3-0.4-2.1-2.1c0.1-1.6,0-3.3,0-4.5c2.4-0.8,4.7-1.1,6.5-2.2c3.5-2.1,4.7-5.7,5.5-9.4 c0.4-2.1,0.6-4.2,0.6-6.4c0-19,0-38,0.1-56.9c0-3.5-0.5-6.9-1.8-10.1c-1.7-4.3-4.5-7.2-9.5-7.2c-0.4,0-0.9-0.8-1.3-1.2 c0,0,0-0.1,0-0.2c-0.4-5.7-0.4-5.7,5.3-5.7c7,0,14,0.1,21,0c1.7,0,2.8,0.5,3.8,1.9c11,14.9,22.1,29.8,33.1,44.8 c8.3,11.2,16.6,22.3,24.8,33.5C617.3,458.5,617.5,458.7,618,459.3z"></path> <path style="fill:#EA3358;" d="M416.7,385.3c-7.8,0.9-11.4,4.6-12.1,13.5c-0.6,6.5-0.3,13.1-0.3,19.7c0,13.4,0,26.9,0,40.3 c0,2.5,0.2,5.1,0.7,7.6c1.5,7.2,4.4,9.8,11.7,10.9c0,2.2,0,4.4,0,6.8c-13.9,0-27.6,0-41.6,0c0-2.3,0-4.5,0-6.9 c4.3,0.3,7.6-1.5,9.6-5.3c1-1.8,1.7-3.9,2.1-5.9c1.5-6.4,0.5-13,0.7-19.4c0.1-4.5,0-9.1,0-13.7c-16.9,0-33.5,0-50.5,0 c0,0.7,0,1.4,0,2.1c0,8-0.1,16,0.1,23.9c0.1,3.2,0.5,6.4,1.4,9.4c1.7,5.8,4.5,7.9,11,8.6c0,2.2,0,4.5,0,6.9c-13.8,0-27.6,0-41.6,0 c0-2.3,0-4.6,0-6.8c7.8-1.2,11.2-4.8,12.1-13c0.2-2.1,0.3-4.2,0.4-6.3c0-18.7,0.2-37.3-0.1-56c-0.1-3.6-1.3-7.4-2.7-10.7 c-1.7-4-5.1-5.8-9.7-5.4c0-2.4,0-4.6,0-7c13.8,0,27.6,0,41.6,0c0,2.2,0,4.5,0,6.8c-1.2,0.1-2.4,0.1-3.6,0.4c-4.8,1.2-6.7,5-7.8,9.3 c-0.7,2.5-0.9,5.2-1,7.9c-0.1,6.7,0,13.4,0,20.2c0,0.7,0,1.3,0,2.1c16.9,0,33.6,0,50.5,0c0-3.4,0-6.8,0-10.2c0-4.6,0.3-9.2,0-13.8 c-0.2-4.1-1.1-8.2-3.6-11.7c-2.1-3-5.1-4.2-8.9-3.9c0-2.4,0-4.8,0-6.9c13.9,0,27.7,0,41.6,0C416.7,380.9,416.7,383,416.7,385.3z"></path> <path style="fill:#EA3358;" d="M917.7,374c0.1,0.8,0.1,1.4,0.1,1.9c0,7.1,0,14.2,0,21.4c0,1.7-0.6,2-2.2,2.1c-2,0.1-3.4-0.5-4.9-1.9 c-18.8-17.5-49.7-15.4-66,4.5c-0.6,0.8-1.1,2-1.1,3c-0.1,17.5-0.1,35.1,0,52.6c0,1.1,0.5,2.3,1.2,3.1c16.5,19.3,45.3,21.7,64.6,5.5 c0.6-0.5,1.2-1.6,1.2-2.4c0.1-4.5,0.2-9,0-13.4c-0.2-3.8-1-7.5-3.1-10.8c-1.8-2.9-4.3-4.6-7.8-4.5c-0.5,0-1-0.1-1.6-0.2 c0-2.3,0-4.5,0-6.8c10.7,0,21.4,0,32.1,0c0,2.4,0,4.6,0,6.8c-1.4,0.2-2.7,0.2-3.9,0.5c-3.4,0.9-5.5,3.4-6.6,6.6 c-1,3.1-1.7,6.4-1.9,9.7c-0.3,5.1,0,10.1-0.1,15.2c0,0.9-0.4,2-1.1,2.6c-8.3,8-18.1,12.9-29.6,14.3c-16.6,2-31.2-2.4-43.4-13.8 c-12-11.3-17.4-25.4-16.5-41.9c0.6-12.1,5-22.8,13.1-31.8c11.6-12.8,26.2-18.7,43.5-17.7c5.4,0.3,10.7,1.5,15.7,3.6 c7.2,2.9,9.8-0.7,11.1-6.4c0.3-1.3,0.6-1.7,1.8-1.6C914.2,374,915.9,374,917.7,374z"></path> <path style="fill:#EA3358;" d="M293.6,374c0,8.5,0,16.8,0,25.1c-2.7,0.3-4.9,0.2-7.2-1.9c-9.9-8.9-21.6-12.7-34.9-11.5 c-12.5,1.1-22.8,6.6-30.9,16.2c-0.6,0.7-1,1.9-1,2.8c-0.1,17.6-0.1,35.2,0,52.8c0,1,0.4,2.1,1,2.8c7.3,8.7,16.6,14.1,27.8,15.8 c13.8,2.1,26.1-1.3,36.9-10c0.6-0.5,1.2-1.5,1.2-2.2c0.2-4.9,0.7-9.8,0.1-14.6c-0.6-5.2-1.6-10.7-7-13.6c-1.3-0.7-2.9-0.9-4.3-1 c-1-0.1-1.4-0.5-1.3-1.5c0-1.4,0-2.9,0-4.3c0-1.2,0.4-1.7,1.7-1.2c0.6,0.2,1.3,0.2,1.9,0.2c8.8,0,17.5,0,26.3,0c0.7,0,1.4,0,2.5,0 c0,2,0.1,3.9-0.1,5.7c0,0.4-0.7,0.9-1.1,1c-7,1.5-10.4,4.9-11,12.4c-0.5,6.3-0.4,12.8-0.4,19.1c0,1.4-0.3,2.3-1.4,3.3 c-11,10.2-24,15-39,14.4c-22.1-0.8-41.8-16-48.2-37.6c-8.8-29.7,9-60,39.2-66.9c10.1-2.3,20.1-1.4,29.8,2.1c0.2,0.1,0.5,0.1,0.7,0.2 c7.8,3.6,10.6-1,11.7-6.6c0.1-0.4,0.6-1.1,1-1.1C289.6,374,291.5,374,293.6,374z"></path> <path style="fill:#EA3358;" d="M199.4,378.5c0,2.1,0.1,3.9-0.1,5.6c0,0.5-0.8,1.3-1.2,1.3c-5.4,0-8.2,3.2-9.6,7.8 c-0.9,3-1.5,6.3-1.5,9.4c-0.1,19.5-0.1,39,0,58.5c0,2.2,0.3,4.5,0.9,6.6c1.7,5.5,4.8,9.6,11.5,9.2c0,2.1,0.1,4.1-0.1,6.2 c0,0.4-1.2,1-1.8,1c-6.8,0.1-13.6,0-20.4,0c-5.9,0-11.9,0-17.8,0c-1.6,0-2.1-0.5-2-2c0.1-1.6,0-3.3,0-5.1c1.1-0.1,2.1-0.1,3-0.2 c3.7-0.6,6.3-2.9,7.5-6.3c1.1-3,2-6.2,2-9.3c0.2-19.9,0.1-39.8,0.1-59.7c0-4.3-0.9-8.5-3.5-12.1c-1.8-2.5-4.2-4-7.3-3.9 c-1.4,0-1.9-0.5-1.9-1.9c0.1-1.6-0.5-3.8,0.3-4.8c0.7-0.8,3-0.4,4.6-0.4c11.5,0,23.1,0,34.6,0C197.6,378.5,198.4,378.5,199.4,378.5z "></path> <path style="fill:#EA3358;" d="M697.2,477.2c0,2.4,0,4.6,0,6.9c-0.7,0-1.2,0.1-1.8,0.1c-12.7,0-25.3,0-38,0c-1.7,0-2.2-0.5-2.1-2.1 c0.1-1.6,0-3.1,0-4.9c1.1-0.1,2.2-0.1,3.2-0.3c5-1,7.2-4.7,8.4-9.2c0.7-2.6,1-5.4,1-8.1c0.1-19,0-38.1,0-57.1c0-3.6-0.5-7.2-2-10.5 c-1.8-3.9-4.5-6.6-9.2-6.5c-1,0-1.4-0.4-1.4-1.4c0-1.5-0.1-3,0.1-4.5c0-0.5,0.8-1.2,1.2-1.2c1.8-0.1,3.7,0.2,5.5,0.2c11,0,22,0,33,0 c0.6,0,1.3,0.1,2,0.1c0,2.3,0,4.4,0,6.7c-1.1,0.1-2.2,0.1-3.3,0.3c-3.6,0.8-6,3.2-7.1,6.5c-1.1,3.2-2,6.6-2,9.9 c-0.2,19.4-0.1,38.9,0,58.3c0,2.6,0.4,5.3,1.2,7.7C687.6,474.2,690.7,476.6,697.2,477.2z"></path> <path style="fill:#EA3358;" d="M490.7,476c0,1.5,0,2.8,0,4.3c-13.1,0-26.1,0-39.3,0c0-1.4,0-2.8,0-4.4c6.9-0.5,10.1-5,11.7-11.1 c0.5-1.9,0.8-4,0.8-6c0-25.3,0-50.6,0-75.9c0-0.3-0.1-0.5-0.1-1.1c-0.7,0-1.4,0-2.1,0c-5.3-0.1-10.6-0.4-15.8-0.1 c-4.7,0.3-9.3,1.3-13.2,4.4c-2.6,2.1-3.7,4.8-3.8,8.2c-1.6,0-3,0-4.6,0c0-5.7,0-11.3,0-17.2c0.7,0,1.4,0,2.1,0c29.7,0,59.5,0,89.2,0 c1.9,0,2.6,0.5,2.5,2.4c-0.1,4.9,0,9.8,0,15c-1.4,0-2.7,0.1-3.9-0.1c-0.4,0-1-0.7-1-1.1c-0.3-4.7-3.1-7.7-7.2-9.2 c-3.3-1.2-6.8-2.1-10.2-2.3c-5.8-0.4-11.6-0.1-17.6-0.1c0,0.8,0,1.5,0,2.2c0,25,0,50.1,0,75.1c0,4.1,1.1,8,3.3,11.6 c1.7,2.7,4.1,4.6,7.4,5C489.3,475.6,489.9,475.8,490.7,476z"></path> <path style="fill:#EA3358;" d="M72.8,381.5c0-1.5,0-2.9,0-4.5c0.7,0,1.4-0.1,2-0.1c11.1,0,22.1,0,33.2,0c1.2,0,2.5-0.2,2.3,1.7 c-0.1,1.4,0.7,3.2-2,3.3c-2.8,0.1-5,1.6-6.6,3.9c-3.1,4.4-4.1,9.5-4.1,14.8c0,18.6,0,37.2,0,55.7c0,6.4,0,12.8,0,19.4 c0.8,0,1.5,0,2.2,0c8,0,16,0.3,23.9-0.1c3.7-0.2,7.5-1.3,11-2.6c4.3-1.6,6.5-5.1,6.8-9.8c1.5,0,2.9,0,4.5,0c0,5.7,0,11.3,0,17 c-24.4,0-48.8,0-73.3,0c0-1.4,0-2.9,0-4.4c3.8-0.3,7.2-1.7,8.9-5.3c1.4-3,2.9-6.2,3.1-9.4c0.5-11.8,0.4-23.5,0.5-35.3 c0.1-8.6,0.2-17.3-0.1-25.9c-0.1-3.2-0.7-6.4-1.6-9.4C82,385.1,79.3,383,72.8,381.5z"></path> <path style="fill:#EA3358;" d="M284.4,552.9c-5.8,0-11.6,0.9-17.1,2.8c-1.3,0.4-2.6,0.9-3.9,1.5c-2.5,1-4.9,2.3-7.2,3.7 c-1.2,0.8-2.4,1.6-3.6,2.4c-1.5,1.1-3.1,2.3-4.5,3.6c-11.3,10.3-17.8,24.9-17.8,40.1c0,4.3,0.5,8.6,1.5,12.8c0.2,1,0.5,2,0.8,3.1 c3.3,10.8,10.2,20.6,19.3,27.4c9.4,7.1,20.7,10.8,32.5,10.8c24,0,45.4-16.1,52-39.2c0.3-1,0.5-2,0.8-3c0.9-3.9,1.3-7.9,1.3-11.9 C338.5,577.2,314.2,552.9,284.4,552.9L284.4,552.9z M319.8,610.6c-0.1,0.8-0.2,1.5-0.3,2.3c-0.1,0.5-0.2,1-0.3,1.5 c-0.1,0.3-0.1,0.6-0.2,0.9c-0.2,0.7-0.4,1.5-0.6,2.2c-0.2,0.5-0.3,1-0.5,1.4c-5.1,14.1-18.5,23.5-33.5,23.5 c-10.2,0-20.1-4.6-26.8-12.3v-46.6c2.6-3,5.8-5.6,9.3-7.6c0.7-0.4,1.4-0.8,2.1-1.1c0.4-0.2,0.7-0.4,1.1-0.5c0.7-0.3,1.4-0.6,2.1-0.8 c0.7-0.3,1.4-0.5,2.2-0.7c3.3-1,6.6-1.5,10-1.5s6.8,0.5,10,1.4c0.8,0.2,1.6,0.5,2.4,0.8c0.9,0.3,1.8,0.7,2.7,1.2 c12.4,5.9,20.4,18.5,20.4,32.2C320,608.2,319.9,609.4,319.8,610.6L319.8,610.6z"></path> <path style="fill:#EA3358;" d="M521.2,552.9h-6.5v18h7.3c0.1,0,0.2,0,0.2,0c0.1,0,0.2,0,0.3,0.1c0.1,0,0.1,0,0.2,0.1 c0.1,0,0.1,0.1,0.2,0.1c0.2,0.2,0.4,0.4,0.7,0.8c0.1,0.2,0.3,0.4,0.4,0.7c0.1,0.3,0.2,0.5,0.3,0.8c0.1,0.2,0.1,0.3,0.2,0.5 c0.2,0.5,0.3,1,0.4,1.6c0,0.1,0.1,0.3,0.1,0.4c0,0.2,0.1,0.5,0.1,0.7v0.2c0,0.5,0,2,0.1,3.2V634c0,1.2,0,2.7-0.1,3.2v0.2 c0,0.2-0.1,0.4-0.1,0.6c0,0.1,0,0.2-0.1,0.4c-0.1,0.6-0.2,1.1-0.4,1.6c0,0.1-0.1,0.3-0.2,0.5c-0.1,0.3-0.2,0.6-0.3,0.9 c-0.1,0.2-0.2,0.5-0.4,0.7c-0.2,0.4-0.5,0.6-0.7,0.8c-0.1,0-0.1,0.1-0.2,0.1c-0.1,0-0.1,0.1-0.2,0.1c-0.1,0-0.2,0-0.3,0 s-0.2,0-0.2,0h-7.3v18h6.5h60.4h6.5v-30h-6.5h-5.1H570v7.4c0,0.4,0,0.7-0.1,0.9c-0.1,0.1-0.2,0.4-0.5,0.7c-0.4,0.3-1.1,0.9-2.5,1.4 c-2.5,0.9-5.2,1.1-5.6,1.1h-8.9v-25.4c2,0.6,3.9,1.6,3.9,3.2v7.4h6.5h5.1h6.5v-41.4h-6.5h-5.1h-6.5v7.4c0,1.7-1.9,2.7-3.9,3.3v-25.6 h8.9c0.3,0,3,0.1,5.5,1.1c0.7,0.3,1.4,0.6,1.9,0.9c0.3,0.2,0.5,0.3,0.7,0.5c0.3,0.3,0.4,0.5,0.4,0.7c0.1,0.2,0.1,0.5,0.1,0.9v7.4 h6.5h5.1h6.5v-30h-6.5L521.2,552.9L521.2,552.9z"></path> <path style="fill:#EA3358;" d="M756.1,552.9h-67.7v30h18v-7.4c0-0.3,0-0.6,0.1-0.8c0-0.1,0.1-0.3,0.2-0.4c0.1-0.1,0.1-0.2,0.2-0.3 c0.1-0.1,0.2-0.2,0.3-0.3c0.1,0,0.1-0.1,0.2-0.1c0.5-0.4,1.2-0.7,2.1-1.1c2.5-0.9,5.2-1.1,5.6-1.1h8.9v63.4c0,0.9,0,1.9-0.1,2.3v0.3 c0,0.1-0.1,0.4-0.1,0.6c0,0.1,0,0.2-0.1,0.4c-0.1,0.6-0.2,1.1-0.4,1.6c0,0.1-0.1,0.3-0.2,0.5c-0.1,0.3-0.2,0.6-0.3,0.9 c-0.1,0.2-0.2,0.5-0.4,0.7c-0.2,0.4-0.5,0.6-0.7,0.8c-0.1,0-0.1,0.1-0.2,0.1c-0.1,0-0.1,0.1-0.2,0.1c-0.1,0-0.2,0-0.3,0 s-0.2,0-0.2,0h-7.3v18h48.2v-18h-7.3c-0.1,0-0.2,0-0.2,0c-0.1,0-0.2,0-0.3-0.1c-0.1,0-0.1,0-0.2-0.1c-0.1,0-0.1-0.1-0.2-0.1 c-0.2-0.2-0.4-0.5-0.7-0.8c-0.1-0.2-0.3-0.4-0.4-0.7c-0.1-0.3-0.2-0.5-0.3-0.8c-0.1-0.2-0.1-0.3-0.2-0.5c-0.2-0.5-0.3-1-0.4-1.6 c0-0.1-0.1-0.3-0.1-0.4c0-0.3-0.1-0.5-0.1-0.7v-0.2c0-0.4,0-1.4-0.1-2.3v-63.4h8.9c0.5,0,3.1,0.2,5.6,1.1c0.9,0.3,1.6,0.7,2.1,1.1 c0.1,0,0.1,0.1,0.2,0.1c0.1,0.1,0.2,0.2,0.3,0.3s0.2,0.2,0.2,0.3c0.1,0.1,0.1,0.3,0.2,0.4c0.1,0.2,0.1,0.5,0.1,0.8v7.4h18v-30H756.1 L756.1,552.9z"></path> <path style="fill:#EA3358;" d="M656.6,552.9h-67.7v30h18v-7.4c0-0.3,0-0.6,0.1-0.8c0-0.1,0.1-0.3,0.2-0.4c0.1-0.1,0.1-0.2,0.2-0.3 c0.1-0.1,0.2-0.2,0.3-0.3c0.1,0,0.1-0.1,0.2-0.1c0.5-0.4,1.2-0.7,2.1-1.1c2.5-0.9,5.2-1.1,5.6-1.1h8.9v63.4c0,0.9,0,1.9-0.1,2.3v0.2 c0,0.2-0.1,0.4-0.1,0.7c0,0.1,0,0.3-0.1,0.4c-0.1,0.6-0.2,1.1-0.4,1.6c0,0.1-0.1,0.3-0.1,0.4c-0.1,0.3-0.2,0.6-0.3,0.9 c-0.1,0.2-0.2,0.5-0.4,0.7c-0.2,0.4-0.5,0.6-0.7,0.8c-0.1,0-0.1,0.1-0.2,0.1c-0.1,0-0.2,0.1-0.2,0.1c-0.1,0-0.2,0-0.3,0 s-0.2,0-0.2,0h-7.3v18h48.2v-18H655c-0.1,0-0.2,0-0.2,0c-0.1,0-0.2,0-0.3-0.1c-0.1,0-0.1,0-0.2-0.1c-0.1,0-0.1-0.1-0.2-0.1 c-0.2-0.2-0.4-0.5-0.7-0.8c-0.1-0.2-0.3-0.4-0.4-0.7c-0.1-0.3-0.2-0.5-0.3-0.8c-0.1-0.2-0.1-0.3-0.2-0.5c-0.1-0.5-0.3-1-0.4-1.6 c0-0.1,0-0.3-0.1-0.4c0-0.3-0.1-0.5-0.1-0.7V637c0-0.4,0-1.4-0.1-2.3v-63.4h8.9c0.5,0,3.1,0.2,5.6,1.1c0.9,0.3,1.6,0.7,2.1,1.1 c0.1,0,0.1,0.1,0.2,0.1c0.1,0.1,0.2,0.2,0.3,0.3s0.2,0.2,0.2,0.3c0.1,0.1,0.2,0.3,0.2,0.4c0.1,0.2,0.1,0.5,0.1,0.8v7.4h18v-30 L656.6,552.9L656.6,552.9z"></path> <path style="fill:#EA3358;" d="M794.3,552.9h-6.5v18h7.3c0.1,0,0.2,0,0.2,0c0.1,0,0.2,0,0.3,0.1c0.1,0,0.1,0,0.2,0.1 c0.1,0,0.1,0.1,0.2,0.1c0.2,0.2,0.4,0.4,0.7,0.8c0.1,0.2,0.3,0.4,0.4,0.7c0.1,0.3,0.2,0.5,0.3,0.8c0.1,0.2,0.1,0.3,0.2,0.5 c0.2,0.5,0.3,1,0.4,1.6c0,0.1,0.1,0.3,0.1,0.4c0,0.2,0.1,0.5,0.1,0.7v0.2c0,0.5,0,2,0.1,3.2V634c0,1.2,0,2.7-0.1,3.2v0.2 c0,0.1-0.1,0.4-0.1,0.6c0,0.1,0,0.2-0.1,0.4c-0.1,0.6-0.2,1.1-0.4,1.6c0,0.1-0.1,0.3-0.2,0.5c-0.1,0.3-0.2,0.6-0.3,0.9 c-0.1,0.2-0.2,0.5-0.4,0.7c-0.2,0.4-0.5,0.6-0.7,0.8c-0.1,0.1-0.1,0.1-0.2,0.1c-0.1,0-0.1,0.1-0.2,0.1c-0.1,0-0.2,0-0.3,0 s-0.2,0-0.2,0h-7.3v18h6.5h60.4h6.5v-30h-6.5h-5.1h-6.5v7.4c0,0.4,0,0.7-0.1,0.9c-0.1,0.1-0.2,0.4-0.5,0.7c-0.4,0.3-1.1,0.9-2.5,1.4 c-2.5,0.9-5.2,1.1-5.5,1.1h-8.9v-25.4c2,0.6,3.9,1.6,3.9,3.2v7.4h6.5h5.1h6.5v-41.4h-6.5H836h-6.5v7.4c0,1.7-1.9,2.7-3.9,3.3v-25.6 h8.9c0.3,0,3,0.1,5.6,1.1c0.7,0.3,1.4,0.6,1.9,0.9c0.3,0.2,0.5,0.3,0.7,0.5c0.3,0.3,0.4,0.5,0.4,0.7c0.1,0.2,0.1,0.5,0.1,0.9v7.4 h6.5h5.1h6.5v-30h-6.5L794.3,552.9L794.3,552.9z"></path> <path style="fill:#EA3358;" d="M232.6,643.5c-1.8-1-3.6-1.3-4.9-1.5c-0.2,0-0.4-0.1-0.5-0.1c-2.8-1.5-6.2-5.1-11.2-11.9 c-1.4-1.8-2.8-3.9-4.5-6.3l0,0l0,0c-0.4-0.5-0.7-1-1.1-1.5c11.5-6.4,18.9-18.6,18.9-32.2c0-20.4-16.6-36.9-36.9-36.9h-53.1v18h7.3 c0.1,0,0.2,0,0.2,0c0.1,0,0.2,0,0.3,0s0.1,0,0.2,0.1c0.1,0,0.1,0.1,0.2,0.1c0.2,0.2,0.4,0.5,0.7,0.8c0.1,0.2,0.3,0.4,0.4,0.7 c0.1,0.2,0.2,0.5,0.3,0.8c0.1,0.2,0.1,0.3,0.2,0.5c0.2,0.5,0.3,1,0.4,1.6c0,0.1,0.1,0.3,0.1,0.4c0,0.2,0.1,0.5,0.1,0.7v0.3 c0,0.1,0,0.3,0,0.4v8.2V634v0.1v0.1v0.1c0,1.1,0,2.4-0.1,2.9v0.2c0,0.1-0.1,0.4-0.1,0.6c0,0.1,0,0.3-0.1,0.4 c-0.1,0.6-0.2,1.1-0.4,1.6c0,0.2-0.1,0.3-0.2,0.5c-0.1,0.3-0.2,0.6-0.3,0.8s-0.2,0.5-0.4,0.7c-0.2,0.4-0.5,0.6-0.7,0.8 c-0.1,0-0.1,0.1-0.2,0.1c-0.1,0-0.1,0.1-0.2,0.1c-0.1,0-0.2,0-0.3,0s-0.2,0-0.2,0h-7.3v18h37.7v-34.6h0.3l1.1,0.2h0.2h0.1 c0.2,0.2,0.5,0.6,0.9,1.2l0.3,0.5c3.3,4.7,5.8,8.2,8,11.1c11.7,15.8,18.2,19.4,26.6,20.8c3.4,0.6,6.9,0.7,11.9,0.7h0.2 c5.9,0,10.2-3.5,10.7-8.7v-0.3v-0.3C237.4,648.2,235.7,645.2,232.6,643.5L232.6,643.5z M195.9,606.4c-1,0.2-2,0.3-3.1,0.4h-0.2 c-0.3,0-0.6,0-1,0l-13.4-0.1h-1.3v-33.9h15.8h0.1h0.1c0.3,0,0.7,0,1.1,0.1h0.2c8.6,0.9,15.2,8.2,15.2,16.9 C209.3,597.7,203.7,604.7,195.9,606.4L195.9,606.4z"></path> <path style="fill:#EA3358;" d="M507.4,631.1h-5.1h-6.5v7.4c0,0.3,0,0.6-0.1,0.9c0,0.1-0.1,0.3-0.2,0.4c-0.1,0.1-0.2,0.3-0.4,0.4 c-0.4,0.3-1.1,0.8-2.4,1.3c-2.5,0.9-5.2,1.1-5.6,1.1h-16.9V580c0-1.2,0-2.7,0.1-3.2v-0.2c0-0.1,0.1-0.4,0.1-0.6c0-0.1,0-0.2,0.1-0.4 c0.1-0.6,0.2-1.1,0.4-1.6c0-0.1,0.1-0.3,0.1-0.4c0.1-0.3,0.2-0.6,0.4-0.9c0.1-0.2,0.2-0.5,0.4-0.7c0.2-0.4,0.5-0.6,0.7-0.8 c0.1-0.1,0.1-0.1,0.2-0.1s0.1-0.1,0.2-0.1s0.2,0,0.3,0c0.1,0,0.2,0,0.2,0h7.3v-18h-85.4v17.8h7.3c0.1,0,0.2,0,0.2,0 c0.1,0,0.2,0,0.3,0.1c0.1,0,0.1,0,0.2,0.1c0.1,0,0.1,0.1,0.2,0.1c0.2,0.2,0.5,0.4,0.7,0.8c0.1,0.2,0.3,0.4,0.4,0.7s0.2,0.5,0.3,0.8 c0.1,0.2,0.1,0.3,0.2,0.5c0.2,0.5,0.3,1,0.4,1.6c0,0.1,0,0.3,0.1,0.4c0,0.2,0.1,0.4,0.1,0.7v0.2c0,0.4,0,1.4,0,1.6v0.5v39.4 c0,5.3-1.9,10.7-5.4,15.2l-0.2,0.3c-0.2,0.3-0.4,0.5-0.6,0.8l0,0l0,0c-4.4,5-10.3,8-16.1,8.2h-0.3c-0.1,0-0.2,0-0.3,0 c-0.4,0-0.7,0-1.1,0c-4.1-0.2-8.1-1.8-11.7-4.5l-0.1-0.1l-0.2-0.2l-0.1-0.1c-0.6-0.5-1.2-1-1.8-1.6v-30.4v-6.4l0,0v-22.3 c0-0.2,0.1-0.6,0.1-0.8s0.1-0.4,0.1-0.6c0-0.1,0-0.2,0.1-0.4c0.1-0.6,0.2-1.1,0.4-1.6c0-0.1,0.1-0.3,0.1-0.4 c0.1-0.3,0.2-0.6,0.4-0.9c0.1-0.2,0.2-0.5,0.4-0.7c0.2-0.4,0.5-0.6,0.7-0.8c0.1-0.1,0.1-0.1,0.2-0.1s0.1-0.1,0.2-0.1s0.2,0,0.3,0 c0.1,0,0.2,0,0.2,0h7.3V553H330v17.8h7.3c0.1,0,0.2,0,0.2,0c0.1,0,0.2,0,0.3,0.1c0.1,0,0.1,0,0.2,0.1c0.1,0,0.1,0.1,0.2,0.1 c0.2,0.2,0.4,0.4,0.7,0.8c0.1,0.2,0.3,0.4,0.4,0.7c0.1,0.2,0.2,0.5,0.3,0.8c0.1,0.2,0.1,0.3,0.2,0.5c0.2,0.5,0.3,1,0.4,1.5 c0,0.2,0.1,0.3,0.1,0.4c0,0.2,0.1,0.5,0.1,0.7v0.2c0,0.3,0,1.1,0.1,1.8V618v0.1v0.1c0,0.7,0,1.4,0.1,2.2v0.1v0.1v0.6 c0,0.6,0.1,1.3,0.2,1.9l0.1,0.4c0.7,5.2,2.3,10.1,4.8,14.7c7.5,14.2,21.6,23,36.9,23c15.8,0,30.1-9.2,37.4-24.1l0.1-0.3 c0.4-0.7,0.7-1.5,1-2.1c0.4-1,0.7-1.8,1-2.5v-0.1c1-2.9,1.7-5.8,2.1-8.7v-0.3c0.1-0.6,0.1-1.3,0.2-1.9v-0.6v-0.1v-0.1 c0-0.7,0.1-1.5,0.1-2.2v-0.1V618v-0.1v-39.2l0,0v-0.3c0-0.3,0-1.3,0.1-1.8v-0.2c0-0.2,0.1-0.4,0.1-0.7c0-0.1,0-0.2,0.1-0.4 c0.1-0.6,0.2-1.1,0.4-1.6c0-0.1,0.1-0.3,0.2-0.4c0.1-0.3,0.2-0.6,0.3-0.9c0.1-0.2,0.2-0.5,0.4-0.7c0.2-0.4,0.5-0.6,0.7-0.8 c0.1-0.1,0.1-0.1,0.2-0.1s0.1-0.1,0.2-0.1s0.2,0,0.3,0c0.1,0,0.2,0,0.2,0h0.9l13.3,0.2c0.1,0,0.2,0,0.2,0c0.1,0,0.2,0,0.3,0.1 c0.1,0,0.1,0,0.2,0.1c0.1,0,0.1,0.1,0.2,0.1c0.2,0.2,0.4,0.5,0.7,0.8c0.1,0.2,0.3,0.4,0.4,0.7s0.2,0.5,0.3,0.8 c0.1,0.2,0.1,0.3,0.2,0.5c0.2,0.5,0.3,1,0.4,1.6c0,0.1,0.1,0.3,0.1,0.4c0,0.2,0.1,0.5,0.1,0.7v0.2c0,0.5,0,1.7,0.1,2.8V634 c0,1.2,0,2.7-0.1,3.2v0.2c0,0.1-0.1,0.4-0.1,0.6c0,0.1,0,0.2-0.1,0.4c-0.1,0.6-0.2,1.1-0.4,1.6c0,0.1-0.1,0.3-0.1,0.4 c-0.1,0.3-0.2,0.6-0.3,0.9c-0.1,0.2-0.2,0.5-0.4,0.7c-0.2,0.4-0.5,0.6-0.7,0.8c-0.1,0-0.1,0.1-0.2,0.1s-0.2,0.1-0.2,0.1 c-0.1,0-0.2,0-0.3,0c-0.1,0-0.2,0-0.2,0h-7.3v18h6.5h66.6h6.5v-6.5V631L507.4,631.1L507.4,631.1z"></path> <path id="Shape" style="fill:#EA3358;" d="M367,741.7c2.1-2.9,3.2-6.4,3.2-10c0-5.1-1.8-9.5-5.4-13.1s-7.9-5.4-13.1-5.4h-23v57.4 h9.4v-20.9h11.2l12.1,20.9h10.3l-13-22.3C362.1,746.9,364.9,744.6,367,741.7L367,741.7L367,741.7z M351.7,741.2h-13.5V722h13.5 c2.4,0,4.8,1,6.4,2.8c3.5,3.9,3.5,9.7,0,13.6C356.4,740.2,354.1,741.2,351.7,741.2L351.7,741.2z M418.5,745.8c-0.9-1-1.9-2-3-2.9 c-0.9-0.8-2.3-1.5-4.1-2.3c-1.8-0.8-3.3-1.3-4.3-1.7s-2.6-0.9-4.8-1.6c-4.4-1.4-7.4-2.7-9.1-3.9c-1.6-1.2-2.6-3-2.5-5 c0-2.2,0.8-3.9,2.5-5.2c1.6-1.3,3.8-1.9,6.6-1.9c5.6,0,9.6,2.7,12.1,8l8-4.6c-1.7-3.8-4.5-7-8-9.3c-3.4-2.2-7.5-3.4-12.1-3.4 c-5.1,0-9.4,1.5-13,4.5s-5.4,7-5.4,12.1c0,2.6,0.5,4.8,1.4,6.7c1,1.9,2.4,3.6,4.2,4.8c1.7,1.2,3.5,2.2,5.4,3 c2.2,0.9,4.4,1.6,6.6,2.3c4.9,1.5,8.3,2.8,10.2,4.1c1.9,1.2,2.9,3,2.9,5.4c0,2.1-0.9,4.2-2.7,5.5c-1.8,1.4-4.4,2.1-8,2.1 c-7.2,0-12-3.2-14.3-9.7l-8.1,4.8c1.4,4.3,4.3,7.9,8.1,10.3c3.9,2.5,8.5,3.8,14.1,3.8c6.1,0,11-1.5,14.7-4.6c3.7-3,5.6-7.1,5.6-12.3 c0-1.7-0.2-3.4-0.7-5C420.3,748.3,419.5,746.9,418.5,745.8L418.5,745.8z M428.3,722.2h16.2v48.4h9.4v-48.4h16.2v-9h-41.8 L428.3,722.2L428.3,722.2z M250.9,770.6h11.6v-28.7h28.8v-11.1h-28.8V711h29.8v-11.1h-41.5L250.9,770.6L250.9,770.6z M303.9,770.6 h9.4v-57.4h-9.4V770.6z M568.5,746h23v-8.9h-23v-14.9h25v-9h-34.4v57.4H594v-9h-25.4L568.5,746L568.5,746z M737.3,712.1 c-8.3,0-15.4,2.9-21.1,8.7c-5.8,5.8-8.7,12.8-8.7,21.1s2.9,15.4,8.7,21.1c5.8,5.8,12.8,8.7,21.1,8.7s15.3-2.9,21.1-8.7 s8.7-12.8,8.7-21.1s-2.9-15.3-8.7-21.1C752.7,715,745.6,712.1,737.3,712.1L737.3,712.1L737.3,712.1z M751.8,756.6 c-3.9,3.9-8.7,5.9-14.5,5.9c-5.7,0-10.6-2-14.5-5.9s-5.9-8.8-5.9-14.7s2-10.8,5.9-14.7s8.7-5.9,14.5-5.9c5.7,0,10.6,2,14.5,5.9 s5.9,8.8,5.9,14.7S755.7,752.7,751.8,756.6L751.8,756.6z M644.9,741.7c2.1-2.9,3.2-6.4,3.2-10c0-5.1-1.8-9.5-5.4-13.1 s-7.9-5.4-13.1-5.4h-23v57.4h9.4v-20.9h11.2l12.1,20.9h10.3l-13-22.3C640,746.9,642.8,744.6,644.9,741.7L644.9,741.7z M629.6,741.2 H616V722h13.5c2.4,0,4.8,1,6.4,2.8c3.5,3.9,3.5,9.7,0,13.6C634.3,740.2,632,741.2,629.6,741.2L629.6,741.2L629.6,741.2z M696.4,745.8c-0.9-1-1.9-2-3-2.9c-0.9-0.8-2.3-1.5-4.1-2.3s-3.3-1.3-4.3-1.7s-2.6-0.9-4.8-1.6c-4.4-1.4-7.4-2.7-9.1-3.9 c-1.6-1.2-2.6-3-2.5-5c0-2.2,0.8-3.9,2.5-5.2s3.8-1.9,6.6-1.9c5.6,0,9.6,2.7,12.1,8l8-4.6c-1.7-3.8-4.5-7-8-9.3 c-3.4-2.2-7.5-3.4-12.1-3.4c-5.1,0-9.4,1.5-13,4.5s-5.4,7-5.4,12.1c0,2.6,0.5,4.8,1.4,6.7c1,1.9,2.4,3.6,4.2,4.8 c1.7,1.2,3.5,2.2,5.4,3c2.2,0.9,4.4,1.6,6.6,2.3c4.9,1.5,8.3,2.8,10.2,4.1c1.9,1.2,2.9,3,2.9,5.4c0,2.1-0.9,4.2-2.7,5.5 c-1.8,1.4-4.4,2.1-8,2.1c-7.2,0-12-3.2-14.3-9.7l-8.1,4.8c1.4,4.3,4.3,7.9,8.1,10.3c3.9,2.5,8.5,3.8,14.1,3.8c6.1,0,11-1.5,14.7-4.6 c3.7-3,5.6-7.1,5.6-12.3c0-1.7-0.2-3.4-0.7-5C698.2,748.3,697.4,746.9,696.4,745.8L696.4,745.8L696.4,745.8z M525.9,699.8h-26.1 v70.8h11.6v-24.3h14.5c6.7,0,12.3-2.2,16.7-6.7c4.5-4.5,6.7-10,6.7-16.5c0-6.6-2.2-12.1-6.7-16.6C538.1,702,532.5,699.8,525.9,699.8 L525.9,699.8z M534.4,731.9c-2.2,2.3-5.1,3.5-8.5,3.5h-14.5v-24.7h14.5c3.4,0,6.3,1.2,8.5,3.5s3.3,5.3,3.3,8.9 C537.7,726.6,536.6,729.6,534.4,731.9L534.4,731.9L534.4,731.9z M813.7,713.2v39l-27.1-39h-7.4v57.4h9.4v-39l27.1,39h7.4v-57.4 H813.7L813.7,713.2z"></path> <path id="Path-5" style="fill-rule:evenodd;clip-rule:evenodd;fill:#EA3358;" d="M157.1,694.7c28.2-15.1,64.6,0.8,67.3,39.1 C172.1,738,165.8,714.4,157.1,694.7z"></path> <path id="Path-7" style="fill-rule:evenodd;clip-rule:evenodd;fill:#EA3358;" d="M157.1,779.8c28.2,15.1,64.6-0.8,67.3-39.1 C172.1,736.5,165.8,760.1,157.1,779.8z"></path> </svg> 