<?xml version="1.0" encoding="UTF-8"?> <svg xmlns="http://www.w3.org/2000/svg" xmlns:xlink="http://www.w3.org/1999/xlink" version="1.1" id="Layer_1" x="0px" y="0px" viewBox="0 0 1000 1000" style="enable-background:new 0 0 1000 1000;" xml:space="preserve"> <g> <path style="fill:#EA3358;" d="M681.9,490.5V503h-29.3v86.6h-13V503h-29.2v-12.5H681.9z"></path> <path style="fill:#EA3358;" d="M692.5,490.5h13.2v99.1h-13.2V490.5z"></path> <path style="fill:#EA3358;" d="M822.1,540.5v5.9c0,12.9-4.4,23.7-13.3,32.2s-20.6,12.8-35.2,12.8c-15.1,0-27.6-5-37.4-14.9 c-9.9-10-14.8-22.1-14.8-36.5c0-14.3,4.9-26.5,14.8-36.5c9.9-10,22.2-14.9,37.2-14.9c8.8-0.1,17.5,2.2,25.2,6.6 c7.6,4.4,13.5,10.2,17.7,17.3l-11.3,6.7c-2.8-5.4-7.1-9.7-12.8-13c-5.8-3.3-12.3-5-18.9-4.9c-11.3,0-20.6,3.7-27.9,11.1 s-10.9,16.6-10.9,27.5s3.7,20.1,11,27.5s16.8,11,28.4,11c9.9,0,17.9-2.4,24.1-7.3c6-4.6,10-11.4,11.2-18.9h-36.4v-11.9h49.3V540.5z "></path> <path style="fill:#EA3358;" d="M850,577.2h46v12.5h-59.2v-99.1h58.5V503H850v30.4h41.8v12.3H850V577.2z"></path> <path style="fill:#EA3358;" d="M969.4,589.6l-22.2-37.9h-23.4v37.9h-13.2v-99.1h39.6c8.5,0,15.8,3,21.8,9s9.1,13.2,9.1,21.7 c0,6.3-2,12.5-5.7,17.6c-3.7,5.2-8.8,9.1-14.8,11.2l23.4,39.6L969.4,589.6z M923.8,502.8v36.9h26.5c4.9,0,9.1-1.8,12.5-5.4 c3.4-3.5,5.3-8.2,5.2-13.1c0.1-4.9-1.8-9.6-5.2-13c-3.2-3.5-7.8-5.4-12.5-5.4L923.8,502.8z"></path> <path style="fill:#EA3358;" d="M681.9,490.5V503h-29.3v86.6h-13V503h-29.2v-12.5H681.9z"></path> <path style="fill:#EA3358;" d="M692.5,490.5h13.2v99.1h-13.2V490.5z"></path> <path style="fill:#EA3358;" d="M822.1,540.5v5.9c0,12.9-4.4,23.7-13.3,32.2s-20.6,12.8-35.2,12.8c-15.1,0-27.6-5-37.4-14.9 c-9.9-10-14.8-22.1-14.8-36.5c0-14.3,4.9-26.5,14.8-36.5c9.9-10,22.2-14.9,37.2-14.9c8.8-0.1,17.5,2.2,25.2,6.6 c7.6,4.4,13.5,10.2,17.7,17.3l-11.3,6.7c-2.8-5.4-7.1-9.7-12.8-13c-5.8-3.3-12.3-5-18.9-4.9c-11.3,0-20.6,3.7-27.9,11.1 c-7.3,7.4-10.9,16.6-10.9,27.5s3.7,20.1,11,27.5s16.8,11,28.4,11c9.9,0,17.9-2.4,24.1-7.3c6-4.6,10-11.4,11.2-18.9h-36.4v-11.9 h49.3V540.5z"></path> <path style="fill:#EA3358;" d="M850,577.2h46v12.5h-59.2v-99.1h58.5V503H850v30.4h41.8v12.3H850V577.2z"></path> <path style="fill:#EA3358;" d="M969.4,589.6l-22.2-37.9h-23.4v37.9h-13.2v-99.1h39.6c8.5,0,15.8,3,21.8,9s9.1,13.2,9.1,21.7 c0,6.3-2,12.5-5.7,17.6c-3.7,5.2-8.8,9.1-14.8,11.2l23.4,39.6L969.4,589.6z M923.8,502.8v36.9h26.5c4.9,0,9.1-1.8,12.5-5.4 c3.4-3.5,5.3-8.2,5.2-13.1c0.1-4.9-1.8-9.6-5.2-13c-3.2-3.5-7.8-5.4-12.5-5.4L923.8,502.8z"></path> <path style="fill:#EA3358;" d="M653,590h-13.9v-86.6H610v-13.3h72.3v13.3H653V590z M640,589.2h12.2v-86.6h29.3V491h-70.7v11.6H640 V589.2z"></path> <path style="fill:#EA3358;" d="M706.1,590h-14v-99.9h14V590z M692.9,589.2h12.3v-98.3h-12.3V589.2z"></path> <path style="fill:#EA3358;" d="M773.5,591.9c-15.1,0-27.8-5.1-37.7-15.1s-14.9-22.4-14.9-36.7s5-26.8,14.9-36.7 c9.9-10,22.5-15.1,37.5-15.1c8.9-0.1,17.7,2.2,25.4,6.6s13.7,10.3,17.8,17.5l0.2,0.4l-12.1,7.1l-0.2-0.4c-2.8-5.3-7-9.6-12.6-12.8 c-5.7-3.2-12.1-4.9-18.7-4.8c-11.2,0-20.4,3.7-27.6,11c-7.2,7.3-10.8,16.5-10.8,27.2s3.7,19.9,10.9,27.2 c7.2,7.2,16.6,10.9,28.1,10.9c9.8,0,17.8-2.4,23.8-7.2c5.8-4.5,9.7-11,10.9-18.2h-36.3v-12.7h50.4v6.4c0,13-4.5,23.9-13.4,32.5 C800.1,587.5,788.2,591.9,773.5,591.9z M773.2,489.1c-14.7,0-27.1,5-36.9,14.8c-9.7,9.8-14.7,22-14.7,36.2s4.9,26.3,14.7,36.2 s22.2,14.8,37.1,14.8c14.4,0,26.2-4.3,35-12.7s13.2-19.2,13.2-31.9V541h-48.7v11h36.5l-0.1,0.5c-1.2,7.6-5.3,14.4-11.3,19.2 c-6.2,4.9-14.4,7.4-24.3,7.4c-11.7,0-21.3-3.8-28.7-11.2s-11.1-16.7-11.1-27.8s3.7-20.4,11-27.8c7.3-7.5,16.8-11.2,28.2-11.2 c6.7-0.1,13.3,1.6,19.1,4.9c5.6,3.2,9.9,7.5,12.8,12.7l10.6-6.2c-4.1-6.9-9.9-12.6-17.3-16.8C790.6,491.3,782,489,773.2,489.1 L773.2,489.1z"></path> <path style="fill:#EA3358;" d="M896.4,590h-60v-99.9h59.3v13.3h-45.3V533h41.8v13.1h-41.8v30.6h46V590z M837.2,589.2h58.3v-11.6 h-46v-32.3h41.8v-11.5h-41.8v-31.3h45.3v-11.6h-57.6V589.2z"></path> <path style="fill:#EA3358;" d="M984.7,590h-15.5L947,552.1h-22.7V590h-14v-99.9h40.1c8.6,0,16,3.1,22.1,9.1s9.2,13.5,9.2,22 c0,6.4-2,12.6-5.8,17.8c-3.6,5.1-8.7,9-14.5,11.2L984.7,590z M969.6,589.2h13.6L960,549.7l0.5-0.2c5.9-2.1,11-5.9,14.6-11 c3.7-5,5.7-11.1,5.7-17.3c0-8.3-3-15.5-8.9-21.4c-5.7-5.8-13.4-9-21.5-8.9h-39.2v98.3h12.3v-37.9h24L969.6,589.2z M950.3,540.2 h-26.9v-37.8h26.9c4.9-0.1,9.5,1.9,12.8,5.5c3.5,3.6,5.4,8.3,5.3,13.3c0.1,5-1.8,9.8-5.3,13.4C959.8,538.2,955.2,540.3,950.3,540.2 z M924.2,539.4h26.1c4.6,0.1,9.1-1.9,12.2-5.3c3.3-3.4,5.1-8,5.1-12.8c0.1-4.7-1.7-9.3-5.1-12.7c-3.2-3.4-7.6-5.3-12.2-5.3h-26.1 V539.4z"></path> </g> <g> <path style="fill:#EA3358;" d="M53.5,490.5c13.5,0,24.7,4.8,33.6,14.4c8.9,9.6,13.4,21.3,13.4,35.2c0,13.9-4.5,25.6-13.4,35.2 S67,589.6,53.5,589.6H14.9v-99.1L53.5,490.5L53.5,490.5z M53.5,577.2c10.1,0,18.4-3.5,24.8-10.6s9.6-15.9,9.6-26.5 s-3.2-19.4-9.6-26.5c-6.4-7.1-14.7-10.6-24.8-10.6H28.1v74.2H53.5z"></path> <path style="fill:#EA3358;" d="M174.6,589.6l-22.2-37.9H129v37.9h-13.2v-99.1h39.6c8.5,0,15.8,3,21.8,9s9.1,13.2,9.1,21.7 c0,6.3-2,12.5-5.7,17.6c-3.7,5.2-8.8,9.1-14.8,11.2l23.4,39.6L174.6,589.6L174.6,589.6z M129,502.8v36.9h26.5 c4.9,0,9.1-1.8,12.5-5.4c3.4-3.5,5.3-8.2,5.2-13.1c0.1-4.9-1.8-9.6-5.2-13c-3.2-3.5-7.8-5.4-12.5-5.4L129,502.8z"></path> <path style="fill:#EA3358;" d="M270.4,589.6l-8.1-22.2h-44.6l-8.1,22.2h-14l36.9-99.1h14.9l36.9,99.1H270.4z M222.2,555.1h35.5 l-17.8-48.8L222.2,555.1z"></path> <path style="fill:#EA3358;" d="M385.7,540.5v5.9c0,12.9-4.4,23.7-13.3,32.2s-20.6,12.8-35.2,12.8c-15.1,0-27.6-5-37.4-14.9 c-9.9-10-14.8-22.1-14.8-36.5c0-14.3,4.9-26.5,14.8-36.5c9.9-10,22.2-14.9,37.2-14.9c8.8-0.1,17.5,2.2,25.2,6.6 c7.6,4.4,13.5,10.2,17.7,17.3l-11.3,6.7c-2.8-5.4-7.1-9.7-12.8-13c-5.8-3.3-12.3-5-18.9-4.9c-11.3,0-20.6,3.7-27.9,11.1 s-10.9,16.6-10.9,27.5s3.7,20.1,11,27.5s16.8,11,28.4,11c9.9,0,17.9-2.4,24.1-7.3c6-4.6,10-11.4,11.2-18.9h-36.4v-11.9h49.3V540.5z "></path> <path style="fill:#EA3358;" d="M483,576.4c-10,10-22.1,15-36.5,15c-14.3,0-26.5-5-36.4-15s-14.9-22.1-14.9-36.4 c0-14.3,5-26.5,14.9-36.5c9.9-10,22-14.9,36.4-14.9c14.3,0,26.5,5,36.5,14.9c10,9.9,14.9,22.1,14.9,36.5 C497.9,554.3,492.9,566.4,483,576.4z M419.3,567.5c7.3,7.4,16.4,11.1,27.2,11.1c10.9,0,19.9-3.7,27.3-11.1c7.3-7.4,11-16.5,11-27.4 s-3.7-20.1-11-27.5s-16.4-11.1-27.3-11.1s-19.9,3.7-27.2,11.1s-11,16.6-11,27.5C408.3,550.9,412,560,419.3,567.5L419.3,567.5z"></path> <path style="fill:#EA3358;" d="M574.7,490.5h13.2v99.1h-10.6l-51-74v74h-13.2v-99.1h10.6l51,73.9V490.5z"></path> <path style="fill:#EA3358;" d="M53.5,490.5c13.5,0,24.7,4.8,33.6,14.4c8.9,9.6,13.4,21.3,13.4,35.2c0,13.9-4.5,25.6-13.4,35.2 S67,589.6,53.5,589.6H14.9v-99.1L53.5,490.5L53.5,490.5z M53.5,577.2c10.1,0,18.4-3.5,24.8-10.6s9.6-15.9,9.6-26.5 s-3.2-19.4-9.6-26.5c-6.4-7.1-14.7-10.6-24.8-10.6H28.1v74.2H53.5z"></path> <path style="fill:#EA3358;" d="M174.6,589.6l-22.2-37.9H129v37.9h-13.2v-99.1h39.6c8.5,0,15.8,3,21.8,9s9.1,13.2,9.1,21.7 c0,6.3-2,12.5-5.7,17.6c-3.7,5.2-8.8,9.1-14.8,11.2l23.4,39.6L174.6,589.6L174.6,589.6z M129,502.8v36.9h26.5 c4.9,0,9.1-1.8,12.5-5.4c3.4-3.5,5.3-8.2,5.2-13.1c0.1-4.9-1.8-9.6-5.2-13c-3.2-3.5-7.8-5.4-12.5-5.4L129,502.8z"></path> <path style="fill:#EA3358;" d="M270.4,589.6l-8.1-22.2h-44.6l-8.1,22.2h-14l36.9-99.1h14.9l36.9,99.1H270.4z M222.2,555.1h35.5 l-17.8-48.8L222.2,555.1z"></path> <path style="fill:#EA3358;" d="M385.7,540.5v5.9c0,12.9-4.4,23.7-13.3,32.2s-20.6,12.8-35.2,12.8c-15.1,0-27.6-5-37.4-14.9 c-9.9-10-14.8-22.1-14.8-36.5c0-14.3,4.9-26.5,14.8-36.5c9.9-10,22.2-14.9,37.2-14.9c8.8-0.1,17.5,2.2,25.2,6.6 c7.6,4.4,13.5,10.2,17.7,17.3l-11.3,6.7c-2.8-5.4-7.1-9.7-12.8-13c-5.8-3.3-12.3-5-18.9-4.9c-11.3,0-20.6,3.7-27.9,11.1 s-10.9,16.6-10.9,27.5s3.7,20.1,11,27.5s16.8,11,28.4,11c9.9,0,17.9-2.4,24.1-7.3c6-4.6,10-11.4,11.2-18.9h-36.4v-11.9h49.3V540.5z "></path> <path style="fill:#EA3358;" d="M483,576.4c-10,10-22.1,15-36.5,15c-14.3,0-26.5-5-36.4-15s-14.9-22.1-14.9-36.4 c0-14.3,5-26.5,14.9-36.5c9.9-10,22-14.9,36.4-14.9c14.3,0,26.5,5,36.5,14.9c10,9.9,14.9,22.1,14.9,36.5 C497.9,554.3,492.9,566.4,483,576.4z M419.3,567.5c7.3,7.4,16.4,11.1,27.3,11.1s19.9-3.7,27.2-11.1c7.3-7.4,11-16.5,11-27.4 s-3.7-20.1-11-27.5s-16.4-11.1-27.2-11.1c-10.9,0-19.9,3.7-27.3,11.1c-7.3,7.4-11,16.6-11,27.5C408.3,550.9,412,560,419.3,567.5z"></path> <path style="fill:#EA3358;" d="M574.7,490.5h13.2v99.1h-10.6l-51-74v74h-13.2v-99.1h10.6l51,73.9V490.5z"></path> <path style="fill:#EA3358;" d="M53.5,590h-39v-99.9h39.1c13.6,0,25,4.9,33.9,14.5c9,9.6,13.5,21.6,13.5,35.5 c0,13.9-4.5,25.9-13.5,35.5C78.5,585.2,67.1,590,53.5,590z M15.3,589.2h38.2c13.3,0,24.5-4.8,33.3-14.2 c8.8-9.5,13.3-21.2,13.3-34.9s-4.5-25.4-13.3-34.9c-8.8-9.4-20-14.2-33.3-14.2H15.3V589.2z M53.5,577.6H27.6v-75h25.9 c10.2,0,18.6,3.6,25.1,10.8c6.5,7.1,9.7,16.1,9.7,26.8c0,10.6-3.3,19.6-9.7,26.8C72.2,574,63.7,577.6,53.5,577.6z M28.5,576.7h25.1 c9.9,0,18.2-3.5,24.5-10.5c6.3-7,9.5-15.8,9.5-26.2s-3.2-19.2-9.5-26.2c-6.3-7-14.5-10.5-24.5-10.5H28.5V576.7z"></path> <path style="fill:#EA3358;" d="M189.9,590h-15.6l-22.2-37.9h-22.7V590h-14v-99.9h40.1c8.6,0,16,3.1,22.1,9.1s9.2,13.5,9.2,22 c0,6.4-2,12.6-5.8,17.8c-3.6,5.1-8.7,9-14.5,11.2L189.9,590z M174.9,589.2h13.6l-23.2-39.4l0.5-0.2c5.9-2.1,11-5.9,14.6-11 c3.7-5,5.7-11.1,5.7-17.3c0-8.3-3-15.5-8.9-21.4c-5.7-5.8-13.4-9-21.5-8.9h-39.2v98.2h12.3v-37.9h24L174.9,589.2z M155.5,540.2 h-26.9v-37.8h26.9c4.9-0.1,9.5,1.9,12.8,5.5c3.5,3.6,5.4,8.4,5.3,13.3c0.1,5-1.8,9.8-5.3,13.4C165,538.2,160.4,540.3,155.5,540.2z M129.5,539.4h26c4.6,0.1,9.1-1.9,12.2-5.3c3.3-3.4,5.1-8,5-12.8c0.1-4.7-1.7-9.3-5-12.7c-3.1-3.4-7.6-5.3-12.2-5.2h-26V539.4z"></path> <path style="fill:#EA3358;" d="M285,590h-14.9l-8.1-22.2h-44l-8.1,22.2H195l0.2-0.6l37.1-99.4h15.5l0.1,0.3L285,590z M270.7,589.2 h13.1L247.2,491h-14.3l-36.6,98.2h13.1l8.1-22.2h45.2L270.7,589.2z M258.4,555.5h-36.8l18.3-50.5L258.4,555.5z M222.8,554.6h34.3 l-17.2-47.2L222.8,554.6z"></path> <path style="fill:#EA3358;" d="M337.1,591.9c-15.2,0-27.9-5.1-37.7-15.1s-14.9-22.4-14.9-36.8c0-14.4,5-26.8,14.9-36.8 c9.9-10,22.5-15.1,37.5-15.1c8.9-0.1,17.7,2.2,25.4,6.6c7.7,4.4,13.7,10.3,17.9,17.5l0.2,0.4l-12.1,7.1l-0.2-0.4 c-2.8-5.3-7-9.6-12.6-12.8c-5.7-3.2-12.1-4.9-18.7-4.8c-11.2,0-20.4,3.7-27.6,11c-7.1,7.3-10.8,16.5-10.8,27.2 c0,10.8,3.6,19.9,10.8,27.2s16.6,10.9,28.1,10.9c9.8,0,17.8-2.4,23.8-7.2c5.8-4.5,9.7-10.9,10.9-18.1h-36.3v-12.8h50.4v6.4 c0,13-4.5,23.9-13.4,32.5C363.7,587.5,351.8,591.9,337.1,591.9z M336.8,489.1c-14.7,0-27.1,5-36.9,14.8c-9.7,9.8-14.7,22-14.7,36.1 s4.9,26.3,14.7,36.1c9.7,9.8,22.2,14.8,37.1,14.8c14.4,0,26.2-4.3,34.9-12.7c8.7-8.4,13.2-19.1,13.2-31.9v-5.5h-48.7v11H373 l-0.1,0.5c-1.2,7.6-5.3,14.4-11.3,19.2c-6.2,4.9-14.4,7.4-24.3,7.4c-11.7,0-21.3-3.8-28.7-11.2s-11.1-16.8-11.1-27.8 s3.7-20.4,11-27.8c7.3-7.5,16.8-11.2,28.2-11.2c6.7-0.1,13.3,1.6,19.1,4.9c5.6,3.2,9.9,7.5,12.8,12.7l10.6-6.2 c-4.1-6.9-9.9-12.6-17.3-16.8C354.2,491.3,345.6,489,336.8,489.1z"></path> <path style="fill:#EA3358;" d="M446.5,591.9c-14.4,0-26.7-5.1-36.7-15.1c-9.9-10-15-22.4-15-36.7c0-14.4,5-26.8,15-36.8 c10-10,22.3-15.1,36.7-15.1s26.8,5.1,36.8,15.1c10,10,15.1,22.4,15.1,36.8c0,14.3-5.1,26.6-15.1,36.7 C473.3,586.8,460.9,591.9,446.5,591.9z M446.5,489.1c-14.2,0-26.3,5-36.1,14.8c-9.8,9.8-14.7,22-14.7,36.1s5,26.2,14.7,36.1 c9.8,9.9,21.9,14.9,36.1,14.9s26.3-5,36.1-14.9l0.3,0.3l-0.3-0.3c9.8-9.9,14.8-22,14.8-36.1c0-14.2-5-26.3-14.8-36.1 C472.8,494.1,460.7,489.1,446.5,489.1z M446.5,579c-10.9,0-20.2-3.8-27.6-11.2c-7.4-7.5-11.1-16.8-11.1-27.7 c0-11,3.7-20.4,11.1-27.8c7.4-7.5,16.6-11.2,27.6-11.2c10.9,0,20.2,3.8,27.6,11.2c7.4,7.4,11.1,16.8,11.1,27.8 c0,10.9-3.7,20.2-11.1,27.7C466.7,575.2,457.4,579,446.5,579z M446.5,501.8c-10.7,0-19.7,3.7-26.9,11c-7.2,7.3-10.8,16.5-10.8,27.2 s3.6,19.8,10.8,27.1l0,0c7.2,7.3,16.3,11,26.9,11c10.7,0,19.7-3.7,26.9-11c7.2-7.3,10.8-16.4,10.8-27.1c0-10.8-3.6-19.9-10.8-27.2 C466.2,505.5,457.2,501.8,446.5,501.8z"></path> <path style="fill:#EA3358;" d="M588.3,590H577l-0.1-0.2L526.8,517v73h-14v-99.9H524l50.3,72.9v-72.9h14V590z M577.5,589.2h10V491 h-12.3v74.8L523.6,491h-10v98.2h12.3v-75L577.5,589.2z"></path> </g> <path style="fill:#EA3358;" d="M512.5,456l-0.4,1.1L512.5,456c-1.3-0.4-2.5-1-3.6-1.7c-1.3-0.8-2.5-1.8-3.5-3 c-0.9-1-1.6-1.6-2.6-1.4c-0.2,0-0.4,0.1-0.5,0.2c-0.6,0.4-0.9,1.1-0.9,1.8c0,0.8,0.1,1.6,0.4,2.4c0.1,0.4,0.2,0.9,0.4,1.4 c0.3,1,0.7,2,1.1,3c0.4,0.7,1,1.3,1.6,1.7c0.1,0.1,0.2,0.1,0.3,0.2c1.1,0.5,2.3,0.3,4.3,0c0.9-0.1,1.8-0.3,2.7-0.5 c1.3-0.4,2.2-0.9,2.4-2C514.8,456.8,513.7,456.4,512.5,456z M589.2,375.4c-0.2-3.3-0.6-6.5-1.1-9.8l-1-6.6l-0.7,6.5 c-0.2,2.2-0.7,4.3-1.4,6.4c-0.6,1.7-1.6,3.6-2.5,3.9c-0.2,0.1-0.4,0.1-0.5,0.1l0,0c-0.2,0-0.3-0.2-0.6-0.4c-0.2-0.2-0.4-0.5-0.7-0.6 c-0.2-0.1-0.5-0.2-0.8-0.2l0.8-1.2c0.8-1.2,1.5-2.5,2-3.8c0.2-0.5,0.3-0.8,0.6-2.1c0.1-0.5,0.3-1.1,0.5-1.9s0.4-1.4,0.5-1.8 c0.2-0.6,0.5-1.1,0.8-1.6c0.4-0.6,0.8-1.1,1.3-1.6l0.4-0.4l-0.2-0.6c-0.8-2.8-1.7-5.6-2.8-8.3l-0.1-0.2l-0.2-0.2 c-4-4.1-7.1-5.6-9.4-4.8c-0.5,0.2-1,0.5-1.5,0.8c-1.1,0.7-2.4,1.5-4,1.2l0,0c-0.2-0.6-0.7-2.4-1.1-7.4l-0.3-3.6 c0.8-0.3,1.6-0.6,2.4-0.8l0.6-0.1c-0.3,0.5-0.7,1.1-1.2,1.8c-0.5,0.8-0.8,1.3-0.6,2c0.4,1.5,2.2,1.6,4.2,1.8c0.3,0,0.7,0.1,1,0.1 c1,0.1,2.7,0.8,5.1,2.1l2.6,1.4l-1.5-2.7c-5.6-10.6-13.5-19.8-23.1-27.1c-0.6-0.5-5.5-4-5.7-4.2l-1.7-1.3l0.3,2.2 c0.1,0.8,0.2,1.5,0.2,2.3c0,0.6,0.1,1.3,0.2,1.9c0.1,0.6,0.3,1.1,0.4,1.5c0.3,1.4,0.4,1.8,0.3,2.3c-0.2,0.6-0.5,1.1-1,1.5 c-0.5,0.5-1,1-1.4,1.6c-0.3,0.6-0.5,1.2-0.6,1.8c-0.1,0-0.1-0.1-0.2-0.1c-1-0.3-1.3,0.7-1.5,1.6c-0.2,0.6-0.4,1.5-0.7,2.4 c-0.2,0.6-0.4,1.3-0.5,1.9c-0.1,0.5-0.3,0.9-0.4,1.4c-0.2-0.6-0.3-1.2-0.4-1.8c-0.1-0.5,0-1,0.2-1.4c0.3-0.9,0.4-1.8,0.3-2.7 c-0.2-2.1-0.1-2.4,0.2-2.8c0.2-0.4,0.4-0.8,0.6-1.3c0.3-1,0.8-1.9,1.3-2.7c0.2-0.4,0.4-0.7,0.7-1.2c0.8-1.5,0.4-3,0-4.1 c-0.1-0.4-0.2-0.7-0.3-1.1c0-0.7-0.1-2.7-0.1-3.6v-0.7l-0.6-0.3c-0.4-0.2-3.3-1.5-3.7-1.7c-8.2-3.8-17-6.1-25.9-6.8l-1.7-0.1 c0-0.6,0-1,0.1-1.2l0,0c0.2-1,0.4-2.4-0.6-2.9c-0.4-0.2-0.9-0.2-1.5,0.4c-0.2,0.2-0.4,0.7-1.4,3l-0.1-0.3c-0.3-0.6-0.6-1.4-0.7-1.6 s-0.2-0.5-0.3-0.9c-0.7-2.1-1-3-1.7-3.3c-0.2-0.1-0.4-0.3-0.5-0.5c-0.4-0.9-0.6-1.9-0.7-2.9c0-0.1,0-0.2,0-0.2 c0-0.2-0.1-0.5-0.2-0.9c-0.2-0.7-0.3-1.5-0.3-2.2c0,0,0-0.2,0-0.4c-0.1-0.9-0.1-1.9,0-2.8v-0.1c0.2-0.8,0.4-2-0.6-2.5 c-0.9-0.5-1.6,0.4-1.9,0.7c-0.2,0.3-0.4,0.8-0.8,4c0,0.2,0,0.4-0.1,0.5c-0.1,0.5-0.2,1-0.3,1.5l0,0c-0.4-0.4-0.6-0.7-0.7-0.8v-0.1 c-0.1-0.2-0.2-0.4-0.3-0.6c0,0-0.1-0.1-0.2-0.3c-0.5-0.6-0.9-1.2-1.2-1.8c-0.3-0.7-1.2-1.4-3.5-2.9c-1-0.7-2.5-1.7-2.8-2 c-2.5-3.6-4.7-8.4-5.9-10.9c-0.4-1-0.7-1.6-0.9-1.9l-0.5-1l-0.9,0.4c-0.3,0.1-0.6,0.3-0.8,0.5l-0.2,0.2v0.3c0,1.6,2.8,8.3,4,10.7 c1.1,2.1,2.6,4,4.3,5.6l0,0v0.1l0.4,0.3c1.3,1.1,4.2,4.4,5.2,6.7c0.4,0.9,1.1,2.1,2,3.8c0.3,0.5,0.5,0.9,0.8,1.3 c0.3,0.5,0.6,1.1,0.7,1.2c0.1,0.3,0.5,1.3,1,2.7v0.1c0.6,1.3,1.3,2.6,2,3.9c0.1,0.3,0.3,0.5,0.4,0.8c-0.9-1-1.8-1.9-2.8-2.8 c-0.8-0.7-1.7-1.4-2.6-2.1l-1.3-1l-0.3,1.5c-0.1,0.5,0,0.6,0.8,1.9c0.2,0.3,0.3,0.5,0.5,0.9c0.6,1,0.9,1.6,1.3,2.3 c0.2,0.3,0.4,0.7,0.6,1.1c0.3,0.5,0.5,1,0.8,1.4c-1.3-0.7-2.6-1.2-4.1-1.5l-1.7-0.4c-0.1-0.3-0.1-0.6-0.2-0.9c0-0.2,0-0.3,0-0.5 c0.1-0.5,0-1.1-0.3-1.6s-0.8-0.8-1.3-0.9c-0.4,0-0.8,0.1-1.1,0.5c-1,1.4-1.5,3-1.4,4.7c-0.6-0.5-1.1-1.2-1.5-1.9 c-0.2-0.4-0.5-1.2-0.9-2.1c-0.9-2-2-4.5-2.7-5.8c-0.2-0.3-0.3-0.7-0.4-1c-0.7-2.1-1-5.4-0.7-6.9v-0.2c0.2-0.7,0.1-1.4-0.4-2 l-0.7-0.8l-0.8,0.5c-1,0.6-1.3,2-1.6,3.3c-0.2,1.6-0.2,3.1,0,4.7c0.1,0.6,0.1,1.2,0.1,1.8c0,0,0,0.1,0,0.2c0,0.3,0,0.6,0,0.9 c0.1,0.3,0.2,0.6,0.4,0.9c0,0,0,0,0,0.1c0.2,0.4,0.8,1.6,1.2,2.6c-0.4-0.2-0.7-0.5-1.1-0.8c-1.1-0.9-2.1-1.9-3.1-2.9 c-0.2-0.3-0.4-0.5-0.6-0.6c-0.1-0.1-8.5-9.9-9.2-10.4c-0.8-0.6-1.7-1.1-2.6-1.6l-0.2-0.1c-3.6-2.2-7.2-7.3-7.6-8.5 c-0.5-1.2-1.2-2.2-2.2-3c0,0-0.1,0-0.1-0.1l-0.7-0.6l-0.7,0.4c-0.3,0.2-0.5,0.5-0.5,0.8c-0.1,1.1,2.7,8.1,5.2,10.6 c0.3,0.3,1.1,1,2.4,2.2c1.4,1.2,3.1,2.7,3.6,3.3c1.1,1.2,3,4.3,4.3,6.4c1.1,1.8,1.4,2.2,1.6,2.5c0.1,0.1,0.2,0.2,0.4,0.4 c0.4,0.3,0.9,0.8,1.6,1.4c4.1,3.6,5.2,4.9,5.5,5.4c0.3,0.4,0.5,0.8,0.8,1.3c0.5,1,1.2,1.9,2,2.6c0.5,0.8,2.1,5,2.8,7 c1.1,3.1,1.2,3.2,1.4,3.5c0.9,1.1,2.7,2.2,4.3,3.2c0.8,0.5,1.5,1,2,1.4c0.1,0.1,0.2,0.2,0.4,0.2c0.4,0.2,0.8,0.5,1.2,0.9 c0.1,0.2,0.3,0.4,0.4,0.5c-1.1-0.3-2.2-0.7-3.2-1.2c-3.1-1.5-5.8-4.1-8.1-7.7l-2.1-3.4l0.1,3.9c0,1,0.2,2.1,0.4,3.1 c-0.9-1.4-2.3-2.5-3.9-3.2c-1.7-0.7-3.1-0.3-4.5,0c-1.5,0.4-3.1,0.6-4.7,0.5c-1-0.1-2-0.3-3-0.6c-1.1-0.4-2.2-0.6-3.3-0.7 c-2.9-0.3-5.9,0.1-8.6,1c0-0.2,0-0.4,0-0.6c0-4.8,5.3-9.3,5.6-9.6c0.6-0.5,1.3-0.9,2.1-1.2c0.3-0.1,0.6-0.3,0.9-0.4 c1.6-0.7,3.3-1.3,5-1.7l8.5-1.9l-8.8-0.3c-1.8-0.1-3.6,0.1-5.4,0.4c-1.5,0.3-3,0.7-4.4,1.2c-3.3,1.3-6,3.8-7.7,6.9 c-1.4,2.7-2,5.8-1.7,8.9l-0.1,0.1l0.3,1c0.3,1.2,0.8,2.4,1.5,3.5c-1.3,0.4-2.6,1-3.8,1.6c-2.4,1.3-4.5,2.8-7.3,5 c-1.9,1.5-4.5,3-5.4,3.1l0,0c-0.3,0-0.7,0.1-1,0.2s-0.7,0.1-1,0.1c-0.6-0.1-1.1,0.2-1.4,0.7c-0.2,0.4-0.2,0.9,0,1.3 c0.5,0.8,1.3,1.3,2.2,1.4c0.3,0,0.5,0,0.8,0c0.4,0,0.7,0,1.1-0.1c0.6,0,1.1-0.1,1.6-0.1c1.9,0,3.8-0.3,5.6-0.9 c1.4-0.5,2.9-0.9,4.4-1.2c-0.9,0.9-1.9,1.7-3.1,2.1l0,0c-1.1,0.4-2.2,0.9-3.3,1.4c-1.6,0.7-3.2,1.4-4.9,1.9c-4.3,1.4-7.8,4-10.7,8.1 c-1,1.4-1.9,2.7-3.2,3.7c-0.4,0.3-0.6,0.7-0.7,1.1c0,0.4,0.2,0.8,0.5,1.1l0.6,0.6l0.8-0.3c0.9-0.3,1.7-0.7,2.5-1.2l0.2-0.1 c1-0.6,2.1-1.3,3.1-1.9c2.5-1.4,4.4-2.1,6.5-1.7c0.1,0,0.2,0,0.3,0.1c-0.8,1.1-1.8,2.1-2.9,2.9c-0.2,0.1-0.4,0.2-0.5,0.4l-0.5,0.3 c-0.2,0.1-0.4,0.2-0.5,0.3c-2.7,1.8-4.8,3.3-6.7,4.9c-2.3,1.8-4.2,4-6.1,6.1l-0.3,0.3c-1.3,1.4-3,2.2-4.9,2.3c-0.8,0-1.7,0-2.5-0.1 h-0.2c-0.1,0-0.1,0-0.2,0c-1.1-0.2-1.9,0.1-2.3,0.9c-0.2,0.5-0.4,1.4,0.9,2.1c0,0,0.1,0,0.1,0.1c1.1,0.8,2.4,1.4,3.8,1.7 c0.2,0.1,0.5,0.1,0.7,0.2c1.9,0.5,4,1.1,6.2,0.5c1.5-0.4,2.9-1,4.2-1.8l0.3-0.1c0.6-0.4,1.3-0.6,2-0.8c-0.7,1.7-1.5,3.4-2.5,5.1 l-0.1,0.1c0,0,0,0.1-0.1,0.1c-0.7,1.1-1.4,2.1-2.3,3c-2.2,2.3-3.9,5-5.1,7.9c-1,2.3-1.8,4.6-2.5,7c-0.5,2.1-1.2,3.5-2.6,4.5 c-0.3,0.2-0.5,0.5-0.6,0.9l-0.8,1.7l1.9,0.1c1.7,0,2.6-0.2,3.7-1.6c1.5-2,3.1-3.8,4.9-5.5c0.7-0.6,1.5-1.2,2.4-1.6 c0.1,0.6,0.2,1.2,0.3,1.8c0,0.3,0.1,0.5,0.1,0.8c0,0.2,0.1,0.4,0.1,0.5c0.1,0.6,0.1,1.1,0.2,1.8c0,0.3,0,0.5,0,0.8 c-0.3,2.5-1.1,4.9-2.3,7.1c-1,1.8-1.7,3.6-2.2,5.6c-0.7,3.5,0,7,2.3,10.5c0.3,0.5,1,0.7,1.5,0.5l1.2-0.2l-0.1-1.2c0-0.2,0-0.5,0-0.7 c0-0.6-0.1-1.2-0.1-1.7c-0.2-1.4,0.2-2.7,1.3-3.8c0.5-0.6,1.1-1.1,1.8-1.7c0.1-0.1,0.2-0.2,0.4-0.3c0.3,2.5,0.7,6.9,0.8,8.9 c0.1,1.1,0.1,1.9,0.2,2.2c0.3,2.8,1.3,5.6,3.1,8.7c0.7,1.2,3.1,3.2,4.3,3.8l2.3,1.2l-0.4-2.6c-0.2-1.1-0.4-2.1-0.7-3.1 c-0.3-0.8-0.5-1.7-0.6-2.6c0-0.2,0-0.3,0-0.5c0.5,0.6,1,1.3,1.4,1.8c7,8.6,15.8,14.8,25.5,18c0.5,0.2,1,0.3,1.6,0.4 c0.5,0.1,0.9,0.1,1.4,0.1h2.2l-3.8-6.6l-0.9-1.8c-0.2-0.5-0.4-0.8-0.6-1.1c-0.8-1.8-1.6-3.6-2.2-5.4c-0.6-2-1.1-4-1.5-6 c-0.9-4.1-1.5-8.3-1.7-12.6c-0.5-7.2,0.2-14.4,1.8-21.4c0.5-1.9,1.1-3.7,1.8-5.5v-0.1c0.6-1.7,1.2-3.3,1.8-5c0.4-1.1,0.8-2,1.2-2.9 c0.2-0.4,0.3-0.7,0.5-1c0.5-1.1,1-2.2,1.6-3.3l0.2-0.3c0.6-1.1,1.3-2.2,2.1-3.2c0.2-0.3,0.5-0.6,0.7-1c0.4-0.7,0.9-1.3,1.4-1.9 c0.2-0.2,0.4-0.4,0.6-0.6l0.5-0.4l-0.1-0.6c-0.1-0.7-0.3-1.4-0.3-2.1c0.3,1.8,1.1,3.6,2.3,5l0.7,0.9c-0.1,0.3-0.1,0.5-0.1,0.8l0,0 c0,0.1,0,0.2,0,0.2c0,0.1,0,0.1,0,0.2c0.2,0.8,0.6,1.4,4.6,5.3c0.4,0.4,0.7,1,0.7,1.6c-0.1-0.2-0.2-0.4-0.3-0.6 c-0.7-0.9-1.4-1.8-2.3-2.7c-0.3-0.3-0.5-0.5-0.8-0.8s-0.5-0.5-0.8-0.8c-0.2-0.2-0.5-0.4-0.7-0.7l-0.1-0.1l-0.1-0.1 c-0.6-0.4-1.6-0.6-2.8,0.4c-2,1.9-3.3,3.6-4.8,5.7c-0.8,1.1-1.4,2.2-1.8,3.4v0.1l-0.1,0.4l0.1,0.3c0.6,2.4,1.6,3.2,4.1,3.3 c0.8,0,1.1,0.2,1.3,0.5c0.3,0.4,0.7,0.7,1.1,0.9c0.1,0.1,0.2,0.1,0.3,0.2c0.3,0.2,0.5,0.6,0.6,1c-0.1-0.1-0.3-0.2-0.4-0.3 c-0.3-0.2-0.6-0.4-0.9-0.6c-0.1-0.1-0.2-0.1-0.3-0.2c-0.5-0.3-1.1-0.6-1.6-0.8c-0.8-0.4-1.6-0.8-2.4-1.3c-0.5-0.3-1.1-0.4-1.7-0.3 s-1.2,0.5-1.5,1l0,0c-1.1,2.1-2.1,4.3-2.8,6.6c-0.5,1.6-0.7,3.3-0.6,4.9v0.6l0.5,0.3c0.1,0.1,0.2,0.2,0.4,0.3 c0.4,0.3,0.9,0.6,1.4,0.8c1,0.3,2,0.4,3,0.2c2-0.3,3.4,0.3,4.5,2c0.1,0.1,0.1,0.2,0.1,0.4c-1.9-0.2-3.7-0.9-5.4-1.7 c-1.1-0.5-2.4-0.6-3.6-0.3c-0.9,0.2-1.7,0.9-1.8,1.9c-0.1,0.5-0.1,0.9-0.2,1.4c-0.1,0.8-0.2,1.6-0.3,2.4c-0.5,4.1-0.5,7.7,0.7,11.5 c0.3,0.9,0.7,1.8,1.3,2.5l0.2,0.2l0.2,0.1c1.5,0.6,2.9,0.2,3.9-0.3c2-0.8,4-1.4,6-1.9l0.4-0.1c0.9-0.3,1.9,0,3.1,0.8l0.2,0.1 c-0.3,0-0.6,0.1-0.9,0.1c-0.2,0-0.4,0.1-0.6,0.1c-2.6,0.4-5,1.1-7.3,2.3l0,0c-0.9,0.5-1.7,0.9-2.5,1c-0.7,0-1.4,0.4-1.8,0.9 c-0.4,0.7-0.5,1.4-0.2,2.1c1.5,5.1,2.1,6.9,2.4,7.6l0,0c0.1,0.1,0.1,0.2,0.2,0.3c0.1,0.2,0.2,0.4,0.3,0.5c0.1,0.3,0.2,0.5,0.3,0.8 c0.3,0.8,0.6,1.5,0.9,2.3c0.4,1.1,1.3,2.5,3.6,2.4c0.5,0,1-0.1,1.5-0.2c0.9-0.2,1.8-0.7,2.5-1.4l0.7-0.7c1.3-1.3,2.6-2.7,3.9-3.9 c0.2-0.2,0.5-0.4,0.8-0.5l0.1-0.1l0.1-0.1c0.6-0.5,1.4-0.7,2.2-0.5c0.7,0.2,1.4,0.4,2,0l0,0c0,0.3,0.1,0.6,0.1,0.8 c0.1,0.4,0.1,0.8,0.2,1.1c-1.9-1.5-3.8-0.3-5.5,0.7c-0.6,0.4-1.2,0.8-1.8,1.3c-0.4,0.4-0.9,0.7-1.3,1.1c-0.5,0.5-1,0.9-1.5,1.3 c-0.7,0.6-1.4,1-2.3,1.2c-0.4,0-0.7,0.1-1.1,0c-0.6-0.1-1.2,0.1-1.6,0.6c-0.5,0.7-0.2,1.4,0.1,1.9c0.3,0.6,0.6,1.3,0.9,2.1 c0.3,0.6,0.5,1.3,0.7,1.9c0.1,0.3,0.2,0.7,0.4,1l0.1,0.2c0.8,2,1.7,4.5,4.5,5.6h0.1l0.4,0.1l0.4-0.1c1.1-0.3,2.1-0.9,3-1.6l-0.2,0.2 l-1.5,1.6l2,0.4c0.4,0.1,0.7,0.1,1,0.2c0.6,0.1,1.2,0.2,1.8,0.4c3,0.9,6,0.9,9,1c2.1,0,4.3,0.2,6.4,0.5c0.3,0,0.5,0,0.8,0 c0.3-0.1,0.6-0.3,0.8-0.6c0.4-0.5,0.4-1.2,0.1-1.8c-0.3-0.9-0.5-1.9-0.5-2.8v-0.4c0-0.7,0-1.3-0.2-1.9c0-0.2-0.1-0.4-0.2-0.5 c-0.9-2.9-2.8-5.2-4.7-7.4c-0.3-0.4-0.9-0.7-1.4-0.6c0.1-0.2,0.2-0.5,0.2-0.7l0.1-0.3l-0.1-0.3c-0.1-0.4-0.3-0.7-0.5-1.1 c-0.2-0.3-0.3-0.6-0.5-0.8c-1.7-2.9-3.3-5.6-3.9-8.9c0-0.6-0.4-1.1-0.9-1.3c-0.8-0.3-1.5,0.1-1.8,0.3c-0.1,0.1-0.2,0.1-0.3,0.2 c0.1-0.6,0.3-1.2,0.4-1.8c0.6-3.2-0.4-5.8-2.9-7.9c-0.7-0.6-1.4-1.1-2.1-1.7c-0.3-0.2-0.5-0.4-0.8-0.6c0,0,0,0-0.1,0 c-0.5-0.5-1.3-0.7-1.9-0.3v-0.1l0.1-0.7l-0.5-0.4c-0.2-0.2-0.5-0.4-0.7-0.5l-0.1-0.1c-0.8-0.6-1.5-1.2-2.1-1.9 c-0.8-0.8-1.3-1.9-1.5-3c-0.1-0.8-0.2-1.7-0.1-2.5l0.9,1.5c1.2,1.9,2.5,3.6,4.1,5.2c1.3,1.3,2.5,2.2,6.2,4.7 c0.9,0.6,1.7,1.1,2.4,1.6c2.8,1.9,4.6,3.1,5.5,4.1l-1.1,2.4v0.3c0.1,0.9,0.3,1.7,0.6,2.5c0.3,0.7,0.6,1.3,1,1.9l0.3,0.5h0.6 c0.6,0,1.2,0.1,1.7,0.2c-0.6,0.2-1.2,0.7-1.5,1.3c-0.3,0.6-0.2,1.2,0.1,1.8c0.2,0.5,0.4,1,0.6,1.5c0.5,1.4,1.5,1.7,2.4,1.7 c1.4,0,2.7,0.3,4,0.9h-0.1c-1.1,0.2-2.2,0.4-2.7,1.4c-0.4,1,0.2,1.9,0.9,3c0.1,0.2,0.2,0.3,0.4,0.5c0.2,0.2,0.3,0.4,0.4,0.7 c0.9,1.6,2.1,2,3.8,1.3c1.7-0.7,3.6-0.7,5.3,0c-1.1,0.4-2.1,1-2.9,1.7c-0.6,0.4-0.9,1.1-1,1.8c0,0.7,0.4,1.3,1,1.7 c2,1.6,4.2,3,6.5,4.2c0.3,0.2,1.2,0.6,2,0.1s0.9-1.6,1-2.1c0-0.3,0.1-0.6,0.1-0.9c0.3,1.5,0.8,3,1.4,4.4c1,2.2,2.3,4.2,4,5.9 l2.2,2.2l-0.2-2l0,0c0.2,0.3,0.5,0.5,0.7,0.8l0.1,0.1c0.1,0.1,0.1,0.1,0.2,0.2c1.3,1.5,2.8,2.8,4.4,4c1.2,1,2.5,1.7,3.9,2.3 c0.8,0.3,1.7,0.6,2.6,0.8c1.3,0.3,2.7,0.4,4,0.2l0.9-0.2v-1.1c0,0,0-3.3-0.1-6.1v-0.2v-0.1l1.4,1.8l0.2-2.7c0.1-1.4,0.1-2.8-0.1-4.2 c-0.1-0.3-0.1-0.6-0.2-0.9v-0.1c-0.1-0.6-0.3-1.1-0.5-1.7c-0.1-0.3-0.2-0.5-0.3-0.8l2,2l-0.5-3.3c-0.1-0.6-0.3-1.6-0.6-2.5 c0.3,0.3,0.4,0.5,0.6,0.7c0.1,0.3,0.2,0.6,0.3,1s0.2,0.7,0.3,1.1l0.4,0.7l0.7-0.2c1.7-0.4,5.2-1.8,5.5-1.9s0.6-0.2,0.8-0.3l1.1-0.5 l-0.4-1.1c-0.7-2-1.7-3.4-3-4.3c-0.1-0.1-0.2-0.1-0.3-0.2c-0.1,0-0.1-0.1-0.2-0.1c0-0.1-0.1-0.2-0.1-0.6c0-0.7-0.1-1.3-0.4-1.9 c-0.2-0.5-0.4-0.9-0.8-1.3c-0.5-0.4-1-0.7-1.6-0.9c-0.6-0.2-0.9-0.3-1-0.4c-0.3-0.2-0.4-1.3-0.3-2.7c0.2,0.4,0.4,0.7,0.7,1 c0.7,0.7,1.5,1.1,2.4,1.4c0.7,0.2,1.1,0.4,1.3,0.8c0.2,0.3,0.2,0.6,0.2,1c0,0.8,0.1,1.7,0.5,2.4c0.7,1.5,1.8,2.1,2.9,2.8 c1.5,0.9,3.1,1.4,4.8,1.5h0.2l0.2-0.1c0.7-0.3,6-3.9,7.6-4.9l3.6-2.4l-4.2,0.4c-2.1,0.2-3.6-0.2-4-0.5c0.1-0.1,0.2-0.2,0.3-0.3 c0.4-0.4,1-0.9,1-1.8c0-1.5-1.6-2.1-2.8-2.5c-0.9-0.3-1.8-0.6-2.8-0.7h-0.1c0.2-0.1,0.3-0.2,0.4-0.3c0.9-0.8,0.5-1.9,0.2-3v-0.1 c1,1.8,1.6,2.5,5.5,4.3c0.3,0.1,0.8,0.9,1.2,1.5c0.9,1.4,2.3,3.6,4.3,2.6c0.2-0.1,0.2-0.1,2.1-1.8c0.5-0.4,1.1-0.9,1.2-1h0.1 l0.1-0.1c0.8-1,5.8-7.1,6-7.3l0.8-0.9l-0.9-0.7c-0.6-0.5-1.8-1.3-2.1-1.6c-3.3-3.6-5.6-4.5-6.8-4.9c0.2-0.3,0.5-0.5,0.7-0.7 c0.7-0.7,1.6-1.5,1.7-3c0.1-2.2-1.8-4.3-2.2-4.7c-0.1-0.1-0.3-0.3-0.4-0.4l-0.2-0.1c-0.3-0.2-0.6-0.4-0.9-0.5 c-0.5-0.2-1-0.5-1.4-0.8c-1.2-0.8-2.2-1.9-3-3.1l-1.2-2.5c0.2,0.2,0.3,0.4,0.5,0.5c1.1,1.2,2.4,2.4,3.5,1.7c0.7-0.5,0.8-1.5,0.6-2.7 c0.2,0.2,0.4,0.5,0.6,0.7c1.5,1.5,3.2,1.9,4.6,2.2c1.4,0.4,2.5,0.6,3.3,1.8c0.1,0.2,0.3,0.4,0.4,0.6c-1.5,2.5-1.9,5.5-1.1,8.3 c0.8,2.8,2.8,5,5.5,6.1l0.7,0.2l0.4-0.7c2.2-4,4.2-8,5.9-12.2v-0.1c0-0.2,0.1-0.3,0.1-0.5c1.5-5-4.7-10.3-5-10.5l-0.1-0.1h-0.1 c-2.1-1.2-4.4-2-6.9-2.2c-1.4-0.1-2.9-0.1-4.3,0c0.6-0.5,0.9-1.3,0.9-2.1c0-1.5-1.5-3.4-2.2-3.7h-0.1c-1.2-0.4-2.3-0.8-3.5-1.3 c0.1,0,0.2,0,0.3,0c1.8,0.2,3.6,0.3,5.4,0.3l1.8,2.3c0.5,0.6,1.1,1.2,1.8,1.6c0.1,0.1,0.2,0.1,0.2,0.2c0.7,0.5,1.4,1,2.1,1.4h0.1 h0.1c2.2,0.7,3.7,0.6,4.5-0.5c0.4-0.6,0.6-1.2,0.7-1.9c0.2,0.1,0.3,0.2,0.5,0.3c1.4,0.8,2.6,1.8,3.7,3.1c0.6,0.8,1.2,1.7,1.6,2.6 l1.1,2.2l0.6-2.4c0.8-3.4,1.4-6.9,1.8-10.3C589.5,385.9,589.6,380.6,589.2,375.4L589.2,375.4z M459.7,344.9l-0.4,1.4l0,0 c0.1-1.1,0.4-2.2,0.9-3.2l0.5-0.1C460.2,343.5,459.9,344.2,459.7,344.9L459.7,344.9z M462.9,333.8c-1.3,0.8-2.3,1.9-2.9,3.3 l-0.5,1.1c-0.3,0.1-0.6,0.1-0.8,0.2c0.4-1,0.9-1.9,1.6-2.7c0.5-0.7,1.2-1.3,2-1.7c0.2-0.1,0.5-0.2,0.7-0.2 C462.9,333.8,462.9,333.8,462.9,333.8L462.9,333.8z M462.9,323.3c-1.6,0.7-3.4,0.3-4.4,0l-0.5-0.4h-0.1c-0.5-0.4-0.9-0.9-1.3-1.5 c-0.2-0.4-0.5-0.8-0.6-1.2C458.7,320.6,461,321.6,462.9,323.3L462.9,323.3z M471.1,361.2l0.1-1.1l-0.5,0.2c0.2-0.1,0.5-0.2,0.7-0.4 C471.3,360.4,471.2,360.8,471.1,361.2L471.1,361.2z M469.4,326.2c0.3,0,0.7,0.1,1,0.1l0.8,1.1c0.2,0.3,0.4,0.5,0.7,0.8 C471,327.7,470.1,327,469.4,326.2L469.4,326.2z M558.6,343.9c0.1,0,0.3,0,0.4,0c0.6,0,1.1-0.1,1.7-0.4c1.7-0.7,3.1-3.4,3.5-4.2 c0.9-0.7,1.9-1.3,3-1.8h0.1l-1.2,3.1v0.1c-1.4,3.3-4.1,5-6,4.9c-0.2,0-0.3,0-0.5-0.1s-0.5-0.2-0.7-0.3c-0.4-0.2-0.9-0.4-1.3-0.6 c-0.2-0.1-0.5-0.3-0.8-0.4C557.3,344.1,557.9,344,558.6,343.9L558.6,343.9z M551.7,353.7c0.4-0.4,1-0.6,1.6-0.6 c0.2,0,0.4,0.1,0.5,0.2c0.3,0.2,0.7,0.3,1,0.4c2.1,0.7,4.4,0.9,6.6,0.6c0.9-0.1,1.8-0.4,2.5-0.9c0.2-0.1,0.4-0.2,0.6-0.3 c0.3-0.1,0.6-0.2,0.9-0.2c0.5,0,1.1,0.1,1.6,0.4c-0.1,0-0.2,0.1-0.3,0.1c-0.4,0.1-0.8,0.3-1.1,0.5s-0.6,0.3-0.8,0.5 c-0.2,0.1-0.4,0.3-0.6,0.4c-0.3,0.2-0.6,0.3-0.9,0.4c-0.4,0.1-0.6,0.1-1.2-0.1c-0.5-0.2-1.1-0.3-1.6-0.3c-1.1-0.1-2.6,0.2-3.2,0.8 c-0.2,0.2-0.3,0.4-0.3,0.7c-0.2-0.1-0.4-0.2-0.6-0.3c-0.6-0.3-1.8-0.9-2.1-1.1c-0.4-0.2-0.8-0.4-1-0.5s-0.4-0.2-0.6-0.3l0,0 c-0.5-0.1-1-0.1-1.4,0C551.4,353.9,551.6,353.8,551.7,353.7L551.7,353.7z M560.2,358.5c-0.2-0.1-0.3-0.2-0.5-0.3c0,0,0.1,0,0.1,0.1 C560,358.4,560.1,358.4,560.2,358.5L560.2,358.5z M507.3,340.8l0.9-0.4c0.4,0.1,0.8,0.3,1.2,0.4c-0.9,0.1-1.8,0.2-2.6,0.2 C507,340.9,507.2,340.9,507.3,340.8z M502.6,336c-0.3-0.4-0.5-0.7-0.7-1.1C502.1,335.3,502.3,335.7,502.6,336z M498.2,307.4 c0.8,0.7,1.5,1.6,2,2.4c0.2,0.3,0.4,0.7,0.6,1c0.3,0.5,0.6,1.2,1,1.8c-0.6-0.1-1.1-0.1-1.7-0.1h-0.3c0,0,0,0,0-0.1 c0-0.2-0.1-0.3-0.1-0.5v-0.1c0-0.7-0.2-1.3-0.5-1.9c-0.2-0.4-0.4-0.8-0.7-1.1c-0.2-0.2-0.3-0.4-0.4-0.6c-0.1-0.4-0.2-0.8-0.3-1.2 v-0.1L498.2,307.4z M500.4,343.2c0.2,0.2,0.4,0.3,0.6,0.5l0,0c0.7,0.5,1.4,1.1,2.2,1.9c1.1,0.9,2.2,1.9,3.6,3.1l0.2,0.2 c0.2,0.1,0.3,0.3,0.5,0.5l0.6,0.5c0.1,0.1,0.2,0.2,0.3,0.3c0.8,0.8,1.7,1.4,2.8,1.8c0.2,0.1,0.5,0.2,0.7,0.2 c0.4,0.1,0.7,0.3,1.1,0.4c1.7,0.6,3.4,1,5,1.4c0.8,0.2,1.7,0.4,2.5,0.7h0.1c0.2,0.1,0.5,0.1,0.7,0.2s0.5,0.1,0.7,0.2 s0.4,0.1,0.5,0.2c0.5,0.3,1.3,0.6,2.1,1l0.4,0.2c1,0.5,2.1,1,3,1.4c0.1,0,0.1,0.1,0.2,0.1c0.5,0.3,2.4,1.7,2.7,1.9l0,0 c1,0.7,2.1,1.3,3.2,1.9c0.3,0.1,0.6,0.2,0.8,0.3c0.2,0.1,0.4,0.2,0.6,0.2c0.5,0.2,0.9,0.3,1.3,0.5c0.1,0.1,0.1,0.1,0.2,0.2l0,0l0,0 c0.1,0.1,0.1,0.1,0.2,0.2l0.1,0.1c0,0.1,0.1,0.1,0.1,0.2l0.1,0.2c0.1,0.2,0.2,0.4,0.4,0.7c0,0.1,0.1,0.1,0.1,0.2s0.1,0.1,0.1,0.2 c-0.1,0-0.1,0-0.2,0c-0.7,0-1.3-0.1-2-0.2c-0.1,0-0.1,0-0.2-0.1c0,0-0.1,0-0.1-0.1h-0.1c-1-0.5-2.2-1.1-3.3-1.8 c-0.3-0.2-0.6-0.4-0.9-0.6l-0.1-0.1c-0.1-0.1-0.2-0.1-0.3-0.2c-0.2-0.1-0.4-0.3-0.6-0.4c-0.3-0.2-0.8-0.6-1.4-1 c-0.2-0.1-0.3-0.2-0.5-0.3c-0.5-0.3-1-0.6-1.5-0.8l-3.6-1.6c-1.2-0.7-2.5-1.3-3.8-1.8c-0.2-0.1-0.4-0.1-0.6-0.2 c-0.2-0.1-0.3-0.1-0.5-0.2c-0.3-0.1-0.7-0.2-1-0.3l-0.3,1l0.2-1.1c-0.3-0.1-0.7-0.2-1-0.3l-0.3-0.1c-0.4-0.1-0.9-0.3-1.3-0.4 l-0.4-0.1c-0.1,0-0.2-0.1-0.3-0.1h-0.2c-1.2-0.4-2.4-0.9-3.6-1.5c-0.7-0.4-1.4-0.8-2.1-1.3l0,0c-2.3-1.7-4.5-3.5-6.6-5.4l-0.5-0.4 c-2.8-2.5-5.8-5.2-9.2-7.3c-1.1-0.7-2.3-1.4-3.5-1.9C492.9,337.9,496.8,340.3,500.4,343.2L500.4,343.2z M519.9,341.1 c0,0.4,0.1,0.7,0.1,1c0.1,0.4,0.1,0.7,0.2,1.1c0.1,0.3,0.2,0.6,0.3,0.9l0,0c0.1,0.2,0.1,0.4,0.2,0.5c0.1,0.2,0.2,0.3,0.2,0.5 c0,0,0.1,0.1,0.1,0.2c0.4,0.5,0.9,1,1.5,1.4s1.2,0.7,1.9,0.9c0.1,0,0.3,0.1,0.5,0.1c0.3,0.1,0.6,0.1,1,0.2c0.3,0,0.6,0,0.9,0 c0.1,0,0.1,0,0.2,0c0.4-0.1,0.8-0.2,1.2-0.3c0.1,0,0.2-0.1,0.3-0.1c0.1-0.1,0.2-0.1,0.3-0.2c0,0.2,0,0.4,0,0.6c0,0.4,0,0.8-0.1,1.2 l-1.5-0.3c-0.5-0.1-1.2-0.3-1.9-0.6c-0.7-0.2-1.3-0.4-2-0.6c-0.3-0.1-0.6-0.2-0.9-0.3c-0.2-0.1-0.3-0.2-0.5-0.3 c-0.2-0.1-0.4-0.3-0.6-0.5l-0.3-0.3c-0.8-0.8-1.5-1.7-2-2.7c-0.4-0.9-1.2-1.5-2.1-1.8c-0.2,0-0.4-0.1-0.7,0c-0.4,0-0.7,0.2-1,0.4 c-0.1,0.1-0.1,0.1-0.2,0.1c0.2-0.5,0.2-1-0.2-1.4c-0.1-0.1-0.2-0.2-0.3-0.2c0.9-0.2,1.7-0.4,2.5-0.7c0.7-0.2,1.4-0.3,2.2-0.4 c0.2,0,0.4,0,0.6,0v0.2C519.9,340.3,519.9,340.7,519.9,341.1L519.9,341.1z M525.3,342.4c-0.9-0.7-1.8-1.4-2.5-2.1l0,0 c0.6,0.2,1.3,0.5,1.9,0.9c1.4,0.8,2.5,1.8,3.4,3.1l-0.4-0.2l-0.5,0.5c-0.3,0.3-0.7,0.5-1.1,0.6c-0.2,0.1-0.5,0.2-0.8,0.2l0,0 c0.1-0.2,0.1-0.3,0.2-0.5c0.1-0.2,0.1-0.5,0.2-0.8c0-0.1,0-0.2,0.1-0.3c0-0.1,0-0.2,0-0.3l0.1-0.6L525.3,342.4z M528.7,351l-0.9-0.4 l0,0l0.9-0.9C528.7,350.1,528.7,350.5,528.7,351L528.7,351z M514.6,363.9c-0.2-0.5-0.4-0.9-0.6-1.4c0.1,0,0.2,0,0.2,0l0.2,0.6 C514.5,363.4,514.6,363.6,514.6,363.9L514.6,363.9z M486.9,357.7c-0.4,0.1-0.8,0.2-1.1,0.3c-0.2,0-0.4,0.1-0.6,0.1 C485.8,357.9,486.3,357.8,486.9,357.7L486.9,357.7z M479.8,322.1c0.1,0,0.2,0,0.3,0.1c-0.1,0-0.3,0-0.4,0h-1.3l-0.1-0.2 C478.7,322,479.3,322,479.8,322.1L479.8,322.1z M481.1,356c-0.3,0.8-0.4,1.5-0.5,2.4l-0.1,0.8c-0.2,0.1-0.5,0.2-0.7,0.2 C479.9,358.2,480.3,357,481.1,356L481.1,356z M474.4,343.7c0.6-1.5,1.7-2.8,3-3.7c0.7-0.4,1.4-0.8,2.2-1c-0.1,0-0.1,0.1-0.2,0.1 c-1.5,0.7-2.8,1.8-3.8,3.2l-1,1.3C474.6,343.6,474.5,343.6,474.4,343.7L474.4,343.7z M500,422.8l-1.2-0.3v-0.6l0,0l0.1,0.1 c0,0,0.8,0.5,1.5,0.8C500.3,422.9,500.2,422.8,500,422.8L500,422.8z M501,428.2c0,0-0.1-0.1-0.1-0.2l0.2-0.4 C501.1,427.8,501,428,501,428.2L501,428.2z M499.3,399.3c-1.4-0.3-2.6-1-3.7-1.9c-0.5-0.3-0.9-0.8-1.2-1.2c-0.4-0.6-1-1.1-1.6-1.5 c-0.7-0.4-1.5-0.8-2.2-1.1c-0.3-0.1-0.6-0.2-0.8-0.4c0.1-0.5,0.3-1.1,0.6-1.5c0.3-0.5,0.6-1,1-1.4c0-0.1,0.1-0.1,0.1-0.2l0.4-0.4 l1.8-1.8l-1.5,0.1l0.1-0.5c0.1-0.6,0.3-1.2,0.8-1.6c0.1-0.1,0.2-0.2,0.3-0.3c0.3-0.1,0.6-0.2,1-0.3l0,0c2.2-0.8,3.5-0.4,4-0.2 c0.4,1.1,0.8,2.1,1,3.2c0.3,1.1,0.4,2.2,0.5,3.4c0.1,0.9,0.2,1.8,0.5,2.7c0.6,1.8,1.6,3.3,3,4.6C502,399.4,500.6,399.6,499.3,399.3 L499.3,399.3z M505.1,432.1c-0.8-0.4-1.5-0.9-2.1-1.5c0.9,0.4,1.9,0.5,2.8,0.4C505.5,431.2,505.3,431.6,505.1,432.1L505.1,432.1z M507,374c-0.7-0.2-1.4-0.1-2,0c-0.1,0-0.3,0-0.4,0c-0.2,0-0.4,0-0.6,0.1l0.3-0.2l0.3-0.2c0.5-0.3,0.8-1,0.5-1.6 c-0.4-1-1.6-0.8-2.6-0.7c-1.1,0.1-2.1,0.3-3.2,0.6c-0.1,0-0.2,0.1-0.4,0.1c-0.4,0.1-0.8,0.2-1.2,0.4l2.1-1.5l-3.2-0.2 c-0.1,0-0.2,0-0.3,0l0.9-0.7l-4.6,1c-0.9,0.2-1.8,0.6-2.6,1.3c-0.7,0.6-1.3,1.4-1.7,2.3c-0.1,0.1-0.1,0.3-0.2,0.4 c-0.4,0.7-0.7,1.2-0.9,1.5c-0.1,0.1-0.1,0.2-0.2,0.3c-0.5,0.8-0.8,1.7-1.1,2.5c-0.6,2-0.5,4.3-0.1,4.9c0.2,0.3,0.5,0.5,0.9,0.5 c0.3,0,1-0.1,1.3-1.2c0.1-0.3,0.2-0.6,0.3-0.9c0,0,0-0.1,0.1-0.1c0.1,0.1,0.2,0.1,0.3,0.1c0.3,0,0.5,0.2,0.7,0.5 c0.2,0.2,0.4,0.3,0.6,0.4c0,0.1,0,0.2,0,0.3v0.1c0,0.5-0.1,0.7-0.1,0.9v0.1c0,0,0,0.1,0,0.2c0,0.8,0.1,1.6,0.4,2.3l0.1,0.2 c-0.1,0-0.1,0-0.2,0c-1.7,0.3-2.8,1.6-4.7,3.8l-0.1,0.1c-0.2,0.2-0.3,0.4-0.4,0.5c0,0.1-0.1,0.1-0.1,0.2c-0.1,0-0.2,0-0.3,0 c-0.2,0-0.5,0-0.7,0.1c0.4-1,0.9-1.9,1.5-2.7l2.2-3.2L484,388c-1.9,0.7-3.1,2.1-4.3,3.4c-0.1,0.1-0.3,0.3-0.4,0.4 c-0.2,0.2-0.3,0.4-0.4,0.6c-0.2,0.5-0.5,0.9-0.8,1.3c-0.2,0.3-0.5,0.6-0.8,0.8c-1,0.8-1.7,2-1.9,3.3c-0.1,0.4-0.1,0.7-0.1,1.1 c0,0.1,0,0.1,0,0.2c-0.1,0.6-0.1,1.3,0,1.9c0,0.6,0.3,1.2,0.8,1.6c0.4,0.3,0.9,0.4,1.3,0.3h0.1c0.2,0,0.4,0,0.6-0.1 c0.1,0,0.3,0,0.4,0c-0.1,0.1-0.3,0.1-0.4,0.2c-0.6,0.4-1.1,0.9-1.7,1.5c-0.3,0.3-0.7,0.6-1.1,0.6h-0.1c-0.2,0-0.3,0-0.5,0 s-0.4-0.1-0.7-0.1l-2.1-0.4c0.1-0.4,0-0.9-0.2-1.3l0.2-0.2c0.4-0.4,0.7-0.8,0.9-1.2c0.2-0.3,0.3-0.5,0.5-0.8 c0.3-0.5,0.6-0.9,0.9-1.5c1.1-2.1,1.1-4.1,0.8-6.1l-0.2-1.3l-0.7,0.2l0.2-1l-0.1-0.3c-0.1-0.2-0.2-0.4-0.3-0.7l0.5-1 c1.3-2.6,2.9-4.2,5.1-5.1c0.4-0.1,0.8-0.5,0.9-0.9c0.1-0.5,0-0.9-0.3-1.3l-0.3-0.4l1.5-2c1.1-1.4,1.9-3,2.6-4.7l0.1-0.1 c0.1-0.1,0.1-0.3,0.2-0.5c0.5-1.4,1-2.8,1.4-4.2c0.4-1.3,0.5-2,0.6-2.5c0.1-0.4,0.2-0.7,0.3-1c0.4-0.9,0.9-1.7,1.5-2.4l2.1-2.4 l-3.1,0.6c-0.9,0.2-1.8,0.4-2.7,0.7c-1.8,0.6-3.6,1.4-5.2,2.3c-1.2,0.7-2.4,1.6-3.4,2.6c0.2-0.8,0.5-1.5,0.9-2.2 c1.2-2.1,3.1-3.1,4.6-3.8c3.3-1.6,6.6-2.9,10.1-4.1l-0.3-1.3c0.9,0,1.8,0.2,2.7,0.4c-0.4,0.9-0.6,1.8-0.7,2.8c-0.1,0.7-0.1,1.3,0,2 l0.1,1.6l1.4-0.6c1.9-0.9,4-1.2,6-1.1c-0.3,0.3-0.6,0.5-0.9,0.8c-1.1,1.2-1.9,2.7-2.3,4.3l-0.6,2.6l2.2-1.3c1.7-1,3.6-1.6,5.5-1.6 c1,0,2.1,0.1,3.1,0.4c-0.1,0.1-0.2,0.1-0.3,0.2l-0.6,0.6l0.4,0.7c0.8,1.7,1.7,3.3,2.7,4.8l-1.7,0.3C507.6,374.1,507.3,374.1,507,374 z M507.7,430.7h0.2l0.5,0.4C508.2,431,507.9,430.8,507.7,430.7L507.7,430.7z M509,431.6l0.1,0.1c0.3,0.2,0.6,0.5,0.8,0.8 C509.6,432.2,509.3,431.9,509,431.6L509,431.6z M515.9,427c-0.2-0.9-0.5-1.8-1-2.5c-0.5-0.9-0.7-2-0.5-3.1c0.3-1.1,0.2-2.4-0.3-3.4 c0.1,0,0.2,0.1,0.3,0.1s0.1,0,0.2,0.1c0.2,0,0.4,0.1,0.5,0.3c0.3,0.4,0.2,1.5,0.1,2c-0.4,1.2-0.4,2.4-0.1,3.6 c0.1,0.3,0.1,0.5,0.2,0.7c0.2,0.6,0.4,1.1,0.5,1.3S515.9,426.7,515.9,427L515.9,427z M523.4,420.2c-0.4,0.3-1.1,0.9-0.9,2.5 c0.1,0.5,0.2,1.1,0.4,1.6s0.4,1,0.6,1.4c-0.4-0.5-0.8-1.1-1-1.7c-0.2-0.5-0.3-0.9-0.3-1.4c-0.1-0.8-0.1-1.6-0.1-2.5 c0.2-3.7,0.4-5.6-0.3-6.9c-0.4-0.8-1.1-1.5-1.9-2c-0.7-0.4-1.2-1-1.5-1.7c-0.1-0.3-0.2-0.6-0.2-0.9c-0.1-0.5-0.2-1.1-0.4-1.6 c-0.4-1.3-1.2-2.4-2.1-3.4c-0.3-0.3-0.5-0.6-0.8-1c-0.5-0.9-0.3-2.1,0.3-3.3c0.3,0.8,0.6,1.6,1.1,2.3c0.1,0.2,0.3,0.4,0.4,0.7 c0.5,0.9,0.8,1.8,0.9,2.8c0.1,1.1,0.4,2.2,0.9,3.2c0.5,1.1,1.3,2,2.4,2.6c0.6,0.4,1.2,0.9,1.5,1.6c0.3,0.6,0.4,1.2,0.4,1.9 c0,1.1,0.2,2.2,0.6,3.2c0.3,0.8,0.7,1.5,1.1,2.2C524.1,419.9,523.7,420,523.4,420.2L523.4,420.2z M529.7,458c-0.3,0.6-0.3,1.3,0,1.8 c0.1,0.2,0.1,0.3,0.2,0.4c-0.2-0.2-0.4-0.3-0.6-0.5c-0.3-0.2-0.5-0.5-0.7-0.7c-1.1-1.2-2.1-2.5-2.7-4c-0.4-0.8-0.7-1.7-0.9-2.5 c0.2,0.1,0.4,0.1,0.7,0.1c0.8-0.1,1.2-0.8,1.5-1.5c0.1-0.2,0.2-0.4,0.3-0.7c0,1.1,0.1,2.3,0.4,3.4c0.4,1.4,1.2,2.7,2.4,3.7 C530.1,457.6,529.9,457.8,529.7,458L529.7,458z M531,396.6c-0.9,0.9-1.5,2-1.6,3.3c0,0.2,0,0.3-0.1,0.5c0,0.6-0.1,1.2-0.1,1.8 c0,0.1,0,0.1,0,0.2c-0.1,0.2-0.2,0.5-0.3,0.7l-0.1,0.1l-0.1,0.1c-0.1,0.2-0.1,0.3-0.2,0.5l-0.5-0.1c-0.1,0-0.1,0-0.2,0 c-0.3-0.1-0.6-0.1-0.9-0.2c-0.1-0.5-0.1-1-0.2-1.4c0-0.5,0-1,0-1.4c0-0.3,0-0.7,0-1c0-0.2,0-0.4,0-0.5v-0.1V399 c-0.2-0.7-0.6-1.4-1.1-2c-0.3-0.3-0.5-0.7-0.7-1l-0.1-0.4l0.8-0.3l-2.2-1.3c-1-0.6-2.1-1-3.2-1.4c0.4-0.9-0.5-1.7-1-2 c-0.1-0.1-0.3-0.2-0.5-0.3c-0.6-0.5-1.4-0.8-2.2-0.8l-0.2-0.6c-0.3-1.4-1.1-2.7-2.2-3.7c-0.1-0.1-0.1-0.1-0.2-0.2 c-0.4-0.3-0.8-0.6-1.1-0.9c0.4-0.1,0.7-0.3,0.9-0.7c0.4-1-0.6-1.7-1.2-2.1c-0.3-0.2-0.7-0.5-1.3-0.8c0.2-0.1,0.3-0.2,0.5-0.3 l1.1-0.8l-1-0.9c-1.1-1.1-2.5-1.3-3.7-1.5H508c0.5-0.3,0.8-0.7,1-1.2l0.7-1.6c1.2,1.8,2.7,3.5,4.3,5c1.8,1.6,3.7,3.1,5.7,4.5 c0.8,0.6,1.7,1.2,2.3,1.7c-0.5,0.1-1.2,0.4-1.2,1.2c0,0.3,0.1,0.6,0.3,0.8l-5.2-2.6l4.4,4.6c1.1,1.1,2.5,1.9,4,2.2 c0.9,0.2,1.7,0.2,2.6,0.1c0,0.1,0,0.3,0,0.4c0.1,1.7,1.2,3.1,2.7,3.7l1.9,0.7C531.4,396.4,531.2,396.5,531,396.6L531,396.6z M533.2,384.1c0.2-0.5,0.4-1,0.5-1.6l0.5-2.8l-2.1,1.5c-0.5,0.4-1.1,0.7-1.7,0.9c-0.3-0.8-0.7-1.6-1.2-2.3c-1.3-1.9-2.8-2.6-4.3-3.3 c-0.8-0.4-1.6-0.8-2.3-1.2c-0.6-0.4-1.2-0.9-1.7-1.4c0.2,0.2,0.5,0.3,0.7,0.4c1.9,1.1,3.8,1.4,5.6,1.7c2.1,0.3,4,0.6,5.9,2.2 c1.4,1.3,2.5,2.9,3.2,4.7h0.1l-0.7,1.2c-0.3,0.5-0.7,1-1.2,1.3h-1.1l0.3-1.3L533.2,384.1z M532.1,428.4c0.1-1,0.1-2.1,0-3.1 c0.1,0.1,0.3,0.2,0.4,0.2c0.1,0.1,0.3,0.1,0.5,0.1C532.7,426.5,532.4,427.4,532.1,428.4L532.1,428.4z M539.8,407.3l-0.1-0.3 l-0.1-2.5c0-0.5,0-1,0.2-1.4c0,0,0-0.1,0.1-0.2c-0.1,0.7-0.1,1.4-0.1,2.1C539.8,405.9,539.8,406.6,539.8,407.3L539.8,407.3z M544.5,417.6c-0.3,0.7-0.6,1.6-1.1,2.9c-0.6,1.6-1,2.9-1.4,4.1c-0.2,0.5-0.3,1-0.4,1.4c0.3-1.8,0.5-3.6,0.6-5.4c0.2-3-0.1-6-1-8.9 c0.6,0.8,1.3,1.4,2.1,2c1,0.7,1.5,1.2,1.7,2C545.1,416.1,545.1,416.1,544.5,417.6L544.5,417.6z M547.2,405c-0.5-0.5-0.8-1.1-1-1.7 s-0.2-1.2-0.2-1.7c0.1,0.3,0.3,0.6,0.5,0.9c0.6,0.7,1.4,1.2,2.3,1.3c0.5,0,0.9,0.2,1.3,0.5c0.7,0.6,0.8,1.4,1.1,3 c0,0.3,0.1,0.6,0.2,1C550.6,406.8,549.2,405.7,547.2,405L547.2,405z M552.6,413.4c-0.3-0.5-0.3-1-0.4-1.8c0-0.1,0-0.2,0-0.3 c0.3,1,0.8,1.9,1.3,2.8C553.1,414,552.8,413.8,552.6,413.4L552.6,413.4z M564.5,383.5c-0.6,0-1.2,0-1.7,0.3 c-0.5,0.2-1.1,0.3-1.6,0.3c-0.2,0-0.4,0-0.6,0c-0.8,0.1-1.3,0.1-1.5-0.3c-0.5-0.5-0.9-1.1-1.3-1.5c-0.8-1-1.5-1.9-2.8-2.1 c-0.3,0-0.7,0-1,0.1c-0.2,0.1-0.4,0.1-0.7,0.2c-0.5,0.1-1,0-1.5-0.1c-0.4-0.1-0.7-0.2-1.1-0.2c-1.7,0-2.6,1.4-3.6,2.7 c-0.9,1.2-1.8,2.5-3.3,3.1c-0.1,0-0.1,0-0.2,0.1c-0.5,0.1-0.9,0.4-1.2,0.9c-0.2,0.3-0.2,0.6-0.5,1.7c-0.2,0.7-0.5,2.4-0.8,2.8l0,0 c0.2-0.4,0.3-0.9,0.4-1.3c0.2-0.9,0.3-1.8,0.2-2.7l-0.3-2.9l-1.5,2.4c-0.1,0.2-0.4,0.6-0.8,1.1c-0.4,0.5-0.9,1.2-1.4,1.9 c-0.8,1.2-1.6,2.5-2.2,3.9c-1.3,2.6-1.2,2.8-1,3.2c0,0.1,0.1,0.3,0.4,0.8c0.4,0.9,1.5,3.3,1.8,4.2v0.1l0.1,0.4 c0.3,0.8,0.6,1.6,0.9,2.5l1.5,3.9l-0.3,2c-0.2,1.3-0.5,2.6-1,3.8c0.2-3.2-0.1-6.4-0.9-9.6c-0.2-0.6-0.3-1.2-0.5-1.8 c0-0.1-0.1-0.3-0.1-0.4s-0.1-0.2-0.1-0.4c-0.3-1.2-0.8-2.4-1.4-3.5c-0.1-0.2-0.2-0.3-0.3-0.5l-0.1-0.1c-0.1-0.1-0.2-0.3-0.3-0.4 c-0.5-0.7-1-1.6-1.9-1.8c-0.1,0-0.3,0-0.4,0l-1.1-2.2c0-0.1-0.1-0.2-0.1-0.3l0.2-0.2c0.2-0.1,0.4-0.3,0.6-0.3 c0.2-0.1,0.3-0.1,0.5-0.1c0.1,0,0.3,0,0.4-0.1c0.8-0.2,1.5-0.9,2-2.1c0-0.1,0.1-0.1,0.1-0.2c0.2-0.2,0.3-0.5,0.4-0.8 c0.3-0.4,0.6-0.9,1-1.3c0.2-0.2,0.3-0.4,0.5-0.6c0.7-1.1,1-2.3,1-3.6v-2.1l0.8-0.3c-0.9-3.6-2.4-6.3-4.6-8c-1.8-1.4-3.5-1.7-5.1-2 c-0.6-0.1-1.2-0.2-1.8-0.4c-3.5-1-6.7-3.8-9.6-8.5c0.5,0.3,0.9,0.6,1.2,0.8c4.1,2.9,6,4.2,6.8,4.6c3,1.5,7.7,2.8,10.6,2.4 c1.2-0.1,2.3,0,3.4,0.4c0,0,0.1,0,0.2,0.1c0.7,0.2,1.4,0.5,2,1c-0.6,0.8-1.3,1.5-2,2.1l-2.8,1l3,1c1.3,0.4,3.1-0.4,4.3-1.1v0.6 l1-0.6v0.2c-0.3,0.2-0.5,0.5-0.8,0.7s-0.6,0.5-0.8,0.7l-2.1,2l2.8-0.1c3.4-0.1,5.8-2.5,6.8-3.6c0.2,0.3,0.5,0.6,0.8,0.8 c0.5,0.5,1.2,0.8,1.9,1l1.1,0.3l0,0l0.5,0.1l1.3,0.3c0.4,0.3,0.7,0.7,1,1.2c0.7,1.2,1.7,2.1,2.8,2.8c0.7,0.4,1.5,0.6,2.3,0.7h0.1 c1-0.1,2,0.2,2.9,0.7C564.9,383.5,564.7,383.5,564.5,383.5L564.5,383.5z M546,366.1c0-0.2,0.1-0.4,0.2-0.5c0,0,0.1,0,0.4,0.2 c0.4,0.3,0.6,0.6,0.8,1.1c0.1,0.2,0.2,0.3,0.2,0.5c0.1,0.2,0.2,0.4,0.4,0.6c-0.6-0.1-1.1-0.4-1.5-0.8l-0.7,0.7l0.7-0.7 C546.3,366.8,546,366.4,546,366.1z M561.9,372.6c-0.6-0.1-1.2-0.3-1.8-0.6c-0.8-0.4-1.5-1-2.1-1.7l-1.4-1.5l-0.3,2.1 c-0.2,1.2-0.5,2.4-0.8,3.6c-0.2,0.7-0.5,1.3-0.7,2l-0.9-0.8c-0.7-0.3-0.9-1.1-0.6-1.8c0.1-0.1,0.1-0.2,0.2-0.3l0.1-0.2 c0.5-1.1,0.9-2.2,1.2-3.4c0.1-0.3,0.2-0.6,0.2-0.9v-1c-0.1-1.8-0.7-3.9-1.4-5.5c-0.2-0.5-1.9-4.7-3.2-5.3l0,0c-0.7-0.3-4.8-0.8-7-1 l0.4-0.3l-4.6-2l0.6-0.3l-4.2-1.5v-0.1c-0.4-1.4-0.7-2.5-0.8-3.4c-0.3-1.2-0.4-1.9-0.6-2.8c-1.9-9.2-4.4-13.2-4.5-13.4 c-3.3-5.4-7.7-7.7-11-9.3c-0.9-0.4-1.8-1-2.7-1.5c-0.1-0.1-1.1-0.7-1.8-1.2l-3-2l1.6,3.3c0.2,0.4,0.4,0.9,0.6,1.3 c-0.3-0.2-0.7-0.4-1-0.5c-0.5-0.2-0.9-0.7-1-1.2v-0.1c-0.2-0.6-0.4-1.2-0.6-1.8c-0.1-0.6-0.3-1.2-0.6-1.8c-0.2-0.5-0.5-0.9-0.8-1.4 c1.3,0.5,2.6,1,3.9,1.6c3.4,1.7,6.6,4,9.3,6.7l1,1l0.6-1.2c0.3-0.6,0.4-1.2,0.5-1.8c0.2-2.1,0-4.2-0.6-6.2l-1.5-5.1l-0.5,5.1 c-0.1-0.2-0.1-0.4-0.2-0.6c-0.6-1.6-2.5-5-2.5-5l-3.6-5.9l1.7,6.6c0.2,0.7,0.3,1.4,0.4,2.1c-0.3-0.4-0.6-0.9-0.9-1.3l-1.1-1.6 c-0.3-1.5-0.5-3-0.5-4.6c0-0.4-0.1-0.8-0.3-1.2c-0.1-0.3-0.2-0.6-0.3-0.9c0-0.3,0-1.9,0-3.2l0.9,1.3c0.4,0.6,0.8,1.2,1.1,1.8 c1.3,2.3,3.1,5.2,3.1,5.3l2,3.2l-0.1-4.1c0.1,0.1,0.2,0.3,0.3,0.5c0.2,0.3,0.3,0.5,0.4,0.7c0.3,0.5,0.6,1.1,0.9,1.7l1.8,4.1l0.1-6 c1.2,2.8,1.7,5.4,1.4,7.6c0,0.2-0.1,0.4-0.1,0.6c-0.2,1.3-0.5,3.1,0.3,5.3c0.7,1.6,1.5,3.2,2.5,4.6l1.4,2.3l1-5.6l0.2-2 c0.5,2.2,0.4,4.6-0.3,6.8v0.1v0.1c-0.1,0.6-0.2,1.2-0.2,1.8v0.2v0.2c0.3,1.7,0.7,3.2,1.1,4.6c0.5,1.9,1.1,3.7,1.9,5.5 c0.7,1.8,1.6,3.5,2.7,5.2c0.6,0.9,1.2,1.7,1.7,2.4c0.2,0.3,0.4,0.6,0.7,0.9l2.2,2.9l-0.4-3.5c0-0.1,0-0.2,0-0.3c0-0.2,0-0.5-0.1-0.7 v-0.1v-0.1c-0.1-0.3-0.1-0.5-0.1-0.8l2.5,4.9l0.2,0.2c2,1.5,3.7,2.3,5.1,2.5l-2.5,0.5l3.1,1.4c0.3,0.1,0.6,0.3,0.9,0.5 c0.5,0.4,1,0.8,1.4,1.3c0.2,0.2,0.4,0.4,0.5,0.6c0.3,0.3,0.6,0.6,0.9,1c0.3,0.3,0.6,0.6,0.9,0.8c0.2,0.2,0.4,0.3,0.6,0.5 c0.4,0.3,0.7,0.7,0.8,1.1c0.3,0.6,0.4,1.3,0.6,2c0.1,0.6,0.2,1.1,0.2,1.7v0.6l0.4,0.4c3.1,2.7,5.4,4.2,7.2,4.5 c0.3,0.1,0.6,0.1,0.9,0.2l0,0l0,0c2,0.1,4.1,0.1,6.1-0.1c3.8-0.4,4.9-1,5.4-2c0.4-0.9,0.5-1.9,0.2-2.9c0.3,0.3,0.6,0.7,0.8,1 c0.6,0.9,1,1.8,1.3,2.8l-2.1,1c-1.8,0.8-4.6,2-5.4,2C567.6,373.3,563.6,373,561.9,372.6L561.9,372.6z M577.1,376.9 c-1.1,1.3-2.5,2.9-4.2,3.4c-0.7,0.2-1.4,0.2-2.1,0.1c0.6-0.3,1.1-0.7,1.6-1.2c1.4-1.3,5-5.4,5.5-6.5l0.9-2.1 c0.2,0.7,0.3,1.5,0.3,2.3v2.1C578.4,375.5,577.7,376.2,577.1,376.9L577.1,376.9z"></path> <path style="fill:#EA3358;" d="M526.4,346.4c0.3,0.1,0.5,0.1,0.8,0.1c0.2,0,0.5,0,0.7,0c0.4,0,0.7-0.1,1.1-0.3 c0.1,0,0.1-0.1,0.2-0.1c0.2-0.1,0.5-0.3,0.6-0.5c0,0,0,0,0.1-0.1c-0.2-0.1-0.5-0.3-0.7-0.4L529,345c-0.4,0.3-0.9,0.6-1.4,0.8 c-0.3,0.1-0.6,0.2-0.8,0.3c-0.3,0.1-0.5,0.1-0.8,0.2C526.1,346.3,526.2,346.4,526.4,346.4z"></path> <path style="fill:#EA3358;" d="M513.2,456.7c-1.3-0.5-2.6-1.1-3.8-1.8c-1.4-0.9-2.6-1.9-3.7-3.1c-0.7-0.7-1.2-1.2-1.6-1.1 c-0.1,0-0.1,0-0.1,0.1c-0.2,0.1-0.3,0.3-0.3,0.8c0,0.7,0.1,1.4,0.3,2c0.1,0.4,0.2,0.9,0.4,1.4c0.3,1,0.6,1.9,1,2.8 c0.3,0.5,0.7,1,1.3,1.3c0.1,0,0.2,0.1,0.2,0.1c0.9,0.4,1.9,0.2,3.8,0c2.1-0.3,3.9-0.6,4-1.4l0,0 C514.8,457.3,514.2,457.1,513.2,456.7z"></path> <path style="fill:#EA3358;" d="M503.3,428.2c1.4,1.1,2.4,1.5,5.4,1c-0.8-1.6-1-2.7-2.8-4.1C504,425.5,503.1,427.8,503.3,428.2z"></path> <path style="fill:#EA3358;" d="M504.8,424.3c-1.7-1-3.2-0.6-3.9-0.7c-0.1,0.9,0.2,1.8,0.7,2.6C502.2,425.1,503.5,424.4,504.8,424.3z "></path> <path style="fill:#EA3358;" d="M522.7,343.4c0.1,0.2,0.1,0.3,0.2,0.4c0.1,0.1,0.1,0.3,0.2,0.4c0,0.1,0.1,0.1,0.1,0.2 c0.2,0.4,0.6,0.8,1.1,1.1c0.1,0,0.3,0,0.4-0.1c0.3-0.1,0.5-0.3,0.6-0.5c0.1-0.1,0.2-0.2,0.2-0.4c0.1-0.1,0.1-0.3,0.2-0.4 c0.1-0.2,0.1-0.4,0.2-0.6c0-0.1,0-0.2,0-0.3c0-0.1,0-0.2,0-0.3c-0.9-0.7-1.8-1.4-2.6-2.2c-0.4-0.4-0.8-0.7-1.2-1.1 c0,0.4,0,0.8,0,1.1c0,0.3,0.1,0.6,0.1,0.9s0.1,0.7,0.2,1C522.5,342.9,522.6,343.2,522.7,343.4z"></path> <path style="fill:#EA3358;" d="M513.2,456.7c-1.3-0.5-2.6-1.1-3.8-1.8c-1.4-0.9-2.6-1.9-3.7-3.1c-0.7-0.7-1.2-1.2-1.6-1.1 c-0.1,0-0.1,0-0.1,0.1c-0.2,0.1-0.3,0.3-0.3,0.8c0,0.7,0.1,1.4,0.3,2c0.1,0.4,0.2,0.9,0.4,1.4c0.3,1,0.6,1.9,1,2.8 c0.3,0.5,0.7,1,1.3,1.3c0.1,0,0.2,0.1,0.2,0.1c0.9,0.4,1.9,0.2,3.8,0c2.1-0.3,3.9-0.6,4-1.4l0,0 C514.8,457.3,514.2,457.1,513.2,456.7z"></path> <path style="fill:#EA3358;" d="M503.3,428.2c1.4,1.1,2.4,1.5,5.4,1c-0.8-1.6-1-2.7-2.8-4.1C504,425.5,503.1,427.8,503.3,428.2z"></path> <path style="fill:#EA3358;" d="M504.8,424.3c-1.7-1-3.2-0.6-3.9-0.7c-0.1,0.9,0.2,1.8,0.7,2.6C502.2,425.1,503.5,424.4,504.8,424.3z "></path> <path style="fill:#EA3358;" d="M476.4,354.9"></path> <path style="fill:#EA3358;" d="M489.5,358.2"></path> <path style="fill:#EA3358;" d="M486.1,368.1"></path> <path id="Shape_00000040541709403781856770000002505458042668340373_" style="fill:#EA3358;" d="M410.7,650.5c1.4-2,2.1-4.3,2.1-6.7 c0-3.4-1.2-6.4-3.6-8.8c-2.4-2.4-5.3-3.6-8.8-3.6H385v38.5h6.3v-14h7.5l8.1,14h6.9l-8.7-14.9C407.4,654.1,409.3,652.5,410.7,650.5 L410.7,650.5L410.7,650.5z M400.4,650.2h-9.1v-12.9h9.1c1.6,0,3.2,0.7,4.3,1.9c2.3,2.6,2.3,6.5,0,9.1 C403.6,649.6,402.1,650.3,400.4,650.2L400.4,650.2z M445.2,653.3c-0.6-0.7-1.3-1.3-2-1.9c-0.6-0.5-1.5-1-2.8-1.5 c-1.2-0.5-2.2-0.9-2.9-1.1c-0.7-0.2-1.7-0.6-3.2-1.1c-2.9-0.9-5-1.8-6.1-2.6s-1.7-2-1.7-3.4c0-1.5,0.5-2.6,1.6-3.5s2.6-1.3,4.4-1.3 c3.8,0,6.5,1.8,8.1,5.4l5.3-3.1c-1.2-2.5-3-4.7-5.3-6.2s-5-2.3-8.1-2.3c-3.4,0-6.3,1-8.7,3c-2.4,2-3.6,4.7-3.6,8.1 c0,1.7,0.3,3.2,0.9,4.5s1.6,2.4,2.8,3.2c1.1,0.8,2.3,1.5,3.6,2c1.5,0.6,2.9,1.1,4.5,1.5c3.3,1,5.5,1.9,6.8,2.7s1.9,2,1.9,3.6 c0,1.4-0.6,2.8-1.8,3.7c-1.2,0.9-3,1.4-5.4,1.4c-4.8,0-8-2.2-9.6-6.5l-5.4,3.2c1,2.9,2.9,5.3,5.4,6.9c2.6,1.7,5.7,2.5,9.4,2.5 c4.1,0,7.4-1,9.9-3s3.8-4.8,3.8-8.3c0-1.1-0.1-2.3-0.4-3.4C446.4,655,445.9,654.1,445.2,653.3L445.2,653.3z M451.8,637.5h10.9v32.4 h6.3v-32.4h10.8v-6h-28L451.8,637.5L451.8,637.5z M332.9,669.9h7.8v-19.2H360v-7.5h-19.3v-13.3h20v-7.5h-27.8L332.9,669.9 L332.9,669.9z M368.4,669.9h6.3v-38.5h-6.3V669.9z M545.7,653.5h15.4v-6h-15.4v-10h16.8v-6h-23.1V670h23.4v-6h-17L545.7,653.5 L545.7,653.5z M658.8,630.7c-5.6,0-10.3,1.9-14.1,5.8c-3.9,3.9-5.8,8.6-5.8,14.1s1.9,10.3,5.8,14.1c3.9,3.9,8.6,5.8,14.1,5.8 c5.6,0,10.3-1.9,14.1-5.8c3.9-3.9,5.8-8.6,5.8-14.1c0-5.6-1.9-10.3-5.8-14.1C669.1,632.7,664.4,630.7,658.8,630.7L658.8,630.7 L658.8,630.7z M668.5,660.5c-2.6,2.6-5.9,3.9-9.7,3.9s-7.1-1.3-9.7-3.9c-2.6-2.6-3.9-5.9-3.9-9.9s1.3-7.2,3.9-9.9 c2.6-2.6,5.9-3.9,9.7-3.9s7.1,1.3,9.7,3.9c2.6,2.6,3.9,5.9,3.9,9.9C672.5,654.6,671.1,657.9,668.5,660.5L668.5,660.5z M596.9,650.5 c1.4-2,2.1-4.3,2.1-6.7c0-3.4-1.2-6.4-3.6-8.8s-5.3-3.6-8.8-3.6h-15.4v38.5h6.3v-14h7.5l8.1,14h6.9l-8.7-14.9 C593.6,654.1,595.5,652.5,596.9,650.5L596.9,650.5z M586.6,650.2h-9.1v-12.9h9.1c1.6,0,3.2,0.7,4.3,1.9c2.3,2.6,2.3,6.5,0,9.1 C589.8,649.6,588.3,650.3,586.6,650.2L586.6,650.2L586.6,650.2z M631.4,653.3c-0.6-0.7-1.3-1.3-2-1.9c-0.6-0.5-1.5-1-2.8-1.5 c-1.2-0.5-2.2-0.9-2.9-1.1c-0.7-0.2-1.7-0.6-3.2-1.1c-2.9-0.9-5-1.8-6.1-2.6s-1.7-2-1.7-3.4c0-1.5,0.5-2.6,1.6-3.5s2.6-1.3,4.4-1.3 c3.8,0,6.5,1.8,8.1,5.4l5.3-3.1c-1.2-2.5-3-4.7-5.3-6.2s-5-2.3-8.1-2.3c-3.4,0-6.3,1-8.7,3s-3.6,4.7-3.6,8.1c0,1.7,0.3,3.2,0.9,4.5 c0.6,1.3,1.6,2.4,2.8,3.2c1.1,0.8,2.3,1.5,3.6,2c1.5,0.6,2.9,1.1,4.5,1.5c3.3,1,5.5,1.9,6.8,2.7s1.9,2,1.9,3.6 c0,1.4-0.6,2.8-1.8,3.7s-3,1.4-5.4,1.4c-4.8,0-8-2.2-9.6-6.5l-5.4,3.2c1,2.9,2.9,5.3,5.4,6.9c2.6,1.7,5.7,2.5,9.4,2.5 c4.1,0,7.4-1,9.9-3s3.8-4.8,3.8-8.3c0-1.1-0.1-2.3-0.4-3.4C632.6,655,632.1,654.1,631.4,653.3L631.4,653.3L631.4,653.3z M517.1,622.5h-17.5v47.4h7.8v-16.3h9.7c4.5,0,8.2-1.5,11.2-4.5s4.5-6.7,4.5-11.1c0-4.4-1.5-8.1-4.5-11.1 C525.4,624,521.6,622.5,517.1,622.5L517.1,622.5z M522.8,644c-1.5,1.6-3.4,2.3-5.7,2.3h-9.7v-16.5h9.7c2.3,0,4.2,0.8,5.7,2.3 c1.5,1.6,2.2,3.5,2.2,5.9C525.1,640.5,524.3,642.4,522.8,644L522.8,644L522.8,644z M710,631.5v26.1l-18.1-26.1H687V670h6.3v-26.1 l18.1,26.1h4.9v-38.5H710L710,631.5z"></path> <path id="Path-5_00000070797526694466132510000000040002632244785069_" style="fill-rule:evenodd;clip-rule:evenodd;fill:#EA3358;" d=" M270.1,619.1c18.9-10.1,43.3,0.5,45.1,26.2C280.2,648.1,276,632.3,270.1,619.1z"></path> <path id="Path-7_00000149367024305364704460000002479639474513150353_" style="fill-rule:evenodd;clip-rule:evenodd;fill:#EA3358;" d=" M270.1,676.1c18.9,10.1,43.3-0.6,45.1-26.2C280.2,647.1,276,662.9,270.1,676.1z"></path> </svg> 