<?xml version="1.0" encoding="UTF-8"?> <svg xmlns="http://www.w3.org/2000/svg" xmlns:xlink="http://www.w3.org/1999/xlink" version="1.1" id="Layer_1" x="0px" y="0px" viewBox="0 0 1000 1000" style="enable-background:new 0 0 1000 1000;" xml:space="preserve"> <path id="Shape_00000040541709403781856770000002505458042668340373_" style="fill:#EA3358;" d="M378.4,851.4 c2.2-3.1,3.4-6.9,3.4-10.8c0-5.5-1.9-10.2-5.8-14c-3.8-3.8-8.5-5.8-14-5.8h-24.6v61.5h10.1V860h11.9l13,22.4h11.1l-14-23.9 C373.2,857.1,376.2,854.6,378.4,851.4L378.4,851.4L378.4,851.4z M362,850.9h-14.5v-20.5H362c2.6,0,5.1,1.1,6.8,3 c3.7,4.1,3.7,10.4,0,14.6C367.1,849.9,364.6,851,362,850.9L362,850.9z M433.6,855.9c-1-1.1-2.1-2.1-3.2-3.1c-1-0.8-2.5-1.6-4.4-2.5 c-2-0.8-3.5-1.4-4.6-1.8c-1.1-0.4-2.8-1-5.1-1.7c-4.7-1.5-7.9-2.9-9.7-4.2c-1.7-1.2-2.8-3.3-2.7-5.4c0-2.3,0.9-4.2,2.6-5.6 s4.1-2.1,7-2.1c6,0,10.3,2.9,12.9,8.6l8.5-4.9c-1.8-4-4.8-7.5-8.5-9.9s-8-3.6-12.9-3.6c-5.4,0-10.1,1.6-14,4.8s-5.8,7.5-5.8,12.9 c0,2.8,0.5,5.2,1.5,7.2c1,2.1,2.6,3.9,4.5,5.1c1.8,1.3,3.7,2.3,5.8,3.2c2.3,0.9,4.7,1.8,7.1,2.5c5.2,1.6,8.8,3,10.9,4.3 c2,1.3,3.1,3.2,3.1,5.8c0.1,2.3-1,4.5-2.9,5.8c-1.9,1.5-4.8,2.2-8.6,2.2c-7.7,0-12.8-3.5-15.3-10.4l-8.7,5.1 c1.5,4.6,4.6,8.5,8.6,11.1c4.1,2.7,9.1,4,15.1,4c6.5,0,11.7-1.6,15.8-4.9s6-7.7,6-13.2c0-1.8-0.2-3.6-0.7-5.4 C435.5,858.5,434.7,857.1,433.6,855.9L433.6,855.9z M444.1,830.6h17.4v51.8h10.1v-51.8h17.3v-9.7h-44.8V830.6L444.1,830.6z M254.2,882.4h12.5v-30.8h30.9v-11.9h-30.9v-21.2h31.9v-11.9h-44.4L254.2,882.4L254.2,882.4z M310.9,882.4H321v-61.5h-10.1V882.4z M594.2,856.1h24.6v-9.6h-24.6v-16H621v-9.7h-36.9v61.5h37.3v-9.7h-27.2L594.2,856.1L594.2,856.1z M774.9,819.8 c-8.9,0-16.4,3.1-22.6,9.3c-6.2,6.2-9.3,13.7-9.3,22.6s3.1,16.4,9.3,22.6c6.2,6.2,13.7,9.3,22.6,9.3c8.9,0,16.4-3.1,22.6-9.3 s9.3-13.7,9.3-22.6c0-8.9-3.1-16.4-9.3-22.6S783.8,819.8,774.9,819.8L774.9,819.8L774.9,819.8z M790.4,867.4 c-4.2,4.2-9.4,6.3-15.5,6.3s-11.3-2.1-15.5-6.3s-6.3-9.4-6.3-15.8s2.1-11.6,6.3-15.8s9.3-6.3,15.5-6.3c6.1,0,11.3,2.1,15.5,6.3 s6.3,9.4,6.3,15.8S794.6,863.2,790.4,867.4L790.4,867.4z M675.9,851.4c2.2-3.1,3.4-6.9,3.4-10.8c0-5.5-1.9-10.2-5.8-14 s-8.5-5.8-14-5.8H635v61.5h10V860h12l13,22.4h11l-14-23.9C670.7,857.1,673.7,854.6,675.9,851.4L675.9,851.4z M659.5,850.9H645v-20.5 h14.5c2.6,0,5.1,1.1,6.8,3c3.7,4.1,3.7,10.4,0,14.6C664.6,849.9,662.1,851,659.5,850.9L659.5,850.9L659.5,850.9z M731.1,855.9 c-1-1.1-2.1-2.1-3.2-3.1c-1-0.8-2.5-1.6-4.4-2.5c-2-0.8-3.5-1.4-4.6-1.8c-1.1-0.4-2.8-1-5.1-1.7c-4.7-1.5-7.9-2.9-9.7-4.2 c-1.7-1.2-2.8-3.3-2.7-5.4c0-2.3,0.9-4.2,2.6-5.6c1.8-1.4,4.1-2.1,7-2.1c6,0,10.3,2.9,12.9,8.6l8.5-4.9c-1.8-4-4.8-7.5-8.5-9.9 s-8-3.6-12.9-3.6c-5.4,0-10.1,1.6-14,4.8s-5.8,7.5-5.8,12.9c0,2.8,0.5,5.2,1.5,7.2c1,2.1,2.6,3.9,4.5,5.1c1.8,1.3,3.7,2.3,5.8,3.2 c2.3,0.9,4.7,1.8,7.1,2.5c5.2,1.6,8.8,3,10.9,4.3c2,1.3,3.1,3.2,3.1,5.8c0.1,2.3-1,4.5-2.9,5.8c-1.9,1.5-4.8,2.2-8.6,2.2 c-7.7,0-12.8-3.5-15.3-10.4l-8.7,5.1c1.5,4.6,4.6,8.5,8.6,11.1c4.1,2.7,9.1,4,15.1,4c6.5,0,11.7-1.6,15.8-4.9c4-3.2,6-7.7,6-13.2 c0-1.8-0.2-3.6-0.7-5.4C733,858.5,732.2,857.1,731.1,855.9L731.1,855.9L731.1,855.9z M548.5,806.6h-27.9v75.8H533v-26h15.5 c7.1,0,13.1-2.4,17.9-7.2c4.8-4.8,7.2-10.7,7.2-17.7c0-7.1-2.4-13-7.2-17.8C561.6,809,555.7,806.6,548.5,806.6L548.5,806.6z M557.6,841c-2.4,2.5-5.4,3.7-9.1,3.7H533v-26.4h15.5c3.7,0,6.7,1.2,9.1,3.7c2.4,2.5,3.6,5.6,3.6,9.5 C561.2,835.3,560,838.5,557.6,841L557.6,841L557.6,841z M856.6,820.9v41.7l-29-41.7h-7.9v61.5h10.1v-41.7l29,41.7h7.9v-61.5H856.6 L856.6,820.9z"></path> <path id="Path-5_00000070797526694466132510000000040002632244785069_" style="fill-rule:evenodd;clip-rule:evenodd;fill:#EA3358;" d=" M150.5,790.4c30.2-16.1,69.1,0.9,72.1,41.9C166.6,836.7,159.9,811.5,150.5,790.4z"></path> <path id="Path-7_00000149367024305364704460000002479639474513150353_" style="fill-rule:evenodd;clip-rule:evenodd;fill:#EA3358;" d=" M153.8,892.2c30.2,16.1,69.1-0.9,72.1-41.9C169.9,846,163.1,871.1,153.8,892.2z"></path> <g> <path id="fgp_fs_logo-B_1_" style="fill:#EA3358;" d="M403.4,393.9l93.9,2.6v40.4l-23-0.3l-0.1-19.6l-11-0.3l0.4,100.4l10.7,0.1 v19.3h-47.6l0.1-19.5H438l-0.2-100.8l-11.1-1l0.1,20l-23.3-1.5v-39.8H403.4z M589.9,411.8l-17.6-17l-62,1.6v21l10.2-0.1v99.9h-10.1 v19.4l62.9-0.1l16.7-17.1v-43.7l-12.5-11l12.5-12.3v-40.6H589.9z M564.4,517l-18.7,0.2v-40.9l18.7-0.2V517z M564.4,456.4l-18.7,0.4 v-39.9l18.7-0.3V456.4z M767.2,489.9l25-1.5v48.2h-75.9v-21.2l11.2-0.3V392.5l-11.2,1.5v-22.4l50.9-8.5v22.2l-15.4,2.2v126.9 l15.4-0.4V489.9z M880.8,482.5v54.1h-75.6v-23.1l10.7-0.5l0.1-136.2l-10.8,2.2l0.2-23.1l50.4-13.5V367l-15.4,3.9v141.5l15.4-0.5 v-27.4L880.8,482.5z M206.6,410.3l-0.1-46L132.2,343l0.1,26.6l11.1,2.7l0.3,140.5l-11.4-0.4l0.1,24.2l49.7-0.1V514l-12.1-0.4V455 l12.1,1.5v5.6l18.4,2.2l-0.1-35.5l-18.4-3.3v6.4l-12.1-2l-0.1-51.1l15.9,3.9l0.1,23.2L206.6,410.3z M696.5,515.7L673.6,403l3.9-0.7 v-20.6l-45.3,5.5v20l3.5-0.5l-24.8,110.1l-8,0.1v19.7h42.7v-20.2l-9.3,0.1l5.1-23.5l15-0.3l9.7-0.3v0.1h0.4l4.8,23.7l-10.3,0.1 v20.4h42.2v-21.1L696.5,515.7z M643.6,472.5l11-39.9l10.3,39.6L643.6,472.5z M239.4,371.4l-16.2,15.3v128.2l17.8,20.4l36.9-0.1 l15.5-17.2V401.2l-16.8-21.7L239.4,371.4z M267.4,513.5l-18.2-0.5V396.2l18.2,3.9V513.5z M369.7,392.1l-37.2-5l-16.2,13.8v115.9 l17.8,18.5l36.9-0.1l15.5-15.6V411.7L369.7,392.1z M360.5,514.9l-18.2-0.3v-105l18.2,3V514.9z"></path> </g> <polygon style="fill:#EA3358;" points="547.8,738.4 516.4,738.4 506.7,708.5 497,738.4 465.6,738.4 491,756.8 481.3,786.7 506.7,768.2 532.1,786.7 522.4,756.8 "></polygon> <polygon style="fill:#EA3358;" points="439.1,730.5 456.8,717.6 435,717.6 428.2,696.8 421.4,717.6 399.5,717.6 417.2,730.5 410.5,751.3 428.2,738.4 445.9,751.3 "></polygon> <polygon style="fill:#EA3358;" points="591,717.5 584.2,696.7 577.5,717.5 555.6,717.5 573.3,730.4 566.5,751.2 584.2,738.3 601.9,751.2 595.2,730.4 612.9,717.5 "></polygon> <path style="fill:#EA3358;" d="M653.5,588.3h-16.8c-13.4,0-24.3,9.1-24.3,20.4v-20.4H588v20.4c0-11.2-10.9-20.4-24.3-20.4h-64v47.5 c-0.3,0.2-0.6,0.2-0.9,0.2h-13c-0.3,0-0.6-0.1-0.9-0.2v-47.5h-125c-13.4,0-24.3,9.1-24.3,20.4v3.9c0,11.2,10.9,20.4,24.3,20.4h15 c0.3,0,0.6,0.1,0.9,0.2v2.6c-0.3,0.2-0.6,0.2-0.9,0.2h-38.4v20.8h38.7c13.4,0,24.3-9.1,24.3-20.4v-3.9c0-11.2-10.9-20.4-24.3-20.4 H360c-0.3,0-0.6-0.1-0.9-0.2v-2.5c0.3-0.2,0.6-0.2,0.9-0.2h55.8v47.6h23.6v-47.6h21.7v27.2c0,11.2,10.9,20.4,24.3,20.4H499 c13.4,0,24.3-9.1,24.3-20.4v20.4h40.2c13.4,0,24.3-9.1,24.3-20.4v20.4h24.4v-20.4c0,11.2,10.9,20.4,24.3,20.4h16.8 c13.4,0,24.3-9.1,24.3-20.4v-27.7C677.8,597.5,666.9,588.3,653.5,588.3z M564.2,635.8c-0.3,0.2-0.6,0.2-0.9,0.2h-15.9v-26.9h15.9 c0.3,0,0.6,0.1,0.9,0.2V635.8z M654.1,635.8c-0.3,0.2-0.6,0.2-0.9,0.2h-16.3c-0.3,0-0.6-0.1-0.9-0.2v-26.4c0.3-0.2,0.6-0.2,0.9-0.2 h16.3c0.3,0,0.6,0.1,0.9,0.2V635.8z"></path> <g> <path style="fill:#EA3358;" d="M459.8,185.4l-0.1,0.1c1.7,6.5,7.1,28.3,10.9,43.9l0,0c0,0,0,0,0,0.1c0.1,0.6,0.3,1.2,0.4,1.7 c0.1,0.2,0.1,0.4,0.2,0.7c0.1,0.4,0.2,0.9,0.3,1.3c0.1,0.3,0.2,0.6,0.2,0.9c0.1,0.3,0.1,0.6,0.2,0.9c0.1,0.4,0.2,0.8,0.3,1.2 c0,0.2,0.1,0.4,0.1,0.5c0.1,0.5,0.2,0.9,0.3,1.4c0,0.1,0.1,0.2,0.1,0.3c0.1,0.5,0.2,1,0.3,1.4c0,0.2,0.1,0.3,0.1,0.4 c0.1,0.4,0.2,0.8,0.3,1.1c0.1,0.5,0.2,0.9,0.3,1.3c6.9,2.4,15.4,5.3,23.9,8.2l2.4,0.8l1.6,0.5c15.3,5.1,29.6,9.7,32.6,10.1h0.1 c8.3-4.9,34.6-21.4,45.6-38.9c0-0.1-0.1-0.1-0.1-0.2c-3.6-33.2-11.7-54.3-14.6-61c-24.1-15.7-49.4-20.4-57.1-21.5 C478.4,161.2,460,185.2,459.8,185.4z"></path> <path style="fill:#EA3358;" d="M397.2,146.2c0,2.2,0.4,22.6,9.1,37.2c6.3-1,31.8-4.6,51.3-0.1c2.4-3,20.2-25.2,48.1-44.5 c-0.8-12.4-6.6-23.6-9.1-27.9c-26.7-6.9-56.1,3-59.1,4c-4,1.7-26,11.6-40.5,30.9c0,0.1,0,0.1,0,0.2L397.2,146.2z"></path> <path style="fill:#EA3358;" d="M582.9,223.1c5.9,4.7,24.6,20.5,31.2,33.7c11.1-6.3,16.6-16.3,17.9-19.1 c-1.4-30.6-12.5-60.8-33.5-85.5c-4.6-3.9-11.2-6.6-14-7.6c-4.1,6.6-12.5,13.8-16.3,16.8C571.3,168.6,579.3,189.9,582.9,223.1 C582.9,223,582.9,223,582.9,223.1z"></path> <path style="fill:#EA3358;" d="M404,185.2c-8-13.3-9.4-30.6-9.7-36.9c-3,0.7-10.6,2.7-14.9,5.8l0,0c-20.5,25.1-31.1,55.5-31.9,86.1 c0,0.3,0.8,12.3,6.9,18.6c3.1-2.1,18.1-12.5,26.4-16.2C381.7,237.2,386.1,214.6,404,185.2z"></path> <path style="fill:#EA3358;" d="M544.5,323.9l0.3-0.4c0.3-0.3,0.4-0.6,0.5-0.6l0,0l0.1-0.1c-1.1-7.9-5.4-36-13.1-57.7 c-4.5-1-14.9-4.3-25.9-8l-1.8-0.6c-13.1-4.3-26.6-9.1-32.3-11c-7.4,5.6-35.9,27.3-46.9,37c0.2,5.9,1.7,40,12.2,57.5 c0.3,0.5,0.3,1,0,1.5s-0.8,0.8-1.3,0.8c9.8,2.2,41.7,2.8,58.9,20C525.7,346.9,540.9,328.6,544.5,323.9z"></path> <path style="fill:#EA3358;" d="M373.9,326.7c0.3,0.4,0.6,0.8,0.9,1.2c-0.4-0.6-0.8-1.1-1.2-1.7L373.9,326.7z"></path> <path style="fill:#EA3358;" d="M383.8,339.1c0.3,0.3,0.6,0.6,0.8,0.9l0.2,0.2l0,0C384.5,339.8,384.1,339.4,383.8,339.1 C383.8,339,383.8,339,383.8,339.1z"></path> <path style="fill:#EA3358;" d="M632.2,243.9c0-0.1,0-0.3,0-0.4c-4.3,6.8-10.4,12.5-17.6,16.4c-0.7,6.7-4.4,30.4-20,52.9 c0,0,0,0.1,0,0.2l0.1,0.3c0.6,2.6,3.3,13.9,3.4,23l-0.5,0.6l-0.7,0.8c-0.6,0.7-1.3,1.4-1.9,2.1c0.7-7.9-1.9-20.1-2.9-24.6 c-4.6,2.5-22.1,10.8-44.6,9.6c-2.3,3.3-17.2,22.8-50.1,39.5c8.6,9.4,8.2,14.9,6.6,17.7c3,0.6,9.3,1.7,15.1,1.3 c26.2-5.5,51.1-18.3,71.4-38.6C618.3,316.9,632.2,280.4,632.2,243.9z"></path> <path style="fill:#EA3358;" d="M519.2,383.4L519.2,383.4c-0.3,0-0.4,0.1-0.6,0.1C518.8,383.5,519,383.4,519.2,383.4z"></path> <path style="fill:#EA3358;" d="M409.6,351.2L409.6,351.2c0,0,16.2-10.9,26.1-9.1c-0.3-0.1-0.6-0.3-0.8-0.7 c-10.8-18-12.4-51.3-12.6-58.5c-5.3-3.2-23.9-15.5-40.5-37.3c-3.1,1.4-7.1,3.7-11.2,6.2l-0.9,0.6c-7.2,4.5-14,9.3-14.1,9.3 c0,0-0.1,0-0.1,0.1c-0.1,6.9,0,31.9,9.3,50.4l0,0c2.6,4.8,5.5,9.4,8.7,13.9l-0.1-0.1C387.6,341.7,408.6,350.7,409.6,351.2z"></path> <path style="fill:#EA3358;" d="M379.4,334c-1.1-1.4-2.2-2.7-3.3-4.1c-0.2-0.2-0.4-0.5-0.5-0.7c-0.3-0.4-0.6-0.8-0.9-1.2 c2.8,3.8,5.8,7.5,9,11.1c-1.1-1.2-2.1-2.4-3.1-3.6C380.2,334.9,379.8,334.4,379.4,334z"></path> <path style="fill:#EA3358;" d="M632.2,243.8c0,0.1,0,0.1,0,0.2v0.1V243.8z"></path> <path style="fill:#EA3358;" d="M591,144c-0.2-0.2-0.4-0.4-0.6-0.6c-3.4-3.4-6.9-6.5-10.5-9.5c2.9,3.4,4.3,6.1,5,7.6 C586.1,141.9,588.4,142.8,591,144z"></path> <path style="fill:#EA3358;" d="M632,238.1c0.1,1.8,0.1,3.6,0.1,5.4l0,0C632.2,241.7,632.1,239.9,632,238.1z"></path> <path style="fill:#EA3358;" d="M497.6,108.1c4.2-2.1,10.4-3.8,18.2-4c-26.1-4.8-53.4-2.3-78.4,7.6c0,0.1,0,0.1,0,0.2 C443.1,109.9,471.1,101.2,497.6,108.1z"></path> <path style="fill:#EA3358;" d="M436.2,342.1c-0.2,0-0.3-0.1-0.5-0.1C435.9,342.1,436.1,342.1,436.2,342.1L436.2,342.1z"></path> </g> </svg> 