<?xml version="1.0" encoding="UTF-8"?> <svg xmlns="http://www.w3.org/2000/svg" xmlns:xlink="http://www.w3.org/1999/xlink" version="1.1" id="Layer_1" x="0px" y="0px" viewBox="0 0 1000 1000" style="enable-background:new 0 0 1000 1000;" xml:space="preserve"> <g style="display:none;"> <path style="display:inline;fill:#513535;" d="M1453.4,315.4c8.3-0.2,16.6,0,24.9,0c0,0,0,0,0-0.1c8.8,0,17.6,0.2,26.4-0.1 c5.1-0.1,9.3-1.7,9.9-7.9c0.6-6.4-2.3-9.9-8.3-11.3c-1.7-0.4-3.5-0.6-5.2-0.6c-15.8-0.1-31.7-0.1-47.5-0.1c-6.9,0-9,3.5-8.8,10 C1444.9,311.5,1446.1,315.6,1453.4,315.4z"></path> <path style="display:inline;fill:#513535;" d="M1770.3,113.4c0.3,3.4,4.4,8.3,7.5,9c2.9,0.6,6.7-3.8,12.8-7.7 c-5.8-4.3-9.1-8.6-12.4-8.6C1775.4,106,1770,111,1770.3,113.4z"></path> <path style="display:inline;fill:#513535;" d="M1617.2,163.6c0-8.4,0.4-15.7-0.1-23c-0.5-6.3-4.6-10.7-11-9.7 c-4.1,0.6-10.4,3.9-10.9,6.8c-1.5,8.5-0.5,17.3-0.5,25.9C1602.6,163.6,1609.3,163.6,1617.2,163.6z"></path> <path style="display:inline;fill:#513535;" d="M1897.7,131.1h-43.1c0.4-7.4,0.5-14.3,0.5-20.3V93.6c0-11.2-9.5-20.2-21.2-20.2h-459 c-11.7,0-21.2,9.1-21.2,20.2v17.2c0,6.1,0.2,12.9,0.6,20.3h-43.1c-54.1,0-98,42-98,93.6v4.5c0,150.9,116.3,277,269.8,298.4 c4.8,5.6,9.7,10.9,14.7,15.9c30.9,30.5,48.6,71,48.6,113.4v1.9c0,30.7-16.4,59.5-43.8,75.6c-27.4,16-47.3,42.5-53.6,73.7h-26.3 c-16.8,0-30.4,13-30.4,29V962h-32.4c-5.6,0-10.2,4.4-10.2,9.8v27.9c0,5.4,4.6,9.8,10.2,9.8h489.1c5.6,0,10.2-4.4,10.2-9.8v-27.9 c0-5.4-4.6-9.8-10.2-9.8h-32.4V837c0-16-13.6-29-30.4-29h-26.3c-6.3-31.1-26.2-57.6-53.6-73.7c-27.4-16-43.8-44.9-43.8-75.6l0,0 c0-43,18.2-84,49.8-114.7c5.5-5.3,10.7-10.9,15.8-16.9c152.3-22.4,267.4-147.9,267.4-298.1v-4.5 C1995.7,173.1,1951.7,131.1,1897.7,131.1z M1762,99.4c11.9,0,23.5,0,35.1,0c0,49.8,0,99.5,0,149.3c-11.4,0-22.8,0-35.1,0 C1762,198.7,1762,149.3,1762,99.4z M1803.6,267.3c0,3.5,0,7,0,10.5c-1.9,0.4-3.8,1.2-5.7,1.2c-19.7,0.2-39.3-0.3-59,0.5 c-16.5,0.7-32.9,2.9-49.9,4.5c0-4.8,0-10.2,0-16.7C1727.2,267.3,1765.4,267.3,1803.6,267.3z M1668.1,99c6.2,0.4,12.4,0.5,18.6,0 c6.8-0.6,8.2,2.4,8.2,8.5c-0.3,32.9-0.1,65.7-0.1,98.6c0,3.3,0,6.6,0,10.4c14.9,1.3,18-1.3,18.1-14.2c0.1-30.7,0.1-61.4,0.1-92.1 c0-3.3,0-6.6,0-10.5c12.6,0,24.2,0,36.6,0c0.2,2.8,0.6,5.5,0.6,8.2c0,33.5-0.6,67,0.2,100.4c0.6,25.5-14.4,39.4-37.6,40.5 c-15.1,0.7-30.3,0.5-45.4,1c-6,0.2-7.2-2.5-7.2-7.7c0.1-45.1,0.2-90.3,0-135.4C1659.9,100.3,1662.2,98.6,1668.1,99z M1560.2,138.6 c0.1-7,0.9-14.2,3-20.8c3.9-12.8,11.9-18.4,25.3-18.9c9.6-0.4,19.2-0.2,28.8-0.2c22.8,0,33.2,10,33.5,33 c0.3,25.2,0.1,50.3,0.1,75.5c0,13.8,0,27.6,0,42c-10.9,0-21,0-32.8,0c0-17.4,0-34.4,0-52c-8.1,0-15.1,0-23.5,0 c0,14.1-0.5,28.4,0.2,42.7c0.4,8.3-2.3,10.3-10.4,10.2c-24.2-0.4-24.2,0-24.2-24.1C1560.1,196.9,1559.9,167.8,1560.2,138.6z M1604.5,266.9c20.2,0,40.4,0.2,60.5-0.1c5.4-0.1,7.3,1.5,6.8,6.7c-0.4,4.6-0.1,9.3-0.1,13.5c-28.1,7.8-55.6,11.7-83.8,10.1 c-11.1-0.6-10.9,0-11.8,10.6c-0.2,2.3-2.2,5.5-4.2,6.4c-8.9,3.9-18.1,7.2-28.5,11.2c0-9.3,0-17.8,0-26.4c0-6.7-0.1-13.4,0-20.2 c0.1-8.6,3-11.7,11.9-11.8C1571.7,266.8,1588.1,266.9,1604.5,266.9z M1414.5,374.8c0.3-3.4,0.8-6.9,0.8-10.3 c0.1-20.8,0.1-41.6,0-62.4c0-8.1-0.5-16.3-0.8-24.4c0-3,0-6,0-9c2.6-0.7,5.2-1.9,7.8-1.9c31.5-0.1,63-0.1,94.4,0 c9.4,0,10.2,1,10.2,10.4c0,16.9,0,33.8-0.1,50.7c0,6.5-10,12.7-16.1,10.5c-3.9-1.4-8.1-2.8-12.2-2.9c-14.8-0.3-29.7-0.2-44.6,0 c-8.3,0.1-9,1.4-9.2,12.3c-0.1,6.5,1.9,9.7,9.1,9.3c7.9-0.5,15.8-0.1,24.2,1.5c-12.1,8.9-24.2,17.8-36.3,26.7c-9.1,0-18.2,0-27.3,0 C1414.5,381.8,1414.5,378.3,1414.5,374.8z M1265.5,229.1v-4.5c0-24.1,20.5-43.7,45.7-43.7h47.6c10.1,82.5,36.1,198.4,83.5,285.9 C1338.9,432.6,1265.5,338.7,1265.5,229.1z M1525,385.3c-17.2,0-34.3,0-51.5,0c4.5-3.8,8.6-8.1,13.4-11.3c10.3-7,21-13.6,31.6-20.2 c2.2-1.4,4.8-2.2,9.4-4.3C1526.9,362.6,1525.9,374,1525,385.3z M1516.7,249.9c0-11.7,0-22,0-32.4c0-24,0-47.9,0-71.9 c0-13.7-0.1-13.7-15.2-12.5c0,3.1,0,6.4,0,9.6c0,31.9-0.4,63.9,0.3,95.8c0.2,9.8-3.1,12.5-12.1,11.4c-4.6-0.6-9.3-0.6-13.9,0 c-8.7,1.1-11.7-1.8-11.5-10.9c0.6-31,0.2-62,0.2-93.1c0-13.7-1.2-14.7-16.2-12.3c0,3.1,0,6.3,0,9.6c0,32.6-0.2,65.1,0.1,97.7 c0.1,6.8-1.8,9.4-8.8,9c-8-0.5-16-0.1-24.9-0.1c0-50.4,0-100.1,0-149.5c18.6,0,37,0.1,55.4-0.1c3.2,0,6.4-1.3,9.6-1.3 c15.2-0.1,30.4-0.3,45.5,0.2c14.1,0.5,24.3,9.9,26.8,23.5c0.9,4.8,1.5,9.7,1.6,14.6c0.1,34.7-0.1,69.4,0.2,104.1 c0,6.3-1.7,8.9-8.4,8.6C1536,249.6,1526.8,249.9,1516.7,249.9z M1671.6,376.7c-0.5,3-2.8,5.8-4.3,8.6c-37.9,0-75.7,0-113.6,0 c-7.7-3.2-10.8-9.1-10.4-17.2c0.2-4.5,0.7-9.1-0.1-13.4c-1.9-10.8,2.9-16.2,12.9-19.7c11.1-3.9,21.5-9.7,32.7-13.4 c8.2-2.7,17-4.3,25.6-4.6c18.3-0.7,36.7-0.2,54.6-0.2c0.8,1.1,1.3,1.5,1.3,1.9c1.4,16,1.4,16-14.6,16c-23.7,0-47.4,0-71.2,0 c-9.2,0-9.8,0.6-9.8,9.8c0,3.5,0,6.9,0,10.9c2.6,0.2,4.8,0.5,7,0.5c27.5,0,55,0.2,82.5-0.2c6.2-0.1,8.1,1.7,7.6,7.6 C1671.5,367.7,1672.4,372.3,1671.6,376.7z M1756.9,297.4c-6.1-0.1-7.7,1.6-7.7,7.4c0.2,26.8,0,53.6-0.1,80.4c-9.6,0-19.2,0-28.8,0 c-0.5-2.8-1.5-5.7-1.5-8.5c-0.1-24.1-0.3-48.2,0.1-72.2c0.1-6.5-2.1-8.1-8.2-7.7c-7.3,0.5-14.7,0.1-22,0.1 c-0.1-0.9-0.2-1.8-0.3-2.7c3.6-0.8,7.2-1.7,10.9-2.4c32.5-5.6,65.3-7.8,98.3-7.7c2,0,3.9,0.6,5.9,0.9c0,4,0,8,0,12 C1788,297.3,1772.4,297.8,1756.9,297.4z M1943.4,229.1c0,108.7-72.2,201.9-174.3,236.9c46.8-87.4,71.6-202.8,81.2-285h47.3 c25.2,0,45.7,19.6,45.7,43.7L1943.4,229.1L1943.4,229.1z"></path> </g> <g style="display:none;"> <radialGradient id="SVGID_1_" cx="585.3616" cy="609.7427" r="50.2211" gradientUnits="userSpaceOnUse"> <stop offset="0" style="stop-color:#FFFFFF"></stop> <stop offset="5.423248e-03" style="stop-color:#FCFCFC"></stop> <stop offset="0.1256" style="stop-color:#C2C2C2"></stop> <stop offset="0.2488" style="stop-color:#8E8E8E"></stop> <stop offset="0.3723" style="stop-color:#636363"></stop> <stop offset="0.496" style="stop-color:#3F3F3F"></stop> <stop offset="0.6202" style="stop-color:#232323"></stop> <stop offset="0.745" style="stop-color:#101010"></stop> <stop offset="0.871" style="stop-color:#040404"></stop> <stop offset="1" style="stop-color:#000000"></stop> </radialGradient> <path style="display:inline;fill:url(#SVGID_1_);" d="M676.4,811.3c2.6-9.4-16.8-26-44.4-37.6c-25-10.5-48.3-13.3-56.1-7.4 c-4.3-1.1-8.4-1.9-12.2-2.4c1-0.2,2-0.5,3-0.7c0-0.5,0-1.2,0-1.9c0-0.1,0-0.2,0-0.3c0-0.1,0-0.3,0-0.4c-0.2-1.9-0.9-4.4-3.6-6.9 c-8.9-8.3-17.9-22.9-17.6-38.6c0.2-12.3,4.3-24.5,7.5-36.3c0.8-0.5,1.1-1.1,1.1-1.6c0-0.3-0.2-0.5-0.4-0.8c1.1-2.2,4.6-4.4,4.7-6.6 c0.2-2.5-1.3-4.8-3.6-6.9c-0.2-0.2-0.5-0.4-0.7-0.6c-0.3-0.2-0.6-0.5-0.9-0.7c-0.2-0.2-0.4-0.3-0.7-0.5c-7.7-5.8-20.1-11-20.1-18.8 c0-8.3,9-14.3,19-18.9c0.6-0.3,1.3-0.6,1.9-0.9c0.6-0.3,1.2-0.5,1.8-0.8c9.6-4,19.3-7,22.6-9.6c1.1-0.8,2.7-2.4-0.6-4.7 c-2.5-0.2-4.9-0.2-7.3-0.2c-0.6,0-1.2,0-1.8-0.1c-0.3,0-0.7,0-1,0c0,0.9-0.8,1.6-1.3,2.1c-3.3,2.7-13,5.8-22.6,10 c-0.6,0.3-1.2,0.5-1.8,0.8c-0.6,0.3-1.3,0.6-1.9,0.9c-10.1,4.8-19,11-19,19.6c0,8.1,12.3,13.5,20,19.4c-3.6-0.6-7.7-1-12.3-1.4 c-4-5.8-9.8-11.2-9.8-19.1c0-8.8,4.6-15.2,9.8-20.1c0.3-0.3,0.7-0.6,1-0.9c0.3-0.3,0.6-0.5,0.9-0.8c4.9-4.3,10-7.4,11.6-10.2 c0.1-0.2,0.3-0.4,0.4-0.7c-5.4,0-10.8,0-16.2-0.1c-10.6-0.2-21.4-0.1-31.9-0.2c-10.5,0-20.9,0.1-31.3,0.3c-2.4,0-4.9,0-7.4,0.1 c0.1,0.2,0.1,0.4,0.3,0.6c2,2.6,7,5.5,11.8,9.6c0.3,0.3,0.6,0.5,0.9,0.8c0.3,0.3,0.6,0.6,1,0.9c2.4,2.2,4.6,4.8,6.3,7.9 c-2.9-2.1-6.4-4-9.9-5.7c-0.6-0.3-1.3-0.6-1.9-0.9c-0.6-0.3-1.2-0.5-1.8-0.8c-9.6-4.2-19.3-7.3-22.6-10c-0.6-0.5-1.3-1.2-1.3-2.1 c-0.3,0-0.7,0-1,0c-0.6,0-1.2,0-1.8,0.1c-2.4,0-4.8,0-7.3,0.2c-3.3,2.3-1.7,3.9-0.6,4.7c3.3,2.6,13,5.6,22.6,9.6 c0.6,0.3,1.2,0.5,1.8,0.8c0.6,0.3,1.3,0.6,1.9,0.9c10.1,4.6,19,10.6,19,18.9c0,7.6-11.9,12.8-19.6,18.4c-6.2,1.2-9.8,2.7-9.8,4.3 c0,1,1.3,1.9,3.6,2.7c-0.2,0.7-0.3,1.4-0.2,2.1c0.1,1.7,2.3,3.4,3.7,5.1c-4.6,1.2-7.2,2.5-7.1,3.9c0.1,1.6,3.8,3,10,4.2 c3,10.5,6.2,21.3,6.4,32.1c0.3,15.6-8.8,30.2-17.6,38.6c-0.3,0.3-0.7,0.6-0.9,1c-23.7,2.1-41.2,9.2-41.2,17.6 c0,1.8,0.8,3.5,2.2,5.1c-3.5,1.2-7.2,2.5-10.8,4c-28.4,11.6-48.3,28.6-44.5,37.9c2.6,6.4,15.5,7.5,32.5,3.9 c14.4,7.3,55,12.6,102.8,12.8c43.5,0.2,81-4,98.3-10.2c0,0.3-0.1,0.7-0.1,1c0.4,10.1,25.5,17.4,56.2,16.3 c30.7-1.1,55.2-10.1,54.9-20.2C690.9,818.3,685.3,814.2,676.4,811.3z M530.9,671.3c0,0,0-0.1,0-0.1c6.1-0.6,11.3-1.4,15.2-2.3 c0,0.1,0,0.1,0,0.2c-0.1,1.3-1.2,2.6-2.4,3.8C540.2,672.3,535.9,671.8,530.9,671.3z M470.8,655.6c-0.7,1-1.5,2-2.2,3 c-0.9,0.1-1.7,0.2-2.6,0.2C467.5,657.7,469.1,656.7,470.8,655.6z M458.9,670.4c2.1,0.3,4.3,0.6,6.7,0.8c0.2,0.3,0.3,0.7,0.5,1 c-1.9,0.2-3.6,0.4-5.3,0.7C460.1,672,459.4,671.2,458.9,670.4z M468.7,684.9c0.6,6.3,1.1,12.7,1.5,18.9c-1.1-6.4-2.9-12.8-4.6-19.2 C466.6,684.7,467.6,684.8,468.7,684.9z M470.7,725.3c-0.6,11-3.1,20.1-7.2,28.9c-2.4-0.1-5-0.2-7.5-0.2 C462.5,747,468.6,736.7,470.7,725.3z M481.9,799.6c-18.5-0.1-35.8,0.7-51.1,2c5.7-3.8,10.3-7.7,13.6-11.3c3.5,0.2,7,0.3,10.7,0.3 c30.7,0,55.5-8.2,55.5-18.3c0-1.5-0.6-3-1.6-4.4c4.7,0,9.5,0,14.4-0.1c4.2,0,8.4-0.2,12.5-0.3c0-0.5,0-1,0-1.6c0-0.1,0-0.2,0-0.3 c0-0.1,0-0.3,0-0.5c-0.1-2-0.5-4.6-1.9-7.3c-4.6-8.8-9.3-24.4-9.1-41c0.1-11.1,1.6-22,3.1-32.8c4.3-0.4,8.2-0.9,11.7-1.5 c-3,11-6.2,22.3-6.4,33.6c-0.3,16.2,8.8,31.4,17.6,40.1c2.6,2.6,3.4,5,3.6,7c-7.9,0-13.4,1.9-15,5.8c-3.9,9.3,15.9,26.5,44.2,38.3 c4.9,2.1,9.8,3.8,14.4,5.3c-3.2,1.1-6,2.2-8.4,3.5C583.6,807,537.6,799.8,481.9,799.6z"></path> <radialGradient id="SVGID_00000176764824658566118120000007042856524452682164_" cx="815.774" cy="180.366" r="75.0275" gradientUnits="userSpaceOnUse"> <stop offset="0" style="stop-color:#FFFFFF"></stop> <stop offset="5.423248e-03" style="stop-color:#FCFCFC"></stop> <stop offset="0.1256" style="stop-color:#C2C2C2"></stop> <stop offset="0.2488" style="stop-color:#8E8E8E"></stop> <stop offset="0.3723" style="stop-color:#636363"></stop> <stop offset="0.496" style="stop-color:#3F3F3F"></stop> <stop offset="0.6202" style="stop-color:#232323"></stop> <stop offset="0.745" style="stop-color:#101010"></stop> <stop offset="0.871" style="stop-color:#040404"></stop> <stop offset="1" style="stop-color:#000000"></stop> </radialGradient> <path style="display:inline;fill:url(#SVGID_00000176764824658566118120000007042856524452682164_);" d="M868.9,192.9 c-15.6-15.4-36.5-17.7-47.6-17.7c-2.4,0-4.7,0.1-7,0.3c-7.6,0.7-15.5,3.4-23.6,8l-0.5,0.3c-4.3,2.6-11.2,7.9-16.8,14.1 c-4.6,5.1-7.8,10.2-9.2,14.7l-0.2,0.7c-0.9,2.8-3.2,10.1-3.5,17.9c-0.2,7.2,0.8,19.8,7.4,35.6c-3.3-13.2-3-23.9-2.4-30.1 c0.8-7.5,3.8-13.7,5.3-16.7c0.2-0.4,0.3-0.7,0.4-0.9c2.6-6,6.5-11.5,11.7-16.1c6-5.3,12.2-8.3,14.9-9.6l0.3-0.1 c5.4-2.5,10.5-4.2,14.6-4.7c1.5-0.2,3.8-0.4,6.7-0.4c8.8,0,25.7,2,39.5,15c2.4,2.3,57.6,56.6-22.2,159.8 c-10,12.9-43.1,48.4-79.1,83.2c-23.2,22.5-46.5,43.2-61.9,56.7l-0.9,0.7c-13,11.1-24.2,22.4-33.4,33.5c-5.5,6.7-10,13-13.6,19.1 c4.3-6.5,9.8-13.6,16.5-21.1c12.4-14,25.7-26,32.5-31.9l0.2-0.2c17.5-15.3,40-35.6,61.6-55.7c41-38,71.1-67.9,80.6-79.8 C927.3,256.5,875.1,199,868.9,192.9z"></path> <radialGradient id="SVGID_00000003823312653628242290000007236432153056818338_" cx="277.9701" cy="180.366" r="75.0275" gradientUnits="userSpaceOnUse"> <stop offset="0" style="stop-color:#FFFFFF"></stop> <stop offset="5.423248e-03" style="stop-color:#FCFCFC"></stop> <stop offset="0.1256" style="stop-color:#C2C2C2"></stop> <stop offset="0.2488" style="stop-color:#8E8E8E"></stop> <stop offset="0.3723" style="stop-color:#636363"></stop> <stop offset="0.496" style="stop-color:#3F3F3F"></stop> <stop offset="0.6202" style="stop-color:#232323"></stop> <stop offset="0.745" style="stop-color:#101010"></stop> <stop offset="0.871" style="stop-color:#040404"></stop> <stop offset="1" style="stop-color:#000000"></stop> </radialGradient> <path style="display:inline;fill:url(#SVGID_00000003823312653628242290000007236432153056818338_);" d="M338.5,537.1 c-9.2-11.1-20.4-22.4-33.4-33.5l-0.9-0.7c-15.4-13.5-38.7-34.2-61.9-56.7c-36-34.8-69.1-70.3-79.1-83.2 C83.4,259.8,138.6,205.4,141,203.2c13.8-13.1,30.7-15,39.5-15c2.9,0,5.3,0.2,6.7,0.4c4,0.5,9.2,2.1,14.6,4.7l0.3,0.1 c2.7,1.3,9,4.3,14.9,9.6c5.2,4.6,9.1,10,11.7,16.1c0.1,0.2,0.2,0.5,0.4,0.9c1.4,3,4.5,9.2,5.3,16.7c0.7,6.2,0.9,16.9-2.4,30.1 c6.7-15.8,7.6-28.4,7.4-35.6c-0.2-7.8-2.6-15.1-3.5-17.9l-0.2-0.7c-1.4-4.5-4.6-9.5-9.2-14.7c-5.6-6.2-12.5-11.5-16.8-14.1 l-0.5-0.3c-8.1-4.7-16-7.4-23.6-8c-2.3-0.2-4.6-0.3-7-0.3c-11.1,0-32,2.3-47.6,17.7c-6.2,6.2-58.4,63.6,29.6,174.6 c9.5,12,39.6,41.8,80.6,79.8c21.6,20.1,44.1,40.3,61.6,55.7l0.2,0.2c6.8,5.9,20.1,18,32.5,31.9c6.7,7.5,12.2,14.6,16.5,21.1 C348.5,550.1,344,543.8,338.5,537.1z"></path> </g> <g> <defs> <path id="SVGID_00000100341170638700224720000010632184628588992897_" d="M523.1,697.1v-59.3h-62.5v59.3 c0,117.7-74,213.5-164.9,213.5H688C597.1,910.5,523.1,814.8,523.1,697.1z"></path> </defs> <use xlink:href="#SVGID_00000100341170638700224720000010632184628588992897_" style="overflow:visible;fill:#F4CD0C;"></use> <clipPath id="SVGID_00000035524192312616078060000013935626595728492423_"> <use xlink:href="#SVGID_00000100341170638700224720000010632184628588992897_" style="overflow:visible;"></use> </clipPath> <rect x="423.6" y="609.6" style="clip-path:url(#SVGID_00000035524192312616078060000013935626595728492423_);fill:#E29418;" width="136.6" height="118.6"></rect> </g> <rect x="295.7" y="910.5" style="fill:#E29418;" width="392.3" height="40.1"></rect> <path style="fill:#F4CD0C;" d="M215.5,83.8c0,4.6-0.2,9.2-0.2,13.9c0,328.3,123.8,594.4,276.6,594.4S768.4,425.9,768.4,97.6 c0-4.6-0.1-9.2-0.2-13.9H215.5z"></path> <path style="fill:#F4CD0C;" d="M743,162.9c0.6-10.8,1-21.7,1.3-32.7H324.3c-0.1-6.4-0.2-12.9-0.2-19.4h467.7V56.7H192.4v54.1h23.1 c0.2,17.6,0.7,35,1.6,52.1H112.6v109.5c0,128.9,83.7,238.2,199.6,276.8C360.6,638.2,423.4,692,492,692c-21.9,0-42.9-14.9-62.1-42 c20,11.9,40.8,18.3,62.1,18.3c54.4,0,105.5-41.2,147.3-110.3c132.5-27.4,232.2-144.8,232.2-285.5V162.9H743z M160.1,272.5v-62h60.4 c9.2,102.9,30.8,196.4,61.2,273.1C209,441.2,160.1,362.4,160.1,272.5z M823.9,272.5c0,102.9-64.1,191.2-154.4,227 c34.7-78.2,59.8-178.3,70-289h84.3V272.5z"></path> <rect x="223.6" y="56.7" style="fill:#FAEC0F;" width="86.4" height="54.1"></rect> <g> <path style="fill:#FFFFFF;" d="M289.3,145.1c21.2,0,41,0.2,60.7-0.1c18.8-0.3,37.5-1.6,56.3-1.5c18.2,0.1,28.9,9.9,31.7,27.7 c0.7,4.5,1.4,9.1,1.4,13.7c0.1,36.9-0.2,73.8,0.3,110.7c0.1,8.2-2.7,10.3-10.4,9.9c-9.2-0.6-18.5-0.1-28.8-0.1 c-0.2-4.4-0.5-7.9-0.5-11.4c0-33.6,0-67.2,0-100.8c0-14.7-0.1-14.7-16.4-12.8c0,3.4,0,6.9,0,10.4c0,34.9-0.2,69.9,0.2,104.8 c0.1,8-2.4,10.5-10.2,10c-9.5-0.6-19.1-0.1-29.8-0.1c0-5.5,0-9.7,0-13.9c0-32.6,0-65.2,0-97.9c0-14.3-1.9-15.7-17.4-12.6 c0,40.8,0,81.8,0,124.4c-11.6,0-22.1,0.4-32.6-0.4c-1.7-0.1-4.3-5.7-4.3-8.8c-0.3-41.5-0.2-83-0.2-124.5 C289.3,162.4,289.3,153.3,289.3,145.1z"></path> <path style="fill:#FFFFFF;" d="M358,430.8c-13,9.4-25.2,20.5-39.4,27.6c-8.2,4.1-19.6,1.6-30.2,2.1c0-44.4,0-87.7,0-131.8 c2.4-0.2,4.8-0.7,7.2-0.7c34.9,0,69.7-0.1,104.6,0c11.5,0,12.2,1,12.2,12.6c0,18.6,0,37.3-0.1,55.9c0,7.2-11.3,14.1-18.1,11.5 c-3.8-1.5-8-3-12-3c-17.4-0.3-34.8-0.3-52.3,0c-8.3,0.1-9.1,2.2-9.1,14.9c0,6.9,2.7,9.5,9.6,9.2c8.9-0.4,17.8-0.1,26.7-0.1 C357.5,429.6,357.7,430.2,358,430.8z M357.8,382.3c0,0,0-0.1,0-0.1c10.4,0,20.7,0.3,31.1-0.1c5-0.2,9.1-2.4,9.8-8.3 c0.6-6-1.3-10.4-7.3-12.4c-2.1-0.7-4.4-1.2-6.6-1.2c-18.2-0.1-36.4-0.1-54.6-0.1c-7.9,0-9.4,4.7-9.3,11.6c0.1,7.2,2.2,11,10.1,10.8 C339.9,382,348.9,382.3,357.8,382.3z"></path> <path style="fill:#FFFFFF;" d="M543.3,304.9c-11.3,0-22.1,0-34.1,0c0-18.4,0-36.7,0-55.8c-8.9,0-16.6,0-25.5,0 c0,15.5-0.3,30.9,0.1,46.2c0.2,7.2-1.2,10.4-9.7,10.4c-27.5-0.2-27.5,0.1-27.5-27.4c0-30.6-0.2-61.3,0.1-91.9 c0.1-7.8,1-15.9,3.4-23.2c4-12.3,12.6-19.9,26.6-19.8c13,0,26-0.4,38.9,0c12.9,0.3,22.1,7.3,25.8,19.4c1.4,4.7,2.5,9.7,2.5,14.5 c0.2,40.5,0.2,81,0.1,121.6C544.1,300.6,543.6,302.5,543.3,304.9z M508,212.6c0-9.1,0.6-17-0.2-24.7c-0.7-7.8-6.1-11.1-13.9-10.6 c-7.4,0.5-10.4,4.6-10.4,11.6c0.1,7.8,0,15.6,0,23.7C492.1,212.6,499.5,212.6,508,212.6z"></path> <path style="fill:#FFFFFF;" d="M591.2,268.8c15.1,2.8,19.5-0.4,19.6-13.7c0.2-33.3,0.1-66.5,0.1-99.8c0-3.5,0-7.1,0-11.2 c13.6,0,26.1,0,39.3,0c0.2,3.3,0.6,6.1,0.6,9c0,35.9-0.7,71.8,0.2,107.7c0.7,27-15.4,42.2-40.6,43.3c-16.3,0.7-32.6,0.6-48.8,1 c-4.6,0.1-7.5-0.8-7.5-6.4c0.2-50.7,0.2-101.4,0.4-152.2c0-0.6,0.6-1.1,1.2-2.4c11.2,0,22.6,0,35.6,0 C591.2,185.9,591.2,227.5,591.2,268.8z"></path> <path style="fill:#FFFFFF;" d="M572,384.4c2,19.5,2,19.5-16.2,19.5c-25.9,0-51.7,0-77.6,0c-12.3,0-12.5,0.1-12.5,12 c0,3.6,0,7.1,0,11.8c3.9,0,7.2,0,10.5,0c30.1,0,60.2,0,90.3-0.2c5.3,0,7.9,1.2,7.4,7c-0.4,5.5-0.3,11.1,0,16.7 c0.3,6.6-2.8,8.9-9.1,8.9c-39.6-0.1-79.3,0-118.9-0.1c-9.4,0-14.5-5.1-14.9-14.5c-0.4-9.7-0.4-19.5,0-29.2c0.1-2.4,2.3-5.9,4.4-6.8 c18.9-8.4,38-16.3,57.2-24.2c2.2-0.9,4.9-1.1,7.4-1.1c21.9-0.1,43.9,0,65.8,0C567.8,383.9,569.7,384.2,572,384.4z"></path> <path style="fill:#FFFFFF;" d="M431.1,393.4c0-19.5-0.4-38,0.4-56.5c0.1-2.9,5.4-6.1,8.9-8.2c1.9-1.2,4.9-0.6,7.5-0.6 c39.6,0,79.3,0.1,118.9-0.1c5.5,0,7.3,1.5,7.3,7c0.1,16,0.1,15.2-15.4,19.4c-26.3,7.2-53.1,8.3-80.1,7.2 c-8.4-0.3-12.3,2.3-10.9,10.8c0.8,5.4-1.7,7.8-6.7,9.5C451.3,385.2,442,389.1,431.1,393.4z"></path> <path style="fill:#FFFFFF;" d="M593,361.7c11-9,107-17.5,127.2-13.1c0,3.9,0,8,0,13.6c-9.3,0-18.4,0-27.6,0c-8.2,0-16.3,0.6-24.4,0 c-6.6-0.5-8.1,1.9-8,8c0.3,26.7,0.1,53.5,0.1,80.2c0,2.8,0,5.5,0,9.6c-10.3,0-20.1,0.1-29.8-0.1c-6-0.1-4.2-4.9-4.2-8.1 c-0.1-27.3-0.2-54.6,0.2-81.9c0.1-6.7-1.8-8.8-8.5-8.4C609.6,362.2,601.3,361.7,593,361.7z"></path> <path style="fill:#FFFFFF;" d="M663.7,143.7c12.2,0,24,0,36.5,0c0,53.3,0,106.1,0,159.6c-12,0-23.8,0-36.5,0 C663.7,250.3,663.7,197.3,663.7,143.7z M694.5,159.7c-6.4-4.4-10.1-8.9-13.6-8.8c-3.1,0.1-8.6,5.7-8.3,8.3c0.4,3.6,5,8.8,8.4,9.3 C684.1,169,688.1,164.2,694.5,159.7z"></path> <path style="fill:#FFFFFF;" d="M591.8,346.2c0.6,0.9,0.3,0.7,0.3,0.5c-1.4-18.8-1.4-18.8,17.7-18.8c33.1,0,66.2,0,99.4,0 c12.2,0,12.2,0,11,12.3C677.7,342.1,635.3,344.1,591.8,346.2z"></path> <path style="fill:#FFFFFF;" d="M412.7,420.3c0,12.6,0.3,23.1-0.3,33.6c-0.1,2.2-3.8,5.8-5.9,5.9c-17.3,0.5-34.7,0.3-52.4-0.6 C371.5,444.1,390.5,431.5,412.7,420.3z"></path> </g> </svg> 