<?xml version="1.0" encoding="UTF-8"?> <svg xmlns="http://www.w3.org/2000/svg" xmlns:xlink="http://www.w3.org/1999/xlink" version="1.1" id="Layer_1" x="0px" y="0px" viewBox="0 0 1000 1000" style="enable-background:new 0 0 1000 1000;" xml:space="preserve"> <g> <path style="fill:#FFFFFF;" d="M336.3,281.6c8.3-0.2,16.6,0,24.9,0c0,0,0,0,0-0.1c8.8,0,17.6,0.2,26.4-0.1c5.1-0.1,9.3-1.7,9.9-7.9 c0.6-6.4-2.3-9.9-8.3-11.3c-1.7-0.4-3.5-0.6-5.2-0.6c-15.8-0.1-31.7-0.1-47.5-0.1c-6.9,0-9,3.5-8.8,10 C327.8,277.7,329,281.8,336.3,281.6z"></path> <path style="fill:#FFFFFF;" d="M653.2,79.6c0.3,3.4,4.4,8.3,7.5,9c2.9,0.6,6.7-3.8,12.8-7.7c-5.8-4.3-9.1-8.6-12.4-8.6 C658.3,72.2,652.9,77.2,653.2,79.6z"></path> <path style="fill:#FFFFFF;" d="M500.1,129.8c0-8.4,0.4-15.7-0.1-23c-0.5-6.3-4.6-10.7-11-9.7c-4.1,0.6-10.4,3.9-10.9,6.8 c-1.5,8.5-0.5,17.3-0.5,25.9C485.5,129.8,492.2,129.8,500.1,129.8z"></path> <path style="fill:#FFFFFF;" d="M780.6,97.3h-43.1c0.4-7.4,0.5-14.3,0.5-20.3V59.8c0-11.2-9.5-20.2-21.2-20.2h-459 c-11.7,0-21.2,9.1-21.2,20.2V77c0,6.1,0.2,12.9,0.6,20.3h-43.1c-54.1,0-98,42-98,93.6v4.5c0,150.9,116.3,277,269.8,298.4 c4.8,5.6,9.7,10.9,14.7,15.9c30.9,30.5,48.6,71,48.6,113.4v1.9c0,30.7-16.4,59.5-43.8,75.6c-27.4,16-47.3,42.5-53.6,73.7h-26.3 c-16.8,0-30.4,13-30.4,29v124.9h-32.4c-5.6,0-10.2,4.4-10.2,9.8v27.9c0,5.4,4.6,9.8,10.2,9.8h489.1c5.6,0,10.2-4.4,10.2-9.8v-27.9 c0-5.4-4.6-9.8-10.2-9.8h-32.4V803.2c0-16-13.6-29-30.4-29h-26.3c-6.3-31.1-26.2-57.6-53.6-73.7c-27.4-16-43.8-44.9-43.8-75.6v0 c0-43,18.2-84,49.8-114.7c5.5-5.3,10.7-10.9,15.8-16.9c152.3-22.4,267.4-147.9,267.4-298.1v-4.5C878.6,139.3,834.6,97.3,780.6,97.3 z M644.9,65.6c11.9,0,23.5,0,35.1,0c0,49.8,0,99.5,0,149.3c-11.4,0-22.8,0-35.1,0C644.9,164.9,644.9,115.5,644.9,65.6z M686.5,233.5c0,3.5,0,7,0,10.5c-1.9,0.4-3.8,1.2-5.7,1.2c-19.7,0.2-39.3-0.3-59,0.5c-16.5,0.7-32.9,2.9-49.9,4.5 c0-4.8,0-10.2,0-16.7C610.1,233.5,648.3,233.5,686.5,233.5z M551,65.2c6.2,0.4,12.4,0.5,18.6,0c6.8-0.6,8.2,2.4,8.2,8.5 c-0.3,32.9-0.1,65.7-0.1,98.6c0,3.3,0,6.6,0,10.4c14.9,1.3,18-1.3,18.1-14.2c0.1-30.7,0.1-61.4,0.1-92.1c0-3.3,0-6.6,0-10.5 c12.6,0,24.2,0,36.6,0c0.2,2.8,0.6,5.5,0.6,8.2c0,33.5-0.6,67,0.2,100.4c0.6,25.5-14.4,39.4-37.6,40.5c-15.1,0.7-30.3,0.5-45.4,1 c-6,0.2-7.2-2.5-7.2-7.7c0.1-45.1,0.2-90.3,0-135.4C542.8,66.5,545.1,64.8,551,65.2z M443.1,104.8c0.1-7,0.9-14.2,3-20.8 c3.9-12.8,11.9-18.4,25.3-18.9c9.6-0.4,19.2-0.2,28.8-0.2c22.8,0,33.2,10,33.5,33c0.3,25.2,0.1,50.3,0.1,75.5c0,13.8,0,27.6,0,42 c-10.9,0-21,0-32.8,0c0-17.4,0-34.4,0-52c-8.1,0-15.1,0-23.5,0c0,14.1-0.5,28.4,0.2,42.7c0.4,8.3-2.3,10.3-10.4,10.2 c-24.2-0.4-24.2,0-24.2-24.1C443,163.1,442.8,134,443.1,104.8z M487.4,233.1c20.2,0,40.4,0.2,60.5-0.1c5.4-0.1,7.3,1.5,6.8,6.7 c-0.4,4.6-0.1,9.3-0.1,13.5c-28.1,7.8-55.6,11.7-83.8,10.1c-11.1-0.6-10.9,0-11.8,10.6c-0.2,2.3-2.2,5.5-4.2,6.4 c-8.9,3.9-18.1,7.2-28.5,11.2c0-9.3,0-17.8,0-26.4c0-6.7-0.1-13.4,0-20.2c0.1-8.6,3-11.7,11.9-11.8 C454.6,233,471,233.1,487.4,233.1z M297.4,341c0.3-3.4,0.8-6.9,0.8-10.3c0.1-20.8,0.1-41.6,0-62.4c0-8.1-0.5-16.3-0.8-24.4 c0-3,0-6,0-9c2.6-0.7,5.2-1.9,7.8-1.9c31.5-0.1,63-0.1,94.4,0c9.4,0,10.2,1,10.2,10.4c0,16.9,0,33.8-0.1,50.7 c0,6.5-10,12.7-16.1,10.5c-3.9-1.4-8.1-2.8-12.2-2.9c-14.8-0.3-29.7-0.2-44.6,0c-8.3,0.1-9,1.4-9.2,12.3c-0.1,6.5,1.9,9.7,9.1,9.3 c7.9-0.5,15.8-0.1,24.2,1.5c-12.1,8.9-24.2,17.8-36.3,26.7c-9.1,0-18.2,0-27.3,0C297.4,348,297.4,344.5,297.4,341z M148.4,195.3 v-4.5c0-24.1,20.5-43.7,45.7-43.7h47.6c10.1,82.5,36.1,198.4,83.5,285.9C221.8,398.8,148.4,304.9,148.4,195.3z M407.9,351.5 c-17.2,0-34.3,0-51.5,0c4.5-3.8,8.6-8.1,13.4-11.3c10.3-7,21-13.6,31.6-20.2c2.2-1.4,4.8-2.2,9.4-4.3 C409.8,328.8,408.8,340.2,407.9,351.5z M399.6,216.1c0-11.7,0-22,0-32.4c0-24,0-47.9,0-71.9c0-13.7-0.1-13.7-15.2-12.5 c0,3.1,0,6.4,0,9.6c0,31.9-0.4,63.9,0.3,95.8c0.2,9.8-3.1,12.5-12.1,11.4c-4.6-0.6-9.3-0.6-13.9,0c-8.7,1.1-11.7-1.8-11.5-10.9 c0.6-31,0.2-62,0.2-93.1c0-13.7-1.2-14.7-16.2-12.3c0,3.1,0,6.3,0,9.6c0,32.6-0.2,65.1,0.1,97.7c0.1,6.8-1.8,9.4-8.8,9 c-8-0.5-16-0.1-24.9-0.1c0-50.4,0-100.1,0-149.5c18.6,0,37,0.1,55.4-0.1c3.2,0,6.4-1.3,9.6-1.3c15.2-0.1,30.4-0.3,45.5,0.2 c14.1,0.5,24.3,9.9,26.8,23.5c0.9,4.8,1.5,9.7,1.6,14.6c0.1,34.7-0.1,69.4,0.2,104.1c0,6.3-1.7,8.9-8.4,8.6 C418.9,215.8,409.7,216.1,399.6,216.1z M554.5,342.9c-0.5,3-2.8,5.8-4.3,8.6c-37.9,0-75.7,0-113.6,0c-7.7-3.2-10.8-9.1-10.4-17.2 c0.2-4.5,0.7-9.1-0.1-13.4c-1.9-10.8,2.9-16.2,12.9-19.7c11.1-3.9,21.5-9.7,32.7-13.4c8.2-2.7,17-4.3,25.6-4.6 c18.3-0.7,36.7-0.2,54.6-0.2c0.8,1.1,1.3,1.5,1.3,1.9c1.4,16,1.4,16-14.6,16c-23.7,0-47.4,0-71.2,0c-9.2,0-9.8,0.6-9.8,9.8 c0,3.5,0,6.9,0,10.9c2.6,0.2,4.8,0.5,7,0.5c27.5,0,55,0.2,82.5-0.2c6.2-0.1,8.1,1.7,7.6,7.6C554.4,333.9,555.3,338.5,554.5,342.9z M639.8,263.6c-6.1-0.1-7.7,1.6-7.7,7.4c0.2,26.8,0,53.6-0.1,80.4c-9.6,0-19.2,0-28.8,0c-0.5-2.8-1.5-5.7-1.5-8.5 c-0.1-24.1-0.3-48.2,0.1-72.2c0.1-6.5-2.1-8.1-8.2-7.7c-7.3,0.5-14.7,0.1-22,0.1c-0.1-0.9-0.2-1.8-0.3-2.7 c3.6-0.8,7.2-1.7,10.9-2.4c32.5-5.6,65.3-7.8,98.3-7.7c2,0,3.9,0.6,5.9,0.9c0,4,0,8,0,12C670.9,263.5,655.3,264,639.8,263.6z M826.3,195.3c0,108.7-72.2,201.9-174.3,236.9c46.8-87.4,71.6-202.8,81.2-285h47.3c25.2,0,45.7,19.6,45.7,43.7V195.3z"></path> </g> </svg> 