<?xml version="1.0" encoding="utf-8"?>
<!-- Generator: Adobe Illustrator 24.2.1, SVG Export Plug-In . SVG Version: 6.00 Build 0)  -->
<svg version="1.1" xmlns="http://www.w3.org/2000/svg" xmlns:xlink="http://www.w3.org/1999/xlink" x="0px" y="0px"
	 viewBox="0 0 68 68" style="enable-background:new 0 0 68 68;" xml:space="preserve">
<style type="text/css">
	.st0{fill:none;stroke:#FF0054;stroke-width:1.0271;stroke-linecap:round;stroke-linejoin:round;stroke-miterlimit:10;}
</style>
<g>
	<path class="st0" d="M9.4,59.6c3.9,0.4,7.5,0.9,10.1,2.2c0.1,0,0.2,0.1,0.4,0.1l0.1,0.1l0,0c1.1,0.6,2.4,1.2,3.6,1.9
		c3.6,1.7,6.5,2.6,10,2.7c4.4,0.1,11.9-3.5,17.7-6.7c11.1-6.1,17.3-10,14.4-12.5c-2.9-2.4-11.5,2.9-18.8,6.6"/>
	<path class="st0" d="M23,54.4c5.2,0.4,8.6,1.9,13.2,3.5c4.7,1.6,7.6,2.6,8.5,0c0.9-2.7-4.7-6.9-10.6-9.2c-4.2-1.7-7.2-5.1-11.2-5.6
		c-3.2-0.4-6.2,0.4-8.5,1.1c-1.9,0.6-3.5,1-5,1.4"/>
	<path class="st0" d="M58.8,45.3c-0.4-0.5-1.2-0.7-2.5-0.7c-3.2,0-8.1,3.4-12.6,6.2"/>
	<path class="st0" d="M51.5,43.3c-0.4-0.1-0.9-0.1-1.4,0c-2.5,0.2-5.4,2.9-9.2,5.6"/>
	<path class="st0" d="M44.6,43c-0.4-0.1-0.7-0.1-1.2,0c-1.9,0.2-2.6,1.7-5.5,4.1"/>
	<path class="st0" d="M8.8,62.5H2.2c-0.4,0-0.6-0.2-0.6-0.6v-18c0-0.4,0.2-0.6,0.6-0.6h6.6c0.4,0,0.6,0.2,0.6,0.6v18
		C9.4,62.3,9,62.5,8.8,62.5z"/>
	<path class="st0" d="M35.4,7.8l3.4,6.9c0.2,0.5,0.7,0.9,1.2,1l7.6,1.1c1.4,0.2,2,1.9,1,2.9l-5.5,5.4c-0.4,0.4-0.6,1-0.5,1.5
		l1.2,7.6c0.2,1.4-1.2,2.5-2.5,1.7l-6.9-3.6c-0.5-0.2-1.1-0.2-1.6,0L26,35.9c-1.2,0.6-2.7-0.4-2.5-1.7l1.2-7.6
		c0.1-0.5-0.1-1.1-0.5-1.5L19,19.7c-1-1-0.5-2.7,1-2.9l7.6-1.1c0.5-0.1,1-0.4,1.2-1l3.4-6.9C32.9,6.6,34.7,6.6,35.4,7.8z"/>
	<line class="st0" x1="34" y1="2" x2="34" y2="1.2"/>
	<line class="st0" x1="34" y1="41.1" x2="34" y2="40.4"/>
	<line class="st0" x1="54" y1="21.6" x2="53.1" y2="21.6"/>
	<line class="st0" x1="50.4" y1="37.9" x2="49" y2="36.6"/>
	<line class="st0" x1="48.6" y1="6.9" x2="47.2" y2="8.3"/>
	<line class="st0" x1="13.7" y1="21.6" x2="14.5" y2="21.6"/>
	<line class="st0" x1="17.3" y1="37.9" x2="18.6" y2="36.6"/>
	<line class="st0" x1="19" y1="6.9" x2="20.4" y2="8.3"/>
</g>
</svg>
