<?xml version="1.0" encoding="utf-8"?>
<!-- Generator: Adobe Illustrator 24.2.1, SVG Export Plug-In . SVG Version: 6.00 Build 0)  -->
<svg version="1.1" xmlns="http://www.w3.org/2000/svg" xmlns:xlink="http://www.w3.org/1999/xlink" x="0px" y="0px"
	 viewBox="0 0 68 68" style="enable-background:new 0 0 68 68;" xml:space="preserve">
<style type="text/css">
	.st0{fill:none;stroke:#FF0054;stroke-width:1.4145;stroke-linecap:round;stroke-linejoin:round;stroke-miterlimit:10;}
	.st1{fill:#FF0054;}
</style>
<g>
	<g>
		<g>
			<g>
				<path class="st0" d="M20.2,38.5c0-11.6,9.3-20.9,20.9-20.9c5.2,0,9.8,1.9,13.5,4.9v-19c0-1.3-1.1-2.3-2.4-2.3H8.5
					c-1.4,0-2.4,1-2.4,2.3v60.9c0,1.3,1.1,2.3,2.4,2.3h43.6c1.4,0,2.4-1,2.4-2.3v-9.8c-3.7,3-8.3,4.9-13.5,4.9
					C29.5,59.6,20.2,50.1,20.2,38.5z"/>
			</g>
			<line class="st0" x1="15.3" y1="11.2" x2="45.8" y2="11.2"/>
			<line class="st0" x1="15.3" y1="22.2" x2="27.8" y2="22.2"/>
			<line class="st0" x1="15.3" y1="30.3" x2="21.9" y2="30.3"/>
			<line class="st0" x1="15.3" y1="38.5" x2="20.2" y2="38.5"/>
			<line class="st0" x1="15.3" y1="46.7" x2="21.7" y2="46.7"/>
			<line class="st0" x1="15.3" y1="54.9" x2="27.9" y2="54.9"/>
		</g>
		<path class="st0" d="M54.5,22.5c-3.7-3-8.3-4.9-13.5-4.9c-11.6,0-20.9,9.3-20.9,20.9S29.4,59.4,41,59.4c5.2,0,9.8-1.9,13.5-4.9
			c4.5-3.8,7.4-9.6,7.4-16C62,32.1,59.1,26.4,54.5,22.5z"/>
	</g>
	<g>
		<g id="XMLID_1_">
			<path class="st1" d="M54.5,30.7C54.5,30.7,54.5,30.6,54.5,30.7C54.5,30.6,54.5,30.6,54.5,30.7z"/>
			<path class="st1" d="M53.2,48.9C53.2,48.9,53.1,49,53.2,48.9C53.1,49,53.1,48.9,53.2,48.9z"/>
			<path class="st1" d="M51.9,45.2L51.9,45.2L51.9,45.2L51.9,45.2z"/>
			<path class="st1" d="M47.4,53.1C47.3,53.1,47.3,53.3,47.4,53.1C47.3,53.3,47.3,53.1,47.4,53.1z"/>
			<path class="st1" d="M56.7,37.7L56.7,37.7c-0.3-2.6-1-4.9-2.3-7c0,0,0-0.1-0.1-0.1l0,0c-2.3-3.5-5.8-6-9.9-6.9
				c-1-0.3-2.1-0.4-3.3-0.4c-1.1,0-2.3,0.1-3.4,0.4l0,0c0,0,0,0-0.1,0c-4.3,1-7.8,3.7-9.9,7.3l0,0c0,0,0,0.1-0.1,0.1
				c-1,1.8-1.8,3.8-2,5.9l0,0l0,0c-0.1,0.6-0.1,1.1-0.1,1.8c0,4.2,1.6,7.9,4.3,10.7l0.1,0.1c1.4,1.5,3.1,2.6,5,3.5l0,0h0.1l0,0
				c1.9,0.8,3.9,1.3,6,1.3s4.2-0.4,6-1.3h0.1c2.3-1,4.2-2.4,5.7-4.2l0,0l0.1-0.1c2.3-2.8,3.7-6.2,3.7-9.9
				C56.8,38.4,56.8,38,56.7,37.7z M52.8,30l-1.1-0.3c-1.9-2.4-4.9-4-5.4-4.3l0,0L46,25.2C48.8,26.1,51.2,27.8,52.8,30z M46,26.3
				c0.6,0.4,3.4,2,5,4c0.3,1.1,0.6,3.1,0.1,3.9l-4.5,1.3l-4.8-3.1l-0.1-4.7C42.5,27.5,44.4,26.6,46,26.3z M40.7,27.7l0.1,4.7
				l-4.7,3.1l-4.5-1.3c-0.5-0.9-0.1-3,0.1-4.3c2.3-2.5,4.4-3.4,4.9-3.7C37.6,26.6,39.9,27.1,40.7,27.7z M36.6,25.1l-0.4,0.5
				c-0.6,0.3-2.9,1.3-5.3,3.9l-1.4,0.6C31.4,27.7,33.8,25.9,36.6,25.1z M26.6,38.9c0-0.3,0-0.5,0-0.8l1,0.9c0.3,4,1.5,5.9,2,6.7
				c-0.1,0.4-0.4,0.9-0.4,1.6C27.6,45,26.6,42.1,26.6,38.9z M34.9,46.3c-1.4-0.3-3.5-0.6-4.3-1.1l0,0c-0.1-0.1-1.8-1.9-2-6.3
				c0.8-1.3,2-3.1,2.8-3.8l4.4,1.1l1.6,5.8L34.9,46.3z M41.2,53.4c-1.6,0-3.1-0.3-4.5-0.8l1.4-0.6c0.8,0.1,3.7,0.4,6,0l1.6,0.6
				C44.4,53.1,42.9,53.4,41.2,53.4z M44,51c-2.1,0.4-4.9,0.1-5.7,0c-0.5-0.6-1.9-2.8-2.5-4.2l2.5-4.2h6l2.8,4.2
				C46.6,47.8,45.1,49.9,44,51z M51.9,45.2L51.9,45.2L51.9,45.2c-0.6,0.3-2.4,0.9-4,1.1l-2.8-4.2c1.1-2.9,1.6-5,1.8-5.8l4.3-1.1
				c0.8,0.9,2.3,2.8,2.8,3.8C54.1,39.5,53.9,42.9,51.9,45.2z M53.2,47.2c0-0.5-0.1-0.9-0.1-1.1c0-0.1,0-0.3-0.1-0.5
				c1.9-2.4,2.1-5.5,2.1-6.4l0.8-0.5c0,0.1,0,0.1,0,0.3C55.8,41.9,54.8,44.8,53.2,47.2z"/>
			<path class="st1" d="M35.2,53.3C35.2,53.3,35.2,53.1,35.2,53.3C35.2,53.1,35.2,53.3,35.2,53.3z"/>
			<path class="st1" d="M30,49.7C30,49.6,30,49.6,30,49.7C30,49.6,30,49.6,30,49.7z"/>
			<path class="st1" d="M27.8,31C27.8,31,27.8,31.1,27.8,31C27.8,31.1,27.8,31,27.8,31z"/>
		</g>
	</g>
</g>
</svg>
