<?xml version="1.0" encoding="utf-8"?>
<!-- Generator: Adobe Illustrator 24.2.1, SVG Export Plug-In . SVG Version: 6.00 Build 0)  -->
<svg version="1.1" xmlns="http://www.w3.org/2000/svg" xmlns:xlink="http://www.w3.org/1999/xlink" x="0px" y="0px"
	 viewBox="0 0 68 68" style="enable-background:new 0 0 68 68;" xml:space="preserve">
<style type="text/css">
	.st0{fill:#FF0054;}
</style>
<g>
	<circle class="st0" cx="45.4" cy="18.8" r="1.5"/>
	<path class="st0" d="M45.4,35.6c0.8,0,1.5-0.7,1.5-1.5v-9.2c0-0.8-0.7-1.5-1.5-1.5s-1.5,0.7-1.5,1.5v9.2
		C43.9,34.9,44.6,35.6,45.4,35.6z"/>
	<path class="st0" d="M15.7,18.8h10.7c0.8,0,1.5-0.7,1.5-1.5s-0.7-1.5-1.5-1.5H15.7c-0.8,0-1.5,0.7-1.5,1.5S14.8,18.8,15.7,18.8z"/>
	<path class="st0" d="M15.7,24.9h10.7c0.8,0,1.5-0.7,1.5-1.5s-0.7-1.5-1.5-1.5H15.7c-0.8,0-1.5,0.7-1.5,1.5S14.8,24.9,15.7,24.9z"/>
	<path class="st0" d="M15.7,31h10.7c0.8,0,1.5-0.7,1.5-1.5S27.2,28,26.4,28H15.7c-0.8,0-1.5,0.7-1.5,1.5S14.8,31,15.7,31z"/>
	<path class="st0" d="M15.7,37.1h10.7c0.8,0,1.5-0.7,1.5-1.5s-0.7-1.5-1.5-1.5H15.7c-0.8,0-1.5,0.7-1.5,1.5S14.8,37.1,15.7,37.1z"/>
	<path class="st0" d="M47.8,51.6H66c0.4,0,0.8-0.4,0.8-0.8V14.3c0-0.3-0.1-0.5-0.2-0.6c-0.1-0.2-0.4-0.3-0.6-0.3h-5.3V8.1
		c0-0.4-0.4-0.8-0.8-0.8H40.1c-2.2,0-4.2,1-5.5,2.8L34,10.9l-0.6-0.8c-1.3-1.8-3.3-2.8-5.5-2.8H8.1c-0.4,0-0.8,0.4-0.8,0.8v5.3H2
		c-0.4,0-0.8,0.4-0.8,0.8v36.6c0,0.4,0.4,0.8,0.8,0.8h15.3c8.5,0,11.5,2.7,16.2,8.8c0.3,0.4,0.9,0.4,1.2,0
		C39.3,54.2,42.2,51.6,47.8,51.6z M34.8,14.3c0-2.9,2.4-5.3,5.3-5.3h19v35.1H41.6c-2,0-3.9,0.9-5.6,2.6l-1.2,1.2V14.3z M8.9,9h19
		c2.9,0,5.3,2.4,5.3,5.3V48L32,46.7c-1.2-1.2-3.2-2.7-5.6-2.7H8.9V9z M34.6,58L34,58.8l-0.6-0.7c-4.1-5.3-7.8-7.9-16.2-7.9H2.8V15.1
		h4.6v29.7c0,0.4,0.4,0.8,0.8,0.8h18.3c2.8,0,5.6,3,7,5.7c0.1,0.2,0.3,0.4,0.7,0.4h0.3c0.2,0,0.3-0.1,0.4-0.4c0.7-1.3,3.3-5.7,7-5.7
		h18.3c0.4,0,0.8-0.4,0.8-0.8V15.1h4.6v35.1H47.7C41.8,50.1,38.4,53,34.6,58z"/>
</g>
</svg>
