<?xml version="1.0" encoding="utf-8"?>
<!-- Generator: Adobe Illustrator 24.2.1, SVG Export Plug-In . SVG Version: 6.00 Build 0)  -->
<svg version="1.1" xmlns="http://www.w3.org/2000/svg" xmlns:xlink="http://www.w3.org/1999/xlink" x="0px" y="0px"
	 viewBox="0 0 68 68" style="enable-background:new 0 0 68 68;" xml:space="preserve">
<style type="text/css">
	.st0{fill:none;stroke:#FF0054;stroke-miterlimit:10;}
	.st1{fill:none;stroke:#FF0054;stroke-width:1.5751;stroke-linecap:round;stroke-linejoin:round;stroke-miterlimit:10;}
</style>
<g>
	<g>
		<polyline class="st0" points="46.6,27.2 57.6,27.2 57.6,23 67.2,34 57.6,45 57.6,40.9 49.3,40.9 		"/>
		<polyline class="st0" points="14.5,47.8 10.4,47.8 10.4,51.9 0.8,40.9 10.4,29.9 10.4,34 14.5,34 		"/>
		<polyline class="st0" points="54.4,18.9 54.4,7.9 24.2,7.9 17.3,14.8 17.3,60.2 54.4,60.2 54.4,49.2 		"/>
		<polyline class="st0" points="20,17.5 26.9,17.5 26.9,10.6 		"/>
	</g>
	<path class="st1" d="M36.9,25.3l2.3,4.7c0.2,0.3,0.5,0.6,0.9,0.6l5.2,0.7c1,0.1,1.3,1.3,0.6,2l-3.7,3.6c-0.3,0.3-0.4,0.6-0.3,1
		l0.9,5.1c0.2,0.9-0.8,1.7-1.7,1.2l-4.6-2.4c-0.3-0.2-0.7-0.2-1.1,0l-4.6,2.4C30,44.6,29,43.9,29.1,43l0.9-5.1
		c0.1-0.4-0.1-0.8-0.3-1L26,33.3c-0.7-0.7-0.3-1.8,0.6-2l5.2-0.7c0.4-0.1,0.7-0.3,0.9-0.6l2.3-4.7C35.2,24.4,36.4,24.4,36.9,25.3z"
		/>
</g>
</svg>
