<?xml version="1.0" encoding="utf-8"?>
<!-- Generator: Adobe Illustrator 24.2.1, SVG Export Plug-In . SVG Version: 6.00 Build 0)  -->
<svg version="1.1" xmlns="http://www.w3.org/2000/svg" xmlns:xlink="http://www.w3.org/1999/xlink" x="0px" y="0px"
	 viewBox="0 0 68 68" style="enable-background:new 0 0 68 68;" xml:space="preserve">
<style type="text/css">
	.st0{fill:none;stroke:#FF0054;stroke-width:1.6755;stroke-linejoin:round;}
	.st1{fill:none;stroke:#FF0054;stroke-width:1.234;stroke-linejoin:round;}
</style>
<g>
	<g>
		<g>
			<path class="st0" d="M19.8,29.7h-9.7c-4.9,0-8.7-3.9-8.7-8.7s3.9-8.7,8.7-8.7l0,0h47.6c4.9,0,8.7,3.9,8.7,8.7s-3.9,8.7-8.7,8.7
				H48"/>
			<polyline class="st0" points="48,20.9 48,55.7 19.8,55.7 19.8,55.7 19.8,20.9 			"/>
			<path class="st0" d="M25.3,20.9v25.6l0,0c2.4,0,4.4,1.9,4.4,4.4h8.4c0-1.2,0.5-2.3,1.3-3.1c0.8-0.8,1.9-1.3,3.1-1.3V20.9"/>
			<path class="st0" d="M33.9,25.9c1,0,2,0.4,2.7,1.1c0.8,0.8,1.1,1.7,1.1,2.7c0,1-0.4,2-1.1,2.7c-0.8,0.8-1.7,1.1-2.7,1.1
				s-2-0.4-2.7-1.1c-0.8-0.8-1.1-1.7-1.1-2.7c0-1,0.4-2,1.1-2.7C31.9,26.3,32.9,25.9,33.9,25.9z"/>
			<line class="st0" x1="33.9" y1="43.9" x2="33.9" y2="41.3"/>
			<line class="st0" x1="10" y1="20.9" x2="57.8" y2="20.9"/>
		</g>
	</g>
	<g>
		<polyline class="st1" points="52.3,43.5 59.5,36.4 66.6,43.5 		"/>
		<line class="st1" x1="59.5" y1="36.4" x2="59.5" y2="52.9"/>
		<line class="st1" x1="52.3" y1="55.8" x2="66.6" y2="55.8"/>
	</g>
</g>
</svg>
