<?xml version="1.0" encoding="utf-8"?>
<!-- Generator: Adobe Illustrator 24.2.1, SVG Export Plug-In . SVG Version: 6.00 Build 0)  -->
<svg version="1.1" xmlns="http://www.w3.org/2000/svg" xmlns:xlink="http://www.w3.org/1999/xlink" x="0px" y="0px"
	 viewBox="0 0 68 68" style="enable-background:new 0 0 68 68;" xml:space="preserve">
<style type="text/css">
	.st0{fill:none;stroke:#FF0054;stroke-width:1.4136;stroke-linecap:round;stroke-linejoin:round;stroke-miterlimit:10;}
	.st1{fill:#FF0054;}
</style>
<g>
	<g>
		<g>
			<g>
				<path class="st0" d="M20.2,38.5c0-11.6,9.3-20.9,20.9-20.9c5.2,0,9.8,1.9,13.5,4.9v-19c0-1.3-1.1-2.3-2.4-2.3H8.6
					c-1.4,0-2.4,1-2.4,2.3v60.9c0,1.3,1.1,2.3,2.4,2.3h43.5c1.4,0,2.4-1,2.4-2.3v-9.9c-3.6,3-8.3,4.9-13.5,4.9
					C29.5,59.4,20.2,50.1,20.2,38.5z"/>
			</g>
			<line class="st0" x1="15.2" y1="11.2" x2="45.6" y2="11.2"/>
			<line class="st0" x1="15.2" y1="22.2" x2="27.7" y2="22.2"/>
			<line class="st0" x1="15.2" y1="30.4" x2="21.8" y2="30.4"/>
			<line class="st0" x1="15.2" y1="38.4" x2="20.2" y2="38.4"/>
			<line class="st0" x1="15.2" y1="46.6" x2="21.7" y2="46.6"/>
			<line class="st0" x1="15.2" y1="54.8" x2="27.8" y2="54.8"/>
		</g>
		<path class="st0" d="M54.4,22.5c-3.6-3-8.3-4.9-13.5-4.9C29.3,17.6,20,27,20,38.5s9.3,20.9,20.9,20.9c5.2,0,9.8-1.9,13.5-4.9
			c4.5-3.8,7.4-9.6,7.4-16C61.9,32.1,59,26.4,54.4,22.5z"/>
	</g>
	<g>
		<path class="st1" d="M48,44.2L48,44.2c-0.3,0-0.5-0.1-0.5-0.4l-2.1-6c-0.1-0.3,0-0.5,0.1-0.6l4.9-4.2c0.1-0.1,0.4-0.1,0.5-0.1
			c0.1,0,0.4,0.1,0.4,0.4l2.1,6c0.1,0.3,0,0.5-0.1,0.6l-4.9,4.2C48.2,44.2,48.1,44.2,48,44.2z M46.5,37.8l1.8,4.9l4-3.4l-1.9-4.9
			L46.5,37.8z"/>
		<path class="st1" d="M52.4,49.2c-0.1,0-0.4,0-0.5-0.1l-10.3-2.8c-1-0.3-1.6-1.4-1.4-2.4l4.2-15.4c0.3-0.9,1-1.5,1.9-1.5
			c0.1,0,0.4,0,0.5,0.1L57,30c0.5,0.1,0.9,0.5,1.3,0.9c0.3,0.5,0.4,1,0.3,1.5l-4.2,15.4C54,48.6,53.3,49.2,52.4,49.2z M46.2,28.3
			c-0.4,0-0.8,0.3-0.8,0.6l-4.2,15.4c-0.1,0.5,0.1,0.9,0.6,1l10.3,2.8c0.5,0.1,0.9-0.1,1-0.6l4-15.4c0.1-0.5-0.1-0.9-0.6-1
			l-10.2-2.8C46.3,28.3,46.3,28.3,46.2,28.3z"/>
		<path class="st1" d="M46.8,47.8h-5.3l-5.7,1.3c-0.5,0.1-0.9-0.3-1-0.6L31.5,33c0-0.3,0-0.5,0.1-0.6c0.1-0.3,0.3-0.4,0.5-0.4l4.5-1
			v-0.9c0-0.1,0-0.3,0-0.3l-4.8,1c-0.5,0.1-1,0.4-1.3,0.9c-0.3,0.5-0.4,1-0.3,1.5l3.5,15.5c0.3,0.9,1,1.5,1.9,1.5c0.1,0,0.3,0,0.4,0
			l10.3-2.4H46.8z"/>
		<polygon class="st1" points="44.4,47.8 44.4,47.8 44.3,47.8 		"/>
		<path class="st1" d="M39.7,49.5L35,52.4c-0.1,0.1-0.3,0.1-0.5,0.1c-0.3,0-0.5-0.1-0.8-0.4l-8.4-13.5c-0.1-0.3-0.1-0.4-0.1-0.6
			s0.1-0.4,0.4-0.5l4.9-3l-0.3-1.1l0,0l-5.3,3.3c-0.5,0.3-0.8,0.8-0.9,1.3c-0.1,0.5,0,1,0.3,1.5l8.4,13.5c0.4,0.6,1,0.9,1.6,0.9
			c0.4,0,0.8-0.1,1-0.3l7.4-4.7L39.7,49.5z"/>
		<path class="st1" d="M42.9,46.7l-4,0.1l0,0h-0.1c-0.5,0-0.9-0.4-0.9-0.9l-0.3-15.9c0-0.3,0.1-0.4,0.3-0.6c0.1-0.1,0.4-0.3,0.6-0.3
			l5.7-0.1l0.1-0.5c0-0.3,0.1-0.4,0.3-0.6l-6.2,0.1c-0.5,0-1,0.3-1.4,0.6c-0.3,0.4-0.5,0.9-0.5,1.4L36.9,46c0,1,0.9,1.9,2,1.9l0,0
			l8.1-0.1L42.9,46.7z"/>
	</g>
</g>
</svg>
