<?xml version="1.0" encoding="utf-8"?>
<!-- Generator: Adobe Illustrator 24.2.1, SVG Export Plug-In . SVG Version: 6.00 Build 0)  -->
<svg version="1.1" xmlns="http://www.w3.org/2000/svg" xmlns:xlink="http://www.w3.org/1999/xlink" x="0px" y="0px"
	 viewBox="0 0 68 68" style="enable-background:new 0 0 68 68;" xml:space="preserve">
<style type="text/css">
	.st0{fill:none;stroke:#FF0054;stroke-width:1.1889;stroke-miterlimit:10;}
</style>
<g>
	<g>
		<rect x="19.6" y="2.3" class="st0" width="28.9" height="17.3"/>
		<rect x="19.6" y="25.3" class="st0" width="28.9" height="17.3"/>
		<rect x="19.6" y="48.4" class="st0" width="28.9" height="17.3"/>
		<line class="st0" x1="25.4" y1="8.1" x2="42.6" y2="8.1"/>
		<line class="st0" x1="25.4" y1="13.8" x2="34" y2="13.8"/>
		<line class="st0" x1="25.4" y1="31.2" x2="42.6" y2="31.2"/>
		<line class="st0" x1="25.4" y1="36.8" x2="34" y2="36.8"/>
		<line class="st0" x1="25.4" y1="54.2" x2="42.6" y2="54.2"/>
		<line class="st0" x1="25.4" y1="60" x2="34" y2="60"/>
		<polyline class="st0" points="11,41.2 15.2,45.6 11,49.8 		"/>
		<path class="st0" d="M15.2,45.6H6.6c-1.6,0-2.9-1.3-2.9-2.9V13.8c0-1.6,1.3-2.9,2.9-2.9h13"/>
		<polyline class="st0" points="57,26.8 52.8,22.4 57,18.2 		"/>
		<path class="st0" d="M52.8,22.4h8.6c1.6,0,2.9,1.3,2.9,2.9v28.9c0,1.6-1.3,2.9-2.9,2.9h-13"/>
	</g>
</g>
</svg>
