<?xml version="1.0" encoding="utf-8"?>
<!-- Generator: Adobe Illustrator 24.2.1, SVG Export Plug-In . SVG Version: 6.00 Build 0)  -->
<svg version="1.1" xmlns="http://www.w3.org/2000/svg" xmlns:xlink="http://www.w3.org/1999/xlink" x="0px" y="0px"
	 viewBox="0 0 68 68" style="enable-background:new 0 0 68 68;" xml:space="preserve">
<style type="text/css">
	.st0{fill:none;stroke:#FF0054;stroke-width:1.6708;stroke-linejoin:round;}
	.st1{fill:none;stroke:#FF0054;stroke-width:1.2305;stroke-linejoin:round;}
</style>
<g>
	<g>
		<g>
			<path class="st0" d="M19.9,29.7h-9.8c-4.9,0-8.8-3.9-8.8-8.8s3.9-8.8,8.8-8.8l0,0h47.8c4.9,0,8.8,3.9,8.8,8.8s-3.9,8.8-8.8,8.8
				h-9.8"/>
			<polyline class="st0" points="48.1,20.9 48.1,55.9 19.9,55.9 19.9,55.9 19.9,20.9 			"/>
			<path class="st0" d="M25.4,20.9v25.7l0,0c2.5,0,4.4,1.9,4.4,4.4h8.5c0-1.2,0.5-2.3,1.3-3.1c0.8-0.8,1.9-1.3,3.1-1.3V20.9"/>
			<path class="st0" d="M34,25.8c1,0,2,0.4,2.7,1.1c0.8,0.7,1.1,1.7,1.1,2.7s-0.4,2-1.1,2.7C35.9,33,35,33.5,34,33.5
				c-1,0-2-0.4-2.7-1.1c-0.8-0.7-1.1-1.7-1.1-2.7s0.4-2,1.1-2.7C32,26.3,33,25.8,34,25.8z"/>
			<line class="st0" x1="34" y1="43.9" x2="34" y2="41.4"/>
			<line class="st0" x1="10" y1="20.9" x2="58" y2="20.9"/>
		</g>
	</g>
	<g>
		<polyline class="st1" points="51.7,47.6 58.9,53.2 66,47.6 		"/>
		<line class="st1" x1="58.9" y1="36.4" x2="58.9" y2="53"/>
		<line class="st1" x1="51.7" y1="55.9" x2="66" y2="55.9"/>
	</g>
</g>
</svg>
