<?xml version="1.0" encoding="UTF-8"?> <svg xmlns="http://www.w3.org/2000/svg" xmlns:xlink="http://www.w3.org/1999/xlink" version="1.1" id="Layer_1" x="0px" y="0px" viewBox="0 0 1000 1000" style="enable-background:new 0 0 1000 1000;" xml:space="preserve"> <path style="fill:#FFFFFF;" d="M90.6,488.1c10.9-10.6,21.8-21.1,32.6-31.8c21.5-21.4,42.9-42.9,64.3-64.4 c29.3-29.3,58.6-58.6,87.9-87.9c32.2-32.2,64.5-64.3,96.8-96.5c31.7-31.7,63.4-63.4,95.1-95.1c11.7-11.7,23.2-23.5,34.8-35.2 c1.1,0,2.3,0,3.4,0c3.6,4.1,7.1,8.5,11,12.4c45.9,45.9,91.9,91.7,137.9,137.6c51.6,51.6,103.2,103.3,154.8,154.9 c34.4,34.4,68.8,68.7,103.3,102.9c3.3,3.3,4,5.4,0.2,9.1C778.2,626.1,644,758.2,509.8,890.2c-6.1,6-12.9,6-18.9,0 c-79.5-79.2-159-158.5-238.5-237.8C199.9,600,147.4,547.4,94.8,494.9c-1.3-1.3-2.8-2.3-4.3-3.4C90.6,490.3,90.6,489.2,90.6,488.1z M504,124.6c-122.3,122-244.4,243.9-366.4,365.5c0.6,0.2,2.1,0.4,3,1.2c3.9,3.8,7.7,7.7,11.4,11.6c3.2,3.4,6.1,7,9.4,10.2 c6.9,6.7,14.1,13,21,19.7c5.7,5.5,11.1,11.2,16.7,16.7c8.4,8.4,16.9,16.8,25.3,25.3c9.2,9.3,18.2,18.8,27.3,28.2 c8.2,8.4,16.5,16.6,24.8,24.9c3.4,3.3,6.8,6.6,10.2,9.9c7.5,7.3,15,14.6,22.5,22c9.7,9.6,19.4,19.2,29.2,28.8 c9.5,9.4,19,18.7,28.4,28.2c6.5,6.6,12.6,13.5,19.1,20c7.3,7.2,15,14.1,22.3,21.3c7.2,7.1,14,14.6,21.2,21.7 c10.8,10.7,21.8,21.3,32.7,32c13.8,13.5,27.6,27.1,41.7,40.9C625.3,731.6,747,610.2,868.9,488.6C747.3,367.3,625.3,245.6,504,124.6z "></path> <path style="fill:#FFFFFF;" d="M766.3,489.5c-21,21-43.5,43.5-66.3,66.2C634.8,490.5,569.3,425,503.7,359.4 c-66,65.9-131.4,131.4-196.8,196.7c-23.1-23.2-45.5-45.7-67.5-67.8c33.1-33.3,66.7-67.2,100.4-100.9 c46.4-46.4,92.8-92.7,139.2-139.1c7-7,14.1-14,21-21.1c2.7-2.8,3.9-2.7,6.8,0.5c11.9,12.7,24.4,24.9,36.8,37.2 c60.7,60.6,121.4,121.1,181.9,181.8C739.6,460.7,752.9,475.4,766.3,489.5z"></path> <path style="fill:#FFFFFF;" d="M502.8,738c-46-45.9-92.1-91.9-138-137.7c7.1-7.3,14.2-14.5,21.3-21.9c9-9.3,18-18.5,26.9-27.9 c2.3-2.4,4.4-3.5,7-0.6c7.1,7.5,14.1,14.9,21.2,22.3c8.6,8.9,17,18.1,25.8,26.7c11.7,11.5,23.8,22.7,36.4,34.7 c4.4-4.5,8.9-9.3,13.7-13.9c7.1-6.9,14.4-13.5,21.4-20.4c4.2-4.2,7.8-8.9,12-13.2c3.9-4.1,8.2-7.8,12.1-11.8 c7.7-7.7,15.4-15.3,22.8-23.3c3.1-3.4,5-3.6,8.1-0.2c7.6,8.3,15.4,16.4,23.4,24.4c8.3,8.2,16.8,16.2,25.1,24.1 C595.5,645.6,549.2,691.7,502.8,738z"></path> <path style="fill:#FFFFFF;" d="M504.8,573.1c-25.3-25.4-49.9-50-75.1-75.2c24.9-24.9,50-50,75.9-76c2.9,2.9,6.4,6.5,10.1,10 c6.3,6,12.9,11.7,19.1,17.9c7.2,7.3,14,15,21.1,22.3c4.9,5,10.1,9.7,15.1,14.6c2.3,2.3,4.5,4.7,6.8,7c3.7,3.6,0.7,5.3-1.7,7.7 c-21.2,21-42.3,42.1-63.3,63.2C510,567.3,507.4,570.3,504.8,573.1z"></path> </svg> 