<svg class="S" xmlns="http://www.w3.org/2000/svg" viewBox="0 0 126 126"><path d="M107.7 58c-.1-1.3-1.6-2.2-2.9-2.2-4.1 0-7.8-2.4-9.3-6.2-1.6-3.8-.6-8.3 2.5-11.1 1-.9 1.1-2.4.3-3.4-2.1-2.7-4.5-5.1-7.1-7.2-1-.8-2.5-.7-3.4.3-2.7 3-7.5 4.1-11.2 2.5-3.9-1.6-6.3-5.6-6.1-9.8.1-1.3-.9-2.5-2.2-2.6-3.4-.4-6.8-.4-10.1 0-1.3.1-2.3 1.3-2.2 2.6.1 4.2-2.3 8-6.2 9.6-3.7 1.5-8.5.4-11.1-2.5-.9-1-2.4-1.1-3.4-.3-2.7 2.1-5.1 4.5-7.3 7.2-.8 1-.7 2.5.3 3.4 3.1 2.8 4.1 7.3 2.5 11.2-1.6 3.7-5.4 6.1-9.8 6.1-1.4 0-2.4.9-2.6 2.2-.4 3.4-.4 6.8 0 10.2.1 1.3 1.7 2.2 3 2.2 3.9-.1 7.7 2.3 9.3 6.2 1.6 3.8.6 8.3-2.5 11.1-1 .9-1.1 2.4-.3 3.4 2.1 2.7 4.5 5.1 7.1 7.2 1 .8 2.5.7 3.4-.3 2.7-3 7.5-4.1 11.2-2.5 3.9 1.6 6.3 5.6 6.1 9.8-.1 1.3.9 2.5 2.2 2.6 1.7.2 3.5.3 5.2.3 1.6 0 3.3-.1 4.9-.3 1.3-.1 2.3-1.3 2.2-2.6-.2-4.2 2.3-8 6.2-9.6 3.7-1.5 8.5-.4 11.1 2.5.9 1 2.4 1.1 3.4.3 2.7-2.1 5.1-4.5 7.3-7.2.8-1 .7-2.5-.3-3.4-3.1-2.8-4.1-7.3-2.5-11.2 1.5-3.6 5.2-6.1 9.2-6.1h.6c1.3.1 2.5-.9 2.6-2.2.3-3.3.3-6.8-.1-10.2zM63.1 85.5c-12.4 0-22.4-10.1-22.4-22.4 0-12.4 10.1-22.4 22.4-22.4 12.4 0 22.4 10.1 22.4 22.4 0 12.4-10.1 22.4-22.4 22.4zM63.1 74.4c-6.3 0-11.3-5.1-11.3-11.3 0-6.3 5.1-11.3 11.3-11.3 6.3 0 11.3 5.1 11.3 11.3 0 6.3-5.1 11.3-11.3 11.3z"/></svg>
