<?xml version="1.0" encoding="UTF-8"?> <!-- Generator: Adobe Illustrator 24.3.0, SVG Export Plug-In . SVG Version: 6.00 Build 0) --> <svg xmlns="http://www.w3.org/2000/svg" xmlns:xlink="http://www.w3.org/1999/xlink" version="1.1" id="Layer_1" x="0px" y="0px" viewBox="0 0 500 500" style="enable-background:new 0 0 500 500;" xml:space="preserve"> <g> <path style="fill:#FFFFFF;" d="M452.3,222.6c-4.5-20.8-12.8-40.5-24.3-58.6c-14.9-23.2-34.7-43-57.9-57.9 c-18-11.4-37.8-19.8-58.6-24.3c-27-5.9-54.8-5.9-81.8,0c-20.8,4.5-40.5,12.8-58.6,24.3c-23.2,14.9-43,34.7-57.9,57.9 c-11.4,18-19.4,37.8-24.3,58.6c-5.9,27-5.9,54.8,0,81.8c4.5,20.8,12.8,40.5,24.3,58.6c14.9,23.2,34.7,43,57.9,57.9 c18,11.4,37.8,19.8,58.6,24.3c27,5.9,54.8,5.9,81.8,0c20.8-4.5,40.5-12.8,58.6-24.3c23.2-14.9,43-34.7,57.9-57.9 c11.4-18,19.8-37.8,24.3-58.6C458.2,277.4,458.2,249.6,452.3,222.6L452.3,222.6z M415.9,289.5v-52l27.4-7.3 c4.2,22.2,4.2,44.7,0,66.9L415.9,289.5z M416.6,165.1L392,179.3l-37.1-37.1l14.2-24.6C387.8,130.4,403.8,146.4,416.6,165.1 L416.6,165.1z M270.7,87.5c11.1,0,22.5,1,33.6,3.1l-7.3,27.4h-52l-8-27C248.2,88.8,259.6,87.5,270.7,87.5z M172.3,117.6l13.9,24.6 l-36.7,36.7l-24.3-13.9C137.6,146.4,153.5,130.4,172.3,117.6z M98.1,296.8c-4.2-22.2-4.2-44.7,0-66.9l27.4,7.3v52L98.1,296.8z M125.1,361.9l24.6-13.9l36.7,36.7l-13.9,24.6C153.5,396.6,137.6,380.6,125.1,361.9z M237.4,436.1l7.3-27.4h52l7.3,27.4 C282.1,440.3,259.2,440.3,237.4,436.1L237.4,436.1z M369.1,409.1l-14.2-24.6l37.1-36.7l24.6,13.9 C403.8,380.3,387.8,396.6,369.1,409.1z M421.8,353.3L393.7,337c-2.1-1-4.5-0.7-6.2,0.7l-42.3,42.6c-1.7,1.7-2.1,4.2-0.7,6.2 l16.3,28.4c-14.6,8.7-30.2,15.2-46.4,19.4l-8.7-31.5c-0.7-2.1-2.8-3.8-4.9-3.8h-60c-2.4,0-4.2,1.4-4.9,3.8l-8.7,31.5 c-16.3-4.2-31.9-10.7-46.4-19.4l16.3-28.4c1-2.1,0.7-4.5-0.7-6.2L153.9,338c-1.7-1.7-4.2-2.1-6.2-0.7l-28.4,16.3 c-8.7-14.6-15.2-30.2-19.4-46.4l31.5-8.7c2.1-0.7,3.8-2.8,3.8-4.9v-60c0-2.4-1.4-4.2-3.8-4.9l-31.5-8.7 c4.2-16.3,10.7-31.9,19.4-46.4l28.4,16.3c2.1,1,4.5,0.7,6.2-0.7l42.3-42.3c1.7-1.7,2.1-4.2,0.7-6.2l-16.3-28.4 c14.6-8.7,30.2-15.2,46.4-19.1l8.7,31.5c0.7,2.1,2.8,3.8,4.9,3.8h60c2.4,0,4.2-1.4,4.9-3.8l8.7-31.5c16.3,4.2,31.9,10.7,46.4,19.4 l-16.3,28.4c-1,2.1-0.7,4.5,0.7,6.2l42.3,42.3c1.7,1.7,4.2,2.1,6.2,0.7l28.4-16.3c8.7,14.6,15.2,30.2,19.1,46.4l-31.5,8.7 c-2.1,0.7-3.8,2.8-3.8,4.9v60c0,2.4,1.4,4.2,3.8,4.9l31.5,8.7C437,323.1,430.5,338.7,421.8,353.3z"></path> <path style="fill:#FFFFFF;" d="M270.7,150.2c-62.7,0-113.3,50.6-113.3,113.3S208,376.8,270.7,376.8S384,326.2,384,263.5 S333.4,150.2,270.7,150.2z M270.7,366.8c-56.8,0-103.3-46.1-103.3-103.3s46.4-103.3,103.3-103.3S374,206.3,374,263.5 C374,320.3,327.5,366.8,270.7,366.8z"></path> <path style="fill:#FFFFFF;" d="M274.2,197c-2.1-2.1-5.2-2.1-7.3,0l0,0l-43,43.3c-13.9,13.9-13.9,36.4,0,50.3 c7.3,7.3,17,11.1,27,10.4c-1.7,8-4.9,15.6-9.4,22.9c-1.4,2.4-0.7,5.5,1.7,6.9c0.7,0.3,1.7,0.7,2.8,0.7h49.2c2.8,0,5.2-2.4,5.2-5.2 c0-1-0.3-1.7-0.7-2.8c-4.5-6.9-7.3-14.6-9.4-22.9c19.8,1,36.4-13.9,37.4-33.6c0.7-10.1-3.1-20.1-10.4-27L274.2,197z M310.2,283.3 c-6.6,6.6-15.9,9-24.6,6.6c-2.8-0.7-5.5,0.7-6.2,3.5c-0.3,0.7-0.3,1.4,0,2.1c1,9,3.5,17.7,7.6,26h-31.9c3.8-8.3,6.6-17,7.6-26 c0.3-2.8-1.7-5.2-4.5-5.5c-0.7,0-1.4,0-2.1,0c-13.5,3.8-27.4-4.2-31.2-17.7c-2.4-8.7,0-18.4,6.6-24.6l39.2-39.9l39.5,39.5 C320.2,257.3,320.2,273.6,310.2,283.3L310.2,283.3z"></path> </g> </svg> 