<?xml version="1.0" encoding="UTF-8"?> <!-- Generator: Adobe Illustrator 24.3.0, SVG Export Plug-In . SVG Version: 6.00 Build 0) --> <svg xmlns="http://www.w3.org/2000/svg" xmlns:xlink="http://www.w3.org/1999/xlink" version="1.1" id="Layer_1" x="0px" y="0px" viewBox="0 0 500 500" style="enable-background:new 0 0 500 500;" xml:space="preserve"> <g> <polygon style="fill:none;stroke:#FFFFFF;stroke-width:11.9054;stroke-linecap:round;stroke-linejoin:round;stroke-miterlimit:10;" points=" 364.5,365.9 364.5,307.6 343.2,285.6 343.2,87.9 109.3,87.9 109.3,285.6 87.3,307.6 87.3,365.9 "></polygon> <rect x="138.5" y="190.3" style="fill:none;stroke:#FFFFFF;stroke-width:11.9054;stroke-linecap:round;stroke-linejoin:round;stroke-miterlimit:10;" width="58.3" height="87.4"></rect> <rect x="196.8" y="190.3" style="fill:none;stroke:#FFFFFF;stroke-width:11.9054;stroke-linecap:round;stroke-linejoin:round;stroke-miterlimit:10;" width="58.3" height="87.4"></rect> <rect x="255" y="190.3" style="fill:none;stroke:#FFFFFF;stroke-width:11.9054;stroke-linecap:round;stroke-linejoin:round;stroke-miterlimit:10;" width="58.3" height="87.4"></rect> <rect x="138.5" y="117" style="fill:none;stroke:#FFFFFF;stroke-width:11.9054;stroke-linecap:round;stroke-linejoin:round;stroke-miterlimit:10;" width="175.6" height="44.1"></rect> <polyline style="fill:none;stroke:#FFFFFF;stroke-width:11.9054;stroke-linecap:round;stroke-linejoin:round;stroke-miterlimit:10;" points=" 335.4,380.1 335.4,417.1 109.3,417.1 109.3,380.1 "></polyline> <path style="fill:none;stroke:#FFFFFF;stroke-width:11.9054;stroke-linecap:round;stroke-linejoin:round;stroke-miterlimit:10;" d=" M401.5,256.4h-58.3v-44.1h58.3c7.9,0,15,6.3,15,15v14.2C415.7,249.4,409.4,256.4,401.5,256.4z"></path> <circle style="fill:none;stroke:#FFFFFF;stroke-width:11.9054;stroke-linecap:round;stroke-linejoin:round;stroke-miterlimit:10;" cx="393.6" cy="124.9" r="22.1"></circle> <line style="fill:none;stroke:#FFFFFF;stroke-width:11.9054;stroke-linecap:round;stroke-linejoin:round;stroke-miterlimit:10;" x1="393.6" y1="146.2" x2="393.6" y2="212.3"></line> </g> </svg> 