<?xml version="1.0" encoding="UTF-8"?> <!-- Generator: Adobe Illustrator 24.3.0, SVG Export Plug-In . SVG Version: 6.00 Build 0) --> <svg xmlns="http://www.w3.org/2000/svg" xmlns:xlink="http://www.w3.org/1999/xlink" version="1.1" id="Layer_1" x="0px" y="0px" viewBox="0 0 64 64" style="enable-background:new 0 0 64 64;" xml:space="preserve"> <style type="text/css"> .st0{fill:#FFFFFF;} </style> <g> <path class="st0" d="M24.8,25.7c0.5,0.1,0.9,0,1.3-0.4c0.4-0.4,0.7-0.8,0.8-1.5c0.1-0.6,0.1-1.2-0.2-1.7c-0.2-0.5-0.6-0.8-1-0.9 c-0.5-0.1-0.9,0-1.4,0.4c-0.4,0.4-0.7,0.8-0.9,1.5c-0.1,0.6-0.1,1.2,0.2,1.7C24,25.3,24.3,25.6,24.8,25.7z"></path> <path class="st0" d="M14.3,30.7c0.5,0.1,0.9,0,1.4-0.4c0.4-0.4,0.7-0.8,0.9-1.5c0.1-0.6,0.1-1.2-0.2-1.7c-0.2-0.5-0.6-0.8-1.1-0.9 c-0.5-0.1-0.9,0-1.3,0.4c-0.4,0.4-0.7,0.8-0.8,1.5c-0.1,0.6-0.1,1.2,0.2,1.7C13.5,30.3,13.8,30.6,14.3,30.7z"></path> <path class="st0" d="M24.6,8.3c-2.5,0.8-4.9,2-6.9,3.4c4.1-1.4,8.6-1,12.1,1.5c6.1,4.4,7.1,13.5,2.2,20.3C27,40.4,18.1,42.4,12,38 c-2.4-1.7-4-4.2-4.7-6.9c-0.1,2.8,0.2,5.6,1.1,8.4c4.1,13.1,18,20.4,31.1,16.3c13.1-4.1,20.4-18,16.3-31.1 C51.6,11.5,37.7,4.2,24.6,8.3z"></path> <path class="st0" d="M12,37.1c5.6,4,13.8,2.3,18.3-4c4.5-6.2,3.6-14.6-2-18.6c-4-2.9-9.3-2.8-13.7-0.2c-4.1,4-6.7,9.2-7.3,14.9 C7.8,32.3,9.4,35.2,12,37.1z M23.1,19.2c1-0.8,2.1-1.1,3.3-0.8c1.2,0.3,2.1,1,2.7,2.2c0.6,1.2,0.7,2.5,0.5,3.8 c-0.1,0.5-0.3,1-0.5,1.5c-0.2,0.5-0.7,1.2-1.4,2.2l-5.2,7.5l-1.9-1.8l3.6-5.1c-1.1-0.2-2-1-2.6-2.1c-0.6-1.2-0.7-2.5-0.4-4 C21.4,21.2,22,20,23.1,19.2z M10.6,27.6c0.1-0.5,0.3-1,0.5-1.5c0.2-0.5,0.7-1.2,1.4-2.2l5.2-7.5l1.9,1.8L16,23.4 c1.1,0.2,2,1,2.6,2.1c0.6,1.2,0.7,2.5,0.4,4c-0.3,1.4-1,2.5-2,3.4c-1,0.8-2.1,1.1-3.3,0.8c-1.2-0.3-2.1-1-2.7-2.2 C10.4,30.2,10.3,29,10.6,27.6z"></path> </g> </svg> 