<?xml version="1.0" encoding="UTF-8"?> <svg xmlns="http://www.w3.org/2000/svg" xmlns:xlink="http://www.w3.org/1999/xlink" version="1.1" id="Layer_1" x="0px" y="0px" viewBox="0 0 100 100" style="enable-background:new 0 0 100 100;" xml:space="preserve"> <style type="text/css"> .st0{fill:#FFFFFF;} </style> <g> <path class="st0" d="M4.2,79.9c0.6-0.7,1.4-1,2.4-0.9c0.7,0.1,1.5,0,2.2,0c0.9,0,1.5,0.7,1.5,1.5c0,0.8-0.6,1.5-1.4,1.5 c-1.1,0-2.2,0.1-3.2,0c-0.5-0.1-1-0.6-1.4-0.9C4.2,80.8,4.2,80.3,4.2,79.9z"></path> <path class="st0" d="M60.5,58.7c-9.1,3.5-17.5,2-25.3-3.3c-0.5-0.3-0.7-0.7-0.8-1.3c-0.5-5.4,0.3-10.5,2.7-15.4 c0.5-1,0.5-1.9,0-2.9c-2.6-5.1-4.4-10.5-5-16.2c-0.3-2.8-0.2-5.6,0-8.5c0.1-1.8,1.4-2.9,3-3c1.6-0.1,3,0.9,3.3,2.4 c0.1,0.7,0.1,1.4,0.1,2c0.1,4.3,1.4,8.1,3.9,11.6c0.5,0.7,1.1,1.2,2,0.8c0.9-0.3,0.8-1.1,1-1.9c0.4-2.2,0.7-4.4,1.5-6.5 c1.9-5.4,6-8.2,11.5-9.2c4.1-0.7,8-0.1,11.3,2.5c0.9,0.7,1.7,1.6,2.6,2.4c-0.1,0.1-0.1,0.1-0.2,0.2c-0.3-0.1-0.5-0.3-0.8-0.4 C65.3,9,59.4,8.9,53.7,12.5c-6.2,4-7.2,12.2-2.4,18.1c3.2,4,7.4,6,12.5,6.3c0.3,0,0.7,0.3,0.8,0.6c2.9,7,5.4,14.2,6.7,21.7 c0.3,2,0.4,4.1,0.4,6.2c0,1.6-1.1,2.8-2.6,3c-1.5,0.2-2.8-0.6-3.3-2.1c-1.2-3.8-2.3-7.7-3.4-11.6c-0.6-2.1-1.2-4.1-1.8-6.2 c-0.3-1.1-1.1-1.7-2-1.4c-1,0.3-1.4,1.1-1,2.3C58.7,52.4,59.6,55.5,60.5,58.7z M61.8,41.6c1,0,1.7-0.5,1.7-1.4 c0.1-0.8-0.6-1.5-1.6-1.6c-1.3-0.2-2.7-0.3-4-0.6c-4.9-1.2-8.9-3.7-10.8-8.7c-0.2-0.4-0.7-0.8-1.1-1c-1.1-0.3-2,0.7-1.7,1.9 c0.7,2.4,2.1,4.4,4,6.1C52.2,39.9,56.8,41.2,61.8,41.6z M56.1,46.7C56.1,46.7,56.1,46.7,56.1,46.7c0-0.4,0-0.7,0-1.1 c0-2-0.8-3-2.7-3.5c-0.8-0.2-1.7-0.5-2.5-0.6C48.7,41,47,42.4,47,44.6c0,0.9,0,1.8,0,2.8c0,1.2,0.6,2.3,1.7,2.7 c1.4,0.5,2.9,0.9,4.3,1.1c1.6,0.2,3-1.1,3.1-2.8C56.1,47.8,56.1,47.2,56.1,46.7z M53.9,57.1c0,0,0-0.1,0-0.1c0.2,0,0.4,0,0.5,0 c0.4,0,0.7-0.1,1-0.2c0.9-0.2,1.3-0.9,1.3-1.6c-0.1-0.8-0.6-1.3-1.5-1.4c-2.7-0.3-5.4-0.5-8.1-0.8c-0.9-0.1-1.6,0.4-1.8,1.3 c-0.2,0.8,0.4,1.6,1.2,1.8C49.1,56.5,51.5,56.8,53.9,57.1z M42.4,52.5c-0.1-0.2-0.3-0.7-0.7-1c-0.8-0.6-1.6-1.1-2.4-1.6 c-0.7-0.4-1.4-0.3-1.9,0.3c-0.5,0.6-0.6,1.4,0,1.9c0.9,0.7,2,1.5,3,2C41.3,54.6,42.3,53.8,42.4,52.5z"></path> <path class="st0" d="M33.4,57.9c3.5,2.5,7.3,4.1,11.5,5c4.1,0.9,8.3,0.9,12.5,0.1c0.5,5.4,0.5,10.6,0,16c0.4,0,0.7,0,1.1,0 c11.7,0,23.4,0,35.2,0c0.3,0,0.7,0,1,0c0.8,0.1,1.3,0.8,1.3,1.6c0,0.8-0.6,1.3-1.3,1.4c-0.4,0-0.7,0-1.1,0c-11.9,0-23.9,0-35.8,0 c-0.8,0-1.1,0.2-1.4,0.9c-1.5,3.3-4.3,4.8-7.4,3.9c-1.9-0.5-3-1.7-3.3-3.7c-0.5-3.5-0.6-6.9-0.4-10.4c0.1-1.4,0.2-2.7,0.3-4.1 c0.1-1-0.4-1.7-1.3-1.8c-0.8-0.1-1.6,0.5-1.7,1.5c-0.2,1.8-0.2,3.6-0.3,5.4c0,0.5-0.3,1.1-0.6,1.5c-2,2.7-4.8,3.3-7.9,2.5 c-0.5-0.1-1.1-0.4-1.6-0.6c-2.4-1-4.2-2.8-3.4-6.3C29.7,66.5,31.4,62.2,33.4,57.9z"></path> <path class="st0" d="M64.3,33.8c-4.8-0.2-8.7-2-11.4-6.2c-2.9-4.5-1.7-9.8,2.8-12.8c6-4,15.2-1.6,18.7,4.7c3,5.5,0.4,11.7-5.8,13.6 c-0.7,0.2-1.5,0.4-2.3,0.5C65.7,33.8,65,33.8,64.3,33.8z M54.6,21.6c0,1.7,0.4,2.4,1.4,2.5c0.9,0.1,1.5-0.6,1.6-1.8 c0.1-1.7,1.1-2.9,2.6-3.5c1.1-0.4,2.3-0.6,3.5-0.8c0.9-0.2,1.5-0.8,1.4-1.6c-0.1-0.9-0.7-1.5-1.6-1.4c-1.6,0.2-3.2,0.5-4.6,1.1 C56.3,17.1,54.8,19.1,54.6,21.6z"></path> <path class="st0" d="M37.3,81c-1.1,2.7-4.7,3.9-7.1,2.5c-0.2-0.1-0.5-0.3-0.6-0.5c-0.4-0.9-1.1-0.9-1.9-0.9c-4,0-8,0-12,0 c-0.3,0-0.5,0-0.8,0c-0.9-0.1-1.5-0.7-1.5-1.5c0-0.8,0.7-1.5,1.6-1.5c0.8,0,1.6,0,2.4,0c3.4,0,6.8,0.1,10.2-0.1 c1,0,1.8,0.2,2.6,0.7C32.3,80.8,34.7,81.2,37.3,81z"></path> <path class="st0" d="M22.6,45.5c-0.1,1.3,0.3,3-1.7,3c-1.8,0-1.5-1.7-1.6-2.9c-1.2-0.2-3,0.3-3-1.7c0-1.8,1.7-1.4,2.9-1.5 c0.1-1.3-0.3-3,1.7-3c1.8,0,1.4,1.7,1.5,3c1.3,0.1,3-0.3,2.9,1.7C25.5,45.8,23.9,45.4,22.6,45.5z"></path> <path class="st0" d="M88.1,13.4c0.1-1.3-0.3-3,1.6-3c1.9,0,1.5,1.7,1.6,3c1.2,0.1,2.9-0.3,3,1.6c0,1.9-1.7,1.4-2.9,1.6 c-0.2,1.2,0.3,3-1.6,3c-1.9,0-1.5-1.7-1.6-3c-1.2-0.1-3,0.3-3-1.6C85.2,13,86.8,13.4,88.1,13.4z"></path> <path class="st0" d="M10.2,16.5c-1.2-0.2-3,0.4-2.9-1.7c0.1-1.8,1.7-1.4,2.9-1.5c0.2-1.2-0.4-3,1.6-3c1.9,0,1.4,1.7,1.5,2.9 c1.2,0.2,3-0.4,3,1.6c0,2-1.8,1.4-2.9,1.6c-0.2,1.2,0.4,3-1.6,2.9C9.9,19.4,10.4,17.7,10.2,16.5z"></path> <path class="st0" d="M80.5,89.8c-1.5,0-2.9,0-4.4,0c-1,0-1.7-0.6-1.7-1.5c0-0.9,0.7-1.5,1.7-1.5c2.9,0,5.9,0,8.8,0 c1,0,1.7,0.7,1.7,1.5c0,0.9-0.7,1.5-1.8,1.5C83.5,89.8,82,89.8,80.5,89.8z"></path> <path class="st0" d="M22.5,89.8c-1,0-1.9,0-2.9,0c-1,0-1.7-0.6-1.7-1.6c0-0.9,0.6-1.5,1.6-1.5c2,0,3.9,0,5.9,0c1,0,1.6,0.6,1.6,1.5 c0,0.9-0.7,1.5-1.7,1.6C24.4,89.8,23.4,89.8,22.5,89.8z"></path> <path class="st0" d="M54.7,89.2c-1.4,3.1-3.6,4.2-6.7,3.4c-2-0.5-3.5-2.3-3.4-4.5C47.7,90.4,51,90.8,54.7,89.2z"></path> <path class="st0" d="M11.9,86.7c0.5,0,1.1,0,1.6,0c0.8,0.1,1.4,0.7,1.4,1.4c0,0.8-0.6,1.5-1.4,1.6c-1.1,0.1-2.3,0.1-3.4,0 c-0.8,0-1.3-0.8-1.3-1.5c0-0.8,0.6-1.4,1.4-1.5C10.7,86.7,11.3,86.7,11.9,86.7C11.9,86.7,11.9,86.7,11.9,86.7z"></path> <path class="st0" d="M69.2,86.7c1.5,0,2.3,0.5,2.2,1.5c0,1-0.8,1.5-2.2,1.5c-0.3,0-0.5,0-0.8,0c-1,0-1.6-0.7-1.6-1.6 c0-0.9,0.6-1.4,1.5-1.5C68.6,86.7,68.9,86.7,69.2,86.7z"></path> <path class="st0" d="M50,44.4c1,0.2,1.8,0.4,2.6,0.7c0.2,0.1,0.4,0.3,0.4,0.5c0,0.8,0,1.6,0,2.5c-1-0.2-1.8-0.4-2.7-0.7 c-0.1,0-0.3-0.3-0.3-0.5C50,46.1,50,45.3,50,44.4z"></path> </g> </svg> 