<?xml version="1.0" encoding="UTF-8"?> <svg xmlns="http://www.w3.org/2000/svg" xmlns:xlink="http://www.w3.org/1999/xlink" version="1.1" id="Layer_1" x="0px" y="0px" viewBox="0 0 1000 1000" style="enable-background:new 0 0 1000 1000;" xml:space="preserve"> <path style="fill:#FFFFFF;" d="M58.5,378c7.1-0.5,14.2-1.5,21.3-1.5c29.6,0.1,59.3-0.2,88.9,1c23.7,1,44.6,9.2,54,33.2 c9.1,23.3,3.9,45-11.8,64.2c-6.6,8.1-14.2,15.3-24,25.8c25.9,28.7,52.2,58,78.7,87c2.7,3,7.2,4.7,11.1,6.3 c26.4,10.8,38.5,4,38.9-24.1c0.9-55.3,0.4-110.6,0.4-165.9c0-12.7-4.7-21.2-19.1-21.5c-2,0-4.1-1.4-5.8-4.8c29.3,0,58.6,0,88.4,0 c-0.7,2-0.9,3.5-1.3,3.6c-22.6,5.8-23.3,6.4-23.4,30.8c-0.2,47.7-0.2,95.3,0,143c0.2,35.4,0.4,35.4,34.9,45.7 c-4.7,1.7-7.4,3.6-10.1,3.6c-39.7,0-79.4-0.7-119.1-0.1c-23.4,0.4-40.4-9.8-53.8-27.4c-11.9-15.5-24.7-30.5-34.6-47.3 c-10.4-17.6-24.1-22.7-43.2-18.1c0,24.6-0.6,49.6,0.6,74.4c0.2,3.9,7.7,8.4,12.8,10.8c4.3,2.1,9.8,1.5,14.8,2.1 c-0.1,1.2-0.2,2.4-0.2,3.6c-30.6,0-61.2,0-91.8,0c-1.1-1.3-2.1-2.7-3.2-4c29,2.3,26.8-17.1,26.9-33.3c0.6-52.4,0.6-104.8,0.3-157.2 c-0.1-20.7-0.8-20.7-30.9-27C58.5,379.9,58.5,379,58.5,378z M127,441.3c0,13.8-0.2,27.5,0.2,41.3c0.1,3.3,1.4,7.9,3.7,9.5 c11.2,7.7,40,2.2,48.6-8.6c15.6-19.5,14.1-60.3-3.3-78.4c-11-11.4-25-15.7-40.4-13.2c-3.4,0.5-8.3,6.1-8.5,9.6 C126.4,414.7,127,428,127,441.3z"></path> <path style="fill:#FFFFFF;" d="M500.9,687c1.5-2.7,3.1-7.7,4.5-7.6c19.6,0.6,27.8-12.4,34.2-27.5c18.9-44.3,37.7-88.7,56.5-133 c19-44.8,38.1-89.5,57.3-134.2c2.3-5.4,5.7-10.4,10.7-19.3c5.2,10.5,9.1,17.3,12.1,24.4c23.9,57.2,47.6,114.4,71.3,171.7 c8.1,19.5,16.6,38.3,43.7,36.8c-0.4,1.2-0.8,2.3-1.2,3.5c-31.5,0-63,0-94.6,0c-0.2-0.7-0.5-1.3-0.7-2c6.4-2.7,12.9-5.4,20.7-8.6 c-19.5-52.3-38.6-103.8-59.2-159.1c-10.4,25.1-19.4,46.4-28.1,67.8c-22,53.8-44.3,107.5-65.8,161.6c-5.7,14.3-13,25-29.8,25.5 C522,687,511.4,687,500.9,687z"></path> <path style="fill:#FFFFFF;" d="M677.5,301.5c-26.9-0.7-31.6,20-39.5,37.4c-38.3,84.7-76.5,169.4-114.8,254 c-2.6,5.7-6.4,10.9-11.4,19.2c-4.7-8.3-8.3-13.2-10.5-18.6c-24.5-59-49.1-117.9-73.1-177c-7.9-19.4-16.1-37.3-44.2-33.6 c0.9-1.7,1.8-3.4,2.7-5.1c31.4,0,62.9,0,94.3,0c0.1,0.7,0.3,1.5,0.4,2.2c-2.3,0.9-4.6,2.3-7,2.5c-11,0.8-12.6,7.2-9.4,15.9 c18.4,49,36.9,97.9,56.6,149.8c3.1-6.5,5.2-10.3,6.8-14.4c29.4-73.4,58.9-146.8,87.8-220.4c4.8-12.2,11.7-17.4,24.6-16.7 c11.6,0.6,23.3,0.1,34.9,0.1C676.3,298.5,676.9,300,677.5,301.5z"></path> <path style="fill:#FFFFFF;" d="M795.1,377.9c30.4,0,60.8,0,91.7,0c-0.8,1.6-1.1,3-1.6,3.1c-26.2,3.8-25.3,4.8-25.5,31.3 c-0.3,50.5-0.2,101,0.6,151.4c0.3,17.2,5.7,21.6,22.7,23.1c3.3,0.3,6.7,0.2,10,0.2c37.6,0.4,37.6,0.4,55-28.9 c1.3,0.1,2.5,0.3,3.8,0.4c-2.4,13.9-4.4,27.8-7.6,41.5c-0.5,2-6.3,4-9.7,4.1c-45,0.1-89.9,0-134.9-0.3c-1.1,0-2.3-1.1-3.4-1.7 c0.4-1.2,0.5-2.7,0.9-2.8c20.4-3,21.8-2.3,22.4-28.4c1.2-51.9,0.5-103.9,0.5-155.8C820.1,388.1,819.9,388.1,795.1,377.9z"></path> <path style="fill:#FFFFFF;" d="M684.8,548.4c-25.6,23-22.3,21.3-50.8,0C651.4,527.6,661.1,527.6,684.8,548.4z"></path> </svg> 