<?xml version="1.0" encoding="UTF-8"?> <svg xmlns="http://www.w3.org/2000/svg" xmlns:xlink="http://www.w3.org/1999/xlink" version="1.1" id="Layer_1" x="0px" y="0px" viewBox="0 0 5000 5000" style="enable-background:new 0 0 5000 5000;" xml:space="preserve"> <path style="fill:#EE2859;" d="M2462,465.1c36.8,5,73.9,8.7,110.4,15.3c249.1,45.3,451.4,165.7,598.2,374.4 c7.7,10.9,16.2,12.1,27.5,12.1c223.9-0.2,447.8-0.1,671.8-0.1c7.6,0,15.2,0,23.9,0c0,160.8,0,320,0,480.4 c-996.4,0-1992.1,0-2989.1,0c0-160.2,0-319.3,0-480.4c9.2,0,17.4,0,25.6,0c223.3,0,446.6-0.1,669.8,0.4c14.7,0,22.8-4.8,31.1-16.6 c136.7-193.2,323.7-310.4,553-361.7c46.2-10.3,94-14,141-20.8c4.4-0.6,8.7-2,13-3C2379.6,465.1,2420.8,465.1,2462,465.1z M2167.1,854.4c26.6,29.3,48.6,57.4,74.5,81.2c25.6,23.5,31.8,48.8,25.5,82c-6.4,33.7-7.3,68.4-10.9,105.8 c44-19,84.8-35.8,124.9-54.3c13.7-6.3,24.7-5.7,38.1,0.4c40.2,18.3,81,35.3,124,53.9c-4.8-46.9-8.9-91-14.1-134.9 c-1.5-12.4,0.2-21.5,9.3-31.1c26.2-27.4,51.3-56,76.7-84.2c4.9-5.4,9.4-11.1,16.2-19.2c-48.7-10.4-93.9-19.6-138.7-30.1 c-7.6-1.8-16.3-7.8-20.4-14.4c-21.1-33.8-40.9-68.4-61.3-102.7c-3.4-5.7-7.2-11.2-11.8-18.2c-24.4,41.2-46.7,80.3-70.7,118.3 c-5,8-15.4,15.3-24.6,17.5C2259.6,835.1,2215.1,844,2167.1,854.4z"></path> <path style="fill:#EE2859;" d="M3895.2,1555.3c0,489.8,0,978.6,0,1469.5c46.1,0,90.8,0,137,0c0,66.2,0,130.3,0,196.1 c35.1,0,68.7,0,104.4,0c0-8.2,0-15.7,0-23.3c0-599.7,0-1199.4,0.3-1799.1c0-14.4-4.2-23-15.9-31.7 c-84.2-62.5-110.3-173.4-63.8-267.4c44.9-90.9,151.2-137.7,249.1-109.9c100.3,28.5,165.7,123.6,155.1,227.3 c-6.4,61.9-34.8,112.6-85.1,149.7c-11.9,8.8-15.7,17.5-15.7,31.6c0.3,673.7,0.3,1347.4,0.3,2021.1c0,8.2,0,16.5,0,26.9 c-109.5,0-217.2,0-327.1,0c0,66.7,0,131.4,0,198.4c-46.8,0-91.5,0-137.5,0c0,184.1,0,365.8,0,549.8c51.5,0,102.6,0,154.7,0 c0,75.3,0,148.4,0,223c-1100.7,0-2201.2,0-3302.8,0c0-73.4,0-146.5,0-222.1c50.7,0,101.7,0,154.7,0c0-881.2,0-1759.8,0-2639.8 C1900.8,1555.3,2896.5,1555.3,3895.2,1555.3z M3670.1,1779.5c-848.2,0-1694.5,0-2541,0c0,441.9,0,882.4,0,1324 c847.5,0,1693.9,0,2541,0C3670.1,2661.7,3670.1,2221.2,3670.1,1779.5z M1284,3514.4c744.4,0,1487.6,0,2230.9,0 c0-68.4,0-135.6,0-202.4c-744.5,0-1487.8,0-2230.9,0C1284,3380.3,1284,3446.9,1284,3514.4z M2944.8,3723.8 c-364.5,0-726.7,0-1090.5,0c11.2,102.9,22.2,203.6,33.2,304.2c342.5,0,682.6,0,1024.4,0C2922.9,3926.5,2933.8,3825.7,2944.8,3723.8z "></path> <path style="fill:#EE2859;" d="M2899.5,1984.4c189.5,0,377.7,0,567.7,0c0,304.1,0,607.9,0,912.9c-189.1,0-377.9,0-567.7,0 C2899.5,2593.4,2899.5,2290.1,2899.5,1984.4z M2956.4,2391.1c28.1,31.1,52.5,60.9,80,87.4c19,18.3,22.5,37.2,18.7,61.9 c-5.6,36.5-7.8,73.6-11.7,113c9.1-3.5,15-5.5,20.8-8c35.4-15.2,70.4-31.1,106.2-45.4c7.8-3.1,18.9-3.2,26.6-0.1 c35.7,14.3,70.8,30.2,106.2,45.4c6,2.6,12.3,4.6,20.6,7.6c-4.7-47.3-9.5-91.3-12.9-135.5c-0.6-7.7,2.5-17.8,7.5-23.6 c26.4-30.7,54.1-60.3,81.1-90.4c3.1-3.4,5.4-7.6,9.4-13.1c-35.6-7.6-68.5-17-102-21.2c-33.6-4.2-55.4-18.3-70-49.7 c-14.5-31-34.5-59.5-53.4-91.3c-21.9,37.1-43.1,70.7-62,105.6c-10,18.5-22.7,28-43.7,31.6 C3038.2,2372.1,2999.2,2381.9,2956.4,2391.1z"></path> <path style="fill:#EE2859;" d="M1331.1,2897.3c0-304.7,0-607.6,0-912.2c183.9,0,367.3,0,551.8,0c0,304.2,0,607.5,0,912.2 C1698.9,2897.3,1515.9,2897.3,1331.1,2897.3z M1380,2391c30.1,33.3,57.3,64.7,86,94.6c12.3,12.8,16.2,25.3,13.8,42.9 c-5.5,40.6-8.8,81.6-13.2,124.7c7.8-2.8,13.6-4.6,19.3-7.1c30.7-13.2,62-25.2,91.7-40.3c20.8-10.6,38.5-10.3,59.4-0.1 c35.4,17.3,72.3,31.8,110.6,48.3c-4.5-45.2-7.9-87.5-13.4-129.5c-2-15,1.3-25.2,11.4-36c29.4-31.2,57.8-63.3,88.1-96.8 c-6.1-1.9-9.6-3.3-13.2-4.1c-38.3-8.3-76.5-17.1-115.1-24.3c-15.2-2.8-24.6-9.3-32.3-23.1c-20.8-37.4-43.4-73.7-66.3-112.2 c-22.4,37.8-44.4,72.6-63.9,108.8c-9.2,17.2-21.5,24.5-39.9,28C1463.2,2372.4,1423.4,2381.7,1380,2391z"></path> <path style="fill:#EE2859;" d="M2666.6,2897.6c-183.8,0-366.4,0-550.6,0c0-303.9,0-607.8,0-912.9c183,0,366.1,0,550.6,0 C2666.6,2288.7,2666.6,2592.1,2666.6,2897.6z M2164.1,2391c30.2,33.5,57.4,65.1,86.4,94.9c12.6,13,15.7,25.8,13.5,43.1 c-5.2,40.6-8.7,81.4-13.2,125.4c40-17.4,77.5-32.3,113.8-49.9c19.1-9.3,35.1-9,54.1,0.2c36.3,17.4,73.7,32.4,113,49.4 c-4.4-45.1-7.7-87.4-13.2-129.3c-2-14.9,1.1-25.2,11.3-36c29.5-31.2,57.8-63.4,89-97.8c-40.8-8.9-77.9-19.2-115.8-24.4 c-26.8-3.6-41.5-16.6-53.5-39.3c-17.5-33.3-38-65-58.2-99.1c-24.5,41.3-47,80.3-70.7,118.5c-4.1,6.6-12.7,12.7-20.3,14.5 C2256.6,2371.5,2212.6,2380.5,2164.1,2391z"></path> </svg> 