<?xml version="1.0" encoding="UTF-8"?> <svg xmlns="http://www.w3.org/2000/svg" xmlns:xlink="http://www.w3.org/1999/xlink" version="1.1" id="Layer_1" x="0px" y="0px" viewBox="0 0 1000 1000" style="enable-background:new 0 0 1000 1000;" xml:space="preserve"> <path style="fill:#FFFFFF;" d="M262,836.9c-0.5-1.7-2.1-1.5-3.3-1.8c-3.7-0.9-7.5-1.6-11.2-2.5c-8.8-2.2-15.7-7.4-21.5-14.2 c-6-6.9-8.6-15.3-10.5-24.1c-2.2-9.9-3.1-19.9-3.1-30c0-6.7,0-13.5,0-20.2c0-3.1,0-3.1-2.9-4c-7.6-2.5-13.4-7.2-18.5-13.4 c-4.5-5.5-6.1-11.8-7.7-18.4c-1.3-5.4-1.7-10.8-1.4-16.3c0.2-3.6,0.1-7.2-0.1-10.8c-0.4-6.6,1.2-12.9,2.5-19.3 c3.6-17.4,12.3-32.4,22.5-46.6c3-4.1,5.9-8.3,9.3-11.9c5.6-5.9,11.7-11.4,17.6-17.2c-4.6-3-9.4-6.1-14.5-9.4c-1.8,1.2-3.8,2.6-5.9,4 c-12.8,8.7-26.2,16.1-40.8,21.2c-13.2,4.6-26.6,7.7-40.7,8.5c-14.6,0.8-28.9-0.6-42.9-4.7c-12.9-3.8-23.9-10.5-33.3-20.2 c-6.8-7-12.4-14.8-16.5-23.6c-2.7-5.8-3.9-11.9-4.9-18.1c-1.2-8-1.9-16-2.7-24c-0.3-2.9-0.9-5.8-0.6-8.6c0.6-5.4,0-10.8,0.4-16.1 c0.9-10.1,0.7-20.1,0.8-30.2c0.2-14,0-28.1,0.8-42c1.1-18.7,8.5-34.3,23.7-46c16.3-12.5,34.6-19.7,54.9-21.8 c7.8-0.8,15.7-0.9,23.5-0.6c14.5,0.7,28.8,3.5,41.9,10.1c18.7,9.5,31.1,24.6,38.2,44.2c0.3,0.9,0.7,1.8,1.1,2.9 c5.8-3.8,11.3-7.5,17.2-11.4c-1.9-1.1-3.6-2.1-5.3-3c-12.4-6.8-22.1-16.4-30.1-27.9c-8.1-11.6-12.7-24.4-14.4-38.3 c-1.8-15.4,0.4-30.4,6.1-44.8c0.8-2,0.8-3.7,0.1-5.8c-3.8-11.6-6.4-23.5-7.2-35.8c-1-14.6,0-28.9,4.3-42.9 c5.5-18.2,16.5-32.4,32.2-43.1c12.3-8.3,26-13.1,40.4-16c8-1.6,16.1-2.6,24.2-3.9c0.6-0.1,1-0.6,1.6-0.9c5.8,0,11.7,0,17.5,0 c0.7,0.3,1.4,0.7,2.1,0.9c5.8,1.1,11.7,2,17.5,3.1c8.8,1.8,17,5,24.6,9.6c10.5,6.3,19.4,14.4,26.2,24.8c1.6,2.4,1.6,2.3,4.4,1.6 c7.8-2.1,15.6-3,23.6-1.6c10.5,1.7,19.3,6.4,25.9,14.9c0.6,0.8,1.3,1.5,2.1,2.5c1.6-1.9,3-3.7,4.5-5.3c5.6-6.2,12.1-11,20.3-13.3 c11.9-3.3,23.5-2.4,34.8,2.6c1.6,0.7,3.2,0.8,4.9,0.4c3.8-0.9,7.6-1.9,11.5-2.4c9.6-1.1,19.2-1.6,28.9-0.9c12.6,1,24.8,3.4,36.5,8.5 c1.6,0.7,3.4,1.2,5,1.9c1.8,0.8,3.4,0.6,5.2-0.1c8.6-3.3,17.6-5.3,26.8-6c9-0.7,18.1-1.1,27.2-1.5c1.6-0.1,2.5-0.6,2.9-2.1 c0.4-1.3,0.9-2.5,1.5-3.8c5.2-11,14.2-18.1,25-22.9c15.6-6.8,32.2-9.4,49.1-10.1c8.7-0.4,17.5,0,26.2,0.4c6.6,0.3,13.2,0.8,19.7,1.6 c11.7,1.5,23.3,3.7,34.5,7.1c4.9,1.5,9.9,3,14.3,5.7c13.5,8,21.4,20.3,26.2,34.6c2.4,7.2,3.3,14.9,3.4,22.5c0.1,9,0,17.9-1.1,26.9 c-1.1,8.3-2.7,16.4-6.4,23.9c-7.3,14.7-18.9,24.5-34.8,29.1c-2.3,0.6-3.8,1.8-4.6,4c-0.7,2-1.6,4-1.9,6.1c-0.5,3.8-0.8,7.6-1,11.4 c-0.2,7.4-0.3,14.8-0.4,22.2c-0.1,9.9-2.2,19.6-4.7,29.1c-2.8,10.8-7.3,20.7-14.6,29.2c-0.5,0.5-0.7,1.3-1.1,1.8 c6.7,3,13.2,5.8,19.8,8.8c0.3-0.4,0.7-0.8,1-1.3c7.9-11.1,16.8-21.3,27.1-30.3c9.2-8.1,19.3-14.6,31.7-16.6c8.4-1.3,16.8-1,25.1,0 c7.8,1,15.4,3,22.5,6.4c10.1,4.9,18,12.5,25.3,20.8c8.8,10.1,14.4,21.9,17.7,34.8c2.6,10,4.8,20.1,6.5,30.2c2.9,16.6,5,33.2,5,50.1 c0,1.2,0.4,2.4,0.7,3.5c0,4.5,0,9,0,13.5c-0.2,1.3-0.7,2.6-0.7,3.9c0,8.2-0.7,16.3-2.2,24.4c-1.9,10.6-5,20.7-10.7,29.9 c-3.7,5.9-8.6,10.6-13.7,15.2c-7.2,6.6-15.4,11.6-24.9,14.1c-7.3,2-14.6,1.9-22,2c-6.3,0.1-12.3-1.1-18.2-2.8 c-4.6-1.3-8.7-3.6-12.1-7c-3.5-3.5-6.9-7-10.4-10.5c-0.4-0.4-0.9-0.6-1.2-0.8c-3.9,2.2-7.5,4.5-11.3,6.3c-7.6,3.5-15.4,6.2-23.9,6.3 c-6.4,0.1-12.8,0.3-19.1-0.2c-5.6-0.4-11-2.1-16-4.8c-1.1-0.6-2.2-1.7-3.8-0.2c1.8,1.6,3.6,3.1,5.3,4.6c2.9,2.4,6,4.8,8.8,7.3 c5.2,4.8,9.2,10.6,13.4,16.3c7.5,10.2,12.3,21.5,15.5,33.7c4.1,15.6,6.9,31.3,6.2,47.5c-0.1,2.2-0.6,4.5-0.3,6.7 c0.8,7.2,0.1,14.3-0.7,21.5c-1,9.7-3.5,19.2-6,28.6c-1.4,5.3-3.2,10.5-5.2,15.6c-4.3,10.7-11,20-18.1,29 c-6.4,8.1-14.5,14.3-23.1,19.9c-5.6,3.7-11.3,7-17.8,8.7c-7.7,2-15.5,3.7-23.2,5.4c-1.3,0.3-2.4,0.5-3.2,1.6c-5.8,0-11.7,0-17.5,0 c-0.7-0.5-1.4-1.3-2.1-1.4c-3.8-0.8-7.8-1.1-11.5-2.1c-7.1-1.7-14.3-3.1-21-5.8c-14.3-5.6-26.4-14.5-36.9-25.7 c-0.6-0.6-1.3-1.2-2-1.8c-0.7,0.5-1.3,0.9-1.7,1.4c-5.1,6.2-11,11.4-17.5,16.1c-7.1,5.1-14.3,10.1-23,12.3 c-7.7,1.9-15.4,3.7-23.2,5.5c-1.2,0.3-2.4,0.3-3.1,1.6c-6.1,0-12.1,0-18.2,0c-0.5-0.5-1-1.3-1.6-1.4c-4.1-0.8-8.2-1.1-12.2-2.2 c-7.6-2-15.3-3.6-22.6-6.6c-13.4-5.5-24.9-14.2-34.8-24.8c-0.5-0.6-1.2-1-1.7-1.5c-0.4,0.3-0.8,0.3-1,0.6 c-6.8,8.7-15.5,15.2-24.7,21.1c-5.1,3.3-10.4,6.2-16.4,7.7c-7.6,1.9-15.2,3.7-22.9,5.4c-1.2,0.3-2.4,0.3-3.1,1.6 c-6.1,0-12.1,0-18.2,0c-0.7-0.5-1.3-1.3-2-1.4c-7.9-0.9-15.6-2.9-23.3-4.9c-8.1-2-15.7-5.1-22.7-9.7c-2.8-1.8-5.5-3.7-8.5-5.7 c-0.9,1.2-1.7,2.3-2.5,3.3c-5.7,6.7-12.3,12-21.1,14.2c-4,1-8.1,1.8-12.1,2.7c-1,0.2-1.9,1-2.8,1.5 C273.7,836.9,267.8,836.9,262,836.9z M383.2,556.3c0.9,0.9,1.5,1.7,2.2,2.4c5.3,5.7,10.7,11.2,17,15.7c5.4,3.8,11.3,6.4,18.2,5.9 c2.5-0.2,4.9,0.1,7.4-0.1c2-0.1,4-0.5,5.9-1.1c3.2-1,5.8-3,8-5.3c1.1-1.1,2.1-1.4,3.5-0.5c1.4,0.8,3,1.7,4.6,2 c7.6,1.3,15.2,1.3,22.7-0.6c9.3-2.4,17.3-7.3,25.1-12.6c1.2-0.8,2.3-1.6,3.4-2.4c3.4,3,6.4,6,9.6,8.5c5.9,4.6,12.3,8.3,20.2,8.1 c2.7-0.1,5.4-0.1,8.1,0c5.7,0.2,10.8-1.5,15.3-5.1c1.9-1.5,3.8-3.1,5.6-4.6c2.3,1.5,4.5,3,6.7,4.3c6.8,4,13.9,6.6,22,6.1 c2.5-0.2,4.9-0.1,7.4,0c3.3,0.1,6.4-0.7,9.5-1.9c4-1.6,7.4-4.3,10.4-7.3c2.9-2.9,5.7-6,8.6-9c0.8,0.6,1.5,1.1,2.3,1.6 c4.6,3.2,9.5,5.9,14.8,7.9c7.2,2.7,14.6,2.1,22,1.9c3.3-0.1,6.5-1.1,9.2-2.9c2-1.3,3.6-1.3,5.6-0.4c11.7,5.3,24.1,7.5,36.9,7.8 c6,0.1,12.1-0.3,18.1-0.4c10.7-0.2,21.1-2.6,31.3-5.6c1.9-0.6,3.1-0.4,4.6,0.8c4.6,3.6,9.8,6.1,15.6,6.6c4.8,0.4,9.6,0.1,14.5,0.1 c4.1,0,8-1,11.8-2.4c10-3.5,18.6-9.3,26.6-16.1c0.6-0.5,1.2-0.8,1.7-1.2c0.4,0.3,0.7,0.3,0.8,0.5c4.9,7.3,11.2,13.4,17.4,19.6 c3.7,3.7,8.1,5.9,13.2,6.9c6.2,1.3,12.5,0.9,18.8,0.6c4.5-0.2,8.8-1.6,12.9-3.5c9.5-4.2,16.6-11.4,23.5-18.8 c1.2-1.3,2.2-2.9,3.1-4.4c6.3-10.6,8.8-22.4,9.2-34.4c0.5-15.2,1.1-30.5-0.6-45.7c-0.7-6.1-0.8-12.2-1.8-18.3 c-1.7-10.7-3.5-21.4-5.7-32.1c-4.2-20.6-13.2-38.5-29.8-52c-9.6-7.8-20.2-12.7-32.9-12.3c-4.5,0.1-9,0-13.5,0 c-0.9,0-1.9-0.1-2.7,0.2c-7.6,2.6-14.6,6.2-20.7,11.5c-13.1,11.3-24.3,24.2-33.7,38.7c-1.4,2.1-2.8,4.2-4.1,6.2 c-0.6-0.3-0.8-0.3-1-0.4c-0.6-0.5-1.2-1-1.7-1.6c-4.1-4.4-9-7.7-14.4-10.3c-9.1-4.5-18.8-7.2-28.8-8.8c-12.2-2-24.5-2.2-36.9-2 c-5.7,0.1-11.4,1-16.7,3.4c-3.3,1.5-6.5,3.3-9.8,5c-2.3-2.1-4.6-4.4-7-6.5c-4.7-4.1-10.1-6.5-16.5-6.4c-3.6,0.1-7.2-0.1-10.8,0 c-7.7,0.2-14.4,2.8-20,8.3c-3.7,3.7-7.5,7.3-9.9,12c-0.4-0.1-0.7-0.1-0.9-0.2c-0.3-0.2-0.6-0.3-0.8-0.6c-4.9-4.4-10.6-7.1-16.9-8.5 c-6.4-1.4-12.9-1.2-19.4-1.3c-8.2-0.1-15.1,2.9-20.9,8.6c-2.7,2.7-5.5,5.2-8.1,7.6c-3.3-3.3-6.6-6.9-10.2-10.2 c-8.1-7.3-17.7-11.2-28.6-11.8c-5.9-0.3-11.9-0.6-17.8,0.5c-8.2,1.5-15,5.6-20.9,11.4c-2.2,2.2-4.5,4.2-7.3,6.8 c-1.5-1.7-2.7-3.3-4.1-4.7c-5.6-5.3-11.9-8.6-19.9-8.1c-3.8,0.2-7.6-0.1-11.5,0.1c-2.1,0.1-4.2,0.5-6.2,1.1c-4,1.3-7.5,3.6-10.4,6.6 c-1.5,1.6-3.2,3.1-4.7,4.6c-3.3-3.1-6.3-6.2-9.5-9c-7.4-6.5-15.9-10.4-25.9-10.2c-3.1,0.1-6.3,0-9.4,0c-6.6-0.1-12.7,1.9-17.9,5.9 c-3.4,2.7-6.6,5.7-9.6,8.9c-2.4,2.5-4.3,5.4-6.5,8.2c-0.4-0.3-0.7-0.6-1-0.9c-4.8-4.4-10.3-7.9-16.2-10.6 c-11.3-5.1-23.3-7.1-35.6-7.1c-6.6,0-13.2,0.4-19.7,1.3c-11.9,1.7-22.6,6.5-32.1,13.8c-7,5.4-13.4,11.6-19.1,18.4 c-0.7,0.8-1.3,1.6-2.5,1.1c-1.1-0.5-1.8-1.2-1.8-2.6c0-1.1,0.1-2.3-0.2-3.3c-1.6-6.3-2.9-12.7-5-18.8c-5.5-15.7-15.4-28.1-30-36.3 c-11.9-6.7-24.7-10.4-38.5-10.2c-5.5,0.1-11,0-16.5,0c-4.3,0-8.5-0.1-12.6,1.3c-4.8,1.6-9.8,2.5-14.4,4.4 c-7.9,3.2-15.3,7.5-22.1,12.7c-6.2,4.8-11.4,10.4-15,17.4c-3.1,5.9-5.3,12.2-5.8,18.8c-0.5,7.8-0.6,15.7-0.7,23.5 C43,450.9,43,461,42.9,471.1c-0.1,7.6-0.3,15.2-0.5,22.8c-0.1,2.3-0.4,4.7-0.6,7c-0.2,3.2-0.8,6.5-0.5,9.7c0.6,7,1.4,14,2.5,21 c1,6.1,2.1,12.2,4.2,17.9c3.3,8.8,9.1,16.1,16,22.5c12.2,11.4,27.4,15.7,43.1,18.7c10.1-0.6,20.3,0.9,30.5-1.2 c11-2.3,21.8-5.1,32.2-9.5c16.1-6.8,30.8-16.1,44.6-26.8c0.9-0.7,1.9-1.4,2.8-2c2.4,2.3,4.5,4.3,6.6,6.3 c8.9,8.3,19.4,13.4,31.6,14.2c10,0.7,19.9,0.4,29.8-1.1c13.1-1.9,25.1-6.6,35.2-15.5c0.9-0.8,1.9-1.4,3.5-2.6 c2.6,2.9,4.9,5.8,7.6,8.3c4.6,4.3,9.8,7.6,16.1,8.5c3.3,0.5,6.7,0.2,10.1,0.4c7,0.3,12.9-2.3,18.1-6.7 C378.2,561.1,380.5,558.8,383.2,556.3z M366.7,191.5c-0.6-1.1-1.1-1.9-1.5-2.7c-7.4-15.5-18.9-26.8-34.2-34.3 c-9.8-4.8-20.3-7.1-31-8c-8.2-0.7-16.5-0.2-24.8,1c-10,1.5-19.9,3.3-29.4,6.7c-15.6,5.6-28.9,14.2-38.7,27.9 c-7.5,10.5-12,22.3-13.1,34.8c-0.9,10-1.1,20.2,0.4,30.2c1.3,8.9,3.1,17.6,7.1,25.8c1,2.1,1.7,4.3,2.5,6.4 c-3.6,6.3-6.1,12.7-7.8,19.5c-2.4,9.5-3.1,19.1-1.3,28.9c3.9,20.3,15.4,35.6,31.7,47.4c13.8,10,29.8,14.2,46.6,15.6 c14.7,1.2,29.1-0.7,43.3-4.2c13.4-3.3,26-8.3,36.9-17.1c0.2-0.2,0.6-0.1,1.4-0.2c0.4,0.5,0.8,1.1,1.3,1.7c2.6,2.5,5.1,5.1,7.9,7.3 c5.5,4.2,12,6.2,18.9,5.8c6.7-0.4,12.9-2.8,18.4-6.7c5.6-3.9,10.9-8.3,15.3-13.6c0.9-1.1,1.9-2.1,3.2-3.5c1,1.2,1.7,2.1,2.4,3 c3.9,4.6,8.5,8.3,13.6,11.4c4.7,2.8,9.8,4.6,15.3,4.7c5.5,0.1,10.9-1.3,15.6-4.5c3.2-2.2,6.3-4.6,9.1-6.7c4.1,1.9,8,4,12.1,5.5 c9.9,3.7,20.2,4.8,30.7,5.2c8,0.3,15.9,0.1,23.9,0c4.3,0,8.5-0.3,12.8-0.4c8.6-0.4,15.9-3.5,21.8-9.8c0.5-0.5,1.2-0.9,1.8-1.4 c4.7,6.7,11.1,10.2,18.5,12.4c10.7,3.2,21.7,3.3,32.7,2.4c11.8-1,23.4-3.5,35-6.4c6.6-1.7,13-3.6,18.5-7.8c0.4-0.3,0.9-0.5,1.5-0.7 c0.5,0.6,0.8,1,1.2,1.4c8.3,10.9,19,17.9,32.4,20.7c8.8,1.9,17.5,1.9,26.1-1.5c11.8-4.7,19.1-13.8,24-25.1c6.4-14.9,8-30.6,8.1-46.6 c0-7.4,0.2-14.8,0.7-22.2c0.4-5.9,2-11.7,5.4-16.8c1.7-2.5,3.8-4.3,6.9-4.9c2.5-0.5,5.1-1.1,7.4-2c12.2-5,20.7-13.7,25.4-25.9 c3.6-9.4,5.4-19.1,5.3-29.2c0-3.2-0.2-6.5-0.7-9.7c-1-7-1.2-14.3-4.7-20.8c-2.1-3.8-3.8-7.9-6.2-11.5c-4.7-7-10.9-12.6-18.9-15.5 c-5.6-2-11.3-3.6-17.1-5c-15.3-3.8-30.9-4.9-46.5-5.9c-8.5-0.5-17,0-25.5,0.7c-8.6,0.7-17.1,2-25.4,4.5c-6.2,1.9-12.3,4.2-17.8,7.9 c-7.8,5.3-13.5,12-14.9,21.7c-0.2,1.3-0.3,2.6-0.5,4.1c-1.4,0-2.6,0-3.9,0c-8,0.1-15.9,0.1-23.9,0.5c-7,0.4-14.1,1.1-21,2.2 c-6.4,1-12.7,2.8-18.3,6.4c-1.8,1.2-3.2,1.2-5.2,0.4c-18.6-7.1-37.7-12.2-57.8-12.3c-7.1,0-14.1,0.4-20.9,2.4c-3.5,1-7,2.2-10.2,3.2 c-3.1-1.6-6-3.4-9.1-4.7c-9.9-4.2-19.4-3.7-28.5,2.3c-4.3,2.8-7.7,6.4-10.8,10.5c-5.1,6.7-8.7,14.1-11.8,21.8 c-0.4,0.9-0.3,2.2-1.7,2.6c-2.6-10.1-6.1-19.7-13.1-27.4c-6.9-7.6-15.6-11-26-9.6C380.1,184.8,373.3,187.5,366.7,191.5z M620.3,771 c0.5,0.7,0.8,1.1,1.1,1.6c6.4,9.5,13.5,18.4,23,25.2c7.1,5,14.2,10,22.5,12.5c12.9,3.8,25.8,7.6,39.5,6.5c1.2-0.1,2.5,0,3.7,0 c0.7,0,1.4,0,2-0.1c5.8-1.4,11.5-2.8,17.2-4.4c14.3-4,26.1-12.4,36-23.2c9.5-10.3,16.7-22.2,21-35.7c2.2-6.8,3.7-13.8,5.3-20.8 c1.9-8.2,3-16.5,2.8-24.9c-0.2-7.9,0-15.7-0.1-23.6c0-2.9-0.1-5.8-0.7-8.7c-1.6-8.1-3.1-16.3-5.3-24.2c-4.8-17-13.9-31.5-27-43.4 c-7.1-6.4-14.8-12.1-24-15.3c-11.8-4.2-23.8-7.7-36.7-6.9c-4,0.3-8.1,0-12.1,0c-0.8,0-1.6-0.1-2.3,0.1c-4.2,1-8.4,2.1-12.6,3.2 c-6.9,1.8-13.7,4-19.9,7.8c-12.8,7.9-23.7,17.7-31.7,30.5c-0.4,0.7-1,1.3-1.7,2c-1.7-2.5-3.3-4.7-4.8-6.9 c-9.2-13.5-21.5-23.6-36.5-29.7c-10.6-4.3-21.8-7.5-33.5-7.1c-5.2,0.2-10.3,0-15.5,0c-0.9,0-1.8,0-2.7,0.2c-4.5,1.2-9,2.5-13.6,3.6 c-8.8,2.2-16.8,5.9-24.3,11.1c-10.1,7-18.7,15.4-25.3,25.7c-0.6,0.9-1.3,1.7-2,2.6c-1.4-2-2.7-3.7-3.8-5.5 c-8.5-12.9-19.9-22.6-33.7-29.1c-11.6-5.4-23.9-8.8-36.9-8.6c-5.2,0.1-10.3,0-15.5,0c-0.8,0-1.6-0.1-2.4,0.1 c-3.9,0.9-7.8,1.8-11.7,2.9c-9.1,2.5-18,5.5-25.7,11.3c-5.9,4.4-12.1,8.5-16.9,14.3c-0.2,0.3-0.7,0.4-1.1,0.6 c-0.7-2.1-1.1-4.1-1.9-5.9c-3.7-8.5-9.6-15.2-18-19.2c-4.2-2-9.1-3.5-13.7-3.8c-6.6-0.5-13.4-1.1-19.9,1.6c-2.1,0.8-4.3,1.3-6.3,2.2 c-6.8,3.1-12.5,7.9-17.9,12.9c-5.5,5-10.1,10.8-14.5,16.8c-10.1,13.7-18.7,28.2-22.1,45.2c-1.1,5.6-2.7,11.1-2.1,16.8 c0.1,1,0.1,2.1,0.6,2.9c0.9,1.7,0.4,3.2,0.1,4.9c-0.4,2.5-0.6,5.1-0.3,7.6c0.3,2.3,1.7,4.4,2.1,6.7c0.8,4.9,3.2,8.9,6.4,12.4 c3.2,3.5,6.8,6.4,11.7,7.5c3.4,0.7,6.7,1.7,10.1,2.6c0.1,1.1,0.2,2,0.2,2.9c0.1,11.6,0.2,23.1,0.2,34.7c0,7.6,0.7,15.2,2.6,22.6 c1.4,5.7,2.8,11.2,6.6,16c4.1,5.1,8.8,9.3,15,11.4c7.8,2.5,15.8,4.3,24.1,3.4c1.4-0.1,2.9,0,4.4,0c0.8,0,1.6-0.2,2.3-0.4 c1.9-0.5,3.8-1.3,5.8-1.7c4.6-0.9,8.7-2.6,12.5-5.5c6.6-5.1,11.2-11.6,12.9-19.8c0.1-0.6,0.4-1.1,0.6-1.7c0.4,0.2,0.7,0.2,0.8,0.4 c0.8,0.8,1.6,1.6,2.4,2.3c8,7.3,16.6,13.7,26.6,18c6.9,3,14.3,4.5,21.6,6.3c3,0.8,6.1,2,9.2,2c8.2,0,16.5,0.8,24.7-1.3 c11.6-2.9,22.9-6,32.8-13.2c9-6.5,17-13.9,23.1-23.2c1.5-2.4,3.3-4.7,5.1-7.3c0.8,1.2,1.5,2,2.1,3c7.9,12.5,18.6,22,31.1,29.6 c8.3,5,17.4,7.7,26.7,9.8c4.3,1,8.5,2.5,12.8,2.7c9,0.3,18,0.5,27-1.9c10-2.8,19.8-5.4,28.5-11.5c9.2-6.4,17.6-13.5,23.7-23.1 C615.8,777.1,618,774.3,620.3,771z"></path> <path style="fill:#FFFFFF;" d="M443,560c-1.2,1.4-2.1,2.4-2.9,3.4c-3.2,4-7,7.2-12.1,8.6c-6.4,1.7-12.2,0-17.7-3.1 c-7.9-4.4-13.9-10.9-19.7-17.6c-1.8-2-3.4-4.2-5.1-6.3c-0.6-0.7-1.2-1.3-1.8-1.9c-2.2,0.4-2.9,2.3-3.9,3.7c-3.5,4.7-7.5,8.9-12.6,12 c-8.1,4.8-16.1,4.7-24.2,0.1c-6.5-3.7-11.4-9-16-14.7c-0.8-1-1.8-2-2.9-3.3c-1.3,1-2.5,1.7-3.4,2.8c-8.6,9.3-19.2,15-31.3,18 c-4.7,1.2-9.7,1.7-14.6,2.3c-3.5,0.4-7.1,0.7-10.7,0.7c-14.3,0-26.4-5.4-36.6-15.1c-4.3-4.1-8-8.8-11.3-13.8c-0.6-1-1.5-1.8-2.5-3.1 c-1,0.9-1.8,1.5-2.3,2.2c-10.9,14.6-25.4,24.1-42.1,30.6c-10.2,4-20.7,6.3-31.5,8.1c-6.3,1.1-12.6,2-19,2 c-9.9,0.1-19.7-1.5-29.1-4.5c-9.3-3-16.3-9.3-21.7-17.3c-5.1-7.6-8-16-9.4-24.9c-0.6-3.8-0.1-7.8-0.2-11.8 c-0.2-8.9-0.4-17.7-0.7-26.6c-0.1-4.2-0.5-8.5-0.6-12.7c-0.1-1.6-0.4-3.3,1-4.7c0.4-0.3,0.3-1.3,0.3-1.9c0.2-12.1,0.4-24.2,0.7-36.3 c0.2-6.9,0.1-13.9,1.8-20.7c1.1-4.4,2.8-8.4,5.4-12.2c3-4.3,5.8-8.7,9.6-12.5c7.2-7.3,16.2-11.5,25.8-14.6c4.8-1.5,9.8-2.1,14.9-2.1 c3,0,6.1-0.1,9.1,0c7.4,0.2,14.8,0,22,1.9c11.9,3,22.8,8.2,31.6,17c7,6.9,11.6,15.3,14.1,24.9c1.6,6.1,2.4,12.3,2,18.6 c-0.2,2.6,0.7,4,3,5.3c3.7,2,7.1,4.5,11.1,7.1c0.3-0.4,1.1-1.2,1.7-2c7.9-10.9,17.2-20.3,28.9-27.3c7.7-4.6,16-7.4,24.8-8.6 c3.9-0.5,7.8-1,11.7-1.1c10.8-0.3,21.4,0.7,31.5,5c11.7,4.9,19.8,11.3,26.9,22.1c0.5-1.2,1.1-2.1,1.4-3.1 c2.7-7.9,6.9-14.8,12.9-20.6c5-4.9,11-7.6,18.1-7.7c3.2,0,6.5-0.5,9.7-0.4c1.9,0,3.8,0.5,5.5,1.1c11,3.7,19,11.2,24.9,21 c1.3,2.2,2.5,4.5,4.1,7.2c0.6-1.4,1-2.5,1.4-3.6c1.8-4.6,4.3-8.9,7.9-12.4c4.5-4.5,9.9-6.7,16.3-6.5c2.7,0.1,5.6-0.7,8.2-0.1 c3.1,0.7,6.2,2,8.9,3.8c6.1,4,9.5,10,11.3,17c0.2,0.7,0.4,1.4,0.9,2.8c1.5-1.7,2.8-2.9,3.6-4.4c4.7-7.9,10.9-14.6,18.5-19.8 c2.8-1.9,6.3-2.9,9.5-3.8c4-1.1,8.2-0.8,12.3-1.1c9.2-0.6,16.9,2.8,24.1,7.9c9.1,6.4,14.2,15.6,17.1,26.2c0.1,0.5,0.2,1.1,0.5,2.2 c0.8-1.5,1.4-2.5,1.8-3.6c2.3-6.8,6.1-12.7,10.7-18.1c4.2-5,9.7-8.2,16.2-8.9c7.4-0.8,14.8-0.5,21.8,2.3c9.2,3.6,15.9,9.9,20.3,19.1 c0.9-1,2-1.5,1.6-3c-0.6-2.6,0.5-4.9,1.5-7c1.8-3.5,3.8-6.8,6-10c4.9-7.2,11.9-10.5,20.5-10.9c2.4-0.1,4.9-0.7,7.3-0.5 c2,0.1,4,0.7,5.8,1.5c7.8,3.5,12.6,9.8,15.6,17.7c0.2,0.4,0.3,0.8,0.7,1.7c1.4-1.4,2.8-2.5,3.8-3.9c4.7-6.2,11-9.2,18.4-10.6 c9.1-1.8,18.3-1.8,27.4-0.8c6.4,0.7,12.9,1,19.2,2.2c12.7,2.4,24.6,7.1,34.2,16.1c2.8,2.6,4.8,6.2,7.1,9.3c0.6,0.8,0.9,1.8,1.6,3.1 c0.9-1.4,1.6-2.4,2.3-3.5c6.5-10.8,13.2-21.4,21.4-31c7.5-8.9,15.6-17.3,25.4-23.8c6-3.9,12.3-6.3,19.6-5.9c4.6,0.2,9.1,0,13.7,0.1 c0.9,0,1.7,0.4,2.6,0.7c11.6,4,20.8,11.2,28,21.2c8.3,11.5,13,24.5,15.7,38.3c2.3,11.4,4.1,22.9,6,34.4c0.4,2.5,0.3,5.1,1.7,7.4 c0.3,0.5,0.4,1.1,0.4,1.6c0.3,6.1,0.7,12.3,0.9,18.4c0.1,3.6-0.1,7.2,0.1,10.8c0.6,11.9-1.9,23.4-4.8,34.8 c-4.4,17.5-16.3,28.3-32.9,34.5c-6,2.2-12.1,2.2-18.2,1.1c-4.2-0.7-8.3-2.5-11.6-5.7c-7.6-7.4-14.6-15.2-19.7-24.6 c-1.5-2.7-2-2.7-4.6-0.6c-4.7,3.8-9.2,7.9-14.1,11.4c-7.3,5.2-15.3,9.3-24.2,11.2c-10.8,2.2-20.5,0.3-28.8-7 c-2.2-1.9-4.1-2.2-6.7-1.2c-10,3.7-20.4,5.9-31,7c-8.2,0.9-16.5,0.8-24.8-0.1c-8.4-1-16.5-3-24.4-5.8c-2.8-1-5.5-2.5-8.3-3.7 c-1.7-0.8-3.3-1-5,0.4c-6.6,5.7-14.3,6.6-22.4,4.5c-7.9-1.9-14.7-6-21.2-10.7c-1.6-1.2-3.2-2.5-4.8-3.7c-1.7-1.2-2.4-1.1-3.5,0.7 c-2.2,3.3-4.1,6.7-6.5,9.8c-3.7,4.8-8.4,8.4-14.2,10.3c-7.1,2.3-14.1,1.5-21-1.2c-5.6-2.2-10.6-5.3-15.4-8.9 c-0.8-0.6-1.6-1.2-2.5-1.8c-1.1-0.7-2.1-0.6-3,0.3c-0.9,1-1.8,2-2.8,2.9c-4.1,4.1-8.7,7.4-14.5,8.6c-7.5,1.6-14.2-0.4-20.5-4.3 c-5.3-3.3-10-7.3-14-12c-0.3-0.3-0.6-0.7-0.9-1c-2.1-2.2-3-2.3-5.5-0.5c-3.6,2.5-7.1,5.1-10.8,7.5c-6.2,3.9-12.6,7.2-19.7,9.2 c-3.9,1.1-7.9,1.5-12,1.2c-4.3-0.4-7.9-2.2-11-5.2C445.2,562,444.3,561.2,443,560z M237,423.1c-1.8,1.1-3.7,1.9-5.3,3.2 c-2.2,1.7-4.4,3.5-5.8,6c0.6-0.1,1-0.3,1.4-0.7c2.7-2.2,5.3-4.4,7.9-6.6C235.9,424.5,236.5,423.8,237,423.1c3.4-1.2,5-2.3,5.9-4.4 C241,420.2,239,421.7,237,423.1z M871.2,518.2l-0.1-0.1c0.2,0.7,0.5,1.5,0.7,2.2c1.3,3.7,2.6,7.4,4.1,11c0.4,1.1,0.2,1.9-0.3,2.8 c-1.8,3.3-3.6,6.6-5.5,9.8c-0.7,1.2-0.9,2.3-0.1,3.4c2,2.8,3.8,5.9,6.2,8.3c3.2,3.3,7,5.4,11.9,5.1c4.2-0.3,7.7-2,11-4.4 c4.9-3.5,8.5-8.3,12.4-12.7c3.1-3.5,6.2-7.1,9.6-10.3c3.2-2.9,4.1-5.1,2.2-9.1c-1.4-2.8-2-5.7-1.9-8.8c0.4-8.2-0.2-16.3-1.3-24.4 c-1.2-9.2-2.4-18.4-3.9-27.6c-2.4-14.5-5-28.9-9.4-42.9c-2.5-7.9-5.3-15.8-10.1-22.6c-6.8-9.7-15.9-15.5-28.2-15.4 c-1.4,0-2.9-0.4-4.3-0.6c-2-0.3-4-0.7-6-0.7c-2.7,0-5.4,0.4-8,0.6c-1.8,0.1-3.6,0-5.5,0c-0.1-0.2-0.1-0.5-0.2-0.7 c1.9-1.2,3.7-2.4,5.6-3.4c3.9-2.1,8.1-3.1,12.6-2.9c-2.8-0.2-5.8-0.7-8.3,0.2c-4.5,1.6-8.8,3.7-13,6c-4.6,2.5-8.2,6.2-11.7,10 c-1.4,1.5-2.5,3.3-3.7,5c0.1,0.1,0.3,0.2,0.4,0.3c1.8-1.5,3.6-3.1,5.8-4.9c0.8,6.6,0.9,12.5-2,17.9c-3.3,6.1-6.7,12.1-10.3,18.1 c-7.3,12.2-14.3,24.6-19.9,37.7c-3.2,7.5-5.8,15.3-8.7,22.9c-0.4,1-0.4,2.2-0.6,3.3c0.2,0.1,0.4,0.1,0.6,0.2c1.1-1.5,2.1-3,3.2-4.5 c0,4.6-1.3,8.7-3.7,12.3c-1.4,2-3.3,3.8-4.1,6.1c-3.2,8.5-6.1,17.1-7.1,26.1c-1.2,11,7.5,20.8,18.6,20.8c6.1,0,11.7-1.8,16.9-4.9 c6.5-3.9,11.4-9.7,16.7-15c3.3-3.2,6.3-6.7,9.5-10c1.1-1.1,2.1-2.3,3.1-3.5c3.1-3.5,5.6-7.5,9.6-10.3c4-2.7,6.7-2.6,10.2,0.7 c0.7,0.7,1.3,1.5,2.1,2.2c0.6,0.5,1.2,0.9,1.8,1.4c0.3,0.6,0.6,1.1,0.9,1.7C869.8,515.9,870.5,517.1,871.2,518.2z M733,493.2 L733,493.2c1.9-2.3,3.5-4.8,5.6-6.9c7.1-7.5,14.4-14.8,21.3-22.5c4.3-4.8,8.1-10.1,11.7-15.6c4.3-6.5,2.8-14.6-2.9-19.8 c-3.7-3.3-8-5.4-12.7-6.7c-3.7-1-7.4-1.7-11.2-2.4c-11-2-22.1-3.9-33.3-3.5c-1,0-2,0-3-0.2c-4.9-0.9-9.5,0.2-14.1,2 c-2.8,1.1-5.6,2.7-7.2,5.3c-2.8,4.6-5.4,9.3-8,14c-0.5,0.8-0.7,1.9-0.7,2.9c-0.4,5,2.1,8.6,5.8,11.5c3.6,2.8,7.7,4.6,12.1,5.6 c1.7,0.4,3.5,0.5,5,0.7c1-1.7,1.7-3.2,2.7-4.3c1.3-1.5,2.7-2.6,5-2.9c3.3-0.3,6.5,0,9.6,0.8c2.4,0.6,4.7,1.4,6.9,2.5 c2.3,1.2,2.5,2.2,1,4.3c-1.3,1.9-2.7,3.8-4.4,5.5c-4.2,4.4-8.5,8.6-12.8,12.8c-4,3.9-8.2,7.7-12.2,11.6c-7.3,7-14.7,13.9-19,23.3 c-2.9,6.4-6.3,12.6-6.3,20c0,4.3,1.6,7.7,5.5,9.6c2.8,1.4,5.7,2.7,8.6,3.8c2,0.7,4.2,1,6.4,1.6c-0.4-1.9-0.7-3.3-1-4.7 c-0.6-2.7,0.3-3.8,3.1-3.4c6,0.8,11.9,1.8,17.9,2.4c6.2,0.6,12.5,1.2,18.7,1.3c9.1,0.1,18-1.6,27-3.1c1.1-0.2,2.3-0.8,3.2-1.6 c2.9-2.5,5.7-5.1,8.5-7.6c3.3-3,5.3-6.5,4.4-11c-0.5-2.4-1.4-4.7-2.5-6.9c-1.5-3.2-4.4-4.6-7.8-5.2c-5.7-1-11.4,0-17,0.5 c-5.6,0.5-11.1,1.4-16.7,0.4c-1.5-0.3-2.9-0.6-3.6-2.1c-0.7-1.7,0.3-3,1.4-4.2c2.1-2.2,4.2-4.4,6.2-6.6c6.4-6.8,12.7-13.6,19-20.4 c0.6-0.6,1-1.4,1.4-2.2c-0.2-0.1-0.4-0.3-0.6-0.4c-4.6,4.8-9.1,9.6-13.7,14.3C737.9,488.4,735.4,490.8,733,493.2z M434.4,533.7 c0.3-0.7,0.6-1.4,0.9-2.1c1.1-2.5,2.4-4.8,3.2-7.4c3.2-10.2,4.7-20.7,6.2-31.2c1.1-7.7,1.9-15.5,2.8-23.3 c1.3-10.2,2.2-20.5,1.6-30.8c-0.2-3.8-0.4-7.7-2.8-10.9c-7.7-10.5-19.4-6.7-24.4,1.2c-2.3,3.6-3.6,7.9-5,12.1 c-2.3,6.7-2.7,13.8-4,20.7c-0.2,1-0.6,2.1-0.9,3.1c-2.4-0.7-2.7-0.8-3.8-2.4c-1.7-2.5-3.4-5-4.9-7.6c-4.5-8-8.8-16.1-13.5-24.1 c-4-6.8-9.4-12.2-16.5-15.8c-1.5-0.7-3.2-1.2-4.8-1.3c-6.2-0.4-11.1,2.3-15,6.9c-4.2,5-7.4,10.7-9.4,17c-2.2,7-4.3,14.1-6.3,21.2 c-5.4,18.5-8.5,37.3-8,56.6c0.1,5.1,0.7,10.1,2.2,14.9c2.4,8.2,6.9,14.2,16.1,15.6c5.3,0.8,10.2-1.3,12.9-5.9 c1.4-2.5,2.8-5.1,3.8-7.8c0.9-2.5,1.1-5.2,2.2-7.6c1.6-3.7,2.6-7.4,2.6-11.3c0-6.1-0.3-12.3-0.5-18.4c-0.1-2.6,0-5.2-0.3-7.7 c-0.6-5,0.4-9.9,1.4-14.8c0.6-3.2,1.6-3.3,4.3-1.3c0.1,0,0.3-0.1,0.6-0.3c-0.5-1-1-2-1.6-2.9c-0.8-1.4-1.9-0.8-3.3,0.2 c1.7-3.3,2.7-3.5,4-1.1c0.9,1.6,1.6,3.4,2.3,5.2c3.1,8.5,5.8,17.1,9.5,25.4c2,4.7,3.5,9.5,6,14.1c3.4,6.3,6.8,12.6,11.2,18.3 c2.7,3.5,5.9,6.9,9.5,9.4c7.2,5.1,12.6,4.3,18.1-1.8c0.5-0.6,1.1-1.1,1.7-1.6c-0.9,1.4-1.5,3-2.7,4.2c-4.6,4.6-9.2,5.8-15.5,2.3 c-1.9-1.1-3.7-2.5-5.4-4c-4.4-4-7.8-8.9-11-13.9c-4.2-6.7-7.9-13.8-10.8-21.2c-0.3-0.9-0.9-1.7-1.4-2.5c0.8,3.7,2,7.2,3.2,10.7 c1.5,4.3,3,8.6,4.6,12.9c0.2,0.5,0.5,1,0.6,1.6c0.3,1.6-0.1,1.9-2.1,2.2c-0.7,0.1-1.3,0.6-2.3,1.1c2.4,3.9,4.5,7.8,6.9,11.4 c3.4,5.1,7.1,10,12.6,13.3c5.5,3.3,10.4,2.9,14.9-1.6c1.4-1.4,2.7-3,3.7-4.7c1.7-2.8,3.3-5.6,4.7-8.5 C433.5,537.6,433.8,535.6,434.4,533.7z M73.3,396.2c2.1-1.9,4.3-3.8,6.4-5.8c-0.6,2.4-2,4.2-2.7,6.3c-0.7,2.2-0.7,4.6-1,6.9 c-0.1,0.4-0.3,0.9-0.4,1.3c-2.2,6.9-2.7,14-3.6,21.1c-0.1,0.4,0,0.9,0,1.3c0.2,2,0.6,4,0.6,6c0.4,25.1-0.8,50.2,0.7,75.4 c0.4,5.8,0.5,11.7,1.4,17.4c0.7,4.6,2,9.3,3.8,13.5c4.9,11.1,14.3,16.6,25.7,19.1c8,1.8,16,0.7,24-0.4c13.7-1.9,26.5-6.6,38.8-12.6 c6.3-3.1,12.5-6.5,17.6-11.4c-0.3-2.7-0.6-5.3,1.4-7.4c3.2-3.4,6.5-6.7,9.8-10c4.2-4.3,7.6-9,9.2-14.9c2.8-10.4,3.2-20.7-0.4-31.1 c-1.6-4.6-4.4-8.3-8.3-11.1c-0.8-0.6-1.8-0.9-2.7-1.4c-1.7-1-3.4-2.1-5.1-3.1c-3-1.8-5.9-3.6-8.9-5.4c-2.5-1.6-3.3-3.8-2.6-6.7 c0.4-1.8,0.6-3.8,0.6-5.7c0-3-0.1-6-0.2-9c-0.1-1.8-0.1-3.6-0.3-5.4c-0.9-7.1-3.2-13.7-6.7-20c-4.7-8.5-11.6-14.4-21-17.1 c-5.6-1.6-11.2-2.9-17-3.4c-2.1-0.2-4.2-0.7-6.3-1c-4.8-0.6-9.5-1.4-14.3-1.6c-4.8-0.2-9.8-0.8-14.5,1.2c-1.3,0.5-2.8,0.6-4.9,0.9 c5.3-3.7,11.1-4.6,16.4-6.6c-0.9-0.2-1.8-0.2-2.6,0c-3.5,1-7.1,1.9-10.5,3.1c-4.8,1.8-9.7,3.7-13.6,7.2c-2.9,2.6-5.5,5.5-8.2,8.3 C73.6,394.6,73.6,395.5,73.3,396.2c-1.1,0.5-2.1,1-1.8,3.3C72.3,398,72.8,397.1,73.3,396.2z M595.3,475.7c3.1,0.1,4.3,2.1,5.5,3.9 c5.8,8.5,11.4,17.2,17.1,25.7c3.4,5.1,5.5,10.4,3.5,16.7c-0.1,0.4-0.1,0.9-0.2,1.3c-0.4,1.7,0.2,3.1,1.4,4.2 c3.5,3.4,7,6.9,10.7,10.2c3.8,3.4,8,6.1,12.9,7.6c6.5,1.9,10.1,1,14-3.9c1.8-2.2,3.4-4.4,5.1-6.7c0.4-0.6,0.7-1.2,1-1.8 c-2.3,1.3-4.5,1.6-6.9,1.6c-4.6-0.1-8.6-1.8-12.2-4.3c-4.5-3.1-8.8-6.5-12.9-10.2c-8.6-7.8-15.5-17.1-22.2-26.5 c-3.8-5.4-7.5-10.9-11.3-16.3c-1.7-2.4-3.2-5.1-6.6-5.8c1.1-1.4,2.1-1.3,3-0.3c1.2,1.3,2.5,2.6,3.5,4c2.9,4.1,5.7,8.3,8.6,12.4 c3.6,5.1,7.3,10.2,11.1,15.2c7.1,9.3,15.2,17.7,24.8,24.4c3,2.1,6.4,3.9,9.9,4.7c7.6,1.8,10.7,0.8,14.8-5.6 c3.2-4.9,3.9-10.5,4.1-16.1c0.2-5.6,0.1-11.2-0.4-16.8c-0.9-9.6-1.9-19.1-3.3-28.7c-1.2-8.2-2.7-16.3-4.4-24.5 c-1.4-7.2-3.1-14.5-6.4-21.2c-3.7-7.4-11.9-9.9-19-5.7c-1.7,1-3.2,2.4-4.6,3.9c-3.3,3.7-6,7.8-8.1,12.3c-0.7,1.6-1.9,3.1-2.1,4.8 c-0.3,2.4,0.1,4.9,0.3,7.4c0.1,1,0.3,2,0.5,3c0.3,0,0.5,0.1,0.8,0.1c1.3-2.2,2.6-4.5,4.1-6.9c0.6,3.4,1.3,6.4,1.7,9.4 c0.4,3.2,0.6,6.5,0.7,9.7c0.1,2.3-0.8,2.8-3,1.8c-0.8-0.4-1.6-0.8-2.3-1.4c-2.6-2.3-5.3-4.5-7.7-6.9c-6.2-6.2-12.1-12.7-18.4-18.7 c-5.1-4.8-10.7-8.8-18-9.8c-6.6-0.9-12.7,0.7-18.2,4.4c-3.4,2.3-5.6,5.6-5.5,9.8c0.1,2.9-0.9,5.4-1.9,8c-0.5,1.3-1,2.5-1.5,3.8 c-3.1,7.6-3.7,15.6-3.7,23.7c0,1.1,0.4,2.5,1.1,3.3c2.1,2.1,2.2,2,0.8,4.8c-0.3-0.4-0.7-0.8-1-1.1c-0.3,5.8,0,11.4,0.1,17 c0.2,8.7,1.5,17.2,3.5,25.6c1.4,5.9,2.7,11.8,5.3,17.3c2.3,4.7,5.1,8.9,9.3,12.1c6.9,5.2,18.8,4.6,23.5-4.1c1.1-2.1,2.7-3.8,4.1-5.7 c0.5-0.7,0.9-1.4,1.3-2c-4.2,2.8-8.6,3.8-13.5,3.3c-5.7-0.6-9.7-3.9-13.1-8c-2.9-3.5-3.9-5.6-4.4-8.3c1.1,1.8,2.1,3.4,3.2,5 c3.3,4.6,7.3,8.3,13.1,9.3c6.4,1.1,12.3,0.2,16.4-5.6c1-1.4,1.9-2.7,2-4.4c0.3-6.8-0.4-13.4-2.4-19.9c-2-6.3-4-12.6-5.8-18.9 c-1-3.7-1.8-7.4-2.4-11.1C594.9,478.6,595.2,477.2,595.3,475.7z M274.7,542.5c1.5-0.8,3-1.6,4.5-2.2c2.8-1.1,5.7-2.1,8.5-3.2 c8-3.2,15.8-6.9,22.3-12.8c5.4-4.8,10.3-10,12.1-17.3c0.2-0.6,0.6-1.5,0.3-1.9c-0.7-1.1,0-1.9,0.4-2.8c3.1-7.2,5.2-14.5,5.1-22.4 c-0.1-8.2-1.1-16.3-3.5-24.2c-2.4-8-5.9-15.5-11.6-21.8c-9.3-10.2-21.5-13.9-34.9-15.1c-9.9-0.9-19.4,1.5-28.8,3.2 c-13.1,2.3-22.4,10.1-26.5,23.3c-0.3,0.9-0.6,1.7-1,2.5c-2.7,6.6-5.5,13.3-6.4,20.4c-0.5,3.6-0.5,7.3-0.5,11 c0,6.5-0.6,13.1,0.3,19.4c1.9,12.8,6.7,24.6,15.5,34.5c5.2,5.9,11.6,10.1,19.2,12.6c7.4,2.4,15,2.4,22.6,1.9 C275.2,547.5,275.8,546.3,274.7,542.5z M473.4,430.3c2.7,3.6,2.1,6.6,0.3,9.9c-3.4,6.7-6.8,13.4-9.6,20.4 c-4.1,10.4-8,20.9-11.5,31.6c-4.3,13.2-6.8,26.9-8.6,40.7c-0.4,2.9-0.4,5.9,0.2,8.7c1.3,6.4,8.8,11.2,15.8,10.4 c6.2-0.7,11.7-3.2,16-7.7c6-6.3,11-13.3,15.8-20.5c1.6-2.3,3.1-4.7,4.9-6.8c3.3-3.7,6-3.9,9.4-0.3c2.8,3,5.3,6.4,7.4,9.9 c4.6,7.9,4.5,8,3.1,16.8c-0.1,0.3-0.2,0.7-0.2,1c0,0.4,0,0.9,0.2,1.2c2.7,4,5.9,7,11.1,7.2c5.2,0.2,9.2-2.3,12.2-6.1 c3-3.8,5.4-8,7.9-12.1c2.1-3.4,2.9-7.4,2.8-11.3c-0.2-7.1-0.5-14.4-1.6-21.4c-2.1-12.6-4.8-25.1-8.4-37.3 c-3.1-10.4-6.2-20.8-11.2-30.5c-2.2-4.2-4.6-8.3-8.3-11.4c-7-6-15.1-7.9-24.2-6c-4,0.9-8,1.3-12.4,0.9c1.5-1.6,2.7-2.9,3.9-4.2 c-8.8,4.6-16.8,14.1-17.6,20.5C471.4,432.7,472.3,431.6,473.4,430.3z M756.4,412.6c-0.6-0.3-1.3-0.6-1.9-0.8 c-9.7-2.7-19.7-4-29.7-4.7c-0.7,0-1.3,0.1-2,0.2c-0.1,0-0.1,0.1-0.1,0.2c0,0.1,0,0.2,0.1,0.6C734,408.4,745.2,410.1,756.4,412.6z M150.5,378.6c-6.3-2.7-16-4.4-19.6-3.7C136.9,376.1,143.4,377.3,150.5,378.6z M683.6,424.6c0.8-0.5,1.9-0.8,2.4-1.5 c1.6-2.2,2.9-4.6,4.6-7.2C687.1,418.1,685.4,421.3,683.6,424.6z M869.4,374.8c4,1,7.9,2,11.7,3C877.5,375.9,873.9,374.2,869.4,374.8 z M559.5,431.3c0.2,0.2,0.4,0.3,0.6,0.5c1.1-1.2,2-2.6,1.8-4.5C561.1,428.7,560.3,430,559.5,431.3z M627.8,424.8 c0.2,0.1,0.4,0.2,0.6,0.2c0.5-1.4,1-2.8,1.5-4.2c-0.3-0.1-0.5-0.2-0.8-0.3C628.7,422,628.2,423.4,627.8,424.8z M444.8,413 c-0.1,0.2-0.2,0.4-0.2,0.6c0.9,0.2,1.9,0.5,2.8,0.7c0-0.1,0.1-0.3,0.1-0.4C446.6,413.5,445.7,413.3,444.8,413z M658,403.1 c0,0.1,0,0.2,0,0.4c0.7,0,1.4,0,2.1,0c0-0.1,0-0.2,0-0.4C659.3,403.1,658.7,403.1,658,403.1z M222.1,436.8c-0.2-0.1-0.4-0.3-0.5-0.4 c-0.4,0.5-0.8,1-1.3,1.5c0.1,0.1,0.2,0.2,0.3,0.3C221.1,437.8,221.6,437.3,222.1,436.8z"></path> <path style="fill:#FFFFFF;" d="M770.7,270.7c1.5,0.4,2.8,0.8,4.3,1.2c-1.2,1.6-2,3.3-3.4,4.3c-1.7,1.3-2.3,3-2.8,4.7 c-1.6,4.8-1.2,9.7-1.5,14.6c-1,18.9-2.3,37.8-8.6,55.9c-2.5,7.2-5.7,14.2-10.9,19.9c-4.7,5.1-10.2,8.7-17.5,8.6c-2.2,0-4.5,0-6.7,0 c-5.4,0.2-9.8-2.2-13.8-5.3c-6.2-4.7-10.7-11-13.5-18.2c-2.3-5.8-3.8-11.9-5.6-17.9c-0.3-1-0.7-2-1-3c-0.3,0-0.5-0.1-0.8-0.1 c-1.1,2-2.2,4-3.2,6.1c-3.3,6.7-8.1,12.1-14.5,16c-4.9,3-10.3,4.8-15.9,6.1c-6.3,1.4-12.7,2.8-19.1,3.8c-4.5,0.7-9.1,0.9-13.7,1.2 c-3.5,0.2-7,0.2-10.4,0.5c-9,0.9-16.4-2.7-23-8.3c-4.2-3.6-7.8-7.8-10.9-12.3c-0.8-1.1-1.8-2.1-3.2-3.7c-0.8,1.7-1.3,2.9-1.8,4.1 c-2.2,6-6.1,10.8-11.5,14c-5,3-10.6,4.2-16.4,4.3c-9.2,0.1-18.4,0.3-27.6-0.3c-11.4-0.7-22.8-2.3-33.1-7.8c-2.8-1.5-5.5-3.5-8-5.5 c-3.1-2.5-3.4-2.7-6.3,0.3c-3.3,3.3-6.9,6.1-11.2,7.9c-6.5,2.8-12.9,2.3-19.2-0.5c-6.1-2.8-11.2-7-15.8-11.8c-1.9-2-3.7-4.2-5.6-6.3 c-2-2.2-3-2.1-4.7,0.3c-2.4,3.5-4.7,7.1-7.3,10.5c-4.2,5.4-9,10.4-15.1,13.6c-7.4,3.9-14.6,3.5-21.5-1.1c-5.7-3.8-9.9-9.1-13.5-14.8 c-2.4-3.8-3.5-4-6.3-0.5c-8.9,10.8-20.7,17-33.9,20.6c-7.7,2.1-15.6,3.1-23.5,3.7c-10.9,0.8-21.7,0.2-32.4-2.2 c-13.7-3.2-25.4-9.8-35-20.1c-12.3-13.1-17.2-28.8-17.1-46.4c0-3.3,0.8-6.7,1.5-9.9c0.3-1.5,0.6-3.3,2.5-4c0.3-0.1,0.6-0.7,0.8-1.1 c1.7-4.1,4.3-7.6,7.6-10.6c0.2-0.2,0.3-0.6,0.7-1.2c-0.9,0.1-1.5,0.1-2.2,0.2c-1.5-2.2-3.1-4.3-4.6-6.6c-0.4-0.6-0.9-1.7-0.6-2.1 c1.1-1.7,0.3-3-0.4-4.4c-3.8-7.4-5.3-15.4-6.6-23.5c-1.6-9.8-1-19.7-1-29.5c0-4.3,1.6-8.3,3.3-12.2c3.4-7.8,8.6-14,14.7-19.8 c10.4-9.9,23.2-14.3,36.7-17.7c12.5-3.1,25.1-3.2,37.8-2.4c6.7,0.4,13.5,0.8,19.8,4.1c7.6,3.9,14.3,8.9,20,15.1 c2.1,2.3,4.3,4.6,6.2,7c3.7,4.7,5.2,10.3,6.1,16.1c1,7,2.3,13.9,3.6,21.4c0.9-1.9,1.7-3.3,2.4-4.8c3-6.7,7.3-12.6,13-17.3 c4.5-3.7,9.8-5.3,15.5-5.5c1.4-0.1,2.8-0.4,4.3-0.5c0.9,0,1.8,0.2,2.6,0.5c4.3,1.8,7.5,4.9,9.8,8.9c3.5,6.1,5.1,12.7,5.4,19.6 c0.2,4.2,0,8.5,0,13.1c0.9-0.5,1.6-0.8,2.2-1.1c2.9-1.8,5.9-3.1,9.4-3.4c4.3-0.3,7.9,0.9,11.1,3.8c0.4,0.3,0.9,0.6,1.7,1 c0.5-2.4,0.9-4.6,1.4-6.7c1.9-8.6,4.6-16.9,9.4-24.3c1.6-2.5,3.5-5,5.6-7.1c3.6-3.8,8.1-5.9,13.5-5.7c1,0,2,0.1,3,0 c7-0.7,11.9,3.2,16.4,7.7c1.2,1.2,2.1,2.6,3.3,4.1c0.6-0.5,1.1-0.9,1.5-1.3c4-4.4,9.2-6.6,14.9-7.9c9.3-2.1,18.7-1.9,28.1-0.6 c13,1.8,25.7,4.7,38,9.4c2.9,1.1,5.7,2.6,8.4,4.1c1.4,0.8,2.2,0.3,3.3-0.5c2.2-1.7,4.3-3.7,6.7-5c6.3-3.6,13.4-5.3,20.5-6.1 c8.9-1,17.8-1.8,26.8-2.1c5.9-0.2,11.8,0.6,17.7,1.2c2.2,0.2,4.4-0.3,6.5,1.2c1.2,0.8,2.8-0.6,2.4-2.1c-0.9-4.1-0.2-8.3,1.5-11.8 c3.7-7.8,8.1-15.2,15.7-20.1c6.2-4,12.9-6.2,20-7.3c4.9-0.8,10-1.1,15-1.3c5.2-0.2,10.3,0,15.5-0.1c14.6-0.2,29.1,1.3,43.5,3.4 c6,0.8,11.8,2.2,17.7,3.7c14.5,3.8,22.3,13.7,25.8,27.7c1.3,5.2,2.3,10.5,2,15.9c-0.1,2-0.1,4,0,6.1c0.5,8.1-0.6,16.1-2,24.1 c-1.1,6.6-5.1,11.3-10.4,15.1c-6.8,4.9-14.7,7-22.8,8.4c-4.2,0.7-6.9,3.4-9.1,6.8C770.6,269.3,770.7,269.9,770.7,270.7z M268.7,165.2c-2.1-0.7-4,0-5.8,1.4C264.8,166.1,266.7,165.6,268.7,165.2c1.7-0.1,3.4-0.2,5.1-0.3c0.7-0.1,1.5-0.4,2.2-0.4 c5.4-0.1,10.8-0.1,16.1-0.1c6.6,0,13.1,1.1,19.5,3c0.5,0.2,1,0.2,1.6,0.3c-0.3-0.5-0.7-0.8-1.1-1c-6.2-2-12.5-3.2-19.1-3.4 c-4.7-0.1-9.4,0-14.1,0c-1.3,0-2.7,0.1-4,0.4c-0.5,0.1-0.8,0.9-1.2,1.3C272.1,163.9,270.3,163.6,268.7,165.2z M371,348 c1,2.3,2.6,4,4.9,5.1c3,2.7,6.3,3.7,10.2,2.1c-1.3-0.1-2.6-0.2-4.3-0.3c8.3-2.8,11.8-8.7,11.8-16.9c-0.7-0.2-1.6-0.4-3-0.7 c1.1-1,1.8-1.6,2.5-2.3c1.4-1.4,3-2.8,4.2-4.3c3.6-4.6,6.4-9.7,8.8-15c1-2.1,1.8-4.5,3.3-6.2c2.7-3,4.7-6.5,7.1-9.7 c0.8-1,1.9-1.8,3-2.8c-3-1.7-3.2,2.7-5.7,2.8c1.2-3,2.3-5.6,5.3-7.4c1,1.5,2,2.8,2.7,4.3c2.3,4.9,4.2,9.9,6.6,14.7 c3.7,7.2,8.8,13.2,16,17.3c0.7,0.4,1.4,0.9,2.2,1.4c-3.9,1.1-3.9,1.2-6.7-1.1c-2.2-1.8-4.3-3.7-7-6.1c0.5,1.1,0.7,1.7,1,2 c1.9,2.3,3.9,4.6,5.9,6.9c0.9,1.1,1.7,2,1.8,3.7c0.7,7.3,8.3,12.4,14.9,11.1c4.3-0.9,7.6-3.2,10.3-6.5c1.3-1.6,2.5-3.4,3.8-5.1 c0.1,0.1,0.3,0.2,0.4,0.3c-0.6,1.3-1.1,2.7-1.7,4c0.6-0.3,1-0.8,1.3-1.2c0.4-0.6,0.7-1.2,1-1.7c3.7-7.3,6.2-15.1,7.4-23.2 c1.8-12.2,3.2-24.4,3.5-36.7c0.1-5.6,0.4-11.2,0.2-16.8c-0.3-9.7-0.8-19.4-1.5-29.1c-0.3-4-1.1-8-1.8-11.9 c-0.8-4.4-2.7-8.3-5.6-11.7c-3.5-4.3-8.2-5-12.8-2c-1.5,1-2.9,2.1-4.1,3.4c-5.4,5.6-8.5,12.5-10.7,19.9c-1.8,6.2-2,12.6-2,19 c-0.1,6.5,0,12.9,0,19.6c-0.4-0.3-0.7-0.7-1.1-1c-4.4-4.6-8.8-9.3-13.3-13.8c-3.1-3.1-7-4.8-11.3-3.1c-2.2,0.8-4.4,2.4-6.1,4.1 c-3.6,3.7-6.9,7.7-10.3,11.5c-1.2,1.4-2.4,2.8-4.3,3.7c-2-2.8-2.1-5.8-1.9-8.8c0.3-6.6,0.8-13.2,1.1-19.8c0.2-5,0.4-10.1,0.4-15.1 c0-3.4-0.1-7-1-10.3c-2.1-8.3-10.7-12.5-18.4-5.5c-4.1,3.7-6.7,8.4-8.2,13.6c-1.6,5.5-3.1,11-4,16.6c-1.3,8.3-2.2,16.6-2.8,25 c-0.6,7.4-0.6,14.8-0.9,22.1c-0.2,4.1-0.8,8.3-0.6,12.4c0.4,9.5,1,19,2,28.4c0.7,6.3,2.3,12.6,5.4,18.3C369,346.2,370.1,347,371,348 z M243.6,282.7c-0.1,0.2-0.2,0.5-0.3,0.7c-0.5,0.1-1.1,0.2-1.6,0.1c-5.3-0.5-9.7,1.7-13.7,4.7c-6.3,4.7-9.7,10.7-8,18.9 c1.3,6,2.5,12.1,3.4,18.1c1,7,4.3,12.6,9.6,17.2c5.5,4.8,11.6,8.8,18.2,11.9c17.2,8,35,11.6,53.9,6.9c12.1-3,23.4-7.7,33-15.7 c0.1-0.1,0.1-0.4,0.3-0.8c-0.9,0.3-1.6,0.6-2.8,1c0.8-1.2,1.3-1.9,1.7-2.4c-1.1-0.9-2.2-1.5-2.8-2.4c-1.3-1.8-2.4-3.8-3.6-5.8 c1.6-2,3.2-3.9,4.8-5.8c-1.3,0-2.2,0.5-3.2,0.9c-0.6,0.3-1.4,0.9-1.8,0.7c-2-1-3.4,0.4-4.9,1.2c-2.4,1.2-4.6,2.7-7.3,3 c2-1.4,4.2-2.6,6.3-3.9c2.2-1.3,4.4-2.7,6.5-4.2c2-1.4,3.9-3,5.7-4.7c1.8-1.6,3.6-3.4,5.3-5.1c1.8-1.9,3.5-3.8,5.2-5.7 c1.5-1.7,2.4-4.1,4.6-5.7c0.1,1.6,0.2,2.6,0.3,3.7c1.4-0.8,2.5-1.4,4-2.3c0.7,1.6,1.5,2.8,1.9,4.1c0.3,1.3,0.3,2.7,0.4,4 c0.6-0.9,1.1-1.9,1.1-2.9c0-3.4,0.2-6.8-0.2-10.1c-0.9-6.8-2.2-13.5-3.2-20.2c-0.8-5.7-2.2-11.2-4.8-16.4 c-4.4-8.9-11.5-15.2-19.6-20.3c-15.2-9.8-32-16.1-49.6-19.9c-5.5-1.2-9.9-4-14-7.5c-2.1-1.8-2.9-4.1-1.4-6.6c1-1.7,2.4-3.2,3.7-4.6 c0.8-0.9,2-1.4,3.5-2.5c-1.8,0-2.7,0-4.1,0c2.7-2.6,5.6-3.7,8.9-3.6c4.6,0.1,9.1,0.9,13.4,2.8c8.2,3.7,15.8,8.3,23.3,13.5 c-2.6-0.7-5.2-1.4-7.8-2.1c0.6,1.1,1.4,1.6,2.3,2c2.2,1.1,4.4,2.2,6.6,3.4c2,1.1,4.1,2.1,5.6,4c1.6,2,1.6,4.2,0,6 c-1.3,1.4-2.4,2.9-3.7,4.4c5.2,2.6,10.3,3.4,15.8,2.5c8.4-1.4,12.7-7.6,11-16c-0.8-4.2-1.5-8.4-2.3-12.5c-1.1-5.7-1.6-11.6-5.4-16.4 c-2.3-2.9-4.5-5.9-7.1-8.5c-10.5-10.1-23.1-15.5-37.6-16.7c-10-0.8-19.9,0.4-29.6,2.8c-11.1,2.7-21.6,6.8-30.7,13.8 c-12.1,9.3-18.7,21.6-18.8,37c0,7.5,0.9,14.9,2.3,22.3c2.9,15.9,11,28.1,24.1,37.4C241.2,281.3,242.4,282,243.6,282.7z M715.7,332.3 c0.7,1.3,1.3,2.2,1.8,3.1c2.5,4.3,5.1,8.5,9.9,10.6c0.9,0.4,1.9,0.9,2.8,0.8c4.7-0.5,8.8-2.1,10.9-6.7c1.5-3.4,2.8-6.9,3.8-10.4 c2.6-8.6,3.1-17.6,4.2-26.5c1.1-9.7,1.7-19.4,2.6-29.1c0.9-9,1.8-18,3-27c0.7-5.2,1.9-10.4,4.5-15c2.3-4.2,5.4-6.8,10.5-7.3 c5-0.5,9.8,0.3,14.7,0.7c8,0.6,12.4-2.1,15.2-7.9c2.1-4.4,3.5-9,2.9-13.9c-0.5-3.7-0.8-7.4-1.9-10.9c-2.5-7.8-7.1-14-15.1-16.9 c-8.9-3.2-17.9-5.4-27.4-6.3c-9.7-0.9-19.4-1.9-29.2-1.7c-2.4,0-4.7,0.1-7.1,0c-6.6-0.5-13.2-0.1-19.7,1.2 c-5.3,1.1-10.4,2.6-15.1,5.5c-6.2,3.9-9.5,9.3-9.5,16.7c0.1,6.5,0,13,0.3,19.5c0.1,2.5,0.6,5.1,1.2,7.6c0.7,2.5,2.5,3.4,5.1,2.8 c1.9-0.4,3.6-0.3,5.6,0.3c4.5,1.3,9,3,14.3,1.9c-5.9-0.8-11.1-2.6-15.5-6c-3.7-2.8-7-5.9-7.7-11.4c1.1,1,1.8,1.6,2.5,2.3 c4.7,4.7,10.3,7.9,17,8.9c2,0.3,4,0.2,6,0.6c6,1.1,6.1,1.9,6.9,7.7c0,0.3,0,0.7,0,1c-0.2,7.4-0.3,14.8-0.5,22.2 c-0.1,3.1-0.1,6.3-0.2,9.4c-0.4,8.9-1.2,17.9-1.2,26.8c-0.1,14.6,0.3,29.2,0.6,43.7c0.2,7.1,1.1,14.1,3.3,20.8 c1.2,3.6,2.6,7.1,5.2,10c-0.9-4.4-3.3-8.4-3-13.4c2.8,2.5,5.4,4.8,7.9,7.1c0.6,0.5,0.8,1.6,0.9,2.4c0.3,3.4,0.5,6.8,0.8,10.4 c0.8,0.3,1.8,0.6,2.7,0.9c3.7,0.8,5.5-0.7,5.7-4.4c0.1-2,0.2-4,0.2-6c0-1.8,0.5-3.2,1.9-4.4c2.6-2.4,4.5-5.3,6-8.4 c0.6-1.4,1-2.9,1.4-4.3c-1.4,2-2.3,4.2-3.4,6.2c-3.5,6.3-11.9,8-17.7,3.7c-3.6-2.6-5.4-6.5-7.1-10.5 C716.1,336.9,715,335,715.7,332.3z M564.5,333.8c-0.2-0.1-0.3-0.3-0.5-0.4c0.5-0.8,1-1.7,1.6-2.4c1.5-2,2.6-4.1,2.5-6.8 c-0.2-3.7,0.3-7.4-0.2-11c-0.9-5.6-3.1-9.7-10.1-11c-3.4-0.6-6.9-0.5-10.4-0.1c-6.5,0.6-12.9,1.6-19.3,2.3c-2.7,0.3-5.4,0-7.6-1.8 c0-1.4,0-2.6,0-4c-0.6,0.2-1.1,0.3-1.6,0.4c-0.6-1.3-0.3-2.4,0.5-3.5c3.4-5.1,8.2-8.4,14-9.7c4.8-1,9.8-1.2,14.7-1.6 c1.4-0.1,2.9,0,4.4,0.1c1,0.1,1.7,0.6,1.6,1.7c-0.3,2.9-2.8,5.5-5.7,6.2c-0.7,0.2-1.5,0.3-2.2,0.4c4.7,1,9.2,0.1,13.5-1.2 c2.3-0.6,3.7-2.3,3.8-5c0.1-4.2,0.2-8.6,0.9-12.7c0.8-4.6-0.8-7.9-4.1-10.7c-1.6-1.4-3.5-2.3-5.4-3.4c-0.9-0.5-1.8-1-2.7-1.5 c0.8-0.8,1.5-1.2,2-1.1c2.1,0.4,4.1,1,6.1,1.4c4.4,0.8,8.7,2,13.3,1.5c4.5-0.5,6.2-1.8,7.3-6.1c0.4-1.5,0.5-3.1,0.7-4.6 c0.3-3.9,0.4-7.8,0.9-11.7c0.9-7.7-1.3-14.1-7.3-19.2c-3-2.5-6.3-4.2-10-5.5c-9.5-3.2-19.1-5.7-29-7c-8.6-1.2-17.1-2-25.8-1.9 c-7.1,0.1-12.7,4.2-14.3,11c-2.5,10.9-5,21.8-6.9,32.9c-1.6,9.9-2.3,20-3.5,30c-1.2,10.4-1.7,20.8-1,31.2c0.5,7.5,1.9,14.7,7.5,20.4 c0.1,0.1,0,0.3,0.1,0.7c-2.7-0.4-3.9-2.7-5.7-4.3c0,1.1,0.2,2.1,0.3,3.1c0.1,1.7,0.4,3.5-0.1,4.9c-0.3,0.9-0.4,1.7-0.3,2.4 c1.2,5.4,4.5,9.3,9.6,11.3c3.4,1.3,7,2.3,10.6,2.9c5.3,0.9,10.6,1.6,16,2c6.3,0.5,12.5,0.5,18.8,0.8c0.3,0,0.7-0.2,1.2-0.4 c-0.7-0.3-1.1-0.5-1.4-0.7c2.1-1.2,4.2-2.3,6.3-3.5c-0.6-0.7-1.1-1.4-1.8-2.3c1.6,0,2.7,0,4,0c-0.5,2-1,4-1.6,6.3 c4.7-0.2,9.2-0.9,13.4-3.3c0.9-0.6,1.8-1.4,2.5-2.2c3.4-4.3,3.4-9.4,3.4-14.9C566.1,332.9,565.3,333.3,564.5,333.8z M674,300.3 c-2.1-3.3-4.7-4.9-8.2-5.2c-4.8-0.4-9,1.2-13.3,2.9c-6.1,2.3-12.1,4.7-18.2,6.9c-4.7,1.7-8.9,0.4-10.9-3.3c-2-3.7-2.4-7.7-0.7-11.7 c2.1-4.9,5.9-8.2,10.6-10.3c5.2-2.3,10.7-4,16-6.1c3.6-1.5,7.2-3,10.7-4.8c4.3-2.2,4.2-8.6,0.5-11.3c-4.7-3.4-9.9-4.7-15.6-3.6 c-6.7,1.2-13.4,2.6-20.1,4c-3.8,0.8-8-2.5-6.2-7.1c1.7-4.5,4.7-8,9.2-9.7c5.8-2.3,11.8-4,18.2-4.5c4.7-0.3,9.4-0.6,14-1.2 c3-0.4,5.9-1.2,8.8-2.2c3.4-1.2,5-3.6,5.2-7.6c0.5-7.8-5.4-15.4-11.1-18c-5.3-2.4-10.9-2.6-16.4-3c-7.8-0.5-15.7-0.5-23.5,0.6 c-8.5,1.2-17.1,2.3-25.4,4.7c-7.2,2.1-11.5,6.6-11.8,14.9c-0.4,8.3-1.2,16.5-0.4,24.8c0.8,8,1,16.1,1.4,24.1 c0.6,11.2,2.4,22.2,4.4,33.2c0.1,0.6,0.5,1.2,1,2.2c-0.2-6.4-0.4-12.2-0.7-18c-0.2-3.5-0.3-6.9-0.8-10.4c-0.3-1.9-0.3-3.7,0.8-6.1 c0.9,3.6,1.7,6.5,2.6,9.8c0.6-0.8,1-1.3,1.4-2c1.5,5.6,1.4,11.4,3.9,16.8c0.6-3.1,0.7-6.1,0.8-9.2c0-0.5,0.2-1.2,0.5-1.4 c0.3-0.2,1.3,0,1.4,0.3c0.6,1.3,1.7,0.8,2.6,0.6c1.1-0.2,2.1-0.6,3.2-0.8c1.6-0.3,3.3,0.6,3.5,1.8c0.2,2.2,0.4,4.4,0.4,6.5 c0.1,4.7,0,9.4,0.2,14.1c0,1.2,0.3,2.5,0.9,3.4c2.5,4,6,6.7,10.7,7.7c5.1,1.2,10.5,0.4,15.4,2.4c0.5,0.2,1.1,0,1.7-0.1 c3.7-0.8,7.5-1.4,11.1-2.4c4.5-1.3,9-2.8,12.9-5.6c1.1-0.8,2.2-1.7,2.7-2.9c1.3-2.9,2.9-5.8,2.9-9.2 C670.2,302.1,671.3,300.7,674,300.3z M599.1,330.6c0.7,1.2,1.1,2.2,1.8,3c2.6,3.1,6.1,4.4,9.9,5.2c6.9,1.4,13.9,0.7,20.7-0.2 c7.6-1.1,15.2-2.8,22.7-4.4c5.7-1.3,11.2-3.3,16.2-6.4c3.8-2.4,6.2-5.7,7-10.2c0.3-1.7,0.2-3.2-0.7-4.8c-0.6-1.1-0.7-2.5-1.1-3.8 c-0.5-1.6-0.1-3.7-2.1-4.6c-1.2,0.6-2.1,1.2-2,2.8c0.3,2.9,0.4,5.8,0.6,8.7c2.4-1.2,0.4-4.4,2.5-5.6c1.4,2.2,1.7,4.6,0.6,6.8 c-1.1,2.3-2.6,4.5-4.2,6.4c-0.9,1.1-2.4,2-3.7,2.7c-2.5,1.1-5.2,2-7.8,2.9c-1.4,0.5-2.7,1-4.1,1.3c-7.3,1.3-14.7,2.6-22,3.7 c-4.6,0.7-9.2,1.4-13.8-0.7c-1.3-0.6-3.1-0.2-4.6-0.2c-0.4,0-1,0.3-1.1,0.5c-0.6,1.9-1.9,1.6-3.3,1.1 C607,333.4,603.4,332.2,599.1,330.6z M662.6,338.5c-1.2,0.9-1.9,1.3-2.5,1.8c-0.5,0.5-1.3,0.9-1.4,1.5c-0.2,1.1,0.4,2,1.5,2.3 c0.8,0.2,1.8,0.3,2.6,0.2c2.7-0.4,5.5-0.8,8.2-1.6c2.5-0.7,4.6-2.2,5.9-4.7c0.9-1.7,0.6-4.3-0.7-5.6c-1.1-1.1-3.2-1.4-5-0.6 c-1.2,0.6-2.3,1.3-3.5,1.9c-3.1,1.4-6.3,2.8-10.1,4.4C659.5,338.3,660.7,338.4,662.6,338.5z M784.5,231.7c0.4,0.2,0.7,0.5,1.1,0.6 c3.1,1.2,3.4,1.6,3.3,4.8c0,1.3-0.3,2.6-0.4,4c-0.2,1.9,0.8,2.8,2.6,2.3c1.2-0.4,2.5-1,3.5-1.9c4.8-4.7,6.3-10.5,5.6-17.6 c-2.6,2-4.9,3.8-7.1,5.5C790.5,231.2,787.6,231.4,784.5,231.7z M791,169.5c-12.1-5.2-24.9-7.2-37.9-8.9c-10.9-1.4-36.8-2.1-39.3-0.4 C740.1,160.2,766,161.1,791,169.5z M661.3,198.3c-0.4,0.6-0.7,1-0.9,1.4c-1.5,3-1.5,3.1-4.9,2.4c-7.1-1.5-14.3-2.6-21.6-2.5 c-5.6,0-11.2,0.4-16.7,0.8c-3,0.2-5.9,0.8-8.8,1.2c1.6,0.4,3.1,0.5,4.6,0.4c4.3-0.3,8.7-1,13-1.1c6.7,0,13.4,0.3,20.1,0.7 c3.2,0.2,6.4,1.2,9.6,1.7C659.8,204,661.3,202.7,661.3,198.3z M514.6,199.2c18.2,1.4,35.5,6.7,52.7,12.1 C550.2,204.9,533,199.1,514.6,199.2z M211.7,309.1c-0.1-6.1,1.8-13.5,5.4-20.5C211.7,295.2,211.3,302.9,211.7,309.1z M661.4,196 c0.4-2,0.8-4.1,1.3-6.1c0.6-2.1,1.3-4.3,2.2-6.3c0.7-1.8,1.7-3.5,2.6-5.3C662.6,183.2,661.6,189.4,661.4,196z M424.2,306.5 c0.2,3.9,2.9,9.6,5.5,11.7C427.8,314.1,426,310.3,424.2,306.5z M459.7,347.3c-3.5,0.3-6.7,0.5-9.9,0.8 C453,348.1,456.3,349.2,459.7,347.3z M579.4,214.2c-1.6-0.1-2.6-0.2-3.7-0.3c-1.1-0.1-2.1-0.2-3.8-0.3 C574.5,215.5,576.7,215.3,579.4,214.2z M710.7,160.2c-2.2-1.4-4.3-0.1-6.5,0C706.4,160.2,708.6,160.2,710.7,160.2z M258.4,167.6 c-0.1-0.2-0.2-0.4-0.2-0.7c-1.2,0.3-2.4,0.7-3.6,1c0.1,0.2,0.1,0.4,0.2,0.6C255.9,168.2,257.2,167.9,258.4,167.6z M390.4,201.4 c0.1-0.2,0.2-0.4,0.4-0.6c-1.2-0.3-2.4-0.5-3.6-0.8c0,0.2-0.1,0.4-0.1,0.6C388.2,200.9,389.3,201.1,390.4,201.4z M468.1,340.9 C468.1,341,468.1,341,468.1,340.9c-0.9,0.8-1.8,1.5-2.7,2.2c0,0,0.1,0.1,0.1,0.1C466.4,342.5,467.3,341.7,468.1,340.9z M224.4,279.4 c-0.3-0.1-0.6-0.2-0.9-0.3c-0.3,0.9-0.5,1.9-0.8,2.8c0.3,0.1,0.6,0.2,0.9,0.2C223.9,281.3,224.2,280.4,224.4,279.4z M628.4,332.4 c0,0,0,0.1,0,0.1c0.7,0,1.5,0,2.2,0c0-0.1,0-0.2,0-0.3C629.9,332.4,629.1,332.4,628.4,332.4z M698.8,160.4c0,0.1,0.1,0.2,0.1,0.4 c1,0,2,0,3.1,0c0-0.1,0-0.2,0-0.4C701,160.4,699.9,160.4,698.8,160.4z M606.4,202.6c0-0.2-0.1-0.4-0.1-0.5c-0.8,0.1-1.6,0.1-2.4,0.2 c0.5,0.5,0.9,0.5,1.3,0.5C605.6,202.7,606,202.6,606.4,202.6z M511.8,199.9c0-0.2-0.1-0.4-0.1-0.6c-0.4,0-0.8-0.2-1.3-0.1 c-0.4,0-0.8,0.2-1.9,0.6c1.2,0.1,1.6,0.2,2,0.2C511,200,511.4,200,511.8,199.9z"></path> <path style="fill:#FFFFFF;" d="M620.3,648.2c1.6-3.2,2.8-5.8,4.2-8.4c8.8-16.3,20.9-29.4,37.8-37.5c4.9-2.4,10.3-3.6,15.6-5.2 c3.7-1.1,7.6-2,11.3-2.9c0.9-0.2,1.8-0.3,2.6-0.4c2.5,0,5,0.1,7.4,0c11.7-0.8,22.6,2.6,33.4,6.2c8.8,2.9,16.2,8.2,23,14.3 c14.5,13.1,23.3,29.6,27.3,48.7c1.3,6.2,2.5,12.5,3.7,18.8c0.2,0.9,0.2,1.8,0.2,2.7c0,12.8-0.1,25.6,0.1,38.4 c0.1,3.9-0.9,7.6-1.7,11.2c-2.4,11.9-6.4,23.4-13.1,33.7c-9.8,15.2-22.2,27.9-39.3,35.1c-3.9,1.6-8.2,2.3-12.1,3.8 c-5.5,2.1-11.3,1.3-16.9,1.5c-1.7,0-3.4-0.1-5.1,0c-14.3,0.6-27.4-3.4-39.8-10.1c-10.9-6-20.1-14.1-27.3-24.4 c-4.5-6.4-8.4-13.2-11.7-20.7c-1,2.2-2,4-2.9,5.9c-5,10.9-11.6,20.8-20.3,29c-9.8,9.3-21.3,15.7-34.7,18.8 c-5.1,1.2-10.1,1.3-15.3,1.4c-2.1,0-4.3,0-6.4,0c-21.5,0.5-39.7-7.4-55.7-21.3c-8.2-7.2-14.2-16.1-19.4-25.6 c-1.2-2.2-2.3-4.6-3.6-7.1c-1.5,2.9-2.9,5.6-4.3,8.3c-8.7,17.4-21.2,31-38.9,39.4c-4.4,2.1-9.3,3-13.9,4.8 c-5.1,1.9-10.3,1.5-15.6,1.5c-3,0-6.1-0.2-9.1,0c-8.1,0.7-15.7-1.7-23.3-4c-13-4-24.2-11.2-33.5-21c-4.3-4.5-8-9.6-12.1-14.6 c-0.6,3.4-1.2,6.8-1.9,10.2c-0.6,3.1-1.2,6.2-2,9.2c-2.5,9.5-8.3,15.9-17.7,19c-2.5,0.8-4.9,1.3-7.5,1.3c-5.1-0.1-10.1,0-15.2,0 c-9.5,0-17.1-3.8-22.6-11.6c-1.5-2.1-2.7-4.5-3.4-6.9c-1.8-6.2-2.8-12.6-3.4-19.1c-1-10.8-1-21.7-1.2-32.6c-0.1-4.2,0-8.5,0-12.7 c0-0.9,0-1.8-0.1-2.7c-0.2-1.4-0.9-2.2-2.4-2.3c-0.4,0-0.9,0-1.3,0c-7.9,1.2-14.5-2.1-20.3-6.8c-3.2-2.6-5.3-6.1-5.3-10.5 c0.1-5.2,0.4-10.5,0.5-15.7c0-1.4-0.4-2.8-0.5-4.3c-0.1-3.6-0.1-7.2,0-10.8c0.1-1.5,0.7-3,1.1-4.5c3.2-16,11.3-29.6,20.7-42.6 c6.3-8.7,13.3-16.6,22.1-22.9c4.4-3.2,9.2-5.4,14.4-7c4-1.2,7.9-1.4,11.9-1.4c1.8,0,3.6-0.2,5.1,1.2c0.4,0.4,1.2,0.5,1.9,0.5 c7.1,0.7,12.3,4.5,16.7,9.7c5.1,6,6.7,13.3,8,20.7c0.5,2.7,1,5.4,1.6,8.4c1.7-1.1,2.6-2.5,3.5-3.9c7.3-11.3,16.9-20,28.5-26.5 c7.7-4.4,16.3-6.1,24.7-8.5c8.8-2.6,17.6-1.5,26.4-1.6c2.6,0,5.2,1.2,7.8,1.7c9.1,2,18,4.6,26,9.6c9.9,6.2,18.5,13.8,24.9,23.7 c3.1,4.8,5.7,9.9,8.4,14.9c0.5,0.9,0.9,1.8,1.5,2.8c1.4-0.8,1.7-2.1,2.2-3.3c3.4-7.4,7.8-14.1,13-20.3c6.9-8.2,15.2-14.7,24.8-19.8 c7-3.8,14.7-5.3,22.1-7.6c9-2.8,18.2-1.6,27.4-1.7c2.6,0,5.2,1.2,7.8,1.8c8.3,2,16.5,4.2,24,8.5c15.9,9.1,27,22.3,34.6,38.7 C618.5,644.4,619.3,645.9,620.3,648.2z M472.1,731.2c-0.2-1-0.5-2.1-0.7-3.1c-0.2,0.1-0.4,0.1-0.5,0.2 C471.3,729.2,471.7,730.2,472.1,731.2c1.5,4.1,2.6,8.3,4.4,12.2c3.1,7.1,8.1,13.1,12.8,19.3c1.1,1.4,2.4,2.7,3.8,3.8 c4.3,3.3,8.6,6.4,13,9.6c3.1,2.2,6.3,4.2,9.4,6.3c-0.8,2.5-1.4,4.8-2.2,7.3c1.8,0.7,3.7,1.7,5.7,2.3c5.3,1.4,10.6,2.9,16,3.9 c6.1,1.2,12.2,1.2,18.3-0.6c1.7-0.5,3.4-1.4,5.2-1.4c4.8-0.1,8.8-2.2,13-4.1c0.9-0.4,1.6-1.1,2.4-1.6c-4-0.3-7.6-0.9-9.3-4.9 c3.8-1.8,7.5-3.6,11.2-5.5c5.8-2.9,10.7-7,14.6-12.1c5-6.5,9.5-13.3,13.3-20.6c1.6-3,2.9-6.2,4.3-9.3c-0.2-0.1-0.4-0.2-0.6-0.3 c-1.8,3.4-3.6,6.8-5.4,10.2c-8,14.9-20.1,25.3-35.9,31.4c-5.4,2.1-11,3.8-16.9,3.9c-7.8,0.1-15.4-0.3-23-2.1 c-9.5-2.3-18.4-5.8-26.2-11.6c-12.2-9-21.1-20.5-26.6-34.8C473.1,732,472.5,731.6,472.1,731.2z M250.4,679.4c-0.9-2.8-1.5-3.2-3.6-2 c-1.7,1-3.4,2.2-4.8,3.6c-1.6,1.5-2.9,3.4-4.5,5c-4.4,4.2-8.5,5.6-13.9,2.1c-0.5-0.3-1.1-0.6-2.3-1.2c0.3,1.7,0.1,3.1,0.7,3.9 c1.1,1.5,2.4,3.1,4,3.9c1.7,0.8,3.8,1.8,5.8,0.5c1.7-1.1,3.4-2.2,4.8-3.6c2-1.9,3.6-4.4,5.6-6.2c2.6-2.3,5.5-4.1,8.3-6.1 c0,0.8,0.1,1.6,0.1,2.3c-0.1,2.2-0.3,4.4-0.3,6.6c0,2.9,0.3,5.7,0.2,8.6c-0.1,7-0.6,14-0.6,21c0,10.6,0.2,21.3,0.5,31.9 c0.2,5.7,0.8,11.3,2.6,16.8c1.8,5.5,5.5,8.4,10.8,9.7c5.4,1.3,10.9,1.5,16.4,1c3.2-0.3,6.4-0.6,9.1-2.9c2.4-2.2,4.2-4.7,5.1-7.7 c1.6-5,2.8-10,3-15.3c0.2-7.2,0.6-14.3,0.8-21.5c0.1-4.9,0-9.9,0-14.8c0.1-8.6,0.3-17.2,0.2-25.8c-0.1-13.7-0.3-27.3-0.7-41 c-0.2-9-0.8-17.9-3-26.6c-1.4-5.5-4.3-10.3-9.4-13.4c-1-0.6-1.8-1.6-2.4-2.6c-1.8-3-3.6-5.6-7.6-6.4c-6.2-1.2-11.6,1.9-12.9,8 c-0.3,1.4-0.8,2.2-1.8,3c-1,0.7-2,1.5-2.9,2.3c-5.9,4.5-11.1,9.8-15.7,15.6c-4,5.1-7.9,10.3-10.9,16.1c-2.7,5.3-6,10.2-7.8,15.9 c-1,3.3-1.7,6.8-3.2,9.9c-1.8,3.8-1.5,7.1,0.6,10.7c3.4,5.8,9.1,7.2,14.4,3.1c2.3-1.8,4-4.2,6.1-6.2c1.3-1.3,2.7-2.7,4.2-3.8 c1.2-0.9,2.7-1.4,4.1-0.6c1.4,0.8,1.6,2.3,1.5,3.8C251,677.9,250.6,678.6,250.4,679.4z M772.7,690.5c0.7-10.2-0.4-20.1-3.4-29.9 c-4.5-14.6-11.4-27.6-23.1-37.8c-7.1-6.2-15.3-10.7-24.3-13.3c-6.9-2-14.1-3.7-21.5-3c-2,0.2-4-0.1-6.1,0.1c-1.8,0.1-3-0.4-4-1.9 c-4-5.8-16-4.4-17.9,3.4c-0.6,2.3-1.8,4-4,5c-0.9,0.4-1.8,1-2.6,1.5c-11.3,6.2-20.2,14.9-26.9,25.8c-8.6,14-12.8,29.5-13.5,45.9 c-0.4,10.4-0.2,20.8,3.1,30.8c1.5,4.7,2.6,9.5,4.6,14c3.3,7.2,7.1,14,12.2,20c4.2,5,8.7,9.8,14.1,13.3c7.5,4.9,15.7,8.6,24.4,11 c11.3,3.1,22.7,3.2,33.9,0.5c8.1-1.9,15.8-5.6,22.7-10.6c10.3-7.6,17.5-17.6,22.9-29c6.5-13.8,10.4-28.4,9.4-43.9 C772.6,691.8,772.7,691.1,772.7,690.5z M457.1,693c-0.4-5.8-0.6-11-1.1-16.1c-1.2-11.3-4.4-22.2-9.5-32.3 c-3.8-7.6-8.7-14.5-14.9-20.2c-8.3-7.6-18-13-29-15.6c-5.9-1.4-11.7-2.7-17.9-2.3c-3.6,0.3-7.2,0.1-10.8,0c-1,0-2.2-0.4-3-1.1 c-4.7-4-14.7-3.1-17,4.3c-0.6,1.9-1.8,3.2-3.6,4.2c-2.9,1.6-5.6,3.6-8.4,5.5c-7.4,4.9-13.3,11.4-18.1,18.7c-5,7.8-9,16.2-11.3,25.4 c-1.7,6.5-3.1,13.1-3.4,19.8c-0.3,5.2-0.4,10.5,0,15.7c0.5,6.2,1.1,12.5,2.6,18.6c1.3,5.5,3.5,10.9,5.9,16 c4.6,9.8,10.7,18.6,19,25.8c4.3,3.7,8.9,7.2,14.1,9.7c3.5,1.7,7.2,3.1,10.8,4.6c10.9,4.4,22.4,5,33.8,3.6c11.1-1.3,21-6.2,29.8-13 c7.7-6,13.8-13.4,18.6-21.8c5.7-9.9,9.2-20.6,11.5-31.7C456.4,704.7,456.6,698.4,457.1,693z M545.4,778.4c5.1,0.2,9.7-1.9,14.4-2.9 c10.4-2.4,19.3-7.8,27.2-14.7c8.2-7.2,14.2-16.3,18.4-26.2c7.2-16.6,10.3-34.1,8.9-52.3c-0.8-10.6-2.8-20.9-6.9-30.6 c-2.3-5.4-4.8-10.9-8.2-15.8c-3.3-4.7-7.1-9.1-11.6-13c-7.2-6.3-15.5-10.7-24.6-13.5c-7-2.1-14.2-3.6-21.8-3 c-5.4,0.4-10.9,0.3-16.2-1.7c-3.9-1.5-9.8,1-11.6,4.6c-0.9,1.9-2.2,2.9-3.9,3.8c-7.1,3.7-13.6,8.2-19.1,14.1 c-9.8,10.3-16.5,22.2-20.2,35.9c-3.7,13.7-4.7,27.5-3.1,41.6c0.9,7.4,2.7,14.5,5.1,21.5c3.1,8.8,7.7,16.9,13.5,24.3 c5.2,6.6,11.4,12,18.5,16.3c8.9,5.3,18.5,8.9,28.9,10.1C537.5,777.4,541.4,777.9,545.4,778.4z M417,787.4c-6.1,1-6.6,0.8-8.6-4.3 c1.1-0.9,2.3-2,3.6-2.6c4.6-2.3,8.6-5.5,12.7-8.7c10.6-8.3,18.2-18.9,23.7-30.9c2.9-6.3,4.6-13,6.8-19.6c0.4-1.2,0.2-2.6,0.3-4 c-0.6,0.3-0.8,0.5-0.9,0.8c-0.1,0.4-0.3,0.8-0.4,1.3c-3.1,14.3-9.1,27.2-18.6,38.3c-11,12.9-24.5,21.4-41.9,22.8 c-9.4,0.8-18.7,0.4-27.9-2.1c-9.3-2.6-17.9-6.4-25.5-12.3c-10.6-8.3-18.4-18.9-23.7-31.3c-1.2-2.8-2.4-5.6-3.6-8.3 c-0.2,0.1-0.4,0.3-0.6,0.4c7.3,27.6,24.2,46.9,50.9,57.9c-2.8,2.3-2.8,2.5-4.6,2.1c-4.1-0.9-8.3-1.6-12.1-3.8 c-1.2-0.7-2.6-1.1-4.1-1.7c0.2,0.7,0.2,1,0.3,1.1c0.8,0.6,1.6,1.3,2.4,1.8c6.6,4.1,13.5,7.6,21.1,9.3c5.8,1.3,11.5,3,17.5,3.1 c7.8,0.2,15.4-1.1,22.7-3.7C410.2,791.6,414,790.2,417,787.4z M629.8,726.9c-0.3,0.1-0.5,0.2-0.8,0.2c1.3,8.3,5.5,15.6,9.5,22.6 c10,17.4,25.3,28.6,44,35.2c-0.6,3.1-0.6,3.3,1.3,6c-1.5,0.3-2.8,0.6-4.2,0.9c11.4,6.8,40.4,5.2,50.2-2.5c-1.7-0.6-3.6-1.3-5.2-1.9 c-1-3.9,0.8-5.5,3.6-7c4.5-2.5,8.9-5.3,13-8.4c11.4-8.5,18.2-20.5,23.8-33.2c0.2-0.4,0.1-0.9,0.1-1.6c-0.4,0.5-0.5,0.6-0.7,0.8 c-0.6,1.2-1.3,2.4-1.9,3.6c-5.9,11.6-13.9,21.3-24.7,28.7c-7.1,4.9-15.1,8.3-23.5,9.4c-9.2,1.3-18.5,1.6-27.7-0.5 c-6.7-1.6-13.2-3.5-19.3-6.7c-15.7-8.2-26.6-21-33.9-36.9C632.1,732.9,631,729.9,629.8,726.9z M260.5,793c0,0.2,0,0.5,0,0.7 c2.8,0.9,5.6,2.2,8.6,2.6c4.1,0.4,8.3,0.4,12.4,0c3.2-0.3,6.1-1.7,7.9-4c-1.6-2.8-3-5.2-4.5-7.8c1.7-1.2,3.6-2.3,5-3.8 c1.3-1.4,2.9-2.9,2.8-5.4c-0.5,0.4-0.8,0.5-1,0.8c-2,2.7-4.6,4-7.9,4.4c-5.8,0.7-11.6,0.7-17.4-0.1c-6.8-0.9-11.4-4.1-13.6-10.7 c-0.3-0.9-0.7-1.9-1-2.8c-0.4,4.2-0.3,8.1,1.9,11.8c2.8,4.8,7.6,6.2,12.4,7.5c-0.5,1.7-1.1,3.2-1.2,4.7c-0.2,1.6-0.9,2.1-2.4,2.1 C261.8,792.9,261.1,793,260.5,793z M220.8,693.8c-1.2,5,0.9,8.7,5.4,9.9C229,697.6,226.7,694.3,220.8,693.8z M610.2,727.4 c0.2,0.1,0.5,0.1,0.7,0.2c0.5-1.8,1-3.7,1.6-5.5c-0.2-0.1-0.5-0.1-0.7-0.2C611.2,723.8,610.7,725.6,610.2,727.4z M609.8,730.7 c-0.2-0.1-0.3-0.3-0.5-0.4c-0.3,0.8-0.6,1.6-0.9,2.4c0,0.1,0.2,0.2,0.5,0.5C609.2,732.4,609.5,731.5,609.8,730.7z"></path> <path style="fill:#FFFFFF;" d="M868.2,513c-1.6-2-3.1-4.1-5-5.9c-2.5-2.4-5.1-2.8-8-0.7c-3,2.1-5.8,4.6-8.3,7.3 c-4.7,5.1-9.1,10.5-14.4,15c-7.4,6.2-15.6,9.7-25.3,9c-7.2-0.5-12.4-4.6-16-10.8c-0.2-0.3-0.2-0.8-0.3-1.3c2.2,2.1,4.2,4.2,6.4,6.1 c5.6,4.6,12.1,4.7,18.8,3.5c7.8-1.4,14.1-5.7,19.5-11.2c5.1-5.2,9.8-10.7,14.9-15.9c1.6-1.7,3.6-3,5.6-4.2c2.2-1.3,4.5-1.3,6.5,0.5 c1.5,1.3,3.1,2.6,4.2,4.3c3.6,5.4,7,10.9,10.5,16.4c3.2,4.9,6.2,10.1,10.6,14.2c6.5,6,13,6.5,20.3,2.8c1.5-0.8,2.9-1.7,4.6-2.8 c-0.4,1.7-1.7,2.5-2.8,3.1c-3,1.5-6,3-9.2,3.9c-3.4,1-6.6-0.7-9.5-2.4c-4.5-2.7-7.5-6.9-10.4-11.3c-2.8-4.2-5.5-8.5-8.2-12.7 c-0.5-0.7-1.2-1.2-1.8-1.9c0,0,0.1,0.1,0.1,0.1c-0.7-1.2-1.4-2.3-2.1-3.5C868.8,514.1,868.5,513.6,868.2,513z"></path> <path style="fill:#FFFFFF;" d="M869.1,514.7c0.7,1.2,1.4,2.3,2.1,3.5C870.5,517.1,869.8,515.9,869.1,514.7z"></path> <path style="fill:#FFFFFF;" d="M371,348c-0.4-1.2-0.9-2.4-1.3-3.6c0.2-0.1,0.5-0.3,0.7-0.4c1.1,1.8,2.1,3.6,3.4,5.2 c1.3,1.6,3,2.8,4.9,4.6c-1.3-0.4-2.1-0.6-2.8-0.8C373.5,352,372,350.3,371,348z"></path> <path style="fill:#FFFFFF;" d="M155.4,493.6c-1.4,1.3-2.7,2.4-3.9,3.6c-1.2-1.3-2.5-0.1-3.8,0.6c-0.9,0.5-1.5,1.5-2.4,1.7 c-3.2,0.6-6.5,1.1-9.8,1.2c-1.8,0.1-3.7-0.7-5.5-1.1c-1.2-0.2-2.5-0.4-3.9-0.6c0.4-0.5,0.9-1,1.3-1.6c-1.2-1.7-2-3.6-1.4-5.9 c0.2-0.9-0.2-2-0.4-3c-1.3-4.7,0.9-10.4,7.3-11.4c4.7-0.7,9.3-1.4,14-0.6c3,0.5,5.7,1.9,7.2,4.9c0.5,1.1,1.2,2.2,1.7,3.2 C154.7,487.1,154.5,491.1,155.4,493.6z"></path> <path style="fill:#FFFFFF;" d="M132.4,426.2c-5.6-6.7-11.5-8.6-14.6-4.2c1.6-0.3,3.1-0.8,4.6-0.7c3,0.1,5.4,1.7,7.1,4.1 c2.8,4,4.5,8.8,1.6,12.7c-1.7,2.3-3.8,4.2-6.8,4.2c-3.1,0-5.4-1.8-6.6-4.5c-0.8-1.8-1.2-3.9-1.2-5.9c-0.1-3.1-0.2-6.3,0.4-9.3 c0.9-4.6,2.6-5.7,7.2-4.6C128.2,419,131.2,421.9,132.4,426.2z"></path> <path style="fill:#FFFFFF;" d="M200.9,504.3c-1.2,3.2-3.3,5.8-5.5,8.1c-5.4,5.7-11.6,10.5-18.6,14.3c-12.8,7.1-26.3,12.4-40.7,15.3 c-8.8,1.8-17.7,3.1-26.7,2.2c-10.3-1-19.3-4.8-26.4-12.5c-1.7-1.9-3-4-3.8-6.7c1.5-0.1,1.9,0.9,2.2,1.8c0.9,2.3,2.5,3.9,4.4,5.4 c6.2,5,13.1,8.5,21,9.6c7.4,1,14.9,0.6,22.3-0.4c14.9-2,28.9-6.9,42.3-13.6c8.5-4.2,16.4-9.3,23-16.2 C196.7,509.4,198.7,506.8,200.9,504.3z"></path> <path style="fill:#FFFFFF;" d="M127.3,476.4c1-0.7,1.8-1.7,2.9-2.1c5.4-1.7,10.9-3.1,16.7-2.8c5,0.3,8.7,2.6,11.1,7 c0.7,1.2,1.4,2.5,1.7,4.1c-1.1-1.4-2.2-2.8-3.3-4.2c-2.5-3.3-5.9-4.6-9.9-4.8c-6-0.2-11.7,1.2-17.4,3c-0.5,0.2-1,0.4-1.5,0.5 C127.5,476.9,127.4,476.6,127.3,476.4z"></path> <path style="fill:#FFFFFF;" d="M155.5,496.5c-0.9,0.7-1.6,1.3-2.5,1.9C153.3,496.2,153.3,496.2,155.5,496.5z"></path> <path style="fill:#FFFFFF;" d="M870.1,435.6c-2.5-5.4-5.3-5.7-9.4-1.2c0.3-2.5,1.9-4.6,3.9-5.1c2-0.5,3.8,0.4,5.3,2.8 c2.7,4.2,3.3,9.1,3.3,13.9c0.1,8.7-3.2,16.1-9.9,21.9c-1.8,1.5-2.9,1.6-4.2-0.2c-1-1.4-1.8-3.2-1.9-4.9c-0.9-8.2-0.2-16.3,2-24.3 c0.7-2.5,2.5-4.2,4.9-5.1C866.6,432.5,868.3,434.1,870.1,435.6z"></path> <path style="fill:#FFFFFF;" d="M337.3,522.3c0.4,0.4,0.9,0.8,1.3,1.3c4.6,6.9,11.1,9.7,19.3,8.7c3.2-0.4,5.3-2.6,7.4-4.9 c-1.1,3.5-4.1,6.3-7.7,6.8c-9,1.2-16.5-2.5-20.1-11.4C337.4,522.7,337.4,522.5,337.3,522.3C337.4,522.3,337.3,522.3,337.3,522.3z"></path> <path style="fill:#FFFFFF;" d="M337.4,522.3c-0.6-1.3-1.3-2.6-1.9-3.9c0.3-0.1,0.6-0.2,0.9-0.3C336.7,519.5,337,520.9,337.4,522.3 C337.3,522.3,337.4,522.3,337.4,522.3z"></path> <path style="fill:#FFFFFF;" d="M270.4,499.1c-1.1-1.8-2.4-3.5-3.3-5.4c-2-4.1-4.2-8.2-5.5-12.5c-1.7-5.5-2.2-11.1,0-16.7 c0.9-2.3,1.2-4.8,2.2-7c1-2.1,2.4-4,4-5.7c2.6-2.8,5.6-2.9,8.6-0.4c0.7,0.6,1.3,1.2,2.1,1.9c-1.4-5.3-6.9-7.1-10.7-3.5 c-1.6,1.5-3,3.3-4.3,4.8c0.4-3.3,4.4-8.2,7.6-8.8c2.6-0.5,4.8,0.7,6.2,2.6c2,2.7,4,5.5,5.1,8.6c1.2,3.3,2.8,6.5,2.8,10.2 c0,1.6,0.7,3.2,1.3,4.8c1.2,3.4,0.3,7.1,1.6,10.6c0.4,1-0.6,2.4-0.3,3.5c0.3,1.3,0.8,2.3,0.3,3.9c-0.3,1.1-0.3,2.7-0.3,4 c0.1,3.1-1.2,5.6-2.5,8.1c-1.7,3.1-4.5,4.1-7.6,2.3c-1.9-1.1-3.6-2.7-5.4-4C271.6,499.8,271,499.5,270.4,499.1L270.4,499.1z"></path> <path style="fill:#FFFFFF;" d="M320.6,508c-0.5,0.8-0.9,1.7-1.4,2.5c-8.1,13.1-20,20.9-34.8,24.4c-4.3,1-8.6,1.4-13,1.6 c-7.1,0.5-14-0.3-20.7-2.8c-8-2.9-14.5-7.8-19.9-14.4c-3.1-3.9-5.6-8.1-7.8-12.5c-0.4-0.9-0.6-1.8-0.5-3c0.8,1.4,1.7,2.9,2.5,4.4 c5.9,11.7,15.2,19.7,27.5,24.2c2.9,1,5.9,1.7,9.1,1.9c5.5,0.4,10.9,0.5,16.4-0.1c7.3-0.8,14.2-3.1,20.7-6.5 c8-4.2,14.5-10.1,19.5-17.5c0.5-0.7,1-1.5,1.5-2.2c0.1-0.1,0.2-0.1,0.3-0.2C320.3,507.8,320.5,507.9,320.6,508z"></path> <path style="fill:#FFFFFF;" d="M270.4,499.1c-0.4,0.5-0.8,1-1.7,2c-0.1-1.3-0.2-2.1-0.3-2.8c0.2-0.1,0.4-0.2,0.7-0.3 C269.5,498.3,269.9,498.7,270.4,499.1C270.4,499.1,270.4,499.1,270.4,499.1z"></path> <path style="fill:#FFFFFF;" d="M272.8,502.6c-0.5,0.4-0.7,0.7-0.9,0.7c-0.3,0-0.6-0.2-0.8-0.3c0.1-0.3,0.2-0.7,0.3-0.7 C271.7,502.2,272.1,502.4,272.8,502.6z"></path> <path style="fill:#FFFFFF;" d="M508.1,472.4c0.1,2.5,0.1,5.5-1.7,8.2c-1.2,1.8-2.6,3.3-4.8,3c-2.3-0.3-3.3-2-3.9-4.1 c-1.7-6.3-1.5-12.5,0.7-18.7c0.6-1.7,1.6-3.1,3.4-3.3c1.9-0.2,3,1.2,3.9,2.7C507.4,463.1,508.1,466.3,508.1,472.4z"></path> <path style="fill:#FFFFFF;" d="M546.3,533.4c-3,6.5-11.4,9.5-17.2,6.7c-4.1-2-6.8-5.4-9.5-8.8c-3.9-5-7.8-10.2-11.7-15.2 c-0.7-1-1.7-1.8-2.6-2.6c-2.8-2.2-5.3-2.2-7.8,0.2c-2.3,2.2-4.3,4.6-6.1,7.1c-3.2,4.4-6.6,8.5-10.6,12.2c-5.2,4.8-11.2,7.4-18.3,7.2 c-5.7-0.1-11.7-4.8-13.1-10.2c1.3,1.5,2.3,2.8,3.5,3.9c1.3,1.1,2.8,1.8,4.2,2.7c3.3,2,6.9,2.2,10.4,1.5c6.1-1.2,11.4-4,15.4-8.8 c4.1-5,8.2-10.1,12.3-15.1c0.4-0.4,0.7-0.9,1.1-1.3c4.1-4,7.5-4,11.1,0.4c4.1,5,7.9,10.3,11.9,15.5c1.7,2.2,3.6,4.2,5.5,6.3 c4.7,5.3,13.3,5.7,19.1,0.6C544.6,535,545.3,534.4,546.3,533.4z"></path> <path style="fill:#FFFFFF;" d="M498.5,455.8c0.8-2.4,2-3.1,3.7-3.1c2.1,0,3,1.3,3.7,3.3C503.6,454.2,501.4,453.5,498.5,455.8z"></path> <path style="fill:#FFFFFF;" d="M679.3,521.8c6.2,6.8,14.1,10.1,22.8,11.8c7.9,1.5,15.8,3,23.8,3.8c5.1,0.5,10.3-0.1,15.4-0.3 c6-0.2,11.8-1.3,17.4-3.3c0.8-0.3,1.7-0.5,2.5-0.7c0.1,0,0.2,0.1,0.4,0.2c-3.7,2.8-8.1,4.1-12.4,4.9c-10.5,2-21.1,2.1-31.7,0.4 c-7.7-1.3-15.5-2.3-22.9-5c-4.3-1.6-8.5-3.5-12-6.6C680.6,525.3,679.8,524.1,679.3,521.8z"></path> <path style="fill:#FFFFFF;" d="M728.4,453.4c-4.6-3.7-9.8-4.4-14.7-5.9c-4.8-1.4-9.7-2.5-14.4-4.2c-3.7-1.3-7-3.5-9.3-6.8 c-0.2-0.3-0.4-0.7-0.9-1.6c2.5,1.8,4.5,3.3,6.6,4.7c5.3,3.6,11.6,4.5,17.7,5.9c4,0.9,7.9,2.3,11.8,3.7 C727.3,450,727.2,450.3,728.4,453.4z"></path> <path style="fill:#FFFFFF;" d="M733,493.2c-0.9,1.4-1.7,2.7-2.6,4.1c-0.2-0.1-0.4-0.3-0.6-0.4C730.5,495.4,731.3,494,733,493.2 C733.1,493.3,733,493.2,733,493.2z"></path> <path style="fill:#FFFFFF;" d="M243.3,270c1-0.4,1.7-0.7,3-1.3c-1.8-1.8-3.3-3.4-5.2-5.5c1.4,0.5,2.2,0.7,2.9,1.1 c9.7,4.3,19.7,7.2,30.3,8.1c5.1,0.4,10.2,1.1,15.3,2c5.4,0.9,10.2,3.3,14.4,6.8c0.7,0.6,1.3,1.4,2.4,2.6c-1.6,0-2.6,0-3.9,0 c0.6,0.9,1,1.7,1.5,2.4c1.3,2,1.3,3.4-0.6,4.9c-1.7,1.4-3.5,2.5-5.3,3.8c0.2,0.4,0.3,0.8,0.5,1.3c-1.1-0.1-2.1-0.1-3.3-0.2 c2.4,1.2,4.7,2.3,7,3.4c-6.9,4.8-23.9,0-31.6-6.6c0.8-0.4,1.6-0.7,2.9-1.3c-1.3-0.4-2.2-1-2.8-0.7c-1.9,0.9-3.2-0.4-4.7-1.1 c-4-1.8-7.9-3.6-11.9-5.4c-1-0.5-2-0.7-2.4-2.1c-0.2-0.6-1-1.1-1.6-1.6C246.7,278,244.3,274.6,243.3,270z"></path> <path style="fill:#FFFFFF;" d="M376.2,338.7c-4.8-2.8-6.9-7.2-8.1-12.1c2,2.5,4,5,6.1,7.4c0.7,0.8,1.7,1.5,2.5,2.2 C377.6,337,377.1,337.7,376.2,338.7z"></path> <path style="fill:#FFFFFF;" d="M371.2,337.9c-0.4,0.8-0.7,1.5-1.1,2.4c-1.7-1.9-1.9-4.2-1.8-6.6C369.2,335,370.1,336.4,371.2,337.9z "></path> <path style="fill:#FFFFFF;" d="M567.3,245.8c-1,0.4-1.6,0.9-2.1,0.9c-2.6-0.1-5.1-0.2-7.7-0.5c-5.6-0.5-11.1-1.2-16.7-1.4 c-2.8-0.1-5.6,0.3-8.3,0.7c-3.5,0.5-6.5,2.7-8.4,6.1c2.1-1,3.9-2.3,5.8-2.7c3.8-0.8,7.7-1.6,11.6-1.6c4.9,0,9.8,0.7,14.7,1.4 c3.4,0.5,4.7,3.1,3.4,6.1c-0.3,0.7-1.3,1.4-2,1.4c-9.3,0.3-18.5,0.4-27.8,0.6c-0.9,0-1.8-0.1-2.7-0.3c-4.2-0.8-5.8-4.4-3.6-8 c2.4-3.8,6-5.9,10.5-6.6c7.7-1.2,15.4-0.6,23,0.9c2.6,0.5,5.2,1.2,7.8,1.8C565.5,244.9,566.2,245.3,567.3,245.8z M548.9,256 c0-0.1,0.1-0.3,0.1-0.4c-3.9,0-7.8,0-11.6,0c0,0.1,0,0.3,0,0.4C541.2,256,545.1,256,548.9,256z"></path> <path style="fill:#FFFFFF;" d="M499.5,333.7c0.6,0.1,1.3,0.2,1.9,0.3c9.9,2,19.8,3.7,29.9,3.7c2.8,0,5.6,0.4,8.4,0.4 c6.6,0.2,13.2-0.6,19.5-2.4c0.5-0.1,1.1-0.2,1.9-0.3c-0.5,2.2-2.3,2.7-3.9,3.3c-3.8,1.5-7.7,2.3-11.8,2.3c-9.7,0-19.5,0.3-29.1-1.4 c-5.4-1-10.7-2.2-15.6-4.8c-0.5-0.2-0.9-0.6-1.3-0.8C499.4,333.9,499.4,333.8,499.5,333.7z"></path> <path style="fill:#FFFFFF;" d="M560.7,277.2c-0.4,1.6-1.6,2.2-3,2.7c-3.7,1.3-7.6,1.7-11.5,2c-4.7,0.3-9.3,0.8-13.9,1.7 c-5.8,1.2-11.1,3.6-13.9,9.6c-0.4-2.3-0.4-2.3,0.3-3.8c1.7-3.5,4.5-5.8,8-7.3c4.7-2,9.7-2.7,14.7-2.9c6.3-0.3,12.5-0.7,18.6-2.2 C560.2,276.9,560.4,277.1,560.7,277.2z"></path> <path style="fill:#FFFFFF;" d="M618.9,302.4c-0.2,1.2-2.8,0.9-1,2.7c-3.4,0-4.4-0.4-4.8-3.1c-0.6-3.4-0.8-6.9-0.6-10.3 c0.2-4.1,1-8.3,3.4-11.8c0.9-1.3,1.9-2.5,3-3.6c0.8-0.8,1.5-2,3-0.4c0.4,0.5,2.2-0.2,3.8-0.5c-0.4,0.8-0.6,1.4-0.9,1.9 c-1.9,2.6-4.3,4.8-5.6,7.9C616.6,291,615.9,296.8,618.9,302.4z"></path> <path style="fill:#FFFFFF;" d="M725.8,688.8c-0.2,1.4-0.5,3.4-0.6,5.4c-0.1,2.5,0.2,5.1-0.2,7.6c-1.3,8.2-3.3,16.2-8.4,23 c-3.9,5.1-8.8,8.3-15.4,8.1c-5.8-0.2-10.6-2.7-14.2-7.2c-4.7-5.9-8-12.4-9.5-19.8c-0.6-3-0.7-6.2-0.9-9.3c-0.4-7.7-0.2-15.4,1.9-23 c1.8-6.5,4.3-12.7,9.4-17.5c3-2.9,6.5-4.5,10.6-5.2c7.5-1.2,13.2,1.5,17.6,7.2c5.3,6.9,8.3,14.7,8.9,23.5 C725.1,683.8,725.4,686,725.8,688.8z M712.7,659.8c-4-6.4-15.5-7.2-21.4-1.4c0.8,1.7,1.7,3.5,2.6,5.3c1,2,0.9,2.7-0.6,4.5 c-1.1,1.2-2.2,2.4-3.4,3.6c3.6-0.8,6.9-1.9,10.3-2.1c3.3-0.2,6.7,0.6,10.5,1c-1.5-1.1-2.8-2-4-3c-2.5-2-2.3-4.3,0.6-5.7 C709,661.1,710.9,660.5,712.7,659.8z"></path> <path style="fill:#FFFFFF;" d="M359.8,692.5c0.4-8.1,0.7-15.8,3.4-23.2c1.7-4.6,3.8-9,7.2-12.4c9-9,21.2-8.7,29,1 c5.2,6.5,8.1,14.1,8.9,22.5c1,10,0.9,19.9-1.5,29.6c-1.4,5.7-3.8,11-7.4,15.7c-8.2,10.5-21.9,8.7-28.8,0.1 c-5.1-6.3-8.6-13.4-10-21.4C360,700.5,360,696.3,359.8,692.5z M395.3,658.7c-5.7-5.5-16.1-5.7-20-0.4c0.6,1,1.3,2,2,3 c2.1,2.9,2,3.7-0.4,6.3c-1.2,1.3-2.4,2.8-3.6,4.1c0.1,0.2,0.3,0.4,0.4,0.6c6-3.4,12.2-3.7,19-1.6 C387.9,663.6,389.4,662.2,395.3,658.7z"></path> <path style="fill:#FFFFFF;" d="M517.6,690.3c0.3-9.6,1.8-18.9,6.5-27.4c2.4-4.5,5.8-8.1,10.5-10.6c6.9-3.6,16.3-1.4,21.3,3.9 c4.2,4.5,6.8,10,8.5,15.8c0.9,3.3,1.8,6.7,2.1,10.1c0.9,9.7,0.8,19.4-2,28.9c-1.8,6.1-4.3,11.7-8.8,16.4c-7.8,8.2-18.7,6.7-25.3,0.4 c-4-3.8-7-8.6-9.1-13.9c-2.5-6.3-3.6-12.7-3.3-19.4C518,693.1,517.7,691.7,517.6,690.3z M546.6,666c1.6-0.7,2.4-1.2,3.2-1.4 c1.5-0.3,3.1-0.7,3-2.5c-0.1-1.6,0.1-3.6-1.8-4.7c-4.3-2.6-8.8-3.8-13.7-2.1c-1.9,0.7-4.1,1.2-5.2,3.9c0.9,1.1,1.9,2.4,3,3.7 c1.7,2,1.8,3.3,0.2,5.4c-0.6,0.9-1.3,1.7-2,2.5c7.4-2.5,14.3-1.8,21.1,1.5C552,670.3,549.6,668.4,546.6,666z"></path> </svg> 