<?xml version="1.0" encoding="UTF-8"?> <svg xmlns="http://www.w3.org/2000/svg" xmlns:xlink="http://www.w3.org/1999/xlink" version="1.1" id="Layer_1" x="0px" y="0px" viewBox="0 0 1000 1000" style="enable-background:new 0 0 1000 1000;" xml:space="preserve"> <path id="Shape_00000078745363934187381530000009627530538361118864_" style="fill:#EE2859;" d="M325.7,453.1 c3-4.1,4.6-9.2,4.4-14.4c0-7.3-2.5-13.6-7.6-18.7s-11.4-7.6-18.7-7.6H271v81.9h13.5v-29.8h16l17.3,29.8h14.7L314,462.5 C318.7,460.6,322.9,457.3,325.7,453.1L325.7,453.1L325.7,453.1z M303.8,452.5h-19.3v-27.4h19.3c3.5,0,6.8,1.4,9.2,4 c5.1,5.5,5.1,13.9,0,19.5C310.7,451.1,307.3,452.5,303.8,452.5L303.8,452.5z M399.2,459c-1.3-1.4-2.7-2.9-4.3-4.1 c-1.3-1.1-3.3-2.2-5.9-3.3c-2.7-1.1-4.6-1.9-6-2.4s-3.8-1.3-6.8-2.2c-6.2-1.9-10.6-3.8-13-5.5c-2.4-1.6-3.6-4.3-3.6-7.1 c0-3.2,1.1-5.5,3.5-7.4s5.4-2.7,9.3-2.7c8.1,0,13.8,3.8,17.3,11.4l11.4-6.5c-2.5-5.4-6.3-10-11.4-13.3c-4.9-3.2-10.6-4.8-17.3-4.8 c-7.3,0-13.5,2.1-18.5,6.3c-5.2,4.3-7.8,10-7.8,17.3c0,3.6,0.6,6.8,2.1,9.7c1.4,2.9,3.5,5.1,6,6.8c2.4,1.7,4.9,3.2,7.6,4.3 c3.2,1.3,6.3,2.4,9.5,3.3c7,2.1,11.7,4,14.6,5.9c2.7,1.7,4.1,4.3,4.1,7.6c0,3-1.4,6-3.8,7.8c-2.5,2.1-6.3,3-11.4,3 c-10.3,0-17.1-4.6-20.4-13.8l-11.6,6.8c2.1,6,6.2,11.2,11.6,14.7c5.5,3.6,12.2,5.4,20.1,5.4c8.7,0,15.7-2.2,21.1-6.5 s8.1-10.1,8.1-17.6c0-2.4-0.3-4.8-1-7.1C401.9,462.5,400.8,460.6,399.2,459L399.2,459z M413.3,425.3h23.1v69.1h13.5v-69.1H473v-12.8 h-59.7V425.3L413.3,425.3z M160.1,494.3h16.6v-41h41.2v-15.8h-41.2v-28.4h42.6v-15.9H160L160.1,494.3L160.1,494.3z M235.8,494.3 h13.5v-81.9h-13.5V494.3z M613.5,459.3h32.8v-12.8h-32.8v-21.4h35.7v-12.8h-49.1v81.9H650v-12.8h-36.3v-22.1H613.5z M854.7,410.8 c-11.9,0-21.9,4.1-30.1,12.4s-12.4,18.2-12.4,30.1s4.1,21.9,12.4,30.1c8.2,8.2,18.2,12.4,30.1,12.4c11.9,0,21.9-4.1,30.1-12.4 c8.2-8.2,12.4-18.2,12.4-30.1s-4.1-21.9-12.4-30.1C876.5,415,866.5,410.8,854.7,410.8L854.7,410.8L854.7,410.8z M875.2,474.4 c-5.5,5.5-12.5,8.4-20.6,8.4s-15.1-2.9-20.6-8.4s-8.4-12.5-8.4-21.1c0-8.4,2.9-15.4,8.4-21.1c5.5-5.5,12.5-8.4,20.6-8.4 s15.1,2.9,20.6,8.4s8.4,12.5,8.4,21.1S880.9,468.8,875.2,474.4L875.2,474.4z M722.5,453.1c3-4.1,4.6-9.2,4.4-14.4 c0-7.3-2.5-13.6-7.6-18.7s-11.4-7.6-18.7-7.6h-32.8v81.9h13.5v-29.8h16l17.3,29.8h14.7l-18.7-31.8 C715.5,460.6,719.7,457.3,722.5,453.1L722.5,453.1z M700.7,452.5h-19.3v-27.4h19.3c3.5,0,6.8,1.4,9.2,4c5.1,5.5,5.1,13.9,0,19.5 C707.5,451.1,704.2,452.5,700.7,452.5L700.7,452.5L700.7,452.5z M796.2,459c-1.3-1.4-2.7-2.9-4.3-4.1c-1.3-1.1-3.3-2.2-5.9-3.3 c-2.5-1.1-4.6-1.9-6-2.4s-3.8-1.3-6.8-2.2c-6.2-1.9-10.6-3.8-13-5.5c-2.4-1.6-3.6-4.3-3.6-7.1c0-3.2,1.1-5.5,3.5-7.4 s5.4-2.7,9.3-2.7c8.1,0,13.8,3.8,17.3,11.4l11.4-6.5c-2.5-5.4-6.3-10-11.4-13.3c-4.9-3.2-10.6-4.8-17.3-4.8 c-7.3,0-13.5,2.1-18.5,6.3c-5.2,4.3-7.8,10-7.8,17.3c0,3.6,0.6,6.8,2.1,9.7c1.4,2.9,3.5,5.1,6,6.8c2.4,1.7,4.9,3.2,7.6,4.3 c3.2,1.3,6.3,2.4,9.5,3.3c7,2.1,11.7,4,14.6,5.9c2.7,1.7,4.1,4.3,4.1,7.6c0,3-1.4,6-3.8,7.8c-2.5,2.1-6.3,3-11.4,3 c-10.3,0-17.1-4.6-20.4-13.8l-11.6,6.8c2.1,6,6.2,11.2,11.6,14.7c5.5,3.6,12.2,5.4,20.1,5.4c8.7,0,15.7-2.2,21.1-6.5 c5.4-4.3,8.1-10.1,8.1-17.6c0-2.4-0.3-4.8-1-7.1C798.8,462.5,797.7,460.6,796.2,459L796.2,459L796.2,459z M552.7,393.2h-37.2v101.1 H532v-34.7h20.6c9.5,0,17.4-3.2,23.9-9.7c6.3-6.3,9.7-14.3,9.7-23.6c0-9.5-3.2-17.3-9.7-23.6C570,396.4,562.2,393.2,552.7,393.2 L552.7,393.2z M564.8,439c-3.2,3.3-7.3,4.9-12.2,4.9H532v-35.2h20.6c4.9,0,9,1.6,12.2,4.9s4.8,7.6,4.8,12.7 C569.7,431.6,568,435.7,564.8,439L564.8,439L564.8,439z M963.7,412.4V468L925,412.4h-10.6v81.9h13.5v-55.6l38.7,55.6h10.6v-81.9 H963.7L963.7,412.4z"></path> <path id="Path-5_00000147933644272878220200000010145076065823960495_" style="fill-rule:evenodd;clip-rule:evenodd;fill:#EE2859;" d=" M21.8,371.7c40.2-21.5,92.2,1.1,96.2,55.9C43.2,433.5,34.2,399.7,21.8,371.7z"></path> <path id="Path-7_00000158014499310302333430000012165226340978355364_" style="fill-rule:evenodd;clip-rule:evenodd;fill:#EE2859;" d=" M26.1,507.5c40.2,21.5,92.2-1.1,96.2-55.9C47.5,445.9,38.6,479.4,26.1,507.5z"></path> <g> <path style="fill:#EE2859;" d="M191.6,641.9c5.1-15.2,18.7-55.7,24.3-73.4l-6.8-5.2c-1.1-0.9-0.6-2.5,0.8-2.5h111.6l-6.1,17.6 c-0.9,2.4-3,3.8-5.4,3.8h-77.1c-1.4,0-1.9,1.6-1,2.5l7,6.3c-0.1,0-12.3,35.9-12.4,35.9c-0.1,0.6,0.1,1,1,1h40 c1.5,0,2.4-0.5,2.8-1.6l4.8-13.9h-7.7c-1.8,0-3.2-0.6-4.2-1.8l-12.4-13.7c-0.9-0.9-0.3-2.4,1.1-2.4h58.8c0,0.5-11.9,35.1-11.9,34.7 c-4.7,13.4-13.3,20.1-25.9,20.1h-75.9C192.9,649.3,190.2,645.5,191.6,641.9z"></path> <path style="fill:#EE2859;" d="M344,568.6l-7.7-5.3c-1.1-0.9-0.6-2.5,0.8-2.5h111.2c-4,11.6-23.5,69.2-28.6,84.8 c-0.9,2.5-2.7,3.8-5.3,3.8h-26.2l7.8-21.4h-42.6l-6.1,17.6c-0.9,2.5-2.7,3.8-5.3,3.8h-25.8C321.2,633.8,338.4,585.8,344,568.6z M359.6,610h42.6l8.5-24.8c0.8-2-0.1-3-2.7-3h-45.4c-1.4,0-1.9,1.6-0.9,2.5l5.1,4.6L359.6,610z"></path> <path style="fill:#EE2859;" d="M447.5,649.3c3.5-10.5,21.1-60.7,28.2-80.9l-7.7-5.2c-1.4-0.9-0.6-2.5,0.8-2.5h34.8l5.3,17.6 c3,9.4,6.2,19.9,7.6,24.6c0,2-0.6,11.4-0.6,13.4c3.8-4.2,16.5-17.5,28.2-30c7-7.2,14.3-15.2,22.4-23.8c1-1.1,2.4-1.8,4-1.8h25.8 c-1.3,4.6-28,80.6-29.4,84.8c-0.9,2.5-2.7,3.8-5.3,3.8H536l12.1-35.3l-24.8,24.2c-1.1,1-2.4,1.5-3.9,1.5h-21.1l-8.6-25.6 l-10.9,31.4c-0.9,2.5-2.7,3.8-5.3,3.8H447.5z"></path> <path style="fill:#EE2859;" d="M591,633.3l22.1-64.8c-0.4-0.6-4.2-3.2-7.3-5.2c-1.1-0.9-0.6-2.5,0.8-2.5h100.5l-6.1,17.6 c-0.9,2.4-2.9,3.8-5.3,3.8h-66.2c-1.4,0-1.9,1.6-0.9,2.5l6.8,6.2l-1.9,5.2h43.3l-4.9,14.2c-0.9,2.4-2.9,3.8-5.3,3.8h-45.2 c-1.4,0-1.9,1.5-1,2.4l4.7,4.3l-2.5,7.2h61.4l-6.2,17.6c-0.9,2.5-2.7,3.8-5.3,3.8h-70C594.2,649.3,588.3,641.1,591,633.3z"></path> <path style="fill:#EE2859;" d="M698.2,649.3l7.5-18c0.9-2.2,2.8-3.5,5.2-3.5l61.6,0.1c1.4,0,2.2-0.5,2.5-1.6l3.4-9.9 c0.4-1,0-1.5-1.4-1.5h-43c-13.2,0-22.4-8.1-18-20.2l4.7-13.8c3.7-11,14.8-20.1,29-20.1h72.9c-2.2,6.5-3.7,11-5.7,17.5 c-0.9,2.7-2.7,3.9-5.3,3.9h-70c-1.4,0-1.9,1.6-0.9,2.5l6.5,5.8l-1,3.2c-0.4,1,0.1,1.5,1.4,1.5h43.2c13,0,22.3,8.1,17.8,20.2 l-4.7,13.8c-4,10.8-13.5,20.1-28.1,20.1H698.2z"></path> </g> </svg> 