<?xml version="1.0" encoding="UTF-8"?> <svg xmlns="http://www.w3.org/2000/svg" xmlns:xlink="http://www.w3.org/1999/xlink" version="1.1" id="Layer_1" x="0px" y="0px" viewBox="0 0 1000 1000" style="enable-background:new 0 0 1000 1000;" xml:space="preserve"> <path style="fill:#EA3358;" d="M560.8,427.9c3.4,25,10,48.4,19.6,71.6c-19.2-4.5-38.2-4.5-57.5,0c9.7-23.1,16.2-46.7,19.7-71.5 c-3.4,2.7-6.3,5.3-9.4,7.6c-39.4,28.4-95.2,5.7-102.7-42.1c-5.5-35.2,5.1-65.4,31.9-89.3c15.2-13.6,30.9-26.7,46.2-40.2 c13.5-12,26.4-24.6,36.6-39.7c2.3-3.4,4.3-6.9,6-9.8c4.7,6.8,9.1,14.2,14.4,20.8c9.8,12.4,21.6,23,33.6,33.2 c14.1,12.1,28.3,24.2,42.4,36.2c18.7,16,28.8,36.6,32,60.7c2.3,17.2,0.9,34.1-8.1,49.3c-13.9,23.6-35.2,34.4-62.5,32.8 c-15.5-0.9-28.8-7.4-40.1-17.9C562.4,429.2,561.9,428.8,560.8,427.9z"></path> <path style="fill:#EA3358;" d="M323,501.4c-4.5,0.6-8.9,1.1-13.8,1.8c0-1.2,0-2.2,0-3.1c0-136.2,0-272.3,0-408.5 c0-28.2,21.4-49.6,49.5-49.6c128.4,0,256.8,0,385.2,0c15.5,0,28.4,5.9,38.4,17.8c8.1,9.6,11.3,20.9,11.3,33.4c0,67,0,134.1,0,201.1 c0,46,0,91.9,0,137.9c0,2.1-0.6,3.5-2.2,4.9c-3.7,3-7.3,6.2-11.6,9.8c0-1.8,0-3,0-4.1c0-116.9,0-233.8,0-350.8 c0-16.6-9.8-30.3-25.2-34.8c-3-0.9-6.3-1.4-9.4-1.4c-129.3-0.1-258.6-0.1-388,0c-18.6,0-34.3,15.8-34.3,34.5 c0,135.8,0,271.6,0,407.4C323,498.7,323,499.9,323,501.4z"></path> <path style="fill:#EA3358;" d="M248.6,521.4c-2.3-8.4-4.5-16.5-6.7-24.7c-12.7-47.4-25.4-94.8-38.2-142.2 c-10.7-39.8-21.3-79.5-31.9-119.3c-1.9-7-4.1-14.1-4.9-21.2c-2.8-23.7,12.3-45.7,35.5-52c26.4-7.2,52.8-14.2,79.3-21.3 c3.1-0.8,6-0.8,8.2,1.8c1.7,2,2.2,4.4,1.2,6.9s-2.9,3.7-5.5,4.4c-26.3,7-52.7,14.1-79,21.2c-19.1,5.1-30.3,23.9-25.3,43 c15.8,59.4,31.8,118.7,47.7,178.1c9.9,37,19.8,74.1,29.7,111.2c0.6,2.4,1.2,4.8,1.9,7.1c0.4,1.2,0.3,2-1.1,2.5 C256.2,518.2,252.6,519.8,248.6,521.4z"></path> <path style="fill:#EA3358;" d="M367.2,152.9c2.9,5.4,8,9,12.5,13c3.4,3,6.8,5.8,8.1,10.6c1.7,6.2,0.7,11.7-3.4,15 c-4.4,3.5-9,3.5-15.8-0.3c1.1,4.1,2,7.8,3,11.6c-3.1,0-6.1,0-9.4,0c1-3.8,2-7.5,3.1-11.7c-3.6,2.3-6.8,3.7-10.5,3 c-7.3-1.4-11.3-9-9.1-16.5c1.5-5.2,4.9-8.5,8.7-11.8c2.3-1.9,4.6-3.8,6.8-6C363.4,157.6,365.2,155.2,367.2,152.9z"></path> <path style="fill:#EA3358;" d="M256.2,310.9c-3.1,0.8-6,1.6-9.2,2.5c0-3.8,0-7.6,0-11.7c-2.1,1.5-3.6,3.1-5.5,3.9 c-8.3,3.6-16.3-1.8-17-11.3c-0.3-4.3,0.8-8.3,3.3-11.8c2.1-3,4.2-5.9,6.1-9.1c1.8-2.9,3.2-6.1,4.9-9.3c5.6,5.4,13.3,7.6,20.2,11.5 c5.5,3,8.3,7.9,8.6,14c0.5,7.6-7.1,13.5-14.6,11.6c-0.8-0.2-1.5-0.5-3.1-1C252.3,304.2,254.2,307.5,256.2,310.9z"></path> <path style="fill:#EA3358;" d="M369.8,81.4c4.9,13.2,9.7,26.4,14.5,39.5c0.5,1.3,1.1,2.5,1.5,3.8c1.3,3.7,3.2,6.6,7.7,6.5 c0,1.2,0,2.1,0,3.1c-7.6,0-15.1,0-22.8,0c0-0.9,0-1.9,0-2.9c0.7-0.2,1.4-0.3,2.1-0.5c1.8-0.5,2.6-1.6,2-3.5c-1-2.9-2-5.9-3.1-8.7 c-0.2-0.6-1.3-1.2-2-1.2c-3.9-0.1-7.8-0.1-11.8,0c-0.8,0-1.9,0.9-2.2,1.6c-1,2.3-1.8,4.8-2.5,7.2c-0.8,2.8-0.3,3.8,2.7,4.4 c2.1,0.4,2.9,1.2,2.1,3.5c-5.8,0-11.7,0-17.7,0c0-1,0-1.8,0-3.1c5.6,0.3,7.1-3.8,8.7-7.9c5-12.7,10.2-25.3,15.1-38 C365.3,82.6,366.8,81.3,369.8,81.4z M357.8,112.8c4.1,0,7.8,0,11.9,0c-1.9-5.5-3.7-10.8-5.5-16.1c-0.2,0-0.4,0-0.6,0 C361.8,102,359.9,107.2,357.8,112.8z"></path> <path style="fill:#EA3358;" d="M232.3,192.6c0.3,1.1,0.5,1.9,0.7,2.6c-0.1,0.2-0.2,0.4-0.3,0.5c-5,2.4-5.1,2.6-3.8,7.9 c2.8,10.8,5.8,21.6,8.4,32.5c2.4,10-1.5,19.2-9.8,24.5c-0.5,0.3-1.1,0.6-1.8,1c-0.6-0.8-1.2-1.6-2-2.6c6.3-4.6,5.3-10.9,3.8-17 c-2.9-12-6.1-24-9.4-35.9c-1.3-4.8-2.1-5.1-8.2-4.4c-0.2-0.9-0.5-1.8-0.8-2.8C216.9,196.7,224.5,194.7,232.3,192.6z"></path> <path style="fill:#EA3358;" d="M308.3,537.4c26.6,0,53.2,0,79.7,0c1.7,0.5,3.5,1.1,5.2,1.5c12.7,2.7,23.1,8.7,30.6,19.8 c8.9,13.2,10,28.1,10.1,43.2c0.1,58.9,0.1,117.7,0,176.6c0,2.4-0.2,4.8-0.3,7.4c-19.7,0-38.8,0-58.6,0c0-2.8,0-5.2,0-7.7 c0-55.6,0-111.1,0-166.7c0-17.2,0-17-16.8-17.3c-6.1-0.1-8,1.4-8,7.9c0.3,58.7,0.2,117.3,0.1,176c0,2.6-0.2,5.2-0.4,7.8 c-20,0-39.3,0-59.1,0c0-2.9,0-5.3,0-7.8c0-56.6,0-113.2,0-169.8c0-2.1,0.6-4.5-0.3-6.1c-1.3-2.5-3.4-6.1-5.6-6.4 c-6.3-0.9-12.8-0.3-19.8-0.3c0,64,0,127.1,0,190.3c-18.9,0-37.2,0-55.9,0c-0.1-2.4-0.3-4.4-0.3-6.4c0-78.5,0-157,0-235.4 c0-2.2,0.7-4.4,1-6.6c29,0,58.1,0,87.1,0c1.6,2.2,3.1,4.5,5,7.2C304.5,541.9,306.4,539.7,308.3,537.4z"></path> <path style="fill:#EA3358;" d="M491,537.4c20.4,0,40.9,0,61.3,0c1.1,0.5,2.2,1.1,3.3,1.4c11.1,3.1,19.8,9.4,26,19.3 c7.8,12.4,9,26.3,9,40.4c0.1,60.3,0,120.6,0,180.9c0,2.2-0.3,4.3-0.4,6.4c-18,0-35.2,0-53,0c0-29.3,0-58.2,0-87.1 c-12.7,0-24.8,0-37.6,0c0,29.3,0,58.1,0,87c-18.7,0-36.7,0-55.2,0c0-3,0-5.5,0-7.9c0-58.9-0.1-117.7,0.1-176.6 c0-7.6,0.6-15.3,2.3-22.7c3.7-16.3,11.4-30.1,27.7-36.8C479.8,539.6,485.6,538.8,491,537.4z M536.4,645.3c0-13.5,0.2-26.5-0.1-39.4 c-0.2-9.3-8-15.4-18.7-15.3c-10.7,0.1-17.6,5.9-17.9,15.3c-0.3,9.3-0.1,18.5-0.1,27.8c0,3.8,0,7.6,0,11.6 C512.3,645.3,523.9,645.3,536.4,645.3z"></path> <path style="fill:#EA3358;" d="M689.8,537.4c20,0,40.1,0,60.1,0c0.2,0.8,0.5,1.6,0.5,2.4c0,64.2,0.2,128.4-0.3,192.6 c-0.1,14.6-6.5,27-18.2,36.4c-14.7,11.8-31.8,16.7-50,17.3c-24.1,0.8-48.2,0.2-72.3,0.2c-1.4,0-2.8-0.3-4.8-0.5c0-2.4,0-4.7,0-6.9 c0-78.2,0-156.5,0-234.7c0-2.3,0.2-4.5,0.3-6.8c18.8,0,37.6,0,56.4,0c0.1,2.7,0.4,5.3,0.4,8c0,59.1,0,118.1,0,177.2 c0,2.6,0,5.2,0,8.2c4,0,7.1,0,10.1,0c11,0,16.1-4.6,17.2-15.7c0.2-2,0.1-4.1,0.1-6.2c0-54.5,0-109.1,0-163.6 C689.3,542.8,689.6,540.1,689.8,537.4z"></path> <path style="fill:#EA3358;" d="M824.7,537.4c0.1,2.1,0.4,4.1,0.4,6.2c0,77.5,0,154.9,0,232.4c0,2,0,4,0,6.4c-19.1,0-37.6,0-56.7,0 c-0.2-1.7-0.5-3.4-0.5-5.2c0-78.3,0-156.6,0-234.8c0-1.6,0.3-3.3,0.4-4.9C787.1,537.4,805.9,537.4,824.7,537.4z M795.6,550.7 c-7.6,0-13.9,6-14,13.3c-0.1,7.2,6.4,14.1,13.4,14.3c6.9,0.2,13.9-6.7,13.9-13.8C809.1,557,803,550.7,795.6,550.7z"></path> <g> <path style="fill:#EA3358;" d="M211.8,807.9c5.6-1,18.2-2.1,29.8-2.1c14.4,0,22.2,1.3,29.3,4.8c7.1,3.3,12.6,9.7,12.6,19.1 c0,8.3-5,16-16.1,19.9v0.3c10.7,2.7,19.5,10.7,19.5,23.4c0,8.9-4.5,15.9-10.8,20.6c-7.4,5.4-19.4,8.3-39.2,8.3 c-11.7,0-20.1-0.8-25.1-1.5V807.9z M233.9,843.6h7.9c12.9,0,19.1-4.4,19.1-11.2c0-7.3-6.2-10.5-16.5-10.5c-5.5,0-8.5,0.3-10.4,0.7 v21H233.9z M233.9,885.4c2.3,0.4,5.3,0.4,9.6,0.4c10.4,0,19.8-3.5,19.8-13.5c0-9.4-9.1-12.8-20.9-12.8H234v25.9L233.9,885.4 L233.9,885.4z"></path> <path style="fill:#EA3358;" d="M301.6,800.7h22.3V901h-22.3V800.7z"></path> <path style="fill:#EA3358;" d="M384.2,901.1l-1.3-6.8h-0.5c-4.7,5.5-12.3,8.5-21.1,8.5c-15.2,0-23.5-10.5-23.5-21 c0-17.8,16-26.7,43.2-26.6v-0.7c0-3.1-1.6-8.7-13.5-8.7c-7.5,0-15.8,2.7-20.6,5.5l-4.1-14.1c5.1-2.9,14.9-6.4,28.4-6.4 c23.5,0,32,13.1,32,30v23.4c0,6.9,0.4,13.3,1.1,16.9L384.2,901.1L384.2,901.1z M381.6,868.9c-12.9-0.1-21.7,2.8-21.7,10.5 c0,5.1,3.6,7.9,9.1,7.9c6,0,10.8-4.1,12.2-8.5c0.3-1.2,0.4-2.6,0.4-3.8V868.9z"></path> <path style="fill:#EA3358;" d="M477.4,899.2c-4.5,2.1-12.5,3.6-21.6,3.6c-23.8,0-38.8-14.1-38.8-35.3c0-19.7,14.1-36.6,41.8-36.6 c6.1,0,13,1,18.4,3l-3.6,16.3c-2.9-1.4-7.2-2.5-13.6-2.5c-12.1,0-20,7.9-19.9,18.9c0,12.7,9.5,19,20.4,19c5.9,0,10.4-1,14.1-2.5 L477.4,899.2z"></path> <path style="fill:#EA3358;" d="M512.8,861.1h0.3c1.7-2.5,3.6-5.4,5.4-7.8l15.6-20.8h27.5L534.4,860l31.6,41.1h-28.1L519,872.9 l-6.2,7.1v21.1h-22.3V800.7h22.3V861.1z"></path> <path style="fill:#EA3358;" d="M557.8,913.4c6.3-0.5,11-2,13.8-4.8c3.3-3.3,4.6-9,4.6-23.7v-52.5h22.3v58.2 c0,14.8-3.3,24.6-9.8,30.9c-6.8,6.4-17.3,9.2-28.7,9.2L557.8,913.4z M599.2,813.1c0,5.9-4.4,10.9-12.1,10.9 c-7.3,0-11.8-5-11.8-10.9c0-6.1,4.5-10.9,12-10.9C594.8,802.2,599.1,807,599.2,813.1z"></path> <path style="fill:#EA3358;" d="M658.4,901.1l-1.3-6.8h-0.5c-4.7,5.5-12.3,8.5-21.1,8.5c-15.2,0-23.5-10.5-23.5-21 c0-17.8,16-26.7,43.2-26.6v-0.7c0-3.1-1.6-8.7-13.5-8.7c-7.5,0-15.8,2.7-20.6,5.5l-4.1-14.1c5.1-2.9,14.9-6.4,28.4-6.4 c23.5,0,32,13.1,32,30v23.4c0,6.9,0.4,13.3,1.1,16.9L658.4,901.1L658.4,901.1z M655.8,868.9c-12.9-0.1-21.7,2.8-21.7,10.5 c0,5.1,3.6,7.9,9.1,7.9c6,0,10.8-4.1,12.2-8.5c0.3-1.2,0.4-2.6,0.4-3.8V868.9z"></path> <path style="fill:#EA3358;" d="M751.6,899.2c-4.5,2.1-12.5,3.6-21.6,3.6c-23.8,0-38.8-14.1-38.8-35.3c0-19.7,14.1-36.6,41.8-36.6 c6.1,0,13,1,18.4,3l-3.6,16.3c-2.9-1.4-7.2-2.5-13.6-2.5c-12.1,0-20,7.9-19.9,18.9c0,12.7,9.5,19,20.4,19c5.9,0,10.4-1,14.1-2.5 L751.6,899.2z"></path> <path style="fill:#EA3358;" d="M787.1,861.1h0.3c1.7-2.5,3.6-5.4,5.4-7.8l15.6-20.8h27.5L808.7,860l31.6,41.1h-28.1l-18.9-28.2 l-6.2,7.1v21.1h-22.3V800.7h22.3V861.1z"></path> </g> </svg> 