<?xml version="1.0" encoding="UTF-8"?> <svg xmlns="http://www.w3.org/2000/svg" xmlns:xlink="http://www.w3.org/1999/xlink" version="1.1" id="Layer_1" x="0px" y="0px" viewBox="0 0 1000 1000" style="enable-background:new 0 0 1000 1000;" xml:space="preserve"> <g> <g> <path style="fill:#EA3358;" d="M292.4,281.7L107.6,153.3c-5.5-3.5-10.5-5-14-3.5c-2.5,1-4.5,4-6,7.5c-0.5,1.5-1,3-1,5L47.7,418 c-2.5,17,7.5,40.5,21.5,49.9l184.8,128.4l0,0c5,3.5,10.5,5,14,3.5c3.5-1.5,6-6,7-12.5l39-255.7 C316.4,314.7,306.4,291.2,292.4,281.7z M131.6,434c-2,13.5-10,22-20.5,22c-4.5,0-9.5-1.5-14-5c-15-10.5-25-34-22-53.4 c2-13.5,10-22,20.5-22c4.5,0,9.5,1.5,14,5C124.6,391.1,134.6,415,131.6,434z M206.5,391.1c-2,13.5-10,21.5-20.5,21.5 c-4.5,0-9.5-1.5-14-5c-15-10.5-25-34-22-53.4c2-13.5,10-21.5,20.5-21.5c4.5,0,9.5,1.5,14,5C199.5,347.6,209.5,371.6,206.5,391.1z M281.4,347.6c-2,13.5-10,22-20.5,22c-4.5,0-9.5-1.5-14-5c-15-10.5-25-34-22-53.4c2-13.5,10-21.5,20.5-21.5c4.5,0,9.5,1.5,14,5 C274.4,304.7,284.4,328.6,281.4,347.6z"></path> <path style="fill:#EA3358;" d="M476.2,474.5L476.2,474.5L476.2,474.5c10.5-21,34.5-37.5,57.9-40.5c0.5,0,1,0,1.5,0 c2,0,4-0.5,6-0.5h32L603,241.2c0-1.5,0.5-3,0.5-5c0-4-1.5-7-3.5-9c-3-2.5-8-3-14-1l-214.8,67.4c-16.5,5-33,24.5-35.5,41.5 l-39.5,255.7c-1,6.5,0,11.5,3,14c3,2.5,7.5,3,13.5,1h0.5l116.9-36.5L476.2,474.5z M494.2,326.6c3-19.5,20-39.5,37.5-44.9 c9.5-3,18.5-1,23.5,5c4.5,5,6,13,4.5,21.5c-3,19.5-20,39.5-37.5,44.9c-3,1-6,1.5-8.5,1.5c-6,0-11.5-2-15-6.5 C494.7,343.1,492.7,335.6,494.2,326.6z M410.8,506.4c-3,19.5-20,39.5-37.5,44.9c-3,1-6,1.5-8.5,1.5c-6,0-11.5-2-15-6.5 c-4.5-5-6-13-4.5-21.5c3-19.5,20-39.5,37.5-44.9c9.5-3,18.5-1,23.5,5C410.3,490,412.3,497.5,410.8,506.4z"></path> <path style="fill:#EA3358;" d="M119.6,135.4l184.8,128.4c14.5,10,42.5,14.5,59.4,9l214.8-67.4c6.5-2,9-5,9.5-6c0-1-1-3-3-5 c-1.5-1-2.5-2.5-4-3.5L396.3,63c-10-7-26.5-11.5-42-11.5c-6.5,0-12.5,1-17.5,2.5l-214.8,66.9l0,0l0,0c-1.5,0.5-3,1-4.5,2 c-3,1.5-4.5,3-4.5,4C112.6,128.4,114.1,131.4,119.6,135.4z M305.4,148.4c1-6.5,7-12,16-15c5.5-1.5,11.5-2.5,18-2.5 c15,0,31,4.5,41,11.5c8,5.5,12,12.5,11,19c-1,6.5-7,12-16,15c-5.5,1.5-11.5,2.5-18,2.5l0,0c-15,0-31-4.5-41-11.5 C308.4,161.8,304.4,154.8,305.4,148.4z"></path> <path style="fill:#EA3358;" d="M657.5,658.8l-92.9-118.9l-7-8.5l-7-8.5l-32.5-41.5c-4-5-8.5-7.5-12.5-7.5c-3,0.5-5.5,2.5-8,5.5 c-1,1.5-2,3-2.5,4l-37,75.9l-6.5,13.5l-6.5,13.5l-62.9,129.8c-7.5,15.5-5,41,6,54.4l138.8,177.3l0,0c0.5,0.5,1,1.5,2,2 c0.5,0.5,1,1,1.5,1.5c3,3,6.5,4,9,4c4-0.5,7.5-4,10.5-9.5L663,713.2C670.5,697.7,668,672.2,657.5,658.8z M457.7,757.2 c-4.5,9.5-12,15-19.5,15c-6,0-12-3.5-16.5-9c-11-14-13.5-39.5-5.5-56.4c4.5-9.5,12-15,19.5-15c6,0,12,3.5,16.5,9 C463.7,714.2,466.2,739.7,457.7,757.2z M487.7,562.4c1-4,2-8,3.5-11.5c0-0.5,0.5-1,0.5-1.5c4.5-9,11.5-14,19-14 c4,0,8,1.5,11.5,4.5c2,1.5,3.5,3,5,5c1,1,2,2.5,2.5,4c2,3,3.5,6.5,4.5,10c4.5,13.5,4,30.5-2,43c-4.5,9.5-12,15-19.5,15 c-6,0-12-3.5-16.5-9c-7-8.5-10-21-10-33.5C486.7,570.4,486.7,566.4,487.7,562.4z M500.7,686.7c4.5-9.5,12-15,19.5-15 c6,0,12,3.5,16.5,9c11,14,13.5,39.5,5.5,56.4c-4.5,9.5-12,15-19.5,15c-6,0-12-3.5-16.5-9C494.7,729.7,492.2,704.2,500.7,686.7z M551.1,873.5c-4.5,9.5-12,15-19.5,15c-6,0-12-3.5-16.5-9c-11-14-13.5-39.5-5.5-56.4c4.5-9.5,12-15,19.5-15c6,0,12,3.5,16.5,9 C557.1,831.1,559.6,856.5,551.1,873.5z M626.5,718.2c-4.5,9.5-12,15-19.5,15c-6,0-12-3.5-16.5-9.5c-11-14-13.5-39.5-5.5-56.4 c4.5-9.5,12-15,19.5-15c6,0,12,3.5,16.5,9C632.5,675.7,634.5,701.2,626.5,718.2z"></path> <path style="fill:#EA3358;" d="M967.1,697.7c-2-3.5-7-5-13-5l0,0l-225.2,1c-17,0-38.5,13.5-45.9,29L570.1,955.4c-3,5.5-3,11-1,14 c2,3.5,7,5,13,5l0,0l225.2-0.5c17,0,38.5-13.5,45.9-29l112.9-232.7c0.5-1.5,1-3,1.5-4.5C968.6,703.7,968.6,700.2,967.1,697.7z M693.4,913.5c-8.5,17-29.5,31-47.4,31c-18,0-26-14-17.5-31.5c8.5-17,29.5-31,47.4-31C693.9,882,701.4,896,693.4,913.5z M731.4,834.6c-8.5,17-29.5,31-47.4,31c-18,0-26-14-17.5-31.5c8.5-17,29.5-31,47.4-30.5C731.9,803.6,739.4,817.6,731.4,834.6z M721.9,787.1c-18,0-26-14-17.5-31.5c8.5-17,29.5-31,47.4-30.5c18,0,26,14,17.5,31.5C760.9,773.6,739.9,787.1,721.9,787.1z M836.3,914.5c-8.5,17-29.5,31-47.4,30.5c-18,0-26-14-17.5-31.5c8.5-17,29.5-31,47.4-31C836.8,883.5,844.3,897.5,836.3,914.5z M874.2,836.1c-8.5,17-29.5,31-47.4,31c-18,0-26-14-17.5-31.5c8.5-17,29.5-31,47.4-30.5C874.7,805.1,882.7,819.1,874.2,836.1z M912.2,757.7c-8.5,17-29.5,31-47.4,30.5c-18,0-26-14-17.5-31.5c8.5-17,29.5-31,47.4-30.5C912.7,726.2,920.7,740.2,912.2,757.7z"></path> <path style="fill:#EA3358;" d="M741.9,639.3L741.9,639.3L741.9,639.3z"></path> <path style="fill:#EA3358;" d="M581.6,455h-11h-28.5c-1.5,0-3.5,0-5.5,0.5c-3,0.5-5,1.5-5.5,2.5c-0.5,1,0,5,4.5,10.5l27,34.5 l7.5,10l7.5,9.5l96.9,123.4c11,14,36.5,26.5,54.4,26.5l0,0l225.2-1c7,0,10-2,10.5-3c0.5-1,0-3-1.5-6c-1-1.5-2-3-3-4.5L821.3,480.5 c-11-14.5-36-26.5-54.4-26.5l-174.8,0.5L581.6,455z M830.3,599.8c2.5-5,8.5-8,17.5-8c18,0,41,11,51.4,25c5.5,7,7,13.5,4.5,18.5 s-8.5,8-17.5,8l0,0c-17.5,0-40.5-11-51.4-25C829.3,611.3,827.8,604.8,830.3,599.8z M738.4,488.5c2.5-5,8.5-8,17.5-8 c18,0,41,11,51.4,25c5.5,7,7,13.5,4.5,18.5c-2.5,5-8.5,8-17.5,8l0,0c-17.5,0-40.5-11-51.4-25C737.9,499.9,736.4,493.5,738.4,488.5 z M685.9,596.8c2.5-5,8.5-8,17.5-8c18,0,41,11,51.4,25c5.5,7,7,13.5,4.5,18.5c-2.5,5-8.5,8-17.5,8l0,0c-17.5,0-40.5-11-51.4-25 C685.4,608.3,683.4,601.8,685.9,596.8z M594.5,485.5c2.5-5,8.5-8,17.5-8l0,0c17.5,0,40.5,11,51.4,25c5.5,7,7,13.5,4.5,18.5 c-2.5,5-8.5,8-17.5,8l0,0c-17.5,0-40.5-11-51.4-25C593.5,497,592.1,490.5,594.5,485.5z"></path> </g> </g> </svg> 