<svg class="S" xmlns="http://www.w3.org/2000/svg" xml:space="preserve" id="design" x="0" y="0" version="1.1" viewBox="0 0 126 126"><style>.st0{fill:#155396}.st4{fill:#f5d2aa}</style><path d="M61.2 41.3h4.9V46h-4.9zm2.4 24L67 58l-.5-10.8h-5.6L60.4 58zM18 78.6h90.1v9.6H18z" class="st0"/><path fill="#104175" d="M76.7 118.5H49.1L31.3 93.6h63.2z"/><path fill="#b73535" d="m86.2 45.9-11.7-4.6-10.9 24-10.7-24-11.7 4.6-8.3 10.2V74h56.5l-.1-2.4-4.5-5.4c-1.3.6-3.8 1-4.8-.2l-3.7-4.5c-1.2-1.4-1.9-3.8.4-6.2 2.4-2.4 5.3-.5 6.5.9l3.7 4.5c1 1.2-.1 3.3-.9 4.4l4.9 5.8.1 3h3.5V56.1l-8.3-10.2z"/><path fill="#ecc19c" d="M50.5 25.2c2 7.3 7 12.9 13.1 12.9 6 0 11.2-5.7 13.2-13h.1c.6 0 2.2-1.8 2.2-4s-.5-4-1-4c-.1 0-.3.1-.4.3C77.1 8.2 71 2.9 63.6 2.9c-7.4 0-13.4 5.3-13.9 14.6-.1-.1-.2-.2-.3-.2-.6 0-1 1.8-1 4 0 2.1 1.5 3.9 2.1 3.9z"/><path d="M78 17.3c-.1 0-.3.1-.4.3-.5-9.4-6.6-14.7-14-14.7-.1 0 .1 0 0 0v35.3c.1 0-.1 0 0 0 6 0 11.2-5.7 13.2-13h.1c.6 0 2.2-1.8 2.2-4-.1-2.1-.6-3.9-1.1-3.9z" class="st4"/><path d="M63.6 78.6h44.5v9.6H63.6zm13.1 39.9H63.6V93.6h30.9z" opacity=".2"/><path fill="#185fab" d="M31.3 88.2h63.2v5.4H31.3z"/><path fill="#912a2a" d="m63.6 65.3-10.7-24-11.7 4.6-8.3 10.2V74h30.7z"/><path d="M88.3 123.1H37.7c-2.1 0-3.8-1.7-3.8-3.8v-15.8c0-2.1 1.7-3.8 3.8-3.8h50.6c2.1 0 3.8 1.7 3.8 3.8v15.8c.1 2.1-1.7 3.8-3.8 3.8z" class="st0"/><path d="M89.5 102.3v18.2h-53v-18.2z" class="st4"/><path d="m45.7 117.3-3.5-11.7h3.3l1.2 5.1c.2.6.3 1.2.4 1.9.1.6.3 1.2.4 1.9h.1c.2-.6.3-1.3.4-1.9.1-.6.3-1.2.4-1.9l1.2-5.1h3.2l-3.5 11.7h-3.6zm13.1.2c-.8 0-1.6-.1-2.2-.4-.7-.3-1.2-.7-1.7-1.2s-.8-1.2-1.1-1.9c-.3-.8-.4-1.6-.4-2.6s.1-1.8.4-2.6c.3-.8.6-1.4 1.1-1.9.5-.5 1-.9 1.7-1.2.7-.3 1.4-.4 2.2-.4.8 0 1.5.1 2.2.4.7.3 1.2.7 1.7 1.2s.8 1.2 1.1 1.9c.3.7.4 1.6.4 2.6s-.1 1.8-.4 2.6c-.3.8-.6 1.4-1.1 1.9-.5.5-1.1.9-1.7 1.2-.6.3-1.4.4-2.2.4zm0-2.7c.7 0 1.3-.3 1.7-.9.4-.6.6-1.5.6-2.5 0-1.1-.2-1.9-.6-2.5-.4-.6-1-.9-1.7-.9s-1.3.3-1.7.9c-.4.6-.6 1.4-.6 2.5s.2 1.9.6 2.5 1 .9 1.7.9zm9.3 2.5v-9.1H65v-2.6h9.3v2.6h-3.1v9.1h-3.1zm7.9 0v-11.7h7.6v2.6h-4.5v1.8h3.8v2.6h-3.8v2.1h4.7v2.6H76z" class="st0"/></svg>